<svg version="1.1" xmlns="http://www.w3.org/2000/svg" viewBox="0 0 500.7763605440655 584.3562283668532" width="500.7763605440655" height="584.3562283668532">
  <!-- svg-source:excalidraw -->
  
  <defs>
    <style class="style-fonts">
      @font-face {
        font-family: "Virgil";
        src: url("https://excalidraw.com/Virgil.woff2");
      }
      @font-face {
        font-family: "Cascadia";
        src: url("https://excalidraw.com/Cascadia.woff2");
      }
    </style>
  </defs>
  <g stroke-linecap="round" transform="translate(10 10) rotate(0 240.38818027203274 282.1781141834266)"><path d="M-0.27 -0.72 C97.83 2.36, 197.96 1.01, 480.24 0.91 M-0.79 0.17 C157.45 1.57, 314.45 1.81, 481.21 0.72 M480.66 -0.07 C479.47 207.73, 478.62 417.87, 480.92 563.19 M481.09 0.25 C480.09 117, 481.09 234.19, 480.13 564.43 M481.38 563.88 C339.79 565.27, 202.45 563.64, -0.31 565.37 M481.18 564.49 C365.6 561.91, 248.64 562, 0.07 563.78 M-1.44 565.18 C1.22 391.55, 1.06 215.89, 1.02 0.91 M0.47 564.13 C1.79 398.27, 2.7 231.16, -0.45 -0.53" stroke="#000000" stroke-width="1" fill="none"></path></g><g stroke-linecap="round" transform="translate(307.7232092881154 50.11562851383155) rotate(0 62.56431045898353 62.564310458983414)"><path d="M15.81 20.37 C15.81 20.37, 15.81 20.37, 15.81 20.37 M15.81 20.37 C15.81 20.37, 15.81 20.37, 15.81 20.37 M8.29 34.25 C12.71 28.43, 20.1 19.07, 29.14 12.09 M7.36 34.81 C14.46 28.14, 20.14 21.85, 28.57 10.16 M3.2 46.44 C10.57 37.23, 22.11 25.26, 41.98 3.48 M3.46 46.81 C16.73 31.57, 29.56 16.88, 40.15 5.22 M0.79 55.5 C14.56 39.86, 24.73 27.57, 44.09 4.58 M2.8 53.45 C18.18 35.92, 32.69 19.54, 46.64 3.82 M3.78 60.1 C16.02 42.49, 34.03 26.62, 51.2 3.94 M2.64 58.72 C15.52 45.24, 28.61 30.34, 51.24 2.12 M3.47 66.35 C23.58 41.35, 43.58 19.05, 58.15 0.64 M3.6 66.44 C14.17 51.73, 27.29 37.59, 57.58 2.73 M4.04 71.57 C19.12 52.75, 39.82 31.64, 64.99 0.72 M2.55 71.58 C16.6 56.46, 29.17 41.43, 64.34 2.63 M3.01 76.55 C21 57.61, 37.11 37.3, 67.43 3.19 M3.49 78 C19.15 60.27, 33.27 41.4, 68.18 2.7 M4.12 80.04 C29.95 55.05, 55.42 24.43, 72.46 4.54 M5.01 80.46 C23.79 60.2, 40.18 41.33, 71.87 3.71 M5.78 87.03 C33.25 56.52, 59.09 27.15, 77.96 6.21 M7.17 86.34 C30.09 57.92, 54.62 28.26, 76.42 5.32 M10.66 90.48 C27.42 70.26, 43.98 48.41, 81.17 7.36 M9.63 88.94 C28.47 67.61, 49.03 44.15, 79.97 6.32 M10.73 94.79 C33.08 66.28, 56.94 41.78, 86.2 8.39 M11.16 92.43 C36.89 63.55, 65.09 31.11, 85.94 7.65 M12.22 98.36 C27.92 77.55, 45.92 59.51, 87.85 7.89 M13.13 97.88 C41.69 65.73, 70.21 32.17, 89.19 8.9 M13.97 99.54 C34.48 76.64, 56.24 53.4, 93.8 11.69 M14.36 100.73 C38.28 73.51, 60.84 46.77, 92.84 10.79 M17.77 106.14 C45.55 70.78, 72.92 36.99, 96.41 13.83 M15.94 103.84 C39.26 79.18, 61.42 53.26, 96.49 11.67 M20.03 107.97 C52.08 72, 86.96 33.18, 102.93 13.57 M19.39 107.43 C36.42 88.52, 52.73 68.93, 100.98 14.04 M21.44 111.02 C51.58 78.98, 78.34 48.11, 101.96 17.91 M22.88 108.89 C54.75 75.6, 83.46 39.82, 103.3 16.58 M26.67 110.04 C46.64 88.1, 66.66 65.79, 105.63 18.02 M27.32 112.75 C53.65 81.02, 81.53 48.32, 107.34 20.03 M28.62 115.73 C60.03 81.8, 89.38 48.55, 109.42 22.83 M29.26 113.4 C46.57 94.66, 65.33 73.73, 108.11 22.34 M31.49 115.98 C58.66 87.93, 84.93 58.73, 111.69 26.47 M32.32 115.89 C52.31 96.73, 68.78 75.41, 111.89 25.56 M37.78 117.21 C54.8 99.28, 72.8 77.88, 113.5 29.3 M36.77 118.67 C55.58 97.94, 73.16 76.4, 114.45 28.41 M37.91 122 C64.78 91.95, 87.93 66.77, 116.77 30.88 M39.62 120.82 C67.46 88.95, 93.5 57.29, 117.76 30.72 M43.25 120.68 C70.45 93.73, 94.95 66.27, 120.12 35.03 M44.17 121.05 C62.26 102.44, 80.54 81.78, 120.3 35.99 M48.46 120.79 C67.46 100.56, 84.81 78.96, 119.72 40.23 M48.82 122.72 C69.73 99.36, 90.26 75.23, 120.47 39.34 M55.18 123.6 C81.31 94.53, 103.85 64.57, 121.07 44.24 M53.3 123.85 C73.43 99.95, 96.23 75.18, 122.77 43.55 M56.94 122.58 C72.46 108.29, 87.79 90.88, 124.56 50.23 M58.03 123.08 C83.87 95.71, 108.53 66.05, 123.97 48.76 M63.58 123.69 C80.69 102.35, 103.94 78.87, 125.23 55.39 M63.11 123.43 C83.23 102.7, 101.1 81.31, 125.31 54.53 M68.25 126.08 C89.03 101.49, 113.49 75.6, 126.41 57.08 M67.73 124.59 C83.33 108.9, 98.06 92.29, 124.6 59.55 M73.66 127.66 C86.25 110.4, 100.02 93.95, 124.03 64.68 M73.01 125.86 C91.3 103.02, 111.14 81, 125.15 64.91 M78.44 122.49 C97.56 104.47, 112.99 86.94, 123 71.27 M78.78 123.19 C92.58 108.44, 106.24 92.88, 124.52 73.33 M89.6 121.67 C95.78 110.95, 104.96 102.99, 120.11 81.87 M88.61 119.44 C94.64 111.27, 101.57 104.82, 122.02 80.91 M15.64 103.95 C15.64 103.95, 15.64 103.95, 15.64 103.95 M15.64 103.95 C15.64 103.95, 15.64 103.95, 15.64 103.95 M40.61 119.27 C29.68 112.29, 20.93 102.92, 10.28 95.33 M39.83 120.58 C28.24 110.37, 18.82 100.79, 11.02 94.17 M47.41 121.72 C34.58 108.47, 19.82 95.24, 7.9 85.16 M46.39 120.15 C31.29 106.96, 17.36 94.71, 5.74 85.57 M54.02 124.41 C37.01 104.65, 15.91 89.41, 1.87 76.02 M55.91 122.83 C40.88 109.96, 25.1 96.67, 3.07 75.64 M62.96 122.19 C38.69 103.76, 15.76 82.62, 3.8 72.29 M61.6 123.37 C41.55 104.31, 20.4 87.55, 5.76 73.44 M72.82 125.42 C47.33 106.85, 25.73 90.18, 2.72 67.79 M71.05 124.93 C50.64 108.66, 29.24 90.56, 4.82 67.91 M75.15 124.46 C51.95 103.84, 28.19 81.98, 3.54 62.38 M75.68 123.07 C56.78 108.03, 37.8 91.47, 4.44 61.91 M78.37 121.06 C48.57 96.6, 20.61 69.37, 5.16 56.54 M79.07 122.72 C56.77 102.24, 32.73 82.48, 4.66 56.37 M81.64 122.26 C66 103.43, 46.29 88.22, 5.78 53.59 M83.36 119.49 C65.59 102.77, 45.47 86.38, 5.13 51.99 M88.39 119.34 C61.67 97.5, 36.42 73.89, 5.11 44.79 M87.35 118.12 C60.43 96.24, 33.64 72.38, 3.84 45.81 M91.36 118.76 C64.53 92.09, 35.63 70.02, 3.94 41.52 M91.9 117.01 C70.44 98.53, 47.96 79.19, 5.18 42.92 M97.55 117.22 C62.71 87.86, 28.08 54.53, 6.78 37.84 M95.51 114.69 C73.88 96.14, 52.46 77.19, 7.11 38.5 M100.48 111.99 C82.4 98.07, 62.49 81.27, 9.44 34.62 M99.01 113.69 C72.78 88.63, 45.82 67.01, 9.21 35.5 M102.73 109.21 C69.32 80.36, 36.65 54.65, 13.04 31.97 M102.63 110.31 C66.81 79.07, 31.65 49.24, 11.18 30.49 M104.9 106.87 C80.71 84.56, 52.63 64.77, 12.94 28.21 M105.43 107.17 C69.45 75.48, 34.17 45.6, 12.31 28.19 M105.12 104.56 C84.29 82.97, 61.28 61.94, 15.81 22.89 M107.33 104.36 C81.95 82.66, 57.93 59.44, 15.02 23.96 M108.79 99.07 C81.55 76.27, 55.36 52.27, 15.83 19.1 M109.39 100.62 C73.49 71.04, 37.92 39.76, 15.58 19.66 M113.63 99.4 C80.54 70.45, 46.63 40.4, 20.25 18.46 M113.23 97.84 C88.96 76, 63.2 56.15, 20.14 18.05 M114.58 93.8 C76.86 64.25, 42.36 30.55, 21.32 16.19 M114.62 95.52 C83.43 66.47, 53.61 40.07, 23.16 15.44 M116.92 92.7 C95.08 72.23, 71.63 51.27, 24.8 10.71 M116.92 91.32 C84.92 65.91, 54.96 37.11, 26.5 12.76 M119.67 86.46 C91.1 65.37, 66.87 44.28, 28.78 8.66 M119.1 88.24 C85.42 59.15, 54.31 30.82, 30.63 10.07 M121.15 84.27 C85.72 55.24, 53.13 23.71, 33.36 8.54 M119.75 83.02 C91.78 59.29, 66.02 36.43, 32.85 7.74 M119.47 77.25 C97.48 61.69, 74.53 41.94, 38.65 5.13 M120.06 78.75 C90.04 53.47, 58.89 26.45, 37.84 6.29 M123 74.72 C99.06 51.04, 72.82 34.11, 42.33 4.35 M122.83 74.64 C104.57 59.96, 86.55 44.55, 39.64 2.88 M124.16 71.87 C96.04 47.67, 63.73 19.42, 47.09 1.05 M124.74 71.22 C100.65 49.42, 76.61 27.16, 45.65 2.44 M125.38 66.16 C100.56 46.26, 74.46 21.59, 50.65 3.28 M124.78 66.17 C102.05 46.48, 78.31 26.34, 51.13 1.58 M124.64 60.21 C105.78 43.79, 90.12 28.41, 57.02 1.35 M126.36 62.8 C100.96 41.12, 77.55 19.79, 56.94 1.06 M122.43 55.61 C108.54 40.17, 92.51 29.31, 62.22 3.43 M124.68 55.26 C106.32 40.51, 89.62 25.11, 61.79 0.93 M121.3 49.04 C104.4 34, 84.01 15.93, 66.58 1.88 M122.87 48.25 C106.29 33.92, 90.9 20.33, 67.03 0.37 M122.82 40.84 C105.24 27.72, 90.89 15.13, 70.19 -0.98 M121.39 41.04 C109.7 32.65, 98.58 23.36, 72.59 -1.1 M120.09 36.52 C104.9 23.43, 89.32 10.4, 80.47 3.22 M119.04 34.48 C106.2 23.12, 93.1 11.51, 83.06 2.07" stroke="#228be6" stroke-width="0.5" fill="none"></path><path d="M70.06 1.01 C79.25 1.43, 90.66 6.49, 98.59 11.79 C106.52 17.09, 113.19 24.23, 117.64 32.81 C122.1 41.39, 125.34 53.37, 125.33 63.29 C125.31 73.2, 122.12 83.71, 117.54 92.28 C112.97 100.85, 105.68 109.19, 97.87 114.71 C90.06 120.23, 80.4 124.4, 70.68 125.41 C60.97 126.42, 48.79 124.37, 39.59 120.77 C30.39 117.17, 21.67 111.19, 15.49 103.81 C9.3 96.43, 4.71 85.9, 2.47 76.47 C0.23 67.04, -0.19 56.61, 2.06 47.22 C4.32 37.83, 9.73 27.37, 16 20.15 C22.27 12.94, 29.99 7.04, 39.7 3.93 C49.41 0.81, 67.92 1.7, 74.27 1.46 C80.62 1.22, 78.05 1.42, 77.8 2.49 M58.42 0.06 C67.77 -1.38, 79.3 2.23, 88.11 5.95 C96.92 9.67, 105.17 14.8, 111.28 22.37 C117.38 29.93, 122.99 41.62, 124.71 51.34 C126.43 61.07, 124.4 71.64, 121.59 80.71 C118.77 89.78, 114.46 99.03, 107.83 105.77 C101.2 112.52, 91.06 118.06, 81.79 121.16 C72.52 124.25, 61.57 125.74, 52.2 124.36 C42.83 122.99, 33.37 118.69, 25.56 112.89 C17.74 107.08, 9.54 98.67, 5.32 89.52 C1.1 80.37, -0.4 67.92, 0.22 57.99 C0.85 48.07, 4.07 38.34, 9.05 29.97 C14.02 21.6, 21.7 12.75, 30.08 7.78 C38.47 2.81, 54.35 1.23, 59.35 0.13 C64.34 -0.96, 60.09 0.03, 60.04 1.23" stroke="#000000" stroke-width="1" fill="none"></path></g><g transform="translate(345.78751974709894 98.17993897281508) rotate(0 24.5 14.5)"><text x="24.5" y="20" font-family="Virgil, Segoe UI Emoji" font-size="22.923827538177328px" fill="#000000" text-anchor="middle" style="white-space: pre;" direction="ltr">DNS</text></g><g stroke-linecap="round" transform="translate(83.28231087421273 54.504257798661456) rotate(0 59.401997992819815 34.45961635093113)"><path d="M0 0 C0 0, 0 0, 0 0 M0 0 C0 0, 0 0, 0 0 M0.07 5.98 C1.78 4.5, 2.78 3.3, 5.75 0.87 M-0.08 6.36 C0.88 5.33, 1.99 3.49, 4.61 0.01 M-0.89 12.07 C2.69 7.9, 8.79 1.82, 11.9 0.35 M0.18 12.19 C3.39 8.8, 5.47 5.96, 10.34 0.3 M1.1 19.7 C4.24 13.5, 9.7 7.95, 15.29 -0.3 M-0.37 19.4 C2.41 13.57, 7.44 9.57, 14.97 0.71 M-0.08 23.62 C7.34 14.6, 12.13 10, 22.25 1.75 M0.93 23.99 C7.45 15.81, 14.92 7.09, 20.55 0.41 M1.56 30.5 C9.64 19.89, 14.28 13.92, 25.89 -0.78 M0.48 30.32 C8.45 21.97, 14.96 12.01, 26.88 0.05 M-0.48 35.91 C6.55 28.46, 15.4 16.4, 31.9 -0.08 M-1.23 36.09 C10.92 23.67, 24.56 8.63, 32.08 -0.64 M1.6 41.69 C8.35 33.22, 16.41 21.3, 38.63 -0.1 M-0.14 43.15 C6.63 33.94, 15.85 24.76, 36.75 -0.3 M0.88 49.14 C16.66 31.84, 32.83 12.63, 43.34 0.42 M-1.01 48.23 C16.08 30.26, 32.51 10.64, 42.72 0.56 M1.38 52.75 C18.27 34.47, 35.3 12.2, 45.92 0.96 M0.62 54.21 C14.33 37.31, 29.64 21.76, 47.32 0.11 M1.76 61.27 C21.68 38.1, 42.57 15.23, 51.21 0.22 M0.68 60.62 C14.01 45.56, 25.16 30.89, 54.09 -0.4 M0.93 67.39 C20.15 41.52, 43.59 18.84, 56.67 1.11 M0.7 66.85 C21.5 41.27, 42.5 16.95, 59.06 -0.02 M3.04 70.76 C16.07 56.69, 28.59 41.51, 62.69 -0.24 M1.28 70.69 C16.66 53.85, 32.72 37.35, 63.52 0.31 M5.92 70.26 C29.61 45.96, 52.79 20.13, 68.3 -1.45 M7 72.08 C19.86 54.31, 34.57 38.84, 68.22 0.29 M14.7 70.26 C35.44 46.45, 52.41 24.32, 73.45 -0.97 M12.58 70.87 C31.74 48.49, 51.74 25.1, 74.14 -1.24 M17.44 72.6 C40.4 43.66, 67.66 12.91, 78.72 -1 M17.02 70.28 C34.14 50.73, 50.69 31.49, 78.76 0.23 M24.11 69.3 C35.56 54.34, 50.59 42.32, 83.64 1.47 M23.04 71.16 C48.85 42.23, 73.16 13.74, 84.79 -0.7 M30.35 71.65 C50.94 44.62, 71.37 18.73, 90.35 -0.33 M29.34 70.54 C40.21 55.84, 53.48 42.45, 90.42 -0.74 M35.7 71.1 C51.27 50.87, 67.61 28.37, 93.93 -1.96 M33.38 70.03 C49.69 51.73, 65.19 33.57, 96.08 0.5 M39.34 72.36 C51.35 55.35, 64.02 38.82, 102.09 1.27 M39.57 70.45 C55.66 50.4, 72.63 31.73, 100.69 -0.92 M46.37 70.35 C65.79 44.68, 89.73 21.8, 105.48 -0.79 M44.09 70.19 C63.31 48.18, 81.89 27.08, 106.37 -0.81 M51.56 71.2 C64.35 53.9, 77.48 35.34, 109.37 0 M49.07 71.83 C64.2 56.02, 76.48 39.04, 110.78 -0.33 M53.55 69.27 C67.8 55.85, 83.01 39.33, 115.31 -0.3 M55.39 70.58 C75.55 45.93, 98.44 20.97, 117.11 1.22 M58.67 72.14 C77.22 48.9, 97.54 27.64, 118.79 1.1 M60.92 70.78 C82.47 45.85, 102.38 21.8, 120.37 0.72 M67.15 69.58 C80.34 56.38, 94.18 38.15, 120.32 7 M65.27 70.42 C79.49 55.05, 92.01 40.84, 120.89 7.95 M72.85 70.62 C86.18 56.06, 99.7 37.85, 118.88 12.83 M70 71.62 C83.23 57.97, 95.06 44.4, 120.31 13.76 M77.57 72.48 C92.79 50.93, 106.09 34.19, 121.15 19.81 M77.45 71.16 C85.8 58.87, 96.76 45.94, 121.31 20.69 M82.75 69.62 C93.91 54.49, 111.67 37.93, 119.74 27.33 M80.91 70.94 C91.09 60.02, 102.64 47.24, 120.28 24.92 M87.74 70.69 C94.31 59.46, 103.19 53.89, 120.9 30.05 M87.42 70.51 C96.54 60.81, 103.63 51.72, 119.64 32.77 M93.54 71.59 C101.25 58.94, 111.21 47.18, 122.14 39.57 M92.01 71.56 C98.98 63.02, 104.75 56.18, 119.84 37.92 M97.07 72.41 C101.55 63.03, 109.85 60.62, 119.24 45.7 M98.41 70.43 C102.07 64.51, 107.42 59.7, 120.99 44.24 M102.88 70.49 C106.37 65.61, 113.92 59.96, 121.3 49.75 M103.39 70.58 C108.93 62.57, 116.26 56.97, 120.3 50.46 M109.41 69.41 C113.84 65.22, 118.31 61.25, 120.35 54.31 M109.35 71.08 C110.55 67.3, 114.79 64.02, 120.26 55.48 M113.15 71.32 C115.94 67.19, 118.9 63.74, 119.71 63.21 M113.13 71.06 C116.19 67.39, 118.77 64.89, 120.67 62.61 M-0.16 68.78 C-0.16 68.78, -0.16 68.78, -0.16 68.78 M-0.16 68.78 C-0.16 68.78, -0.16 68.78, -0.16 68.78 M5.58 69.73 C3.76 67.47, 2.86 66.52, 0.73 63.81 M6.3 69.3 C4.87 67.87, 3.51 66.68, 0.13 63.79 M11.85 67.81 C6.75 64.83, 3.49 60.38, 0.4 58.98 M12.17 69.11 C8.79 65.64, 7.28 64.42, -0.71 57.78 M17.99 67.13 C14.55 64.39, 9.71 62.74, 1.32 52.7 M18.19 68.76 C11.79 62.4, 4.57 58.5, 0.38 52.27 M24.11 68.05 C15.69 61.89, 4.05 50.89, -0.3 47.39 M24.78 68.55 C19.63 64.31, 14.44 59.96, 0.49 47.93 M29.59 67.27 C21.82 59.01, 11.09 49.56, 1.87 42.1 M30.19 69.05 C23.41 62.6, 16.41 57.17, 0.4 42.36 M35.35 68.91 C20.69 55.61, 7.25 42.26, -0.75 37.29 M35.97 69.31 C25.35 60.44, 15.8 50.78, 0.63 37.75 M43.57 66.66 C24.69 53.75, 7.78 40.94, -0.41 31.25 M43.26 68.9 C31.91 60, 21.46 52.06, 0.8 32.54 M48.73 68.05 C36.15 57.98, 23.7 48.03, -2.13 25.87 M48.32 69.63 C30.37 53.42, 12.88 37.83, -0.83 26.71 M53.34 68.9 C42.62 56.84, 28.15 43.19, -0.61 22.86 M54.75 69.53 C36.77 52.31, 18.22 37.11, 0.07 21.49 M59.17 70.19 C42.14 53.5, 25.97 37.57, -1.28 17.57 M61.29 69.22 C40.06 52.09, 20.72 33.42, -0.53 14.64 M66.56 67.14 C45.9 48.39, 22.25 29.17, -1.3 11.15 M67.52 68.47 C44.51 49.75, 21.41 30.24, 0.44 10.19 M74.08 67.53 C57.37 54.56, 44 42.86, 1.47 4.36 M72.13 68.04 C52.74 51.45, 33.87 34.15, -1.36 5.65 M77.64 68 C50.13 44.81, 18.83 17.57, -0.57 1.81 M78.42 69.46 C56.01 48.98, 33.01 27.89, -0.12 -0.17 M86.14 68.44 C64.19 53.27, 46.07 34.61, 1.3 -3.68 M86.56 68.94 C55.89 42.8, 24.93 16.65, 2.55 -3.34 M92.75 68.95 C61.15 42.87, 35.25 22.04, 9.04 -4.06 M91.31 67.82 C71.92 52.19, 51.31 34.77, 9.18 -2.26 M98.23 70.82 C76.79 49.91, 58.41 33.94, 12.9 -2.33 M97.81 69.07 C68.5 42.5, 37.49 16.05, 13.85 -2.47 M102.56 66.94 C74.15 43.99, 45.72 19.05, 20.42 -3 M103.8 69.15 C79.71 47.64, 57.02 28.39, 21.79 -3.61 M108.04 70.04 C93.34 52.77, 75.03 35.85, 28.4 -5 M109.12 69.79 C86.83 49.07, 62.13 28.22, 25.83 -2.79 M114.98 71.09 C91.8 46.68, 62.7 22.48, 33.96 -1.42 M115.98 69.92 C89.4 46.44, 65.26 24.79, 33.92 -2.89 M119.46 66.98 C92.94 42.04, 63.17 17.06, 38.21 -1.09 M121.19 66.76 C92.96 43.92, 65.98 20.69, 39.35 -2.57 M119.86 60.83 C98.11 45.22, 77.74 25.07, 45.56 -3.62 M119.17 61.69 C100.21 43.91, 80.04 27.84, 44.54 -3.89 M121.36 55.51 C107.22 43.67, 94.18 32.93, 50.97 -2.44 M120.97 57.3 C95.95 34.86, 70.44 14.28, 50.76 -3.79 M118.65 52.22 C99.85 35.39, 79.58 15.71, 55.66 -2.38 M119.49 51.39 C100.82 34.67, 82.87 19.5, 56.39 -4.17 M118.72 46 C101.42 32.48, 85.42 18.46, 62.12 -3.43 M120.74 46.06 C106.24 33.81, 94.19 23.45, 64.43 -2.2 M119.8 39.49 C105.91 29.31, 94.18 20.72, 69.9 -2.34 M119.33 40.88 C110.12 31.3, 100.25 23.02, 70.71 -2.35 M118.44 35.17 C101.69 21.49, 87.86 7.11, 74.82 -3.61 M119.98 34.74 C110.03 25.05, 99.35 15.58, 75.7 -3.97 M121.21 29.76 C109.13 23.62, 100.9 11.35, 80.21 -2.59 M119.79 29.65 C106.03 17.43, 91.71 5.15, 82.21 -2.79 M119.95 23.23 C111.59 16.3, 102.27 7.86, 88.72 -3.01 M119.93 25.29 C108.73 15.78, 99.69 5.96, 87.68 -3.03 M119.05 19.69 C112.35 12.12, 101.66 6.45, 93.25 -4.77 M119.47 19.46 C112.51 14.15, 107.24 6.42, 93.63 -3.63 M119.16 13.89 C112.24 7.83, 106.03 3.77, 100.75 -1.52 M119.57 13.94 C116.05 10.47, 111.19 7.1, 99.98 -2.38 M120.24 7.49 C116.48 4.37, 110.83 -0.82, 107.36 -3.65 M120.96 10.25 C115.78 6.08, 110.41 1.81, 106.67 -3.4 M120.26 3.02 C118.18 1.79, 114.61 -1.08, 113.28 -2.19 M119.83 3.4 C118.39 1.81, 116.46 0.08, 112.09 -2.82" stroke="#a3aefd" stroke-width="0.5" fill="none"></path><path d="M-0.59 0.81 C24.77 0.47, 51.27 0.86, 117.72 -0.4 M-0.81 0.18 C34.64 -0.76, 68.79 -1.77, 118.76 0.18 M118.43 1.3 C118.77 21.75, 119.2 46.55, 118.72 69 M119.24 0.18 C118.1 22.9, 119.2 45.57, 119.08 68.2 M120.06 68.55 C79 70.2, 34.96 70.21, -0.54 69.01 M119.73 68.82 C93.92 69.56, 69.48 68.88, -0.54 69.89 M1.18 69.54 C0 43.08, -1.12 21.21, -1.03 0.41 M-0.78 69.75 C0.15 52.95, 0.6 37.62, 0.53 -0.02" stroke="#000000" stroke-width="1" fill="none"></path></g><g transform="translate(121.15816880885814 77.63432675055333) rotate(0 21.526140058174633 11.329547399039257)"><text x="21.526140058174608" y="15.659094798078534" font-family="Virgil, Segoe UI Emoji" font-size="18.12727583846283px" fill="#000000" text-anchor="middle" style="white-space: pre;" direction="ltr">User</text></g><g stroke-linecap="round" transform="translate(116.35582724657797 125.57620664509159) rotate(0 25.69335435723724 5.991204098461822)"><path d="M0 0 C0 0, 0 0, 0 0 M0 0 C0 0, 0 0, 0 0 M-0.26 6.4 C1.04 4.9, 2.34 3.41, 4.99 0.36 M-0.26 6.4 C1.26 4.65, 2.78 2.9, 4.99 0.36 M0.13 12.04 C3.3 8.4, 6.47 4.75, 10.63 -0.03 M0.13 12.04 C3.47 8.2, 6.81 4.36, 10.63 -0.03 M5.12 12.4 C8.93 8.02, 12.74 3.63, 15.62 0.33 M5.12 12.4 C9.28 7.62, 13.43 2.84, 15.62 0.33 M10.76 12.01 C13.67 8.66, 16.58 5.31, 21.26 -0.07 M10.76 12.01 C13.81 8.5, 16.86 4.99, 21.26 -0.07 M15.75 12.37 C18.91 8.73, 22.07 5.1, 26.25 0.29 M15.75 12.37 C18.73 8.94, 21.71 5.51, 26.25 0.29 M21.39 11.97 C24.04 8.93, 26.68 5.89, 31.89 -0.1 M21.39 11.97 C23.72 9.3, 26.04 6.62, 31.89 -0.1 M26.38 12.33 C29.09 9.21, 31.81 6.09, 36.88 0.26 M26.38 12.33 C30.19 7.95, 33.99 3.57, 36.88 0.26 M32.02 11.94 C35.29 8.18, 38.55 4.43, 42.52 -0.14 M32.02 11.94 C34.45 9.14, 36.88 6.35, 42.52 -0.14 M37.01 12.3 C39.21 9.77, 41.41 7.24, 47.51 0.22 M37.01 12.3 C39.79 9.1, 42.57 5.9, 47.51 0.22 M42.65 11.9 C45.76 8.33, 48.87 4.76, 52.49 0.58 M42.65 11.9 C45.27 8.89, 47.89 5.88, 52.49 0.58 M47.64 12.26 C49.03 10.67, 50.41 9.07, 52.23 6.98 M47.64 12.26 C48.79 10.95, 49.93 9.63, 52.23 6.98 M0.1 12.07 C0.1 12.07, 0.1 12.07, 0.1 12.07 M0.1 12.07 C0.1 12.07, 0.1 12.07, 0.1 12.07 M5.75 11.68 C4.19 10.32, 2.63 8.97, -0.29 6.43 M5.75 11.68 C3.34 9.59, 0.93 7.49, -0.29 6.43 M12.15 11.94 C8.79 9.02, 5.43 6.1, 0.07 1.44 M12.15 11.94 C8.32 8.61, 4.49 5.29, 0.07 1.44 M18.54 12.2 C12.29 6.76, 6.03 1.32, 1.94 -2.23 M18.54 12.2 C14.86 9, 11.18 5.8, 1.94 -2.23 M24.19 11.81 C20.51 8.61, 16.84 5.42, 8.34 -1.97 M24.19 11.81 C18.64 6.99, 13.1 2.17, 8.34 -1.97 M30.58 12.07 C25.09 7.29, 19.59 2.51, 13.98 -2.36 M30.58 12.07 C26.41 8.44, 22.24 4.82, 13.98 -2.36 M36.23 11.67 C31.11 7.22, 25.98 2.77, 20.38 -2.1 M36.23 11.67 C32.42 8.36, 28.61 5.06, 20.38 -2.1 M42.63 11.94 C36.51 6.62, 30.39 1.3, 26.02 -2.5 M42.63 11.94 C38.55 8.4, 34.48 4.86, 26.02 -2.5 M49.02 12.2 C44.25 8.05, 39.47 3.9, 32.42 -2.24 M49.02 12.2 C44.73 8.46, 40.43 4.72, 32.42 -2.24 M53.16 10.49 C48.68 6.6, 44.2 2.7, 38.82 -1.97 M53.16 10.49 C47.6 5.66, 42.05 0.83, 38.82 -1.97 M52.76 4.85 C50.81 3.15, 48.85 1.45, 44.46 -2.37 M52.76 4.85 C50.26 2.67, 47.76 0.5, 44.46 -2.37" stroke="#868e96" stroke-width="0.5" fill="none"></path><path d="M0 0 C17.5 0, 35 0, 51.39 0 M0 0 C16.36 0, 32.72 0, 51.39 0 M51.39 0 C51.39 4.38, 51.39 8.75, 51.39 11.98 M51.39 0 C51.39 3.81, 51.39 7.61, 51.39 11.98 M51.39 11.98 C36.92 11.98, 22.45 11.98, 0 11.98 M51.39 11.98 C36.48 11.98, 21.56 11.98, 0 11.98 M0 11.98 C0 8.02, 0 4.05, 0 0 M0 11.98 C0 7.39, 0 2.8, 0 0" stroke="#000000" stroke-width="1" fill="none"></path></g><g stroke-linecap="round" transform="translate(75.40403734395295 139.01252070079272) rotate(0 68.11733168790397 9.382143695910258)"><path d="M0 0 C0 0, 0 0, 0 0 M0 0 C0 0, 0 0, 0 0 M0.5 6.91 C0.46 5.48, 1.93 3.75, 4.91 0.31 M-0.63 6.04 C2.04 4.2, 3.46 1.65, 4.99 0.01 M1.4 12.43 C2.77 8.85, 6.04 4.36, 10.92 1.21 M-0.15 12.37 C3.21 8, 5.84 5.94, 11.13 -0.42 M-0.46 17.81 C3.78 11.61, 12.42 5.17, 17.53 -1.51 M-0.77 18.83 C3.38 14.62, 5.84 10.51, 15.39 0.5 M3.88 22.88 C7.81 16.05, 10.68 13.63, 21.07 -0.52 M2.18 21.54 C8.75 13.56, 15.07 8.4, 21.27 0.7 M7.52 20.35 C12.23 18.43, 16.08 12.59, 25.93 2.08 M8.51 21.19 C14.02 14.37, 20.79 6.7, 25.76 -0.54 M13.53 21.05 C22.04 13.52, 28.44 3.45, 30.32 -1.93 M13.71 20.49 C19.97 12.89, 28.77 5.14, 31.48 -0.26 M20.26 21.03 C23.14 15.69, 30.24 6.33, 38.13 -1.52 M18.38 20.83 C24.81 15.24, 29.84 8.89, 36.99 0.69 M24.97 21.55 C32.6 11.12, 39.45 3.38, 41.15 -1.49 M24.35 21.7 C31.66 14.11, 37.83 6.46, 41.62 0.06 M27.55 22.09 C35.53 12.95, 42.88 7.85, 46.81 -1.37 M28.95 21.24 C35 15.65, 38.58 10.62, 47.66 0.77 M32.84 21.35 C39.61 12.84, 48.8 8.08, 52.47 1.5 M35.72 20.73 C40.96 14.38, 45.52 9.16, 53.17 -0.64 M38.3 22.24 C45.03 18.18, 48.59 14.16, 57.13 1.01 M40.69 21.12 C43.23 16.26, 48.17 12.01, 58.15 0.53 M44.32 20.9 C50.73 14.39, 56.73 4.43, 63.7 -0.74 M45.15 21.44 C51.67 14.54, 56.29 7.15, 63.36 -0.39 M49.93 19.68 C55.46 14.62, 65 5.57, 70.75 -0.43 M49.85 21.42 C54.38 16.67, 58.53 13.6, 68.55 1.06 M55.08 20.16 C61.94 15.43, 67.64 8.01, 74.75 -0.51 M55.77 19.9 C63.05 14.05, 68.77 6.7, 75.18 -1 M60.35 20.13 C66.64 15.2, 74.62 5.57, 77.83 -0.22 M60.39 21.36 C64.88 16.17, 69.54 11.08, 78.72 -0.31 M65.27 22.6 C72.48 15.8, 76.39 10.92, 86.04 1.41 M66.42 20.43 C73.33 14.61, 79.06 7.75, 85.35 0 M71.98 20.8 C75.12 14.41, 83.24 11.04, 89.05 -1.41 M72.05 20.39 C75.64 16.66, 80.36 12.47, 90.26 -0.01 M75.56 19.17 C82.92 15.23, 90.39 5.41, 94.47 -0.27 M77.71 21.63 C81.86 15.03, 88.83 8.84, 96.36 -0.68 M83.72 22.4 C87.71 16.67, 94.46 9.3, 99.56 0.47 M82.32 20.22 C87.19 17.16, 89.89 12.13, 100.53 -0.19 M86.45 21.1 C92.2 17.62, 96.13 8.92, 105.48 0.66 M87.35 21.08 C90.47 18.05, 94.8 13.76, 106.42 -0.1 M91 21.14 C96.85 13.59, 105.34 7.63, 113.04 1.37 M92.41 20.8 C99.46 12.69, 106.92 3.92, 110.64 -0.79 M96.94 20.83 C105.36 14.42, 111.75 6.89, 116.3 -1.34 M98.74 22.35 C103.61 15.83, 109.95 7.59, 116.88 -0.28 M101.73 20.73 C110.18 12.61, 115.4 9.45, 121.63 0.77 M103.31 20.34 C107.65 15.93, 112.92 11.47, 121.44 0.55 M108.51 20.58 C113.74 13.45, 123.21 5.08, 126.68 1.44 M109.08 21.53 C113.39 14.61, 119.13 10.69, 126.77 0.72 M112.32 20.38 C119.76 14.01, 128.11 3.53, 134.01 1.61 M113.75 21.3 C121.15 12.81, 128.39 6.05, 133.54 0.39 M119.84 21.32 C121.89 18.55, 128.08 14.6, 138.2 -0.79 M119.99 22.2 C126.65 14.12, 132.62 6.63, 136.26 0.11 M123.73 22.72 C127.79 15.45, 131.11 10.9, 137.43 5.23 M124.25 20.43 C128.52 16.75, 133.03 11.38, 137.38 6.37 M129.96 20.35 C130.81 19.56, 133.07 18.15, 137.07 14.01 M129.26 21.84 C132.59 18.68, 134.42 16.32, 137.22 12.73 M-0.23 18.56 C-0.23 18.56, -0.23 18.56, -0.23 18.56 M-0.23 18.56 C-0.23 18.56, -0.23 18.56, -0.23 18.56 M5.56 19.5 C4.03 17.83, 3.73 17.1, 0.13 13.31 M6.26 18.91 C4.5 17.35, 3.25 16.22, 0.07 13.33 M13.26 18.53 C9.49 14, 4.1 13.11, -0.62 7.16 M12.4 19.13 C10.12 17.54, 6.98 14.87, -0.71 8.5 M17.65 16.86 C11.45 13.28, 6.91 11.73, 1.55 1.32 M17.55 18.09 C13.42 14.41, 6.49 8.64, 0.61 2.69 M22.96 20.34 C18.98 14.06, 13.57 6.7, 2.33 -0.01 M24.7 19.25 C18.87 13.92, 14.47 9.42, 0.4 -1.99 M30.06 17.02 C24.72 14.43, 17.72 9.33, 8.98 0.39 M31.17 19.45 C23.45 11.98, 16.63 6.25, 8.46 -2.07 M37.98 18.87 C28.34 14.51, 24.09 7.23, 14.52 -1.11 M36.46 18.81 C29.73 12.8, 22.53 6.43, 12.72 -2.24 M43.79 20.12 C35.03 13.71, 31.23 8.4, 20.82 -2.32 M42.39 18.62 C37.53 14.32, 33.41 10.73, 18.75 -0.97 M49.84 18.23 C43.55 15.38, 35.49 7.88, 24.99 -1.49 M48.9 17.79 C44.7 15.09, 38.01 9.87, 24.73 -1.23 M55.01 18.82 C44.63 13.31, 36.09 4.07, 30.45 -1.01 M55.8 19.36 C48.94 12.91, 42.28 7.35, 30.94 -0.73 M62.46 18.12 C53.9 12.37, 50.6 8.53, 38.64 -1.04 M61 18.38 C55.06 13.26, 46.91 6.74, 38.02 -1.99 M66.64 19.22 C60.97 13.11, 56.21 6.43, 44.28 -2.49 M68.01 19.67 C59.33 12.27, 50.62 4.68, 42.73 -1.9 M73.01 18.43 C66.17 14.56, 61.55 10.31, 50.64 -2.11 M74.23 19.71 C66.41 14.17, 60.2 7.35, 49.7 -1.24 M77.33 18.29 C73.9 13.2, 64.65 6.25, 57.23 -2.04 M78.63 19.13 C70.31 11.31, 61.38 3.38, 55.63 -0.77 M84.9 20.53 C78.19 11.63, 69.25 4.42, 62.9 -1.58 M85.57 19.16 C80.32 15.06, 74.81 9, 62.88 -1.5 M90.26 20.49 C83.95 13, 75.3 6.51, 69.47 -2.79 M91.01 17.56 C83.42 10.91, 74.49 3.76, 67.62 -0.74 M96.28 19.31 C92.68 12.49, 87.96 9.2, 73.09 -1.5 M98.01 18.35 C89.5 12.63, 82.7 7.07, 73.65 -1.68 M105.84 18.43 C96.78 12.64, 90.82 6.51, 79.41 -2.34 M103.01 19.72 C97.41 12.92, 90.06 5.67, 80.16 -0.89 M109.08 20.47 C101.12 12.82, 91.51 2.27, 87.37 -0.39 M109.53 18.49 C99.9 10.09, 92.05 3.28, 85.89 -2.45 M114.72 18.27 C108.64 10.92, 97.13 5.89, 92.2 -0.84 M115.98 18.61 C108.12 12.54, 99.66 5.19, 92.74 -2.13 M121.72 17.23 C115.74 12.65, 113.9 10.48, 97.16 -0.65 M121.85 19.03 C113.73 11.59, 106.97 6, 99.94 -1.57 M126.33 19.62 C124.06 12.34, 118.09 9.87, 104.77 0.44 M127.27 19.48 C121.53 12.35, 114.71 6.46, 103.84 -1.74 M133.85 18.95 C126.92 11.28, 119.83 7.59, 112.12 -3.12 M135.21 18.34 C128.29 13.9, 124.41 8.8, 111.65 -0.52 M139.56 14.97 C132.13 10.76, 128.79 5.95, 118.53 -0.29 M136.99 17.18 C131.09 11.34, 123.15 4.23, 117.69 -0.77 M139.08 13.3 C133.51 7.25, 129.5 2.61, 124.66 -3.19 M139.04 11.84 C135.3 9.74, 132.45 5.54, 122.89 -0.57 M137.12 6.98 C136.38 4.98, 134.5 3.84, 128.77 -0.89 M137.75 6.17 C135.36 4.3, 133.61 2.03, 129.25 -1.26" stroke="#e64980" stroke-width="0.5" fill="none"></path><path d="M-1.08 -0.4 C47.62 -1.05, 96.96 -2.58, 136.6 -0.24 M-0.05 0.18 C42.48 1.58, 83.58 1.07, 136.89 -0.13 M136.15 0.08 C136.91 3.59, 134.44 9.02, 136.56 17.8 M136.49 -0.67 C136.79 5.43, 137.23 11.18, 136.06 19.44 M135.7 18.85 C92.45 19.91, 52.28 20.73, -0.2 18.89 M135.69 19.73 C87.26 18.41, 36.28 19.29, 0.31 18.67 M-0.97 19.15 C-1.18 12.39, -0.49 8.17, 1.56 -0.97 M0.5 18.75 C-0.37 12.48, 0.28 7.55, -0.8 -0.09" stroke="#000000" stroke-width="1" fill="none"></path></g><g stroke-linecap="round" transform="translate(192.77991599404277 206.0736961485768) rotate(0 60.87175159654271 28.32386849759814)"><path d="M0 0 C0 0, 0 0, 0 0 M0 0 C0 0, 0 0, 0 0 M-0.82 6.99 C0.79 5, 2.61 2.86, 5.57 0.11 M0.06 6.43 C0.96 4.6, 2.56 2.91, 5.09 0.53 M-0.58 12.7 C1.61 9.31, 5.18 7.67, 10.19 0.02 M0.36 11.3 C3.34 8.83, 7.05 4.29, 11.03 -0.3 M-1.78 18.06 C7.18 11.32, 13.45 3.28, 13.98 1.71 M0.08 18.43 C2.55 14.37, 6.43 10.88, 14.66 -0.47 M1.26 23.5 C7.84 16.49, 15.14 5.98, 21.63 -0.25 M0.26 23.29 C7 17.74, 12.64 10.73, 20.54 -0.9 M-0.01 32.46 C9.69 20.08, 19.72 9.42, 27.2 -0.6 M-0.34 30.69 C6.54 22.73, 12.72 14.31, 26.96 -0.39 M1.29 37.15 C9.24 25.3, 14.9 15.81, 33.77 1.1 M-0.92 37.04 C9.75 27.22, 17.61 15.78, 32.35 -0.53 M-1.67 44.02 C7.67 31.72, 18.95 20.18, 37.05 1.52 M0.91 42.85 C10.45 31.57, 20.57 19.85, 37.61 0.74 M1.57 47 C15.76 30.47, 27.1 14.32, 43.67 -1.46 M0.68 49.57 C12.29 35.24, 23.1 20.95, 42.9 -0.41 M0.4 53.21 C14.13 41.11, 24.29 24.86, 46.93 0.28 M1.16 54.74 C17.92 34.71, 36.66 13.6, 47.84 0.87 M0.82 57.76 C23.89 37.6, 40.71 15.58, 53.01 -1.95 M2.59 58.32 C16.94 41.33, 32.87 22.2, 52.3 0.54 M9.09 59.69 C23.92 42.95, 36.64 24.84, 56.76 -0.6 M6.75 58.14 C22.48 40.96, 38.22 22.94, 58.63 0.22 M11.52 59.59 C29.16 36.61, 48.3 17.34, 63.93 1.07 M13.35 58.96 C32.94 34.26, 53.28 11.12, 64.41 -0.35 M16.62 59.45 C39.82 35.24, 60.76 11.62, 66.94 2.07 M18.6 57.9 C29.89 46.91, 39.67 34.58, 68.71 -0.77 M23.55 59.51 C43.26 36.49, 62.13 14.52, 75.11 0.58 M24.17 58.75 C35.86 45.23, 48.08 30.87, 74.83 0.5 M28.37 59.22 C40.4 45.45, 47.77 34.87, 78.41 -0.98 M28.02 58.4 C42.31 42.6, 56.29 25.85, 78.56 0.62 M35.82 58.24 C55.22 35.56, 73.39 15.98, 85.71 1.02 M34.53 59.4 C49.83 41.92, 65.42 23.32, 84.92 -1.08 M37.51 57.46 C55.07 43.23, 68.07 22.72, 88.56 0.45 M39.37 58.45 C55.17 41.65, 70.48 22.9, 90.41 -0.66 M43.75 59.99 C57.16 44.34, 67.11 32.22, 95.4 -1.63 M43.66 58.87 C62.07 38.83, 78.82 18.79, 95.78 -1.01 M49.71 60.13 C63 44.44, 73.99 29.1, 99.32 0.08 M50.76 59.14 C66.36 39.74, 84.39 18.85, 100.25 0.61 M55.25 60.46 C74.96 34, 95.48 12.55, 104.33 0.08 M54.53 59.37 C68.36 44.35, 81.94 28.26, 106.27 -0.94 M58.46 57.46 C73.41 44.72, 85.13 34.12, 113.09 -0.88 M59.39 58.55 C71.97 44.41, 83.76 30.67, 111.8 -0.13 M66.73 58.86 C83.38 40.02, 98.91 19.16, 116.52 1.87 M65.89 59.34 C79.39 41.89, 92.64 26.63, 116.34 0.44 M71.75 56.88 C88.71 40.94, 104.65 21.02, 120.8 -1.73 M70.18 58.77 C85 43.88, 98.21 27.83, 122.54 0.83 M75.12 57.92 C87.6 46.29, 95.49 37.52, 121.19 6.73 M76.2 57.51 C91.85 41.83, 106.54 23.63, 122.41 6.52 M80.09 59.62 C92.97 44.58, 105.24 35.35, 123.36 13.82 M81.82 58.37 C97.21 42.39, 111.88 25.44, 121.21 11.53 M85.82 59.84 C96.77 50.28, 105.63 36.55, 123.36 17.37 M87.7 58.82 C97.08 46.75, 106.97 33.16, 121.92 19.11 M91.14 57.64 C100.12 46.52, 111.16 35.35, 122.52 26.17 M91.43 59.44 C98.69 51.33, 106.12 42.75, 120.62 24.86 M96.75 58.32 C107.71 48.07, 116.98 38.1, 122.43 29.22 M98.37 58.48 C107.39 47.75, 117.68 35.23, 121.99 29.52 M101.06 58.4 C107.11 51.32, 116.18 45.64, 120.01 37.02 M101.85 58.31 C107 53, 113.25 47.17, 120.83 37.75 M106.33 58.59 C114.33 53.34, 119.11 45.25, 121.07 43.24 M107.94 57.95 C112.76 53.56, 116.46 48.09, 122.21 43.33 M114.08 57.5 C115.6 56.56, 118.14 52.19, 120.68 49.5 M113.54 59.26 C116.61 55.2, 119.64 51.45, 121.7 49.41 M118.62 58.12 C119.64 57.72, 120.97 55.99, 121.58 55.57 M119.11 58.44 C119.69 57.35, 120.66 56.4, 121.48 55.26 M-0.12 56.54 C-0.12 56.54, -0.12 56.54, -0.12 56.54 M-0.12 56.54 C-0.12 56.54, -0.12 56.54, -0.12 56.54 M6.28 57.01 C3.71 55.12, 2.92 53.96, 0.19 51.77 M6.24 56.45 C4.07 54.74, 2.46 52.9, 0.22 51.6 M10.85 57.66 C8.46 52.78, 3.94 48.98, -0.08 46.45 M12.15 56.53 C8.33 53.11, 3.96 49.26, -0.35 45.69 M16.69 57.11 C15.43 54.15, 11.72 49, -1.72 42.71 M17.75 55.97 C12.38 51.11, 5.26 46.21, -0.14 41 M25.8 58.85 C14.5 48.57, 5.6 40.8, -1.9 33.87 M25.61 57.5 C14.35 48.14, 5.03 40.55, 0.48 34.73 M28.39 58.51 C21.22 50.43, 14.66 44.32, -0.34 30.33 M30.64 56.15 C21.9 49.06, 12.76 42.85, -0.41 30.55 M35.46 55.61 C29.95 50.01, 22.19 43.91, -0.5 24.95 M37.6 57 C22.48 44.43, 9.86 32.63, -0.6 24.19 M42.3 56.25 C34.75 47.15, 24.97 39.81, 1.44 21.43 M43.33 57.18 C28.13 44.59, 11.66 30.82, -0.24 19.15 M47.48 57.38 C32.19 43.6, 15.57 26.24, -0.44 12.06 M48.3 57.55 C31.07 41.73, 13.01 26.52, -0.41 13.96 M56.59 57.19 C36.75 40.55, 21.7 25.67, 1.26 9.96 M54.81 56.66 C33.83 38.27, 13.91 22.07, 0.46 9.89 M61.51 56.11 C43.45 41.3, 27.42 27, -1.81 2.88 M60.8 57.21 C41.98 39.73, 24.44 24.32, 0.03 4.26 M67.67 57.73 C45.4 39.81, 25.59 18.56, 2.06 -1.95 M67.55 56.5 C53.34 44, 39.21 32.9, 0.32 -1.24 M73.73 55.26 C58.42 42.6, 38.49 27.35, 7.36 -0.79 M71.95 56.34 C48.6 36.29, 25.08 15.09, 6.99 0.09 M78.7 55.74 C55.25 34.66, 30.67 14.62, 13.06 -0.17 M80.03 56.8 C60.2 38.64, 38.79 22.17, 13.49 -1.47 M85.56 58.46 C65.07 38.9, 47.86 24.81, 20.96 1.12 M85.13 56.15 C66.14 39.48, 44.96 20.88, 19.94 -0.44 M92.6 55.93 C68.61 39.5, 48.32 19.55, 26.11 -2.08 M91.73 57.28 C66.88 35.43, 41.72 12.35, 24.02 -0.82 M96.65 54.85 C73.49 33.72, 43.59 11.44, 31.87 -1.11 M97.18 56.18 C74.48 37.15, 51.96 16.21, 30.57 -0.33 M104.78 54.52 C83.7 38.74, 62.06 22.23, 37.61 0.95 M103.9 55.89 C82.7 37.54, 59.45 18.8, 37.77 -0.54 M109.41 55.05 C88.04 38.76, 67.69 17.14, 42.01 -1.77 M108.95 56.17 C88.2 36.29, 66.09 18.84, 42.88 -0.37 M115.92 55.85 C104.15 43.57, 90.83 34.56, 50.24 -0.94 M116.25 57.48 C94.25 38.05, 74.78 20.89, 50.07 -1.62 M122.01 56.52 C106.84 42.91, 91.15 27.51, 53.79 0.35 M122.3 57.43 C102.36 38.87, 81.18 22.75, 54.59 -1.1 M122.88 52.6 C110.84 43.24, 96.53 31.13, 61.41 -0.13 M121.97 51.97 C103.88 34.93, 83.28 18.01, 62.3 -0.82 M121.05 45.72 C107.57 32.3, 93.61 21.71, 66.88 -1.38 M120.77 45.07 C102.54 29.97, 84.34 13.45, 67.93 -0.15 M123.32 40.12 C106.8 28.3, 90.48 13.03, 72.27 -2.16 M122.3 40.72 C106.56 26.66, 92.54 13.96, 74.81 -1.31 M121.76 33.62 C111.66 24.61, 99.03 13.99, 79.19 -0.06 M121.78 35.41 C107.35 20.69, 90.91 7.24, 80.63 -0.89 M120.71 29.88 C106.97 18.99, 93.69 3.62, 84.5 -1.07 M121.51 29.91 C108.98 20.11, 97.2 8.66, 85.7 -2 M119.79 24.16 C110.82 14.05, 99.99 6.16, 91.38 0.67 M122.43 24.52 C112.35 15.78, 102.63 7.6, 92.43 -0.45 M120.94 19.58 C113.63 12.71, 105.41 8.01, 97.02 1.26 M121.58 18.78 C116.1 15.39, 111.48 9.66, 99.58 -0.9 M123.33 12.82 C117.83 9.54, 112.92 8.12, 103.88 0.03 M121.59 14.75 C116.35 8.88, 109.14 4.52, 104.04 -0.37 M122.34 10.08 C117.96 6.14, 116.47 2.66, 110.9 0.15 M122.18 8.83 C118.92 6.16, 116.51 4.46, 110.59 -1.52 M121.42 3.09 C119.16 0.92, 117.37 -0.72, 116.77 -0.54 M121.71 3.13 C120.23 2.21, 119.35 1.13, 116.21 -1.47" stroke="#99cffa" stroke-width="0.5" fill="none"></path><path d="M-0.15 -0.09 C46.52 -1.38, 90.55 0, 121.92 -1.46 M0.39 0.32 C24.67 -0.4, 51.19 -0.34, 120.93 0.09 M122.44 -0.55 C119.79 17.28, 122.07 31.8, 121.39 57.82 M122.22 0.15 C122.84 14.3, 121.72 28.06, 121.83 55.98 M119.94 57.67 C84.16 58.55, 46.35 56.82, 1.28 57.79 M122.33 56.36 C84.99 58.42, 50.19 57.73, -0.57 55.99 M-1.38 54.72 C-0.36 33.31, 1.96 12.07, -0.13 -0.13 M-0.41 55.82 C-0.02 36.56, -1.15 16.82, 0.58 -0.46" stroke="#000000" stroke-width="1" fill="none"></path></g><g transform="translate(215.65166759058548 211.39756464617494) rotate(0 38 23)"><text x="38" y="15" font-family="Virgil, Segoe UI Emoji" font-size="18.345555061133314px" fill="#000000" text-anchor="middle" style="white-space: pre;" direction="ltr">Load </text><text x="38" y="38" font-family="Virgil, Segoe UI Emoji" font-size="18.345555061133314px" fill="#000000" text-anchor="middle" style="white-space: pre;" direction="ltr">balancer</text></g><g stroke-linecap="round" transform="translate(46.548226031264676 308.84379581109897) rotate(0 64.06116664556725 41.85632775245597)"><path d="M0 0 C0 0, 0 0, 0 0 M0 0 C0 0, 0 0, 0 0 M-0.34 6.35 C2.32 3.87, 3.4 1.12, 4.28 1 M-0.25 6.04 C1.49 4.74, 2.74 3.02, 5.08 0.18 M0.42 13.29 C3.34 7.97, 7.41 3.23, 11.29 0.41 M0.64 11.66 C2.71 9.21, 5.05 6.83, 10.38 -0.7 M1.79 16.6 C2.52 14.77, 6.83 7.01, 16.39 0.73 M-0.36 18.61 C3.77 12.25, 10.05 8.12, 16.53 0.82 M0.08 23.63 C6.31 17.22, 11.44 9.43, 22.22 -0.09 M0.27 24.85 C4.07 17.76, 10.22 13.09, 20.72 -0.08 M-0.32 32.27 C11.48 17.42, 20.09 7.54, 25.77 -0.39 M-0.48 29.65 C9.14 20.13, 16.46 11.12, 26.26 1.07 M-1.83 35.06 C11.49 26.8, 19.4 14.38, 30.82 -1.43 M-0.67 36.72 C10.03 24.53, 19.17 14.15, 31.71 -1.01 M1.39 40.74 C14.31 28.04, 27.43 10.67, 35.76 1.8 M0.25 42.95 C13.05 28.74, 24.93 14.59, 37.16 1.11 M-1.5 47.57 C9.32 37.97, 16.54 29.68, 43.92 1.47 M-1.03 49.12 C15.61 30.52, 30.36 12.1, 42.89 -0.07 M-0.43 52.97 C10.33 41.82, 23.54 28.75, 47.28 2.01 M0.43 55.11 C15.89 37.53, 31.36 18.65, 47.7 -0.35 M-0.67 62.63 C12.73 43.35, 26.47 31.52, 52.7 1.05 M0.03 60.49 C13.23 45.32, 27.95 27.83, 53.61 0.56 M-1.26 68.18 C19.58 41.19, 42.7 19.01, 57.73 -1.55 M-0.24 67.7 C16.9 48.07, 33.43 28.45, 58.12 -0.36 M0.06 72.46 C22.88 49.45, 46.78 22.3, 64.81 1.28 M-0.28 72.81 C21.96 49.09, 43.32 24.87, 62.98 -1.02 M1.86 78.82 C22.31 52.92, 47.09 21.45, 69.04 0.84 M-0.34 80.31 C17.47 56.9, 36.43 36.44, 68.4 0.31 M1.27 84.02 C26.68 56.12, 49.95 25.65, 72.42 1.63 M1.7 83.53 C23.88 58.73, 45.42 31.25, 73.85 -0.5 M4.35 84.31 C30.09 54.54, 56.24 24.84, 79.62 -1.61 M5.24 84.22 C29.02 58.12, 53.84 30.17, 80.27 1.09 M12.56 85.94 C32.2 61.92, 52.36 36.24, 84.19 1.05 M11.87 84.53 C39.21 50.5, 67.26 19.26, 84.83 -1.28 M15.57 83.12 C34.06 62.02, 54.99 40.2, 88.37 -0.2 M16.78 84.52 C40.47 55.77, 63.25 28.17, 89.2 -0.29 M21 84.26 C49 51.96, 77.19 22.71, 97.29 -1.99 M22.88 83.85 C45.92 55.37, 69.68 28.77, 96.28 -0.53 M26.08 85 C54.88 50.49, 86.31 16.82, 98.73 1.29 M27.05 84.33 C56.79 50.89, 87.41 16.32, 100.44 0.11 M32 85.18 C60.37 51.48, 90.71 17.66, 105.38 -1.54 M32.95 84.43 C61.12 50.38, 88.61 17.53, 106.3 -1.17 M39.56 85.9 C55.84 64.71, 69.53 45.25, 110.59 -1.43 M37.16 83.74 C58.32 62.44, 77.69 39.51, 110.95 0.5 M43.48 82.43 C66.53 58.85, 88.8 32.3, 117.96 0.63 M44.06 83.49 C70.97 52.51, 99.26 19.24, 116.08 0.88 M48.15 85.29 C61.89 65.25, 77.26 49.43, 120.38 -1.15 M47.97 85.07 C70.35 60.2, 90.34 34.63, 121.47 -0.65 M53.86 85.21 C72.88 62.02, 94 39.86, 127.02 -0.04 M53.95 84.49 C69.4 66.34, 83.29 48.07, 126.56 -0.3 M60.53 86.14 C84.65 58.89, 108.9 28.22, 131.03 3.11 M60.06 84.91 C75.71 62.56, 94.36 42.33, 130.52 1.61 M66.04 82.23 C90.17 54.43, 112.94 29.14, 131.85 9.97 M64.09 83.13 C87.18 58.73, 109.51 31.83, 131.2 8.17 M69.87 82.89 C86.04 69.09, 98.56 49.49, 129.41 13.1 M69.81 84.09 C91.44 58.59, 115.66 32.99, 129.76 13.8 M75.44 85.7 C92.06 63.84, 109.9 44.3, 132.04 22.09 M75.73 83.37 C92.6 63.1, 109.8 45.33, 131.05 19.86 M81.82 85.51 C93.38 68.2, 108.31 50.61, 129.96 24.72 M81.32 83.69 C92.76 70.56, 107.44 54, 131.69 25.32 M85.32 84.1 C98.3 68.97, 113.49 52.48, 131.05 32.01 M85.17 84.17 C97.07 72.02, 108.73 58.06, 130.26 33.31 M90.55 83.47 C97.48 75.67, 109.19 64.99, 130.43 39.94 M90.44 85.04 C106 67.49, 121.66 48.99, 129.41 38.36 M97.41 83.11 C105.11 75.66, 113.83 62.95, 129.52 46.69 M96.46 84.47 C108.41 70.14, 120.89 55, 131.41 45.12 M102.72 85.71 C109.33 75.05, 120.28 62.11, 131.05 49.96 M100.78 83.73 C107.79 77.42, 115.42 68.86, 129.69 51.14 M107.96 86.21 C114.6 76.1, 123.45 68.3, 132.64 56.6 M107.44 83.75 C111.76 79.1, 117.64 73.72, 130.88 56.11 M113.5 84.72 C119.12 76.95, 126.23 67.93, 130.58 63.74 M111.7 83.58 C117.71 77.38, 122.87 71.37, 131.11 62.36 M118.38 83.6 C119.43 81.53, 126.35 73.6, 129.41 68.45 M116.32 84.95 C119.87 81.29, 123.98 78.32, 130.1 70.11 M122.67 84.37 C124.98 79.84, 130.11 77.37, 129.65 76.29 M122.51 84.52 C126.14 80.72, 128.18 77.8, 130.68 74.62 M0.06 83.76 C0.06 83.76, 0.06 83.76, 0.06 83.76 M0.06 83.76 C0.06 83.76, 0.06 83.76, 0.06 83.76 M6.71 84.07 C4.67 82.73, 3.72 81.42, -0.49 78.89 M6.43 83.64 C4.16 81.88, 1.76 80.08, -0.24 78.1 M12.54 82.86 C9.55 81.89, 5.74 78.83, 1.4 74.63 M11.31 83.33 C7.16 79.33, 3.26 75.58, -0.23 72.61 M19.01 83.05 C11.97 76.59, 6.96 74.47, 0.9 66.5 M18.08 83.92 C11.01 77.46, 4.04 70.24, -0.56 68.19 M25.61 83.12 C17.87 77.75, 10.65 69.17, 0.89 61.74 M24.01 84.38 C18.09 78.4, 10.93 71.46, 0.79 62.84 M31.27 83.58 C20.66 75.82, 13.82 69.03, 0.79 57.44 M31.25 83.66 C19.82 74.72, 8.61 63.72, 1.32 57.73 M37.85 82.37 C25.46 72.04, 9.47 61.5, -2.01 52.5 M35.99 84.42 C26.56 74.91, 16.61 65.84, 0.21 52.3 M41.46 83.66 C32.08 74.72, 22.81 66.71, -0.59 45.04 M42.03 83.48 C30.13 73.87, 18.47 63.22, 0 46.6 M47.78 82.81 C36.72 73.6, 24.16 59.88, 1.22 42.75 M48.53 84.26 C33.91 69.7, 17.8 56.41, 0.82 41.19 M55.74 84.77 C36.11 67.17, 14 47.19, -0.09 35.18 M54.26 82.71 C42.88 73.46, 30.3 61.88, -0.05 36.9 M60.58 84.32 C46.12 69.08, 29.87 55.45, -0.77 31.45 M61.11 83.03 C36.99 64.65, 15.85 44.33, -0.77 30.08 M65.53 84.51 C53.77 72, 40.55 60.63, 1.23 24.56 M68.31 83.59 C50.51 70.82, 35.32 55.34, 0.66 26.34 M73.15 85.6 C57.64 72.24, 43.25 55.87, 1.2 21.06 M72.21 83.42 C54.47 67.62, 36.41 51.3, -0.21 19.81 M80.49 82.04 C60.78 68.42, 45.27 55.42, -1.24 13.39 M80.03 84.63 C58.55 66.62, 38.1 49.44, -0.65 14.88 M86.91 84.86 C63.87 64.55, 42.76 44.62, 0.78 9.54 M86.07 84.39 C55.72 55.74, 24.34 30.51, 0.61 9.46 M93.03 81.97 C62 61.37, 36.2 37.63, 0.43 5.38 M91.27 84.59 C54.18 52.44, 18.26 20.61, 1.01 4.73 M96.52 84.48 C62.85 55.85, 29.19 24.84, 0.9 -0.99 M97.41 83.81 C64.18 55.03, 29.76 26, 0.3 -0.97 M103.32 83.76 C74.14 57.77, 48.17 32.77, 5.44 -2.34 M102.88 83.77 C83.05 66.39, 62.61 47.26, 7.16 0.24 M110.9 84.34 C82.59 61.46, 59.03 38.91, 10.78 -0.38 M110.46 83.82 C84.12 59.29, 55.58 34.96, 13.03 -0.74 M116.02 82.37 C92.93 65.63, 74.38 45.01, 17.2 -0.39 M115.49 82.78 C84.89 56.29, 54.99 29.2, 18.77 -1.18 M121.72 81.83 C93.83 60.72, 68.55 38.56, 26.26 -2.03 M121.45 82.78 C96.77 60.62, 72.01 39.01, 24.83 -1.83 M129.05 84.93 C100.43 61.77, 74.72 38.21, 31.83 0.86 M128.18 83.1 C100.22 59.21, 72.12 33.82, 30.79 -1.18 M129.36 82.51 C101.98 58.65, 74.18 32.71, 35.78 -1.3 M130.6 80.03 C112.63 63.73, 90.74 45.66, 37.57 0.48 M128.76 75.55 C109.24 57.48, 89.26 38.42, 43.26 -0.88 M129.76 75.96 C97.1 47.45, 64.19 18.72, 43.19 -0.54 M131.7 68.87 C101.46 45.22, 69.71 17.66, 49.97 -0.05 M130.84 70.53 C108.75 49.35, 87.17 30.36, 48.58 -0.79 M129.61 62.91 C112.73 48.89, 90.13 29.1, 53.89 -0.4 M130.37 63.92 C113.37 48.54, 96.73 34.3, 55.72 -1.81 M130.22 59.97 C107.12 37.58, 83.93 17.52, 62.27 1.33 M129.97 60.6 C115.45 47.28, 100.06 33.77, 61.24 -0.39 M132.52 53.93 C115.84 38.9, 99.41 27.97, 67.39 -0.34 M129.89 54.53 C108.86 34.95, 86.79 18.17, 68.6 -0.63 M129.82 50.53 C118.79 40.33, 106.96 26.27, 73.82 -2.69 M130.47 48.95 C117.6 36.04, 103.43 24.33, 73.89 -1.5 M128.67 45.09 C112.54 28.93, 99.61 16.29, 81.67 -1.8 M129.67 43.62 C120.68 34.07, 109.89 24.49, 79.56 -0.35 M131.93 38.77 C115.06 22.81, 95.19 8.28, 86.31 -2.15 M130.56 38.54 C114.04 24.69, 96.64 10.14, 84.64 -1.03 M129.72 32.33 C115.58 21.18, 106.03 8.31, 93.4 -0.4 M130.81 33.26 C116.06 20.61, 100.88 8.09, 92.32 -0.11 M130.45 26.39 C118.98 17.11, 107.77 6.95, 98.64 1.06 M130.22 28.58 C122.86 21.05, 115.97 13.9, 98.11 -1 M131.82 23.13 C120.72 13.1, 110 3.95, 102.99 -0.94 M130.18 21.81 C119.34 13.32, 111.05 4.5, 103.63 -1.45 M131.81 18.6 C122.01 10.29, 114.07 2.88, 111.98 -1.4 M131.2 16.52 C125.17 10.49, 117.68 5.42, 110.38 -1.13 M131.59 12.39 C123.68 8.54, 117.58 0.11, 115.4 -0.72 M130.38 11.81 C127.94 8.2, 123.38 6.61, 115.96 -1.62 M130.84 7.42 C127.36 4.95, 126.98 3.73, 122.33 -0.52 M130.87 6.3 C128.46 4.15, 125.11 2.21, 121.97 -0.8" stroke="#12b886" stroke-width="0.5" fill="none"></path><path d="M0.37 -0.24 C38.03 -0.42, 73.86 0.95, 128.48 0.78 M0.65 -0.13 C41.69 0.33, 84.9 0.2, 128.16 0.35 M128.47 -1.03 C126.96 24, 126.14 46.21, 126.68 84.66 M127.94 0.73 C128.99 25.69, 129 52.45, 128.17 82.81 M127.93 83.84 C84.39 86.04, 38.02 83.81, 1.94 84.88 M128.43 83.62 C92.79 83.81, 59.44 83.95, 0.2 83.02 M1.67 82.68 C0.14 66.55, 1.29 50.7, -0.04 -0.82 M-0.85 83.62 C0.35 65.1, -0.9 47.47, -0.97 -0.26" stroke="#000000" stroke-width="1" fill="none"></path></g><g transform="translate(75.1093926768317 339.2001235635548) rotate(0 35.5 11.5)"><text x="35.5" y="15" font-family="Virgil, Segoe UI Emoji" font-size="18.333633382369378px" fill="#000000" text-anchor="middle" style="white-space: pre;" direction="ltr">server 1</text></g><g stroke-linecap="round" transform="translate(193.65508391850562 308.3791750068849) rotate(0 64.06116664556725 41.85632775245597)"><path d="M0 0 C0 0, 0 0, 0 0 M0 0 C0 0, 0 0, 0 0 M-0.56 5.65 C0.53 5.28, 2.85 2.44, 4.47 0.37 M-0.54 6.71 C0.93 4.92, 2.11 3.61, 5.01 0.43 M0.19 11.47 C4.79 7.92, 6.62 2.87, 11.61 0.97 M0.69 11.91 C2.47 8.37, 5.21 6.57, 10.44 0.73 M-1.89 17.15 C4.08 14.97, 6.56 9.24, 15.27 -0.13 M0.49 18.93 C5.95 13.31, 9.74 7.12, 16.28 0.23 M0.08 22.65 C7.01 17.38, 10.29 11.62, 22.81 -0.05 M1.07 23.9 C7.82 15.14, 17.27 5.85, 21.74 -0.23 M-0.9 31.74 C9.61 18.15, 20.73 7.15, 26.03 -0.67 M-0.39 30.49 C5.49 24.89, 11.31 18.13, 25.27 -0.49 M-0.55 37.25 C5.04 27.64, 13.15 23.04, 33.35 -0.93 M-0.82 37.76 C8.55 25.58, 18.62 15.43, 31.61 0.52 M-0.35 42.26 C6.74 34.91, 16.27 24.71, 37.88 0.48 M0.51 42.93 C12.72 28.68, 24.1 14.16, 35.99 -0.43 M-0.44 49.32 C10.91 39.4, 20.71 27.19, 43.63 -1.95 M-0.55 48.13 C13.7 33.41, 26.29 18.29, 42.87 -0.49 M1.92 54.18 C10.61 44.35, 21.62 29.55, 49.26 0.54 M1.07 53.59 C17.05 34.39, 33.15 16.64, 48.18 -0.12 M0.15 62.83 C19.99 39.2, 40.08 14.12, 54.33 -0.14 M-0.06 60.23 C14.46 45.82, 28.17 30.12, 54.1 -0.68 M-0.09 69.21 C19.73 42.94, 39.72 21.43, 59.07 0.21 M0.21 66.81 C18.95 44.31, 38.97 21.62, 57.31 0.15 M2.14 72.48 C18.5 54.08, 35.45 32.02, 62.6 -1.04 M1.14 72.77 C16.8 51.67, 36.1 32.5, 63.68 0.78 M-1.9 78.3 C19.54 57.95, 37.21 37.11, 70.72 -0.29 M0.62 78.92 C26.5 49.2, 54.24 18.36, 68.61 0.32 M-0.39 83.74 C19.7 61.64, 42.99 36.55, 74.12 1.3 M-0.06 83.95 C16.51 64.52, 34.05 46.4, 73.7 -1.02 M5.41 83.37 C27.35 59.4, 48.26 35.59, 80.14 -1.24 M6.64 83.94 C26.38 63.53, 44.22 41.77, 79.07 0.62 M11.64 83.75 C38.66 52.62, 69.37 19.35, 87.04 0.34 M11.49 84.41 C35.56 56.12, 59.5 29.82, 86.03 -0.76 M16.68 85.4 C32.07 65.15, 50.78 47.2, 91.72 0.55 M15.83 83.74 C36.77 60.2, 59.68 36.24, 89.41 -0.51 M22.81 85.04 C46.11 57.5, 67.3 35.4, 96.02 1.06 M21.7 84.94 C42.03 62.29, 61.72 40.58, 96.26 -0.86 M27.99 84.63 C49.39 58.68, 76.85 28.39, 102.4 -0.2 M28.18 84.17 C47.57 60.92, 69.01 37.11, 100.11 -0.36 M32.05 84.33 C58.45 53.25, 86.78 24.66, 108.24 -0.1 M32.04 83.22 C56.71 56.33, 79.88 30.39, 105.75 0.53 M36.5 83.52 C63.38 52.34, 90.45 21.81, 109.58 -1.27 M38.06 84.06 C53.2 66.55, 69.89 47.93, 111.42 0.03 M42.75 85.81 C60.63 65.92, 76.24 49.19, 114.7 1.59 M43.74 83.24 C60.29 64.95, 76.58 45.09, 116.95 0.23 M47.87 84.03 C72.3 55.33, 98.61 28.23, 123.17 -0.97 M47.57 84.5 C73.68 53.1, 100.06 24.37, 121.29 -0.13 M54.84 85.21 C80.23 53.88, 104.05 25.46, 128.88 0.07 M53.78 83.18 C77.7 55.07, 103.06 27.5, 126.03 1.07 M60.28 83.62 C86.38 53.21, 112.44 22.77, 131.63 4.2 M58.58 84.81 C84.3 55.93, 109.67 28.81, 131.51 2.87 M64.72 85.74 C79.27 70.12, 92.15 52.97, 131.56 7.37 M64.9 83.51 C78.95 67.71, 90.97 51.92, 129.72 8.69 M68.37 83.26 C81.62 67.26, 97.82 51.97, 131.3 14.48 M70.67 84.59 C85.56 65.35, 102.68 47.41, 130.98 14.3 M77.32 82.1 C97.88 61.55, 117.58 35.39, 131.85 21.41 M75.56 84.94 C88.71 69.04, 100.74 54.37, 130.32 21.39 M79.33 83.4 C97.87 62.14, 115.84 42.07, 130.13 28.27 M81.22 83.65 C93.21 69.69, 104.03 57.67, 131.48 26.29 M85.39 85.26 C98.1 70.04, 108.91 57.5, 130.7 32.39 M85.36 85.17 C95.78 72.51, 106.06 59.21, 131.2 32.48 M92.81 84 C101.48 73.5, 113.11 61.05, 131.38 38.05 M91.31 84.09 C104.57 66.71, 119.46 50.39, 131.31 39.82 M96.16 83.42 C102.32 77.7, 112.37 66.4, 130.26 45.76 M95.57 83.91 C106.28 74.21, 115.52 63.75, 130.23 45.29 M100.97 84.53 C113.13 70.65, 121.89 59.5, 128.77 49.51 M101.82 84.24 C107.94 76.2, 115.88 67.46, 130.53 51.82 M107.39 86.56 C117.5 73.97, 123.07 63.17, 129.21 58.49 M107.28 85.36 C111.6 78.26, 117.34 73.87, 131.01 57.41 M112.48 83.94 C118.09 78.03, 124.29 71.13, 130.56 62.12 M111.35 84.68 C116.99 78.71, 120.88 75.21, 130.96 63.76 M117.98 83.37 C119.67 79.69, 122.43 77.27, 130.04 67.79 M117.96 85.24 C121.35 80.23, 126.85 74.34, 130.24 69.42 M123.84 84.53 C124.28 82.61, 128.47 77.8, 130.38 74.54 M122.49 84.25 C125.44 80.62, 128.77 77.54, 130.78 74.84 M0.06 83.76 C0.06 83.76, 0.06 83.76, 0.06 83.76 M0.06 83.76 C0.06 83.76, 0.06 83.76, 0.06 83.76 M7.01 84.27 C4.25 83, 2.51 79.71, -0.95 78.07 M6.07 83.92 C5.12 82.71, 3.54 81.76, -0.67 78.25 M12.87 85.06 C10.37 82.59, 7.19 79.69, 1 71.55 M12.46 83.43 C8.71 80.29, 6.09 78.14, 0.75 73.34 M19.64 85.31 C14.92 78.49, 10.55 75.46, -0.39 66.64 M18.71 82.98 C12.62 79.62, 7.25 73.37, -0.81 68.22 M25.66 82.43 C18.13 76.95, 9.92 69.97, -1.82 62.24 M23.95 83.17 C15.48 75.89, 5.09 67.2, -0.41 62.87 M30.61 83.79 C22.4 75.97, 14.54 67.82, -1.27 58.94 M30.76 83.29 C22.67 76.63, 13.42 68.46, 0.85 57.97 M35.03 83.63 C26.74 77.48, 20.08 69.04, -0.68 49.98 M36.5 83.36 C24.78 73.41, 11.39 63.05, 0.28 51.31 M43.74 84.45 C28.89 70.67, 16.92 60.36, 1.56 45.78 M43.11 84.55 C30.28 73.18, 18.08 62.95, -0.39 46.29 M49.09 81.91 C38.15 75.12, 25.07 64.43, -1.67 40.35 M48.92 83.61 C33.05 69.24, 16.35 54.29, -0.89 41.8 M54.71 83.27 C34.09 65.76, 13.16 50.9, 0.78 35.54 M54.85 82.83 C41.91 73.86, 29.9 61.93, 1.21 36.04 M62.51 83.63 C39.98 66.89, 22.08 49.39, 1.36 30.8 M61.95 83.77 C46.94 71.38, 32.74 60.79, -0.08 29.67 M68.43 84.35 C46.42 63.94, 22.43 46.34, 0.8 27.42 M67.61 83.14 C50.96 70.12, 32.33 54.77, 0.39 25.67 M73.69 82.01 C45.23 59.92, 13.67 34.75, -0.91 18.29 M73.32 83.31 C52.5 65.77, 31.3 48.03, 0.33 20.5 M80.05 85.35 C62.01 67.7, 46.03 56.55, -1.46 16.14 M78.46 84.74 C49.18 58.49, 19.79 33.67, -0.38 15.9 M85.55 81.75 C54.43 56.29, 23.16 26.81, -1.32 11.29 M84.5 83.92 C52.39 54, 18.34 25.61, -0.31 10.12 M91.51 85.39 C73.13 68.75, 55.46 52.98, -0.61 3.9 M90.53 83.11 C57.93 53.77, 22.61 23.29, 1.13 3.68 M98.27 83.73 C66.93 56.68, 35.97 31.44, 0.55 -1.59 M97.49 84.23 C70 60.13, 42.95 36.74, -0.15 -0.73 M104.45 82.43 C72.92 55.52, 43.12 29.75, 8.09 -1.67 M103.93 83.34 C73.48 58.23, 42.37 31.59, 7.69 0.13 M110.24 82.34 C77.31 56.36, 47.26 27.28, 11.42 0.29 M109.76 83.12 C80.95 58.82, 51.09 34.63, 12.25 -0.53 M117.05 81.92 C90.61 63.42, 69.06 44.47, 17.52 -0.68 M116.49 82.76 C92.84 63.44, 70.66 44.27, 19.54 -0.62 M122.63 85.45 C104.32 65.4, 82.09 47.69, 24.64 -1.94 M122.78 83.71 C102.52 64.83, 82.28 48.72, 24.16 -0.55 M128.72 85.48 C95.85 56.98, 61.1 26.57, 29.32 -1.01 M128.6 83.61 C107.67 66.27, 87.54 48.67, 30.86 -1.45 M129.34 81.15 C94.81 50.35, 59.51 18.97, 38.13 -1.17 M130.03 80.09 C111.29 65.03, 91.45 47.36, 36.7 -1.29 M131.31 75.74 C103.8 52.09, 77.93 29.69, 42.9 -2.46 M130.27 75.88 C99.3 48.69, 68.24 20.32, 42.88 -0.39 M129.75 70.4 C113.01 55.36, 93.62 37.9, 48.04 -0.74 M131.68 69.96 C104.38 46.87, 79.03 23.98, 48.46 -0.98 M128.78 63.87 C113.12 52.18, 97.12 36.21, 54.18 -1.3 M130.93 64.86 C114.8 48.79, 97.93 34.97, 54.59 -1.25 M130.82 58.78 C110.17 42.38, 86.13 22.23, 61.29 -2.55 M130.79 60.4 C103.82 37.24, 76.76 14.22, 62.05 0.36 M131.56 55.3 C111.29 37.65, 94.24 23.59, 68.33 -1.67 M129.68 54.87 C109.66 34.53, 86.49 15.8, 67.47 -0.9 M130.98 47.5 C109.9 29.2, 87.15 11.65, 72.55 -1.62 M131.09 48.86 C114.68 33.77, 98.21 20.17, 73.08 -1.68 M132.32 45 C113.3 25.37, 90.4 11.28, 80.75 -2.17 M131.13 42.48 C113.72 29.46, 98.84 16.16, 80.49 0.03 M129.13 37.28 C117.07 24.52, 103.39 14.78, 84.98 -1.5 M130.04 39.07 C116 26.57, 103.42 14.3, 84.9 -1.27 M132.21 31.41 C121.6 23.85, 110.97 16.17, 93.6 0.06 M129.64 32.51 C117.53 21.78, 104.77 10.03, 92.64 -0.82 M132.68 28.32 C123.62 22.83, 114.64 13.38, 99 -1.58 M130.89 26.96 C118.59 16.55, 107.25 7.31, 97.38 0.32 M128.91 20.51 C120.27 13.97, 113.84 5.63, 104.82 -1.27 M131.32 22.07 C123.37 15.47, 117.65 10.38, 103.9 -0.26 M129.56 16.34 C124.91 9.75, 116.16 4.36, 109.26 0.3 M130.6 16.76 C125.89 12.28, 122.07 8.63, 109.85 0.12 M128.67 9.85 C124.89 7.61, 119.4 1.63, 116.76 -0.94 M130.03 12.42 C125.52 6.7, 120.67 3.95, 116 -0.83 M131.54 7.66 C127.58 4.01, 124.7 1.54, 121.76 -0.42 M130.3 6.76 C128.16 4.59, 126.22 3.13, 122.03 -0.64" stroke="#40c057" stroke-width="0.5" fill="none"></path><path d="M-1.85 -0.09 C37.26 1.72, 74.45 -0.27, 127.75 1.3 M-0.1 -0.04 C36.84 0.23, 73.33 -1.08, 128.55 0.18 M126.95 0.55 C126.53 21.77, 128.27 43.53, 129.38 83.34 M128.21 -0.27 C128.23 30.28, 128.7 62.37, 129.05 83.61 M128.02 82.63 C90.84 85.61, 49.1 82.79, 1.18 84.33 M128.97 83.2 C91.14 82.17, 52.78 82.54, -0.78 84.55 M1.01 84.78 C0.02 62.11, -1.61 42.71, -0.44 -1.7 M-0.66 83.78 C-1.46 59.11, 0.14 34.26, 0.97 -0.92" stroke="#000000" stroke-width="1" fill="none"></path></g><g transform="translate(217.71625056407265 338.73550275934076) rotate(0 40 11.5)"><text x="40" y="15" font-family="Virgil, Segoe UI Emoji" font-size="18.333633382369378px" fill="#000000" text-anchor="middle" style="white-space: pre;" direction="ltr">server 2</text></g><g stroke-linecap="round" transform="translate(337.0751420947363 308.3791750068849) rotate(0 64.06116664556725 41.85632775245597)"><path d="M0 0 C0 0, 0 0, 0 0 M0 0 C0 0, 0 0, 0 0 M-0.19 5.97 C0.36 5.12, 1.25 4.06, 5.33 -0.19 M-0.1 6.18 C1.74 4.2, 4.02 1.73, 5 0.37 M-1.35 12 C3.84 9.83, 4.86 6.43, 10.1 1.07 M-0.02 12.63 C2.95 9.47, 5.39 4.62, 11.18 -0.74 M-0.14 16.89 C3.16 13.68, 7.56 7.97, 14.03 1.56 M-0.42 18.49 C5.87 11.94, 10.49 5.88, 15.53 0.23 M-1.32 25.01 C6.5 18.58, 11.3 11.61, 19.6 1.55 M1.25 23.9 C6.8 17.11, 13.14 10.93, 20.81 -0.52 M0.43 30.55 C9.38 18.65, 17.46 10.08, 24.89 -0.51 M0.14 31.05 C6.92 20.41, 14.87 13.06, 26.85 0.15 M0.06 38.68 C11.65 24.47, 20.13 14.43, 31.04 -1.22 M0.49 36.35 C12 23.45, 23.85 8.57, 32.52 -0.35 M0.8 42.78 C11.93 30.32, 22.34 19.44, 37.84 1.01 M-0.82 43.36 C11.65 27.12, 24.38 13.98, 36.22 0.1 M1.17 49.71 C14.3 31.06, 27.24 17.92, 41.98 -1 M-0.8 49.56 C9.45 37.71, 17.73 26.94, 42.55 0.69 M0.63 53.53 C15.36 39.19, 27.98 24.27, 48.81 1.81 M-0.2 55.52 C10.43 43.46, 20.18 32.7, 46.62 0.29 M-0.74 60.55 C22.24 36.62, 41.04 10.82, 54.58 -0.31 M0.71 61.5 C12.74 46.2, 24.25 32.14, 52.75 -0.09 M-0.58 67.03 C23.74 41.52, 46.43 16.1, 58.2 1.12 M0.21 66.61 C13.27 51.13, 28.17 34.75, 58.78 1.19 M0.74 72.43 C16.04 51.62, 34.29 33.63, 63.49 1.79 M0.73 73.62 C18.25 54.24, 35.67 32.08, 64.74 -1.1 M-0.84 80.72 C18.61 59.3, 35.35 40.2, 66.93 1.63 M0.32 79.7 C17.36 59.5, 34.73 39.73, 69.18 -0.51 M1.18 85.3 C21.53 62.07, 40.36 38.3, 75.88 -2.23 M1.43 84.88 C20.27 61.18, 40.37 38.96, 73.86 -0.5 M6.25 83.03 C23.93 63.94, 39.7 43.65, 80.4 1.57 M5.74 85.59 C21.74 65, 39.8 45.41, 80.05 0.16 M13.18 84.79 C34.13 61.13, 52.9 37.02, 83.43 -0.41 M11.19 84.67 C35.95 57.78, 57.44 30.82, 85.23 -0.21 M17.05 85.43 C43.9 56.48, 66.97 28.08, 88.55 -1.36 M17.26 84.86 C32.26 66.3, 48.54 48.77, 89.37 0.39 M22.82 85.96 C46.94 57.35, 70.93 27.35, 94.28 -1.29 M23.18 84.51 C49.59 52.4, 76.53 20.85, 95.69 0.09 M29.13 82.65 C51.98 58.28, 72 32.12, 101.77 2.05 M28.15 84.14 C45.85 62.23, 65.93 39.77, 100.87 -0.34 M34.51 83.99 C57.72 58.9, 78.85 32.63, 105.1 -1.91 M32.11 84.87 C47.28 68.4, 63.52 51.17, 105.85 -1 M37.15 83.68 C54.69 62.74, 73.08 44.01, 110.99 0.52 M38 85 C56.7 62.94, 74.2 41.78, 112.04 -0.34 M45.16 85.61 C69.08 53.17, 97.25 19.99, 116.41 0.95 M42.47 84.45 C59.51 66.13, 74.45 48.21, 115.42 0.09 M48.28 84.95 C70.64 60.63, 90.8 39.48, 123.62 -1.75 M48.17 85.28 C70.14 59.61, 93.26 34.24, 122.1 0.36 M52.19 85.03 C81.85 54.26, 106.48 26.3, 127.18 -0.26 M54.49 84.2 C68.56 67.99, 85.33 50.58, 127.81 0.94 M58.19 86.44 C78.34 64.96, 96.58 40.11, 129.6 1.22 M59.78 85.06 C83.91 58.11, 105.92 30.79, 130.06 2.22 M65.51 83.96 C90.49 53.5, 112.47 26.12, 131.7 8.97 M64.14 83.34 C79.43 66.07, 95.22 48.11, 131 7.94 M71.03 83.61 C85.44 68.11, 98.86 49.16, 130.79 16.19 M69.67 84.67 C89.84 62.68, 109.59 40.8, 130.09 15.24 M75.53 83.6 C87.4 71.57, 95.81 58.09, 128.57 21.09 M75.17 83.32 C96.3 60.53, 118.45 34.26, 130.53 20.15 M79.46 83.41 C92.48 72.28, 104.37 54.14, 132.63 28.06 M80.45 84.7 C91.82 71.84, 102.21 58.28, 131.22 26.33 M84.52 85.43 C100.01 67.71, 113.39 51.41, 132.24 32.77 M84.39 84.6 C101.53 66.53, 115.89 48.13, 131.05 33.61 M92.67 84.31 C103.07 70.42, 114.44 58.43, 131.88 39.8 M90.48 83.96 C103.08 73.05, 112.01 60.11, 131 39.2 M97.19 84.15 C103.89 76.04, 111.98 65.12, 130.36 43.97 M96.34 85.63 C102.76 76.44, 111.52 66.27, 131.65 44.42 M100.3 84.27 C108.74 72.61, 118.16 62.73, 131.77 51.6 M101.85 83.56 C110.31 75.37, 119.38 64.98, 130.73 51.53 M104.82 84.21 C114.22 75.46, 123.51 62.7, 131.11 58.17 M107.36 85.37 C115.63 75.25, 124.58 64.42, 131.19 56.9 M112.52 84.74 C117.37 77.24, 121.15 71.84, 130.04 61.43 M112.44 84.81 C118.68 77.9, 123.98 69.22, 131.48 63.55 M115.8 84.84 C120.08 79.4, 124.03 76.94, 130.48 71.07 M118.17 84.29 C121.85 79.04, 126.71 72.93, 129.62 70.4 M123.54 83.33 C125.13 80.61, 128.51 79.17, 130.06 74.48 M123.44 83.69 C125.25 81.29, 127.64 78.82, 130.73 75.07 M0.06 83.76 C0.06 83.76, 0.06 83.76, 0.06 83.76 M0.06 83.76 C0.06 83.76, 0.06 83.76, 0.06 83.76 M6.64 83.29 C3.63 82.1, 1.25 79.89, -0.75 77.35 M6.42 84.32 C4.24 82.52, 2.48 81.06, 0.06 78.34 M13.34 84.86 C8.28 78.07, 2.01 74.97, -0.79 73.85 M12.39 83.71 C9.54 80.87, 5.17 77.72, -0.76 73.59 M20.26 84.1 C11.37 76.87, 4.44 71.33, -0.49 67.92 M18.63 83.3 C14.16 81.34, 10.47 77.77, 0.1 68.25 M23.61 81.65 C16.28 77.96, 13.9 73.77, 1.71 62.12 M23.93 83.3 C17.13 78.35, 11 71.63, -0.26 62.54 M31.9 83.16 C19.76 77.26, 12.09 68.58, 2.08 57.97 M31.01 83.41 C23.15 77.65, 14.2 71.18, -0.15 56.56 M36.35 83.2 C26.24 73.23, 17.3 65.1, -0.63 51 M36.37 85.01 C28.53 76.1, 19.57 69.21, -0.1 52.45 M42.46 82.55 C29.58 69.6, 13.62 57.71, 1.87 47.95 M42.12 83.6 C25.43 68.51, 9.04 54.81, 0.77 46.94 M49.27 85.21 C37.25 74.79, 29.74 68.38, -0.87 41.13 M49.75 83.28 C34.44 72.82, 22.54 61.51, 0.89 41.29 M53.09 84.73 C39.53 68.85, 21.78 57.29, 1.03 36.72 M54.33 82.68 C42.99 72.57, 29.63 62.34, -0.15 37 M62.53 84.54 C44.72 68.59, 23.83 51.04, 0.67 32.48 M60.05 84.7 C42.97 66.46, 24.74 51.66, -0.19 31.12 M66.21 84.31 C46.41 66.96, 23.73 45.22, 1.48 26.01 M66.48 84.41 C53.05 72.14, 39.63 59.65, 1.07 25.94 M72.05 84.91 C55.82 68.37, 40.12 56.26, 0.14 20.5 M72.26 83.5 C53.93 66.93, 32.88 48.67, -0.49 20.28 M78.48 85.43 C48.68 58.66, 22.25 30.86, 1.63 13.01 M78.93 84.79 C48.93 58.16, 19.68 30.97, 0.15 15.22 M86.24 81.54 C65.43 69.71, 50.19 52.65, -1.79 8.16 M85.1 84.12 C55.13 58.92, 25.11 31.92, 0.6 9.36 M93.33 85.73 C55.72 53.42, 23.27 21.96, 0.41 2.44 M92.03 84.07 C70.26 64.68, 48.02 46.47, 0.59 4.55 M98.78 85.78 C69.92 58.66, 41.67 36.49, 0.8 -1.43 M97.81 83.92 C66.13 56.36, 35.6 28.63, 0.2 -0.16 M101.9 81.65 C82.08 61.15, 58.01 41.78, 8.01 0.42 M103.15 84.08 C77.83 61.84, 51.03 37.73, 6.4 -0.21 M109.56 82.53 C87.82 66.22, 67.13 48.27, 12.13 -1.11 M109.12 84.56 C87.42 65.16, 65.39 45.47, 12.96 -0.02 M115.87 85.17 C93.45 64.72, 72.08 47.13, 18.84 1.34 M115.38 82.9 C94.35 63.59, 70.86 43.95, 19.05 -0.17 M121.26 82.17 C83.78 49.52, 44.32 17.65, 23.06 0.72 M121.74 83.9 C92.46 58.06, 64.5 32.18, 25.43 -0.71 M128.16 84.39 C89.93 52.7, 53.42 21.79, 32.03 -0.18 M128.34 83.52 C103.09 60.64, 78.7 38.64, 32 -1.45 M129.27 79.28 C103.54 54.68, 72.08 32.27, 37 -2.31 M130.41 80.77 C110.51 63.77, 91.67 47.39, 37.97 -0.01 M132.11 76.44 C102.37 49.25, 75.75 26.09, 44.5 -1.42 M131.32 74.69 C99.41 49.03, 67.93 21.93, 43.71 -1.37 M130.47 69.32 C104.75 48.9, 81.89 27.46, 47.61 0.94 M130.56 69.62 C109.41 51.23, 88.33 33.92, 50.43 -1.39 M129.18 62.99 C110.59 47.57, 90.45 30.29, 53.66 -0.18 M130.96 64.44 C105.89 43.01, 82.76 22.48, 54.43 -0.94 M129.33 60.37 C112.96 43.25, 97.38 29.91, 63.3 -0.9 M130.47 60.29 C106.18 38.75, 80.08 16.38, 60.65 -0.12 M131.3 55.98 C108.49 33.13, 86.33 14.83, 66.18 -2.09 M129.64 53.83 C106.02 32.78, 83.46 12.62, 68.88 -0.33 M129.76 48.15 C117.21 36.71, 105.28 27.44, 72.24 -0.38 M131.14 48.99 C114.4 33.97, 99.81 20.28, 73.51 0.14 M128.64 44.86 C111.86 24.88, 92.3 11.87, 78.96 0.75 M131.22 44.19 C121.01 35.18, 110.38 26.42, 79.29 -1.37 M132.18 39.87 C119.23 28.11, 109.09 19.28, 87.09 -2.54 M131.28 38.16 C114.26 23.86, 98.39 9.15, 85.6 -0.02 M131.86 34.59 C123.03 25.88, 113.45 17.75, 91.67 -2.29 M131.29 33.11 C120.66 23.84, 108.92 15.35, 91.9 0.29 M129.49 26.24 C120.89 17.72, 111.24 8.53, 97.77 -0.26 M131.38 28.53 C123.01 22.34, 117.58 15.55, 98.03 -1.13 M132.13 21.64 C125.65 16.71, 118.37 10.28, 103.73 1 M131.22 22.42 C122.81 15.92, 116.03 8.31, 103.93 -1.38 M131.13 17.47 C124.27 13.38, 118.83 9.73, 108.43 -0.88 M131.67 17.04 C125.04 13.19, 120.84 7.42, 111.41 -1.42 M129.17 10.05 C128.14 8.93, 124.93 7.98, 115.09 -1.64 M130.13 12.16 C124.75 6.66, 119.94 0.77, 116.35 -0.23 M130.88 6.95 C126.76 3.93, 123.6 1.45, 122.21 -1.55 M130.41 6.76 C127.63 4.15, 125.78 1.44, 122.39 -0.78" stroke="#82c91e" stroke-width="0.5" fill="none"></path><path d="M0.63 -1.2 C37.48 0.8, 75.45 -2.13, 128.3 -0.2 M-0.27 -0.97 C38.31 -0.27, 75.25 -0.63, 128.71 -0.59 M128.42 1.88 C128.78 27.06, 128.97 55.02, 126.78 83.89 M128.63 0 C129.08 22.76, 128.22 46.35, 128.69 83.66 M127.55 82.06 C97.82 85.08, 64.96 83.32, -1.32 85.4 M127.16 83.39 C95.51 83.66, 63.95 82.76, -0.06 84.22 M-1.66 84.28 C-0.43 52.43, -0.17 25.72, -0.91 -1.32 M0.63 82.94 C1.78 57.14, 0.05 31.65, -0.5 0.53" stroke="#000000" stroke-width="1" fill="none"></path></g><g transform="translate(361.6363087403033 338.73550275934076) rotate(0 39.5 11.5)"><text x="39.5" y="15" font-family="Virgil, Segoe UI Emoji" font-size="18.333633382369378px" fill="#000000" text-anchor="middle" style="white-space: pre;" direction="ltr">server 3</text></g><g mask="url(#mask-dLx88yNjjw6K5HJSVc85B)" stroke-linecap="round"><g transform="translate(117.29195280159365 160.88782059125742) rotate(0 35.08545011882734 30.906076014482437)"><path d="M0.78 -0.15 C-0.01 3.61, -9.4 18.58, -5.46 22.33 C-1.52 26.08, 19.28 17.24, 24.41 22.37 C29.54 27.5, 16.94 46.34, 25.3 53.13 C33.66 59.91, 66.22 61.2, 74.58 63.09 M-0.27 -1.28 C-0.63 2.71, -7.24 19.77, -3.26 23.93 C0.71 28.08, 18.77 18.57, 23.58 23.66 C28.39 28.75, 16.74 47.91, 25.57 54.45 C34.41 60.98, 68.61 61.36, 76.59 62.87" stroke="#000000" stroke-width="1" fill="none"></path></g><g transform="translate(117.29195280159365 160.88782059125742) rotate(0 35.08545011882734 30.906076014482437)"><path d="M51.66 67.6 C58.03 67.34, 63.68 66.1, 77.29 62.33 M51.4 69.05 C57.49 67.31, 62.2 65.88, 77.06 63.02" stroke="#000000" stroke-width="1" fill="none"></path></g><g transform="translate(117.29195280159365 160.88782059125742) rotate(0 35.08545011882734 30.906076014482437)"><path d="M53.34 50.25 C59.28 54.16, 64.52 57.08, 77.29 62.33 M53.09 51.7 C58.91 53.49, 63.28 55.59, 77.06 63.02" stroke="#000000" stroke-width="1" fill="none"></path></g></g><mask id="mask-dLx88yNjjw6K5HJSVc85B"><rect x="0" y="0" fill="#fff" width="296.6801323038044" height="325.1372608129657"></rect><rect x="135.32535750885472" y="173.3073330929085" fill="#000" width="13" height="20" opacity="1"></rect></mask><g transform="translate(135.32535750885472 173.3073330929085) rotate(0 17.05204541156627 18.486563512831367)"><text x="6.5" y="14" font-family="Virgil, Segoe UI Emoji" font-size="16px" fill="#000000" text-anchor="middle" style="white-space: pre;" direction="ltr">3</text></g><g stroke-linecap="round"><g transform="translate(254.45843994083907 264.76703422357673) rotate(0 70.00372075543123 21.128745148673033)"><path d="M-0.12 -0.05 C13.47 1.35, 59.16 6.12, 80.56 8.49 C101.96 10.86, 118.16 8.54, 128.26 14.16 C138.36 19.77, 139.18 37.57, 141.13 42.17 M-1.65 -1.12 C11.87 -0.11, 58.14 3.92, 79.64 6.59 C101.13 9.25, 116.99 8.73, 127.32 14.87 C137.66 21, 139.23 38.86, 141.65 43.38" stroke="#000000" stroke-width="1" fill="none"></path></g><g transform="translate(254.45843994083907 264.76703422357673) rotate(0 70.00372075543123 21.128745148673033)"><path d="M132.69 31.85 C135.22 33.94, 135.24 37.5, 141.91 42.63 M132.95 31.27 C135.67 35.22, 138.53 38.84, 141.52 43.91" stroke="#000000" stroke-width="1" fill="none"></path></g><g transform="translate(254.45843994083907 264.76703422357673) rotate(0 70.00372075543123 21.128745148673033)"><path d="M142.22 28.84 C142.67 31.57, 140.61 35.8, 141.91 42.63 M142.48 28.25 C142.54 33, 142.7 37.48, 141.52 43.91" stroke="#000000" stroke-width="1" fill="none"></path></g></g><mask></mask><g stroke-linecap="round"><g transform="translate(256.96162171923834 265.0801221903009) rotate(0 -76.00025739111584 19.705640489164352)"><path d="M0.05 0.42 C-18.42 0.95, -86.25 0.38, -110.92 3.17 C-135.6 5.95, -141.35 11.2, -148 17.14 C-154.65 23.08, -150.57 35.3, -150.82 38.83 M-1.39 -0.41 C-20.03 0.24, -87.52 0.93, -112.04 4.09 C-136.56 7.26, -142.02 12.61, -148.49 18.57 C-154.97 24.52, -150.55 36.52, -150.9 39.82" stroke="#000000" stroke-width="1" fill="none"></path></g><g transform="translate(256.96162171923834 265.0801221903009) rotate(0 -76.00025739111584 19.705640489164352)"><path d="M-155.44 29.58 C-155.47 33.24, -152.78 35.07, -151.1 40.47 M-155.56 29.97 C-154.09 32.67, -153.52 35.12, -150.85 39.45" stroke="#000000" stroke-width="1" fill="none"></path></g><g transform="translate(256.96162171923834 265.0801221903009) rotate(0 -76.00025739111584 19.705640489164352)"><path d="M-147.9 28.74 C-150.12 32.65, -149.61 34.72, -151.1 40.47 M-148.02 29.12 C-148.36 31.97, -149.62 34.63, -150.85 39.45" stroke="#000000" stroke-width="1" fill="none"></path></g></g><mask></mask><g stroke-linecap="round"><g transform="translate(254.70760578102363 265.525103898563) rotate(0 -10.03599685359768 20.67609069481307)"><path d="M-0.33 -1.16 C-3.81 2.46, -19.4 15.04, -20.86 22.12 C-22.32 29.2, -11.27 38.19, -9.09 41.31 M1.7 0.85 C-1.9 4.04, -19.56 13.17, -21.54 20.11 C-23.51 27.05, -12.57 38.94, -10.17 42.51" stroke="#000000" stroke-width="1" fill="none"></path></g><g transform="translate(254.70760578102363 265.525103898563) rotate(0 -10.03599685359768 20.67609069481307)"><path d="M-21.18 36.67 C-16.82 37.52, -14.23 40.74, -10.86 42.84 M-19.5 36.54 C-17.88 38.02, -15.47 38.65, -10.12 42.35" stroke="#000000" stroke-width="1" fill="none"></path></g><g transform="translate(254.70760578102363 265.525103898563) rotate(0 -10.03599685359768 20.67609069481307)"><path d="M-14.8 31.81 C-12.36 34.12, -11.71 38.81, -10.86 42.84 M-13.11 31.67 C-12.92 34.28, -11.97 36.02, -10.12 42.35" stroke="#000000" stroke-width="1" fill="none"></path></g></g><mask></mask><g stroke-linecap="round" transform="translate(216.0772668147115 425.9396934424092) rotate(0 30.20903304792523 40.196639445855226)"><path d="M4.02 3.49 C4.02 3.49, 4.02 3.49, 4.02 3.49 M4.02 3.49 C4.02 3.49, 4.02 3.49, 4.02 3.49 M1.13 12.91 C2.71 10.05, 5.85 7.01, 10.32 2.35 M1.13 12.91 C3.66 10.62, 4.98 8.92, 10.32 2.35 M1.53 18.55 C8.87 13.6, 11.74 4.58, 16.62 1.2 M1.53 18.55 C6.33 11.68, 13.16 5.59, 16.62 1.2 M1.27 24.95 C7.29 16.08, 16.13 9.12, 21.61 1.56 M1.27 24.95 C7.78 17.97, 12.8 10.29, 21.61 1.56 M1.01 31.35 C9.51 22.83, 17.4 10.42, 27.25 1.16 M1.01 31.35 C9.97 21.4, 18.35 12, 27.25 1.16 M1.4 36.99 C9.65 27.5, 15.88 20.18, 32.24 1.52 M1.4 36.99 C7.98 29.54, 15.14 20.96, 32.24 1.52 M1.14 43.39 C9.87 32.52, 20.79 19.86, 37.88 1.13 M1.14 43.39 C11.51 30.5, 21.54 17.72, 37.88 1.13 M1.53 49.03 C15.92 31.22, 31.13 13.61, 42.87 1.49 M1.53 49.03 C16.29 31.94, 30.65 15.53, 42.87 1.49 M1.27 55.43 C15.26 38.29, 30.51 20.67, 49.17 0.34 M1.27 55.43 C17.45 37.68, 34.45 17.78, 49.17 0.34 M1.01 61.83 C19.24 39.71, 36.28 18.84, 53.5 1.45 M1.01 61.83 C19.83 37.97, 41.03 15.37, 53.5 1.45 M2.06 66.72 C14.63 50.31, 27.12 36.65, 56.51 4.08 M2.06 66.72 C20.55 47.77, 38.12 27.9, 56.51 4.08 M3.11 71.61 C18.18 53.2, 34.02 35.87, 59.53 6.7 M3.11 71.61 C19.95 51.69, 36.82 34.41, 59.53 6.7 M4.16 76.49 C18.97 58.99, 37.25 36.78, 60.58 11.59 M4.16 76.49 C20.88 57.02, 38.18 38.23, 60.58 11.59 M7.18 79.12 C20.9 62.1, 35.7 46.85, 61.64 16.48 M7.18 79.12 C23.93 60.8, 38.55 43.39, 61.64 16.48 M11.51 80.23 C27.41 60.72, 39.91 43.35, 62.03 22.12 M11.51 80.23 C31.25 56.88, 50.3 34.68, 62.03 22.12 M17.16 79.84 C33.88 60.91, 50.75 38.85, 61.77 28.52 M17.16 79.84 C35.3 59.81, 51.57 41.07, 61.77 28.52 M22.14 80.2 C29.93 70.14, 37.6 62.38, 61.51 34.92 M22.14 80.2 C35.3 65.35, 49.04 50.32, 61.51 34.92 M27.13 80.56 C40.4 65.04, 52.13 51.68, 61.9 40.56 M27.13 80.56 C34.78 70.95, 43.68 62.56, 61.9 40.56 M32.77 80.16 C44.65 65.62, 54.9 55.56, 61.64 46.96 M32.77 80.16 C41.17 71.39, 48.01 62.89, 61.64 46.96 M37.76 80.53 C45.4 71.43, 55.75 61.65, 62.03 52.6 M37.76 80.53 C44 73.3, 51.67 64.92, 62.03 52.6 M43.4 80.13 C47.45 73.33, 54.35 64.97, 61.77 59 M43.4 80.13 C51.37 71.75, 56.92 63.53, 61.77 59 M47.08 82 C51.78 75.28, 59.14 69.48, 60.86 66.15 M47.08 82 C50.64 77.15, 54.66 74.6, 60.86 66.15 M6.05 78.4 C6.05 78.4, 6.05 78.4, 6.05 78.4 M6.05 78.4 C6.05 78.4, 6.05 78.4, 6.05 78.4 M12.45 78.66 C9.96 77.04, 6.82 74.34, 4.15 71.44 M12.45 78.66 C9.92 76.8, 8.19 75.09, 4.15 71.44 M18.85 78.92 C13.41 74.87, 6.65 67.32, 1.49 63.83 M18.85 78.92 C15.35 75.11, 11.53 71.38, 1.49 63.83 M25.24 79.18 C21.35 74.51, 16.78 69.52, 1.09 58.19 M25.24 79.18 C19.45 74.72, 15.3 69.84, 1.09 58.19 M30.89 78.79 C21.68 69.24, 7.24 61.47, 1.45 53.2 M30.89 78.79 C24.01 72.69, 16 66.12, 1.45 53.2 M37.28 79.05 C25.47 69.63, 14.42 63.02, 1.06 47.56 M37.28 79.05 C26.58 68.4, 14.91 60.06, 1.06 47.56 M43.68 79.31 C34.82 72.69, 28.05 62.93, 1.42 42.57 M43.68 79.31 C33.82 70.7, 24.36 62.92, 1.42 42.57 M47.82 77.6 C38.66 67.33, 27.23 58.47, 1.78 37.59 M47.82 77.6 C32.27 64.24, 15.09 50.18, 1.78 37.59 M54.21 77.87 C40.56 67.36, 25.87 53.31, 1.38 31.94 M54.21 77.87 C40.57 67.47, 27.01 54.92, 1.38 31.94 M56.84 74.85 C41.69 60.61, 23.52 46.51, 1.74 26.96 M56.84 74.85 C36.78 57.47, 18.88 41.9, 1.74 26.96 M59.46 71.83 C40.65 55.41, 22.11 37.9, 1.35 21.31 M59.46 71.83 C41.64 55.84, 24.64 41.64, 1.35 21.31 M59.82 66.84 C36.91 47.76, 16.25 27.64, 1.71 16.33 M59.82 66.84 C39.53 50.9, 22 34.04, 1.71 16.33 M61.69 63.17 C38.25 42.92, 18.83 25.78, 1.31 10.68 M61.69 63.17 C44.96 48.19, 27.78 33.47, 1.31 10.68 M62.05 58.18 C42.16 44, 28.28 25.4, 3.18 7.01 M62.05 58.18 C38.91 38.78, 17.53 18, 3.18 7.01 M61.66 52.54 C44.81 38.14, 28.91 26.37, 4.3 2.68 M61.66 52.54 C50.06 41.8, 37.84 33.06, 4.3 2.68 M62.02 47.55 C46.5 34.03, 29.24 18.99, 8.43 0.97 M62.02 47.55 C50.36 38.28, 39.58 28.95, 8.43 0.97 M62.38 42.56 C41.78 24.9, 23.52 8.07, 11.06 -2.05 M62.38 42.56 C48.21 29.4, 35.65 18.14, 11.06 -2.05 M61.98 36.92 C48.43 24.35, 33.66 11.43, 16.7 -2.44 M61.98 36.92 C49.42 24.76, 35.85 14.09, 16.7 -2.44 M62.34 31.93 C48.21 22.77, 36.2 11.02, 23.1 -2.18 M62.34 31.93 C50 21.61, 37.17 10.93, 23.1 -2.18 M61.95 26.29 C48.95 14.34, 37.57 5.21, 29.5 -1.92 M61.95 26.29 C55.09 20.6, 47.16 14.25, 29.5 -1.92 M62.31 21.3 C52.24 11.63, 41.17 3.43, 35.14 -2.32 M62.31 21.3 C52.75 12.13, 42.12 3.82, 35.14 -2.32 M61.16 15 C52.29 9.83, 49.19 2.59, 41.54 -2.05 M61.16 15 C54.1 8.34, 47.42 2.86, 41.54 -2.05 M59.25 8.05 C56.86 6.14, 53.41 3.33, 49.44 -0.48 M59.25 8.05 C56.05 4.71, 52.86 2.27, 49.44 -0.48" stroke="#ced4da" stroke-width="0.5" fill="none"></path><path d="M15.1 0 M15.1 0 C26.19 -0.73, 39.91 0.13, 45.31 0 M15.1 0 C23.29 0.48, 28.7 0.61, 45.31 0 M45.31 0 C54.34 0.01, 62.07 6.57, 60.42 15.1 M45.31 0 C56.94 0.91, 60.28 6.46, 60.42 15.1 M60.42 15.1 C61.33 27.42, 58.81 40.77, 60.42 65.29 M60.42 15.1 C59.54 28.07, 59.36 41.35, 60.42 65.29 M60.42 65.29 C61.77 74.03, 54.2 79.09, 45.31 80.39 M60.42 65.29 C59.09 76.88, 54.43 81.07, 45.31 80.39 M45.31 80.39 C35.99 82.06, 26.79 78.2, 15.1 80.39 M45.31 80.39 C37.87 80.51, 30.72 80.72, 15.1 80.39 M15.1 80.39 C3.8 82.37, -1.95 76.95, 0 65.29 M15.1 80.39 C6.69 80.61, -0.51 76.97, 0 65.29 M0 65.29 C-1.54 48.75, 2.13 32.54, 0 15.1 M0 65.29 C-0.05 54.94, 0.64 42.27, 0 15.1 M0 15.1 C0.16 4.03, 4.03 -0.89, 15.1 0 M0 15.1 C-1.81 4.04, 3.89 -0.82, 15.1 0" stroke="#000000" stroke-width="1" fill="none"></path></g><g stroke-linecap="round" transform="translate(216.2973926526356 425.0158693764308) rotate(0 29.787320548779235 10.201660654194711)"><path d="M3.09 6.66 C3.09 6.66, 3.09 6.66, 3.09 6.66 M3.09 6.66 C3.09 6.66, 3.09 6.66, 3.09 6.66 M2.95 15.52 C2.87 12.85, 5.63 9.6, 11.2 3.15 M0.81 13.9 C5.82 10.44, 8.5 5.67, 11.37 2.58 M6.77 16.92 C8.49 12.44, 12.57 6.84, 18.67 2.9 M4.83 16.85 C9.04 11.39, 12.32 8.81, 18.94 0.86 M8.53 17.68 C12.54 11.75, 20.94 5.57, 25.87 -0.89 M8.22 18.69 C12.23 14.65, 14.55 10.7, 23.72 1.12 M14.18 21.24 C17.55 15.04, 19.88 13.24, 28.75 0.86 M12.48 19.9 C18.21 12.87, 23.7 8.68, 28.95 2.08 M17.83 18.71 C22.06 17.32, 25.46 11.99, 34.26 2.7 M18.81 19.54 C23.63 13.5, 29.71 6.62, 34.1 0.08 M22.52 20.92 C30.28 14.22, 35.96 4.99, 37.34 0.2 M22.7 20.36 C28.2 13.65, 36.22 6.78, 38.5 1.87 M29.25 20.9 C31.21 16.58, 37.4 8.27, 44.5 1.36 M27.37 20.7 C33.01 16.03, 37.23 10.62, 43.35 3.57 M33.3 22.17 C39.73 13.16, 45.35 6.83, 46.2 2.9 M32.69 22.32 C38.8 16.08, 43.79 9.78, 46.67 4.45 M36.54 21.96 C42.96 14.58, 48.76 11.27, 51.21 3.78 M37.94 21.1 C42.75 16.99, 45.08 13.39, 52.06 5.92 M42.68 20.42 C47.24 14.61, 53.93 12.13, 55.62 7.99 M45.27 19.87 C48.56 15.75, 51.28 12.64, 56.25 6.07 M50.58 18.67 C53.68 17.15, 55.02 15.65, 58.04 10.32 M51.89 18.05 C52.6 16.15, 54.66 14.58, 58.61 10.06 M-0.47 12.74 C-0.47 12.74, -0.47 12.74, -0.47 12.74 M-0.47 12.74 C-0.47 12.74, -0.47 12.74, -0.47 12.74 M11.64 17.12 C7 15.85, 5.18 11.55, 2.78 8.65 M11.58 18.34 C9.91 15.98, 7.93 15, 1.24 9.7 M18.15 18.43 C15.11 16.3, 10.97 11.24, 4.36 5.77 M18.85 18.17 C14.94 14.79, 9.45 10.12, 4.79 5.29 M24.84 18.3 C18.96 15.08, 14.73 7.52, 6.59 4 M24.88 19.53 C20.38 15.76, 16.09 12.19, 7.48 3.9 M30.51 21.43 C29.53 15.79, 25.23 11.79, 13.29 4.31 M31.66 19.26 C25.92 14.81, 18.98 9.31, 12.6 2.91 M37.12 18.22 C29.08 12.79, 26.05 10.4, 15.45 -0.57 M37.2 17.81 C32.01 14.88, 27.94 11.46, 16.66 0.83 M40.7 16.59 C34.17 12.84, 27.76 3.51, 18.61 -1.4 M42.86 19.05 C35.25 12.99, 30.48 7.21, 20.49 -1.81 M48.77 18.41 C40.45 13.35, 34.91 6.83, 25.11 -0.76 M47.36 16.22 C43.03 13.97, 36.52 9.58, 26.08 -1.42 M51.4 15.7 C46.96 13.69, 40.69 6.08, 31.02 -0.57 M52.29 15.68 C47.48 13.33, 43.87 9.89, 31.97 -1.33 M53.68 13.77 C49.1 7.93, 47.2 3.96, 40.74 0.7 M55.09 13.43 C48.46 7.71, 42.27 1.55, 38.35 -1.46 M58.25 10.91 C55.75 8.27, 51.74 4.73, 47.68 0.28 M59.6 12.05 C55.46 8.94, 52.38 4.64, 48.11 1.08" stroke="#fab005" stroke-width="0.5" fill="none"></path><path d="M37.66 0.91 C43.7 1.49, 51.13 3.83, 54.85 5.55 C58.57 7.27, 60.65 9.19, 60 11.22 C59.34 13.25, 55.78 16.17, 50.92 17.72 C46.05 19.26, 37.34 20.36, 30.8 20.48 C24.26 20.59, 16.84 19.65, 11.69 18.42 C6.54 17.18, 1.31 15.03, -0.11 13.05 C-1.52 11.07, 0.19 8.56, 3.2 6.53 C6.2 4.5, 11.5 1.75, 17.94 0.89 C24.37 0.02, 37.53 1.35, 41.79 1.34 C46.05 1.33, 43.62 0.68, 43.48 0.84 M26 -0.04 C32.01 -0.78, 39.07 -0.51, 44.63 0.54 C50.18 1.59, 57.16 4.17, 59.35 6.24 C61.54 8.31, 60.57 10.87, 57.75 12.95 C54.93 15.03, 48.29 17.29, 42.42 18.7 C36.55 20.12, 28.66 21.82, 22.53 21.44 C16.39 21.06, 9.37 18.21, 5.61 16.41 C1.84 14.61, -0.54 12.82, -0.08 10.64 C0.38 8.47, 4.21 5.34, 8.38 3.37 C12.54 1.41, 21.97 -0.58, 24.92 -1.14 C27.86 -1.71, 26.08 -0.38, 26.05 -0.03" stroke="#000000" stroke-width="1" fill="none"></path></g><g stroke-linecap="round" transform="translate(216.20507320214983 454.65373671176144) rotate(0 29.787320548779235 11.89602476899131)"><path d="M1.6 8.01 C1.6 8.01, 1.6 8.01, 1.6 8.01 M1.6 8.01 C1.6 8.01, 1.6 8.01, 1.6 8.01 M1.16 14.54 C3.56 11.56, 6.29 8.34, 10.74 4.22 M2.47 13.71 C3.83 10.96, 6.23 8.43, 10.01 4.86 M2.15 19.36 C4.89 15.13, 9.35 13.08, 15.62 3.52 M3.32 17.62 C7.05 14.52, 11.69 8.85, 16.66 3.12 M5.72 19.28 C14.19 13.09, 19.97 5.6, 20.16 4.44 M7.58 19.65 C9.76 15.91, 13.37 12.74, 20.85 2.26 M12.04 20.95 C16.99 15.88, 22.63 7.28, 27.81 2.48 M11.04 20.73 C16.41 16.75, 20.72 11.26, 26.73 1.83 M15.36 24.62 C22.3 15.37, 29.58 7.87, 35.36 -0.14 M15.04 22.86 C20.13 17, 24.46 10.69, 35.12 0.08 M21.91 23.27 C26.28 15.55, 28.35 10.18, 40.61 3.07 M19.7 23.16 C26.47 17.8, 30.4 10.88, 39.19 1.45 M23.54 24.86 C28.59 17.69, 35.38 11.3, 43.89 3.49 M26.12 23.69 C30.57 18.14, 35.62 12.24, 44.45 2.71 M32.04 21.8 C37.92 15.03, 40.84 8.56, 49.21 2.03 M31.14 24.37 C35.72 18.37, 39.46 12.22, 48.43 3.08 M36.11 21.98 C41.8 18.91, 44.21 11.59, 52.46 3.77 M36.87 23.51 C42.03 16.72, 49.22 8.89, 53.37 4.36 M41.13 21.24 C49.33 17.77, 51.7 12.37, 55.26 5.31 M42.89 21.8 C45.97 18.16, 50.21 12.48, 54.55 7.8 M50.26 21.25 C52.76 18.47, 53.99 14.62, 57.45 9.15 M48.63 20.16 C51.85 17.36, 54.81 14.03, 58.76 9.73 M2.19 17.29 C2.19 17.29, 2.19 17.29, 2.19 17.29 M2.19 17.29 C2.19 17.29, 2.19 17.29, 2.19 17.29 M13.24 23.81 C10.58 18.07, 6.08 13.29, 0.25 13.28 M14.92 22.5 C12.54 21.3, 9.09 18.89, 1.75 10.87 M17.56 20.67 C12.28 14.51, 6.36 9.65, 2.86 7.48 M18.19 19.91 C14.27 16.42, 11 12.75, 2.58 7.4 M23.14 21.03 C21.41 15.51, 15.17 13.56, 5.3 3.86 M22.78 20.21 C18.17 16.29, 13.54 11.35, 5.45 5.46 M32 19.96 C24.74 13.46, 16.55 9.46, 11.1 4.55 M30.71 21.12 C24.4 16.04, 18.48 10.14, 10.3 2.44 M35.2 20.49 C31.59 17.57, 23.36 8.53, 13.85 2.57 M37.06 21.48 C30.82 16.06, 23.94 9.29, 15.7 1.46 M41.34 21.6 C37.94 14.58, 31.43 11.68, 20.68 0.49 M41.25 20.49 C35.89 14.44, 28.7 7.81, 21.07 1.11 M46.54 21.1 C42.33 15.97, 35.52 10.77, 25.26 1.44 M47.6 20.1 C39.07 13.77, 32.98 6.63, 26.19 1.97 M52.74 20.66 C43.67 10.51, 35.57 5.52, 30.27 1.44 M52.02 19.57 C47.19 14.98, 42.09 9.63, 32.21 0.42 M54.35 14.94 C53.03 11.33, 48.87 9.86, 37.43 -2.25 M55.28 16.04 C50.88 11.29, 45.89 7.19, 36.13 -1.49 M59.6 13.72 C54.7 9.29, 48.9 3.05, 43.77 1.73 M58.75 14.2 C55.25 9.21, 51.13 5.87, 43.6 0.3" stroke="#fab005" stroke-width="0.5" fill="none"></path><path d="M34.04 1.06 C40.32 1.13, 48.15 1.99, 52.53 3.74 C56.9 5.49, 60.27 8.95, 60.28 11.55 C60.3 14.14, 56.7 17.29, 52.62 19.3 C48.53 21.3, 42.03 22.97, 35.75 23.57 C29.47 24.18, 20.53 23.97, 14.94 22.92 C9.35 21.87, 4.45 19.73, 2.19 17.29 C-0.08 14.85, -0.72 10.78, 1.35 8.3 C3.42 5.81, 8.75 3.81, 14.61 2.39 C20.46 0.97, 32.28 -0.07, 36.5 -0.23 C40.72 -0.39, 40.09 1.27, 39.93 1.41 M37.61 -0.47 C43.65 -0.02, 52.34 2.5, 56.01 4.63 C59.69 6.76, 60.89 9.71, 59.66 12.29 C58.44 14.87, 53.59 17.97, 48.68 20.09 C43.77 22.22, 36.47 24.82, 30.21 25.02 C23.95 25.23, 16.04 22.92, 11.12 21.31 C6.19 19.69, 1.86 17.82, 0.68 15.35 C-0.5 12.88, 1.23 9.09, 4.03 6.48 C6.83 3.87, 11.69 0.75, 17.5 -0.3 C23.31 -1.34, 35.63 0.03, 38.89 0.18 C42.14 0.33, 37.08 0.47, 37.01 0.6" stroke="#000000" stroke-width="1" fill="none"></path></g><g transform="translate(237.4923937509293 460.0497614807525) rotate(0 8.5 6.5)"><text x="8.5" y="9" font-family="Virgil, Segoe UI Emoji" font-size="10.222167610625693px" fill="#000000" text-anchor="middle" style="white-space: pre;" direction="ltr">DB</text></g><g stroke-linecap="round" transform="translate(216.2973926526356 486.423833788662) rotate(0 29.787320548779235 10.201660654194711)"><path d="M5.79 3.7 C5.79 3.7, 5.79 3.7, 5.79 3.7 M5.79 3.7 C5.79 3.7, 5.79 3.7, 5.79 3.7 M2.76 13.03 C7.41 8.69, 9.3 3.88, 10.84 3.68 M2.91 12.5 C5.97 10.22, 8.15 7.21, 12.25 2.24 M6.26 17.22 C9.73 10.92, 14.56 5.28, 19.17 1.93 M6.52 15.29 C8.98 12.38, 11.75 9.56, 18.09 0.62 M10.85 16.53 C11.41 14.91, 15.53 7.36, 24.8 1.42 M8.71 18.54 C12.63 12.41, 18.72 8.5, 24.94 1.51 M13.08 19.04 C17.89 14.29, 21.6 8.14, 29.97 1.35 M13.28 20.26 C15.94 14.54, 20.94 11.2, 28.48 1.36 M17.94 21.64 C25.79 11.35, 30.47 5.98, 34.18 0.29 M17.77 19.01 C24.23 13.12, 28.39 7.74, 34.67 1.75 M21.02 19.14 C29.7 16.18, 32.88 9.2, 38.57 0.01 M22.17 20.81 C28.26 14.21, 32.63 9.31, 39.47 0.43 M28.17 20.29 C33.84 15.75, 39.82 6.59, 43.52 3.24 M27.03 22.51 C33.52 15.68, 39.07 8.82, 44.91 2.55 M31.19 20.33 C36.77 16.81, 38.51 14.83, 49.71 5.17 M31.66 21.88 C38.61 14.72, 43.55 7.59, 48.68 3.63 M38.16 18.94 C41.38 16.86, 46.81 12.73, 52.41 6.47 M39.02 21.08 C43.65 16.03, 48.49 9.37, 52.83 4.1 M44.58 20.8 C47.74 14.55, 50.8 14.4, 55.93 7.59 M45.17 18.99 C47.39 16.55, 50.98 11.96, 56.7 7.18 M53.68 15.54 C55.44 12.61, 57.99 11.44, 59.17 8.48 M54.09 15.35 C55.78 13.49, 57.25 11.55, 59.33 8.96 M0.73 11.35 C0.73 11.35, 0.73 11.35, 0.73 11.35 M0.73 11.35 C0.73 11.35, 0.73 11.35, 0.73 11.35 M11.14 13.95 C6.48 12.83, 3.8 8.97, 2.74 8.02 M10.04 14.69 C8.08 12.12, 6.49 10.61, 2.42 7.76 M19.11 16.23 C14.73 13.12, 8.22 7.83, 3.43 6.35 M19.5 15.79 C14.88 13.42, 9.37 8.77, 4.72 4.43 M26.66 19.01 C20.01 11.92, 13.37 5.56, 8.07 -0.09 M27.54 18.92 C21.08 14.33, 16.19 7.52, 8.72 2.62 M34.11 19.99 C27.86 14.53, 21.51 7.73, 11.89 1.92 M33.42 18.58 C25.18 10.95, 17.47 5.17, 12.53 -0.41 M37.78 16.42 C31.86 13.82, 28.09 9.58, 16.72 -0.09 M38.99 17.82 C32.45 11.59, 24.71 5.7, 17.56 -0.18 M44.71 18.87 C37.74 10.56, 30.79 5.88, 26.4 -1.22 M46.59 18.46 C38.86 12.08, 31.25 7.4, 25.39 0.24 M48.19 16.88 C40.38 10.07, 35.01 3.55, 28.49 1.31 M49.16 16.22 C41.54 10.67, 35.44 3.18, 30.2 0.12 M52.6 15.76 C44.93 9.37, 39.54 3.36, 35.89 -0.87 M53.55 15.01 C47.03 8.77, 39.89 2.87, 36.81 -0.5 M59.22 14.34 C55.91 9.27, 49.66 6.3, 42.55 -0.78 M56.94 12.29 C54.26 9.46, 50.18 5.81, 42.9 1.05 M60.21 8.49 C56.02 7.63, 50.83 4.02, 48.11 -1.55 M60.73 9.44 C54.92 5.44, 49.88 0, 46.42 -1.32" stroke="#fab005" stroke-width="0.5" fill="none"></path><path d="M44.03 1.19 C49.39 2.06, 54.21 4.3, 56.53 6.3 C58.86 8.31, 59.91 11.06, 58.01 13.23 C56.1 15.39, 50.42 17.93, 45.12 19.27 C39.81 20.61, 32.37 21.59, 26.17 21.25 C19.97 20.91, 12.16 18.88, 7.91 17.22 C3.66 15.57, 1.01 13.59, 0.68 11.31 C0.35 9.03, 2.05 5.27, 5.95 3.52 C9.84 1.78, 17.1 1.22, 24.05 0.85 C31 0.47, 42.97 0.79, 47.64 1.28 C52.31 1.78, 52.35 3.65, 52.08 3.82 M20.44 -0.49 C25.6 -1.24, 33.35 -0.98, 39.06 0.19 C44.77 1.36, 51.49 4.54, 54.69 6.52 C57.88 8.5, 59.29 10, 58.24 12.06 C57.2 14.13, 53.1 17.52, 48.4 18.9 C43.7 20.29, 36.49 20.75, 30.02 20.37 C23.55 20, 14.47 18.13, 9.6 16.64 C4.72 15.16, 1.89 13.42, 0.79 11.45 C-0.31 9.47, -0.36 6.73, 3.01 4.79 C6.38 2.86, 18.29 0.52, 21.01 -0.13 C23.73 -0.79, 19.57 0.63, 19.34 0.84" stroke="#000000" stroke-width="1" fill="none"></path></g><g stroke-linecap="round"><g transform="translate(107.72867883628805 395.7019965584848) rotate(0 48.98780610082349 34.33423464297698)"><path d="M1.13 0.76 C1.05 7.98, -17.27 32.31, 0.1 43.5 C17.47 54.69, 87.81 63.76, 105.35 67.91" stroke="#000000" stroke-width="1.5" fill="none" stroke-dasharray="1.5 7"></path></g></g><mask></mask><g stroke-linecap="round"><g transform="translate(245.17691496648604 393.0308330052392) rotate(0 0.5752256856958411 15.696691118120725)"><path d="M-0.22 0.87 C-0.18 5.83, 1.1 25.5, 1.37 30.52" stroke="#000000" stroke-width="1.5" fill="none" stroke-dasharray="1.5 7"></path></g></g><mask></mask><g stroke-linecap="round"><g transform="translate(387.67631349746625 394.25275438032645) rotate(0 -55.05130674357997 36.06839962654931)"><path d="M0.1 -0.8 C-3.28 9.35, -2.13 49.49, -20.52 61.78 C-38.9 74.07, -95.35 70.9, -110.2 72.94" stroke="#000000" stroke-width="1.5" fill="none" stroke-dasharray="1.5 7"></path></g></g><mask></mask><g mask="url(#mask-Cl3GMyiRuhyj6w-1xfRH7)" stroke-linecap="round"><g transform="translate(204.01136455302822 72.82392776988604) rotate(0 51.88360277256493 2.8528062786811006)"><path d="M-1.07 0.17 C4.13 -0.54, 18.92 -4.52, 32.16 -4.22 C45.4 -3.91, 66.28 -0.57, 78.38 1.99 C90.47 4.55, 100.33 9.48, 104.73 11.13 M0.56 -0.79 C6.07 -1.85, 21.1 -6.7, 34.45 -6.05 C47.81 -5.4, 68.95 0.12, 80.69 3.1 C92.42 6.08, 101.09 10.29, 104.84 11.81" stroke="#000000" stroke-width="1" fill="none"></path></g><g transform="translate(204.01136455302822 72.82392776988604) rotate(0 51.88360277256493 2.8528062786811006)"><path d="M91.44 10.16 C97.02 10.2, 101.08 11.46, 103.93 11.58 M90.65 10.55 C95.07 11.52, 99.42 12.11, 104.26 12.48" stroke="#000000" stroke-width="1" fill="none"></path></g><g transform="translate(204.01136455302822 72.82392776988604) rotate(0 51.88360277256493 2.8528062786811006)"><path d="M95.11 1.6 C99.3 4.84, 101.97 9.34, 103.93 11.58 M94.31 1.99 C97.59 5.47, 100.85 8.59, 104.26 12.48" stroke="#000000" stroke-width="1" fill="none"></path></g></g><mask id="mask-Cl3GMyiRuhyj6w-1xfRH7"><rect x="0" y="0" fill="#fff" width="408.9997333818287" height="189.5267602231038"></rect><rect x="256.70522271224536" y="60.86507351497562" fill="#000" width="6" height="20" opacity="1"></rect></mask><g transform="translate(256.70522271224536 60.86507351497562) rotate(0 -0.8102553866522157 14.811660533591521)"><text x="3" y="14" font-family="Virgil, Segoe UI Emoji" font-size="16px" fill="#000000" text-anchor="middle" style="white-space: pre;" direction="ltr">1</text></g><g mask="url(#mask-tDCG2sWiQFapcQcNUEQ1C)" stroke-linecap="round"><g transform="translate(305.34266287095625 123.39817754482533) rotate(0 -48.407152423669686 -7.728823906410639)"><path d="M-0.83 0.23 C-8.23 0.71, -30.88 4.83, -43.56 3.83 C-56.25 2.83, -67.91 -1.77, -76.94 -5.79 C-85.97 -9.81, -94.29 -18.14, -97.75 -20.31 M0.94 -0.7 C-6.14 -0.19, -28.08 5.5, -41.19 4.79 C-54.31 4.08, -68.42 -0.87, -77.78 -4.96 C-87.13 -9.04, -93.78 -17.51, -97.31 -19.71" stroke="#000000" stroke-width="1" fill="none"></path></g><g transform="translate(305.34266287095625 123.39817754482533) rotate(0 -48.407152423669686 -7.728823906410639)"><path d="M-84.97 -15.97 C-90.91 -17.15, -95.2 -18.25, -98.34 -19.28 M-84.66 -15.71 C-89.03 -16.39, -93.44 -18.88, -96.69 -19.98" stroke="#000000" stroke-width="1" fill="none"></path></g><g transform="translate(305.34266287095625 123.39817754482533) rotate(0 -48.407152423669686 -7.728823906410639)"><path d="M-90.66 -9.23 C-94.54 -12.87, -96.73 -16.47, -98.34 -19.28 M-90.35 -8.98 C-92.79 -11.94, -95.24 -16.75, -96.69 -19.98" stroke="#000000" stroke-width="1" fill="none"></path></g></g><mask id="mask-tDCG2sWiQFapcQcNUEQ1C"><rect x="0" y="0" fill="#fff" width="503.459605018405" height="247.6727907337804"></rect><rect x="238.09966966605543" y="113.82258265948485" fill="#000" width="13" height="20" opacity="1"></rect></mask><g transform="translate(238.09966966605543 113.82258265948485) rotate(0 18.835840781231127 1.8467709789298397)"><text x="6.5" y="14" font-family="Virgil, Segoe UI Emoji" font-size="16px" fill="#000000" text-anchor="middle" style="white-space: pre;" direction="ltr">2</text></g><g transform="translate(104.6118090898317 534.9382709375748) rotate(0 149.5 10)"><text x="149.5" y="14" font-family="Virgil, Segoe UI Emoji" font-size="16px" fill="#000000" text-anchor="middle" style="white-space: pre;" direction="ltr">fig. Multi server with single database</text></g></svg>