<svg version="1.1" xmlns="http://www.w3.org/2000/svg" viewBox="0 0 488.21304233916635 584.3007522485605" width="488.21304233916635" height="584.3007522485605">
  <!-- svg-source:excalidraw -->
  
  <defs>
    <style class="style-fonts">
      @font-face {
        font-family: "Virgil";
        src: url("https://excalidraw.com/Virgil.woff2");
      }
      @font-face {
        font-family: "Cascadia";
        src: url("https://excalidraw.com/Cascadia.woff2");
      }
    </style>
  </defs>
  <g stroke-linecap="round" transform="translate(10 10) rotate(0 234.10652116958317 282.1503761242802)"><path d="M1.2 -1.6 C126.52 -2.47, 248.51 -1.54, 467.77 1.03 M0.45 0.19 C120.72 -3.31, 240.99 -3.13, 467.82 -0.75 M467.77 -1.46 C469.46 184.6, 470.3 372.33, 469.79 563.51 M467.55 0.6 C471.14 150.99, 471.7 301.64, 467.75 564.61 M469.18 563.83 C305.65 558.82, 144.99 559.93, -0.09 563.55 M467.58 564.18 C289.9 568.06, 111.52 566.47, -0.74 563.75 M-1.58 562.96 C-2.85 403.69, -1.27 240.94, -1.51 0.3 M-0.32 564.26 C2.07 440.05, 1.67 316.37, 0.28 0.04" stroke="#000000" stroke-width="1" fill="none"></path></g><g stroke-linecap="round" transform="translate(304.6888472183891 45.923799888832946) rotate(0 61.87497075075953 61.87497075075953)"><path d="M22.71 14.44 C22.71 14.44, 22.71 14.44, 22.71 14.44 M22.71 14.44 C22.71 14.44, 22.71 14.44, 22.71 14.44 M5.14 37.43 C15.93 29.97, 24.79 20.58, 33.55 7.63 M6.7 38.28 C13.73 31.59, 19 23.47, 32.53 9.05 M7.02 47.61 C15.12 36.45, 21.35 26.85, 41.45 4 M5.28 46.36 C13.79 35.96, 22.61 26, 43.37 2.35 M2.85 55.67 C16.37 43.16, 26.43 29.06, 50.01 0.02 M4.17 53.93 C21.85 35.41, 39.7 13.38, 50.2 2.21 M3.65 61.59 C22.08 36.88, 40.19 14.38, 55.88 1.23 M0.99 62.97 C14.91 48.23, 28.64 32.04, 55.02 2.09 M2.01 67.17 C14.48 52.32, 29.62 34.28, 57.58 2.92 M1.8 69.08 C15.79 53.87, 27.5 38.27, 60.17 3.57 M4.4 71.97 C25.24 45, 50.13 18.5, 63.22 2.44 M3 73.97 C21.14 53.87, 37.18 34.22, 65.47 3.07 M2.87 77.59 C23.33 54.6, 44.08 32.24, 68.16 1.67 M4.46 78.21 C21.15 57.55, 40.12 38.92, 69.39 2.93 M6.68 83.91 C28.38 57.4, 51.11 31.2, 73.94 3.53 M6.7 81.97 C28.01 58.23, 48.87 32.82, 75.53 2.28 M5.3 86.1 C23.88 66.16, 41.12 46.38, 80.67 3.96 M7.37 86.56 C34.77 55.71, 60.28 25.18, 80.48 3.65 M9.4 89.35 C34.68 63.36, 57.52 33.07, 85.35 5.69 M9.76 91.61 C32.54 64.91, 55.88 36.59, 83.64 5.19 M9.25 95.14 C31.97 72.01, 54.32 45.51, 88.84 6.71 M10.63 95.88 C37.83 62.69, 66.99 29.36, 87.69 7.62 M12.26 98.7 C42.14 65.36, 73.82 32.52, 90.9 9.81 M13.36 99.22 C29.22 77.95, 47.94 57.29, 91.13 8.29 M17.48 99.83 C43.48 71.48, 67.38 38.53, 93.86 10.82 M15.85 101.87 C42.16 70.52, 67.52 41.96, 93.45 11.91 M17.12 104.35 C38.96 82.95, 56.38 59.51, 96.22 12.57 M19.61 104.41 C47.53 73.49, 74.11 41.83, 98.24 13.05 M21.65 107.37 C47.02 79.96, 67.03 55.79, 99.74 14.45 M22.32 107.53 C38.87 85.93, 57.68 66.89, 101.77 16.13 M26.72 110.25 C50.12 77.97, 76.54 48.55, 107.07 18.37 M24.26 109.54 C53.19 74.81, 84.04 41.09, 106.1 17.94 M28.23 113.66 C48.73 87.97, 65.48 68.43, 106.74 20.02 M28.87 111.85 C45.66 91.55, 63.7 72.21, 107.64 21.39 M29.28 114.55 C51.83 90.16, 73.68 64.72, 107.48 26.14 M31.25 114.48 C59.69 83.27, 87.81 51.36, 108.88 25.23 M35.18 115.14 C64.6 86.57, 91.25 53.28, 111.89 28.96 M34.6 117.55 C55.38 93.06, 75.6 69.12, 111.61 29.06 M37.81 118.41 C64.14 90.37, 90.14 61.43, 112.84 30.28 M38.11 117.31 C63.39 88, 89.01 59.95, 114.82 31.86 M41.94 118.43 C58.14 102.41, 76.04 81.74, 115.05 35.41 M42.81 120.86 C64.26 94.9, 86.86 67.68, 115.77 34.47 M46.87 121.75 C74.24 88.89, 104.92 54.58, 117.47 38.95 M46.64 122.14 C70.91 93.69, 92.45 67.23, 117.87 37.82 M52.14 122.48 C77.34 91.75, 105.79 61.44, 119.61 42.54 M51.75 121.5 C66.94 103.88, 80.47 87.44, 120.51 43.23 M55.17 124.23 C76.8 97.49, 102.81 66.86, 121.85 46.33 M55.55 124.09 C75.55 100.09, 95.19 77.44, 120.89 46.36 M57.6 125.94 C78.81 103.61, 99.89 80.98, 119.8 54.78 M58.61 124.22 C78.19 103.98, 95.6 83.1, 121.82 53.47 M66.89 123.76 C84.96 98.26, 107.07 72.95, 123.94 56.84 M65.75 121.75 C79.54 108.39, 92.36 93.25, 122.94 58.2 M70.86 121.94 C85.64 108.75, 97.12 96.67, 121.32 64.53 M72.06 121.46 C89.42 101.32, 108.38 81.96, 121.87 64.53 M79.09 117.74 C98.24 98.55, 112.34 81.38, 123.19 69.13 M79.81 120.47 C91.51 107.55, 102.57 94.34, 123.35 69.56 M86.8 118.69 C95.05 111.04, 101.32 100.94, 125.99 71.93 M85.84 117.99 C94.81 108.26, 105.41 96.73, 125.75 72.74 M89.04 119.88 C101.18 106.93, 112.38 91.51, 121.91 83.62 M91.25 119.13 C98.61 108.08, 108.67 98.38, 121.06 83.7 M9.36 95.94 C9.36 95.94, 9.36 95.94, 9.36 95.94 M9.36 95.94 C9.36 95.94, 9.36 95.94, 9.36 95.94 M35.04 111.47 C24.78 104.02, 12.87 96.03, 6.58 89.13 M33.34 111.49 C23.88 103.68, 13.58 94.23, 5.92 87.47 M45.6 115.71 C31.5 101.51, 15.64 90.86, 2.42 79.15 M44.53 114.71 C35.18 107.14, 25.95 99.38, 3.32 81.08 M60.4 123.34 C38.14 106.58, 17.32 85.6, 2.92 74.71 M59.16 124.06 C46.05 111.25, 31.34 98.46, 1.75 73.27 M64.42 123.31 C39.56 99.39, 17 77.11, -1.64 67.37 M64.88 121.62 C47.66 108.37, 29.86 91.79, -0.55 66.24 M70.26 121.82 C52.83 107.64, 36.38 91.73, 2.52 63.32 M68.35 122.09 C50.27 105.47, 31.62 90.86, 1.04 62.61 M72.19 119.14 C55.96 105.36, 42.94 92.67, 0.61 57.76 M74.83 120.06 C46.01 97.02, 19.4 74.12, 1.03 58.34 M79.68 119.84 C57.33 98.31, 34.19 82.06, 4.58 55.09 M79.21 118.73 C57.3 100.18, 34.22 79.37, 2.6 53.43 M84.44 117.77 C63.98 102.66, 45.78 83.52, 5.35 48.04 M84.52 117.43 C63.97 101.17, 44.94 83.8, 3.27 49.54 M86.63 116.41 C68.13 97.91, 48.86 84.34, 6.81 45.28 M87.69 116.43 C63.28 94.88, 38.17 73.42, 4.5 44.07 M91.37 115.17 C66.86 94.69, 41.5 73.81, 7.3 39.08 M91.52 113.76 C61.08 88.7, 31.65 64.29, 4.6 40.38 M95.79 110.39 C64.08 84.19, 33.57 55.69, 6.41 37.63 M95.23 112.73 C75.45 94.08, 54.23 77.74, 7.07 36.59 M97.7 110.39 C62.77 81.11, 30.46 51.28, 9.93 32.8 M96.67 109.43 C68.98 84.22, 39.63 58.09, 9 33.76 M102.39 107.75 C76.57 86.15, 54.93 64.86, 11.1 31.05 M100.56 107.54 C78.92 86.43, 57.32 67.56, 11.9 29.44 M105.14 104.33 C67.79 73.62, 31.85 42.95, 13.43 25.76 M104.55 103.88 C84.65 87.52, 64.43 69.19, 13.92 26.39 M109.16 102.96 C80.76 80.27, 55.03 57.24, 16.34 21.62 M106.65 102.53 C84.36 83.49, 64.36 63.04, 17.08 23.54 M111.9 99.74 C89.45 81.26, 64.74 61.57, 20.52 17.61 M111.01 99.69 C92.1 83.54, 72.11 66.08, 18.06 19.4 M115.29 96.39 C86.32 72.29, 57.78 48.11, 21.09 17.95 M113.68 96.5 C86.89 71.64, 58.05 46.42, 20.92 15.56 M114.19 94.57 C95.48 76.6, 73.76 57.81, 22.15 13.18 M114.6 91.88 C90.87 68.75, 64.26 46.19, 25.12 14.28 M115.48 88.88 C90.19 65.45, 63.56 45.86, 27.55 12.43 M118.11 89.99 C90.54 65.25, 63.65 42.72, 27.77 11.21 M118.71 85.88 C90.77 62.91, 66.28 38.22, 33.57 10.45 M119.17 83.82 C84.44 56.03, 51.44 25.97, 31.84 8.96 M118.95 80.4 C92.42 57.93, 64.13 30.61, 35.2 7.96 M119.66 81.92 C99.04 61.56, 76.34 42.4, 35.96 7.95 M120.44 75.91 C101.11 57.17, 80.51 39.2, 37.69 4.6 M121.56 77.32 C103.02 61.02, 83.53 43.1, 39.4 5.82 M121.68 74.78 C99.39 52.8, 76.5 28.36, 41.49 2.65 M123.52 72.3 C91.99 45.67, 58.95 19.42, 42.56 3.7 M124.34 70.06 C103.64 51.29, 85.57 32.4, 46.5 0.65 M125.34 68.6 C99 47.36, 73.94 24.98, 46.75 0.31 M124.1 61.72 C100.81 41.2, 79.16 21.58, 48.87 0.41 M124.16 62.26 C103.63 44.49, 81.72 27.39, 50.41 -0.54 M122.34 58.32 C99.33 39.2, 77.7 20.28, 56.72 0.7 M123.82 57.71 C99.11 37.54, 77.09 17.11, 56.38 -1.77 M124.43 49.37 C104.07 34.78, 87.43 22.54, 64.6 -1.75 M122.52 50.67 C103.36 36.12, 86.06 19.29, 61.86 -1.46 M123.68 43.69 C103.23 32.14, 86.81 17.15, 70.55 -1.91 M122.37 44.97 C105.82 30.15, 87.85 16.65, 68.98 -0.13 M122.64 40.37 C104.84 22.34, 83.91 9.8, 77.6 1.15 M120.08 40.09 C103.12 24, 86.79 9.92, 75.73 1.48 M115.53 25.87 C104.2 19.93, 95.13 8.21, 80.95 2.03 M113.01 28.65 C105.27 19.38, 95.26 11.97, 82.75 0.61" stroke="#228be6" stroke-width="0.5" fill="none"></path><path d="M48.29 0.41 C57.06 -2.21, 70.18 -0.3, 79.46 2.38 C88.74 5.06, 97.27 10, 103.96 16.47 C110.66 22.95, 116.57 32.19, 119.64 41.23 C122.72 50.27, 123.75 61.03, 122.42 70.73 C121.1 80.43, 117.27 91.68, 111.68 99.4 C106.08 107.13, 97.56 113, 88.83 117.08 C80.11 121.17, 68.82 124.29, 59.3 123.93 C49.78 123.56, 40.11 119.62, 31.73 114.91 C23.35 110.2, 14.42 103.56, 9.03 95.65 C3.63 87.75, -0.06 77.11, -0.65 67.47 C-1.24 57.84, 1.56 46.69, 5.46 37.83 C9.37 28.98, 14.29 20.7, 22.77 14.36 C31.25 8.03, 49.82 1.86, 56.34 -0.16 C62.85 -2.19, 61.78 1.06, 61.88 2.2 M66.61 1 C75.57 1.34, 87.1 6.32, 95.45 11.48 C103.79 16.63, 112.13 23.85, 116.68 31.93 C121.23 40.01, 122.7 50.3, 122.75 59.94 C122.81 69.59, 121.07 81.18, 117.01 89.81 C112.95 98.45, 105.84 106.19, 98.39 111.77 C90.94 117.35, 81.55 122.08, 72.32 123.27 C63.09 124.46, 52.2 122.16, 43.01 118.92 C33.82 115.67, 24.05 110.44, 17.21 103.82 C10.37 97.21, 4.4 88.46, 1.95 79.21 C-0.5 69.96, 0.35 57.88, 2.48 48.3 C4.62 38.72, 8.56 28.99, 14.76 21.73 C20.95 14.47, 30.8 8.44, 39.65 4.73 C48.5 1.03, 63.24 -0.13, 67.86 -0.51 C72.48 -0.88, 67.54 1.2, 67.37 2.5" stroke="#000000" stroke-width="1" fill="none"></path></g><g transform="translate(342.56381796914866 93.29877063959248) rotate(0 24 14.5)"><text x="24" y="20" font-family="Virgil, Segoe UI Emoji" font-size="22.649311879767694px" fill="#000000" text-anchor="middle" style="white-space: pre;" direction="ltr">DNS</text></g><g stroke-linecap="round" transform="translate(82.72086063378902 50.26407482581635) rotate(0 58.74750095347122 34.079936918574276)"><path d="M0 0 C0 0, 0 0, 0 0 M0 0 C0 0, 0 0, 0 0 M0.11 6.55 C0.52 4.55, 3.09 3.39, 4.71 0.72 M0.01 6.51 C1.27 4.49, 3.39 1.52, 5.23 0.03 M-1.28 13.19 C3.87 9.5, 8.15 5.69, 11.97 -0.89 M-0.33 12.61 C3.15 7.91, 7.16 4.33, 9.84 0.21 M-1.21 19.56 C4.09 11.84, 10.62 8.14, 15.91 -1.57 M-1.05 17.5 C3.94 13.21, 7.26 9.8, 15.7 0.34 M-0.26 25.53 C9.56 17.25, 14.83 8.33, 22.9 -2.06 M0.06 23.15 C5.3 18.36, 9.54 12.78, 21.49 -0.06 M-0.37 31.23 C11.64 19.18, 20.18 6.74, 24.65 -0.21 M-0.67 29.52 C6.91 21.77, 13.98 14.2, 26.23 0.41 M1.08 35.49 C7.04 29.53, 12.68 21.23, 32.39 1.58 M-0.67 36.32 C9.97 25.34, 19.2 13.44, 32.41 -0.35 M-0.09 43.45 C9.28 28.95, 22.96 19.85, 34.95 -0.75 M-0.74 42.83 C12.87 28.92, 24.38 14.47, 37.02 -0.29 M-1.82 49.77 C16.88 31.22, 31.42 13.99, 42.99 -2.03 M-0.5 49.73 C14.16 32.84, 28.11 16.23, 43.34 0.23 M-0.18 54.39 C13.17 39.06, 26.35 25.23, 46.77 -0.78 M0.7 55.28 C13.06 39.87, 27.57 22.74, 48.15 -0.03 M0.34 61.54 C13.1 49.37, 22.14 36.23, 52.41 -0.24 M1 60.87 C13.52 44.4, 26.91 30.38, 53.5 0.29 M-1.57 67.46 C10.6 54.12, 25.19 40.83, 59.59 -1.37 M-0.82 67.24 C20.57 43.2, 42.57 18.12, 57.96 0.68 M3.64 68.68 C23.36 46.84, 43 24.49, 61.86 0.14 M1.78 69.2 C25.73 43.46, 48.77 15.4, 64.35 0.2 M8.13 71.27 C27.72 46.11, 49.13 20.95, 68.35 0.89 M8.37 69.49 C31.81 42.02, 56.75 14.57, 69.02 1.06 M14.29 70.59 C30.85 52.45, 43.4 32.88, 76.05 0.75 M12.68 70.92 C28.46 55.12, 42.34 37.99, 73.58 0.05 M17.73 72.27 C32.98 54.69, 44.18 39.89, 79.53 1.9 M19.06 69.93 C40.06 45.59, 60.93 21.83, 80.17 0.09 M24.23 70.98 C40.46 52.54, 52.84 36.79, 83.2 -0.23 M22.99 69.81 C39.64 53.24, 53.92 34.96, 85.17 -0.3 M30.81 69.64 C49.17 48.55, 67.43 23.04, 91.07 -1.91 M29.58 70.44 C52.66 42.67, 76.58 14.9, 90.49 0.51 M34.73 70.75 C57.67 46.74, 76.62 19.68, 95.01 -0.14 M34.11 70.09 C52.77 48.19, 72.83 26.33, 95.31 -1.25 M41.09 72.05 C56.34 50.74, 69.24 35.19, 100.45 -1.63 M39.14 69.62 C55 52.28, 70.32 33.99, 101.32 0.79 M44.59 69.59 C57.63 56.6, 70.97 37, 106.69 0.18 M43.72 70.01 C59.49 53.93, 73.31 37.05, 106.47 0.57 M49.77 68.66 C73.53 45.54, 97.28 16.5, 112.62 0.15 M51.2 69.83 C65.39 51.78, 80.79 35.27, 112.23 -0.83 M56.77 70.89 C81.09 45.17, 104.21 15.73, 116.31 1.15 M54.4 70.79 C66.96 56.06, 79.99 41.44, 116.68 1.01 M61.57 69.14 C78.36 48.7, 97.87 25.69, 118.08 3.61 M61.46 69.17 C77.18 51.63, 91.21 34.48, 119.09 1.89 M65.74 70.58 C85.08 50.99, 103.16 29.3, 120.16 9.73 M64.99 71.41 C76.29 57.24, 88.46 44.13, 119.02 7.72 M72.7 71.64 C85.14 52.21, 98.99 35.22, 118.22 14.71 M71.88 69.5 C89.4 50, 106.72 29.55, 119.42 14.23 M77.46 69.07 C87.25 60.28, 94.74 48.88, 119.24 18.81 M76.55 70.6 C93.18 51.2, 110.38 31.88, 119.96 21.54 M82.87 70.84 C95.58 51.66, 111.87 38.52, 121.04 26.55 M82.67 70.42 C95.34 53.09, 109.37 36.94, 120.08 25.85 M85.38 71.27 C93.81 62.92, 103.14 53.06, 118.03 33.77 M86.43 70.84 C95.13 60.73, 104.13 51.69, 120.24 33.03 M91.29 69.9 C98.31 63.56, 106.44 56.6, 120.83 39.31 M92.29 69.3 C101.83 60.62, 110.11 49.81, 119 38.75 M98.47 70.6 C103.66 62.58, 112.92 52.36, 121.26 44.29 M98.21 70.37 C105.43 63.08, 112.97 53.75, 119.56 44.31 M104.66 68.48 C107.61 63.89, 114 54.04, 121.39 51.39 M103.44 69.22 C108.68 62.66, 116.01 56.11, 120.31 50.39 M109.11 69.11 C113.51 66.24, 116.71 59.08, 121.04 56.56 M107.79 71.08 C112.21 66.23, 114.46 62.24, 119.93 57.2 M113.68 70.33 C116.17 68.53, 117.35 64.97, 119.98 63.54 M113.61 69.58 C115.88 67.92, 117.41 66.51, 120.18 62.78 M0.21 68.35 C0.21 68.35, 0.21 68.35, 0.21 68.35 M0.21 68.35 C0.21 68.35, 0.21 68.35, 0.21 68.35 M6.64 67.71 C4.3 65.81, 3.02 65.47, -0.97 62.17 M5.75 67.73 C4.71 67.2, 3.53 66.12, 0.09 62.54 M13.2 67.14 C10.77 65.71, 5.11 64.65, 0.69 58.05 M12.92 68.92 C9.19 64.76, 4.63 61.03, 0.31 57.17 M17.51 68.03 C11.75 61.02, 2.34 55.58, 0.29 51.48 M18.24 69.18 C13.38 63.79, 8.8 59.25, 0.37 51.14 M24.22 66.75 C20.05 61.66, 14.45 56.98, -1.29 46.84 M24.69 68.96 C18.5 62.33, 11.6 57.07, -0.24 46.86 M29.25 67.23 C21.63 60.4, 15.49 55.38, -0.32 42.31 M30.99 69.29 C21.07 60.47, 12.81 52.87, -0.18 40.91 M37.48 66.33 C28.04 60.16, 15.19 48.32, 1.08 34.91 M35.84 67.51 C25.8 57.58, 12.75 49.28, 0.52 37.25 M44.01 67.78 C29.2 56.26, 13.02 40.42, -0.04 32.29 M42.57 68.22 C33.28 60.17, 24.29 51.51, -1.07 31.32 M47.92 66.67 C33.97 52.85, 15.31 37.59, 1.64 27.02 M48.39 68.13 C39.05 58.24, 27.21 48.82, -0.19 26.81 M53.49 68.34 C38.86 55.49, 19.97 38.25, 0.61 20.32 M55.17 67.59 C41.91 55.84, 30.45 45.74, 0.03 19.87 M59.5 67.38 C38.38 48.37, 14.62 29.92, 1.61 16.33 M62.16 68 C40.65 51.41, 22.57 35.13, -0.9 15.9 M64.91 68.06 C53.78 55.49, 40.14 44.5, 0.59 9.83 M67.25 68.75 C42 46.11, 19.38 27.06, -0.31 9.78 M73.94 66.53 C44.44 44.08, 14.51 18.27, 1.7 4.51 M73.49 67.99 C52.44 49.34, 29.31 30.31, 0.1 4.62 M77.74 67.28 C50.04 42.58, 24.36 20.65, -0.9 1.38 M80.28 67.47 C49.66 43.23, 19.6 17.64, -0.49 -1.31 M83.69 70.04 C57.33 41.87, 23.25 16.88, 4.91 -0.38 M86.19 68.09 C69.15 52.27, 51.09 36.87, 7.55 0.74 M92.67 68.83 C69.14 48.38, 44.31 29.2, 12.68 0.56 M91.7 69.29 C72.47 52.97, 52.36 34.87, 13.14 -1.5 M96.72 68.31 C78.28 52.84, 63.02 37.77, 17.44 -0.98 M96.37 68.02 C69.98 43.96, 42.13 19.49, 18.15 0.54 M104.17 70.05 C75.74 41.43, 43.08 14.62, 23.46 -1.54 M103.47 67.46 C78.99 46.33, 54.8 25.57, 24.58 -0.12 M109.25 68.93 C80.81 42.84, 49.28 15.38, 29.23 1.27 M109.1 67.93 C85.24 48.88, 61.94 27.43, 31.07 -1.21 M117.45 68.1 C87.18 40.22, 56.71 13.35, 37.17 1.14 M115.04 68.35 C93.77 49.77, 71.97 30.96, 38.17 -0.31 M119.7 67.35 C93.21 44.58, 68.78 20.98, 42.97 -1.95 M118.44 65.11 C98.72 47.02, 75.46 28.99, 43.03 -1.41 M120.92 61.42 C97.4 40.43, 73.94 21.16, 48.76 1.21 M119.84 60.85 C103.49 46.31, 86.67 32.08, 50.24 0.61 M117.25 54.92 C103.9 42.83, 93.64 29.78, 56.88 -2.49 M119.94 55.94 C102.15 40.56, 87.02 25.73, 54.98 -1.19 M119.32 48.11 C102.25 37.79, 90.42 23.76, 62.93 -2.27 M120.33 50.74 C104.21 38, 90.84 24.86, 61.62 -0.98 M120.92 43.9 C101.09 30.03, 81.48 12.26, 69.43 0.98 M119.73 45.04 C100.25 27.93, 80.39 9.75, 66.88 0.7 M120.13 38.12 C111.78 31.32, 100.22 22.41, 75.15 -2.38 M118.51 38.91 C104.91 26.53, 87.92 12.79, 72.64 0.41 M120.93 35.89 C106.49 20.45, 89.46 8.23, 80.32 0.3 M119.91 33.53 C105.08 21.1, 90.45 9.06, 80.67 -0.7 M118.57 30.61 C110.28 18.7, 99.12 11.99, 84.39 0.3 M118.82 28.71 C108.32 18.79, 97.46 9.63, 85.89 0 M120.73 22.96 C110.6 15.68, 98.99 5, 91.02 -2.19 M120.54 24.34 C110.77 16.52, 102.01 8.94, 90.83 -0.63 M117.34 17.25 C113.36 11.7, 102.3 4.54, 97.85 -1.67 M119.97 17.26 C111.12 11.85, 103.94 4.47, 98.95 -0.57 M121.54 11.71 C115.98 8.86, 109.81 5.91, 105.73 -0.35 M120.21 14.09 C115.22 9.24, 109.66 4.72, 103.31 -1.22 M118.92 6.75 C116.49 4.96, 112 2.06, 111.29 -0.84 M119.08 7.47 C116.27 4.74, 114.06 2.78, 109.73 -0.05 M119.57 3.07 C118.4 2.12, 117.24 0.56, 115.96 -0.4 M119.5 2.57 C118.13 1.32, 116.93 0.07, 115.99 -0.74" stroke="#a3aefd" stroke-width="0.5" fill="none"></path><path d="M-1.74 0.73 C28.53 -0.62, 55.06 -0.07, 119.06 -0.98 M0.19 0.19 C35.5 -1.56, 68.97 -0.45, 117.41 1 M117.25 -0.59 C118.64 24.25, 117.63 50.34, 117.77 70.07 M117.3 0.56 C118.43 13.73, 117.93 27.79, 118.39 68.21 M118.84 67.91 C81.41 66.38, 41.21 67.64, -0.9 68.5 M118.32 69.03 C71.48 68.32, 25.94 68.83, -0.81 68.43 M0.44 69.52 C-0.67 50.95, 0.54 31.06, -1.56 -1.52 M0.65 68.46 C-0.82 44.49, 0.74 22.79, 0 -0.67" stroke="#000000" stroke-width="1" fill="none"></path></g><g transform="translate(120.17939865128255 73.13929440966558) rotate(0 21.28896293597768 11.204717334725046)"><text x="21.288962935977775" y="15.409434669450292" font-family="Virgil, Segoe UI Emoji" font-size="17.927547735560232px" fill="#000000" text-anchor="middle" style="white-space: pre;" direction="ltr">User</text></g><g stroke-linecap="round" transform="translate(115.42996975929373 120.55294596993826) rotate(0 25.41026245922103 5.9251924241566485)"><path d="M0 0 C0 0, 0 0, 0 0 M0 0 C0 0, 0 0, 0 0 M-0.26 6.4 C1.52 4.35, 3.29 2.31, 4.99 0.36 M-0.26 6.4 C1.83 3.99, 3.92 1.59, 4.99 0.36 M0.13 12.04 C2.9 8.86, 5.67 5.68, 10.63 -0.03 M0.13 12.04 C3.79 7.84, 7.44 3.63, 10.63 -0.03 M5.78 11.65 C8.09 8.99, 10.4 6.33, 15.62 0.33 M5.78 11.65 C8.18 8.88, 10.59 6.11, 15.62 0.33 M10.76 12.01 C14.84 7.32, 18.92 2.62, 21.26 -0.07 M10.76 12.01 C13.66 8.67, 16.56 5.34, 21.26 -0.07 M15.75 12.37 C19.69 7.84, 23.62 3.31, 26.25 0.29 M15.75 12.37 C19.85 7.65, 23.96 2.93, 26.25 0.29 M21.39 11.97 C23.58 9.46, 25.77 6.94, 31.89 -0.1 M21.39 11.97 C24.01 8.96, 26.63 5.95, 31.89 -0.1 M26.38 12.33 C29.71 8.5, 33.04 4.67, 36.88 0.26 M26.38 12.33 C30.29 7.83, 34.2 3.33, 36.88 0.26 M32.02 11.94 C36.16 7.18, 40.3 2.42, 42.52 -0.14 M32.02 11.94 C35.09 8.41, 38.15 4.88, 42.52 -0.14 M37.01 12.3 C39.58 9.34, 42.16 6.38, 47.51 0.22 M37.01 12.3 C40.16 8.67, 43.32 5.04, 47.51 0.22 M42.65 11.9 C44.87 9.36, 47.08 6.81, 51.84 1.34 M42.65 11.9 C44.5 9.77, 46.36 7.64, 51.84 1.34 M47.64 12.26 C49.32 10.33, 51.01 8.39, 52.23 6.98 M47.64 12.26 C48.83 10.89, 50.03 9.52, 52.23 6.98 M0.17 12 C0.17 12, 0.17 12, 0.17 12 M0.17 12 C0.17 12, 0.17 12, 0.17 12 M5.81 11.6 C3.91 9.95, 2.01 8.3, -0.22 6.36 M5.81 11.6 C3.93 9.97, 2.05 8.33, -0.22 6.36 M12.21 11.87 C9.47 9.48, 6.72 7.09, 0.14 1.37 M12.21 11.87 C8.72 8.83, 5.24 5.8, 0.14 1.37 M18.61 12.13 C12.82 7.1, 7.04 2.07, 2.01 -2.31 M18.61 12.13 C13.78 7.93, 8.95 3.73, 2.01 -2.31 M24.25 11.73 C19.77 7.83, 15.28 3.93, 8.4 -2.05 M24.25 11.73 C18.9 7.08, 13.55 2.43, 8.4 -2.05 M30.65 11.99 C24.84 6.94, 19.02 1.89, 14.05 -2.44 M30.65 11.99 C27.19 8.98, 23.72 5.97, 14.05 -2.44 M36.29 11.6 C32.6 8.39, 28.91 5.18, 20.44 -2.18 M36.29 11.6 C30.03 6.15, 23.76 0.7, 20.44 -2.18 M42.69 11.86 C38.9 8.57, 35.11 5.27, 26.09 -2.57 M42.69 11.86 C38.54 8.25, 34.39 4.64, 26.09 -2.57 M49.09 12.12 C44.15 7.83, 39.21 3.53, 32.48 -2.31 M49.09 12.12 C43.52 7.28, 37.94 2.43, 32.48 -2.31 M52.47 9.76 C48.17 6.03, 43.88 2.29, 38.88 -2.05 M52.47 9.76 C47.36 5.32, 42.25 0.88, 38.88 -2.05 M52.83 4.77 C50.15 2.44, 47.46 0.11, 44.53 -2.44 M52.83 4.77 C51.12 3.29, 49.41 1.8, 44.53 -2.44" stroke="#868e96" stroke-width="0.5" fill="none"></path><path d="M0 0 C16.62 0, 33.24 0, 50.82 0 M0 0 C11.94 0, 23.88 0, 50.82 0 M50.82 0 C50.82 4.39, 50.82 8.79, 50.82 11.85 M50.82 0 C50.82 4.02, 50.82 8.03, 50.82 11.85 M50.82 11.85 C33.49 11.85, 16.16 11.85, 0 11.85 M50.82 11.85 C39.98 11.85, 29.14 11.85, 0 11.85 M0 11.85 C0 7.66, 0 3.47, 0 0 M0 11.85 C0 8.39, 0 4.94, 0 0" stroke="#000000" stroke-width="1" fill="none"></path></g><g stroke-linecap="round" transform="translate(74.92939069389604 133.84121739969487) rotate(0 67.36680824720338 9.278770316576129)"><path d="M0 0 C0 0, 0 0, 0 0 M0 0 C0 0, 0 0, 0 0 M-0.34 6.94 C1.72 3.5, 4.02 1.73, 4.26 0.86 M-0.15 6.05 C1.15 5.17, 2.34 4.08, 5.35 0.69 M-1.33 11.11 C3.83 8.32, 4.48 6.7, 10.31 -1.61 M0.62 11.61 C4.04 7.84, 6.63 4.57, 10.9 0.08 M-0.24 16.6 C1.32 15, 4.99 10.05, 16.38 0.5 M-1.01 18.17 C5.24 13.87, 10.07 7.29, 16.29 1.14 M2.62 20.66 C4.85 17.11, 9.95 11.73, 20.7 0.4 M2.43 20.88 C8.64 15.58, 13.77 8.55, 20.7 -0.87 M8.58 20.08 C11.07 14.8, 17.28 8.8, 26.85 0.26 M8.63 22.09 C13.12 15.24, 19.71 8.23, 26.01 0.54 M14.58 20.21 C19.43 13.44, 27.86 3.78, 31.34 0.93 M12.8 20.91 C19.05 14.41, 22.92 10.05, 32.83 -1.07 M19.74 19.64 C23.64 16.84, 28.88 10.22, 37.27 0.54 M18.28 20.54 C23.28 16.67, 27.65 10.77, 37.76 0.49 M23.03 20.25 C29.47 17.03, 31.94 11.93, 42.6 1.5 M23.69 20.77 C30.28 13.7, 36.41 6.47, 43.19 -0.51 M29.05 22.2 C35.2 15.53, 39.95 12.3, 45.87 1.51 M28.15 21.52 C34.64 16.14, 40.15 8.93, 48.5 -0.15 M36.19 22.94 C40.16 15.45, 44.28 9.13, 54.46 0.53 M35.05 20.3 C41.39 13.01, 48.11 6.94, 53.86 0.55 M38.48 20.19 C43.47 15.76, 48.44 11.83, 58.35 -0.18 M39.31 21.75 C45.49 14.45, 51.93 7.26, 57.43 -0.77 M45.76 18.95 C49.51 13.36, 57.84 6, 62.37 0.92 M45.09 21.11 C52.03 13.27, 57.7 6.27, 63.17 -0.41 M49.49 22.52 C54.68 13.39, 61.01 7.81, 67.92 0.65 M51.1 21.73 C57.99 14, 65.09 4.38, 68.02 0.97 M54.96 19.45 C64.57 14.86, 70.46 7.66, 73.28 -1.9 M56.27 20.56 C63.26 14.84, 67.8 7.21, 73.71 -0.18 M59.05 22.6 C67.32 12.65, 73.62 3.55, 79.3 1.66 M61.09 21.68 C66.75 15.86, 71.76 8.17, 79.97 -0.8 M66.49 20.09 C70.61 15.88, 78.98 6.69, 85.67 -0.02 M67.3 21.75 C71.77 14.94, 78.23 7.92, 84.31 0.25 M71.61 22.35 C75.49 17.72, 78.32 13.75, 88.7 1.01 M71.13 21.58 C77.9 14.99, 84.45 6.43, 89.24 -0.25 M78.57 21.05 C81.86 13.1, 89.32 7.73, 97.5 -1.03 M77.12 21.54 C82.09 16.94, 84.15 11.22, 96.05 -0.41 M83.14 20.17 C85.12 17.09, 90.5 12.24, 99.82 1.37 M81.3 21.16 C88.8 12.75, 97.11 4.35, 100.03 0.25 M88.91 18.97 C92.89 14.65, 100.54 6.54, 106.22 -0.01 M86.96 20.54 C94.18 12.24, 103.07 4.06, 106.26 0.32 M93.09 22.99 C97.91 14.79, 102.72 8.53, 111.87 1.9 M91.92 21.9 C96.86 17.57, 101.28 12.74, 110.81 0.03 M98.72 19.04 C105.2 12.83, 110.84 6.78, 116.13 1.19 M98.26 21.09 C104.44 12.5, 111.54 5.32, 115.87 -0.56 M104.43 22.22 C108.39 15.12, 116.85 3.87, 123.58 -1.74 M103.58 21.04 C108.35 16.05, 113.91 10.39, 122.27 0.22 M108.7 18.91 C117.41 11.85, 120.7 6.73, 125.02 -1 M108.73 21.3 C113.64 16.08, 115.83 11.51, 126.01 -0.59 M115.61 21.77 C118.68 14.68, 126.8 7.3, 133.14 -1.39 M115.11 21.55 C119.02 15.25, 125.95 7.8, 133.37 -0.35 M118.42 21.5 C122.73 16.86, 125.24 14.1, 134.88 2.09 M119.68 21.79 C125.97 13.54, 131.19 7.04, 136.82 2.23 M124.63 21.96 C128.97 15.57, 130.84 10.97, 135.81 7.21 M125.51 20.25 C128.25 17.2, 131.52 14.54, 136.76 6.59 M129.35 20.69 C132.52 18.46, 134.27 16.38, 136.82 14.14 M130.21 21.03 C131.98 18.76, 134.37 16.77, 136.55 14.14 M-0.13 18.44 C-0.13 18.44, -0.13 18.44, -0.13 18.44 M-0.13 18.44 C-0.13 18.44, -0.13 18.44, -0.13 18.44 M5.57 19.05 C4.54 17.59, 3.62 16.32, 0.19 13.04 M6.64 18.95 C4.38 17.08, 3.35 15.81, -0.15 13.77 M11.34 18.33 C6.8 13.71, 3.28 12.74, -0.84 8.59 M12.64 18.62 C8.57 16.26, 6.92 13.37, -0.61 8.18 M17.75 17.19 C14.71 15.8, 6.77 9.24, -1.77 2.17 M17.85 18.15 C12.4 13.38, 6.67 7.09, -0.37 2.84 M26.55 16.88 C14.98 12.39, 8.44 5.02, 2.95 -0.5 M25.32 18.06 C18.94 14.22, 14.38 10.94, 0.39 -1.01 M31.21 18.43 C24.34 13.24, 15.46 7.4, 9 -3.08 M29.95 19.42 C21.99 11.44, 13.39 4.92, 8.32 -2.23 M37.8 18.15 C30.38 14.03, 27.55 9.68, 14.89 -0.29 M36.84 19.29 C30.13 14.22, 24.73 7.21, 14.24 -1.32 M42.61 19.97 C36.83 13.7, 27.71 5.84, 18.88 -1.05 M42.72 17.73 C36.74 14.17, 31.15 8.59, 19.67 -1.12 M49.16 17.73 C43.98 12.45, 35.09 7.32, 23.45 -0.6 M48.48 18.53 C43.42 15.18, 38.5 10.96, 24.73 -2.49 M53.93 19.61 C50.29 13.54, 41.72 6.68, 32.3 -2.27 M54.37 18.11 C48.2 12.62, 42.07 8.11, 32.72 -1.55 M59.6 19.04 C54.94 11.3, 46.14 6.7, 40.1 -1.1 M60.8 19 C54.47 14.3, 50.28 8.16, 37.32 -0.77 M68.35 17.71 C61.11 16, 55.46 8.18, 45.73 -0.83 M67.09 19.33 C58.02 11.54, 50.1 3.41, 43.32 -1.52 M71.57 17.97 C64.59 11.05, 56.66 4.19, 49.54 -2.95 M72.66 17.69 C63.93 12.46, 56.44 4.63, 49.45 -0.6 M78.86 17.09 C70.33 13.16, 61.5 4.21, 55.12 -2.3 M79.6 17.92 C70.06 10.57, 61.56 1.47, 55.55 -1.31 M83.79 19.62 C77.66 12.29, 69.81 8.19, 62.24 -0.82 M85.87 17.99 C78.74 13.73, 72.93 7.95, 63.1 -0.73 M93.15 20.41 C82.52 10.08, 73.92 5.76, 68.69 -3.13 M92.1 17.48 C83.17 11.71, 74.13 4.38, 68.48 -0.78 M96.21 19.57 C91.88 10.64, 81.19 6.12, 75.41 -1.56 M98.28 19.05 C89.14 12.26, 82.45 4.87, 73.71 -0.8 M102.44 18.84 C96.2 14.06, 89.99 4.68, 79.89 -1.2 M103.05 17.36 C95.73 11.42, 88.71 6.53, 81.2 -2.02 M110.55 19.89 C98.5 10.63, 91.1 1.08, 85.76 -3.49 M110.2 17.78 C105.62 14.93, 99.63 8.81, 86.99 -2.71 M114.2 20.7 C109.58 14.18, 102.74 6.73, 91.94 0.05 M115.91 19.33 C107.29 11.02, 98.05 2.19, 93.29 -1.38 M123.27 18.51 C115.75 12.69, 107.49 4.14, 98.26 0.2 M121.48 18.14 C117.46 14.17, 112.91 11.39, 99.66 -1.94 M129.13 16.84 C122.04 14.4, 114.79 8.31, 102.79 -2.97 M128.13 18.92 C119.99 11.97, 109.64 2.68, 103.83 -2.14 M134.33 17.83 C126.51 12.5, 120.79 8.27, 111.1 -1.13 M134.2 17.87 C125.84 12.05, 117.54 4.17, 110.41 -2.2 M138.67 13.95 C128.3 9.02, 123.34 4.08, 117.92 -1.33 M136.66 16.78 C132.55 12.75, 127.54 8.81, 116.15 -1.82 M138 9.04 C132.39 6.1, 127.37 2.04, 124.15 0.14 M137.55 10.55 C133.64 6.79, 129.1 3.76, 122.53 -1.49 M137.58 4.63 C134.85 4.53, 133.58 1.46, 130.33 -1.12 M137.04 5.66 C135.7 4.16, 134.04 2.82, 130.11 -1.4" stroke="#e64980" stroke-width="0.5" fill="none"></path><path d="M1.6 0.38 C34.22 0.09, 66.46 -2.6, 135.72 -0.17 M-0.65 -0.12 C53.56 0.19, 107.66 -0.32, 135.57 0.14 M134.27 -0.36 C135.6 8.68, 133.98 15.1, 134.2 20.21 M134.66 0.62 C134.65 6.22, 133.98 10.53, 134.53 18.14 M135.8 20.2 C93.74 18.1, 48.32 17.77, 0.08 16.93 M134.33 18.78 C91.32 19.85, 46.84 20.46, -0.76 17.78 M0.92 19.77 C0.49 13.35, -1.15 12.1, 1.52 0 M-0.09 17.95 C-0.56 14.5, -0.87 10.16, 0.02 0.88" stroke="#000000" stroke-width="1" fill="none"></path></g><g stroke-linecap="round" transform="translate(191.01201040214482 200.1635062398077) rotate(0 60.201060667851834 28.011793336812843)"><path d="M0 0 C0 0, 0 0, 0 0 M0 0 C0 0, 0 0, 0 0 M-0.11 6.8 C1.19 5.52, 2.02 3.23, 4.91 -0.32 M-0.22 6.38 C1.42 4.43, 2.95 2.49, 5.27 0.11 M-0.45 12.19 C5.5 8.43, 7.65 3.59, 10.55 0.42 M-0.26 11.55 C4.14 8.01, 5.82 4.67, 10.85 0.15 M0.43 17.02 C4.3 12.45, 9.53 9.18, 16.78 1.52 M-0.67 19.11 C5.47 11.95, 9.55 5.64, 16.57 -0.13 M-1.32 23.17 C7.23 17.8, 12.31 10.97, 22.01 -0.48 M-0.73 23.42 C8.25 15.17, 15.09 7.66, 20.81 -0.72 M-0.78 30.33 C5.35 25.27, 11.31 15.48, 25.26 -0.25 M0.36 30.55 C6.36 23.69, 13.69 16.09, 26.77 0.57 M0.31 36.21 C11.2 24.68, 20.03 13.56, 30.4 1.66 M-0.93 37 C7.75 28.92, 12.7 21.34, 32.36 -0.99 M-1.56 43.76 C12.01 26.51, 28.06 12.48, 35.92 2.02 M0.03 43.41 C9.05 32.99, 16.16 22.7, 37.51 0.45 M1.32 48.5 C11.64 38.07, 21.44 24.69, 43.15 1.85 M0.54 48.27 C16.93 28.84, 33.79 10.08, 41.9 -1.13 M-0.45 54.21 C14.06 39.33, 25.02 25.94, 46 1.49 M-0.33 54.17 C18.78 33.41, 37.28 10.8, 48.24 -0.15 M2.9 56.94 C17.61 39.46, 32.95 21, 51.23 -0.48 M2.12 58.3 C16.41 40.61, 31.92 23.99, 54.01 0.09 M6.73 58.79 C25.46 36.56, 42.64 16.26, 56.19 -0.18 M8.08 58.75 C19.73 44.8, 31.63 29.59, 58.69 0.89 M13 59.16 C23.45 45.11, 35.49 30.36, 65.09 -1.44 M13.76 58.18 C27.13 40.64, 41.41 24, 63.52 -0.34 M16.51 59.96 C31.24 43.1, 42.29 30.49, 70.71 -0.81 M19.16 57.66 C31.18 44.82, 43.06 30.68, 68.79 -0.58 M21.95 56.38 C40.26 37.07, 60.12 16.04, 74.69 -0.59 M24.55 57.82 C40.85 38.07, 56.53 20.59, 73.52 0.29 M29.57 59.89 C45.1 36.03, 66.33 17.55, 81.27 -1.75 M29.71 58.42 C40.54 43.38, 53.98 29.93, 78.76 1.03 M35.48 57.26 C46.24 45.97, 55.96 33.11, 85.5 -1.03 M33.69 57.81 C52.99 36.87, 72.8 16.08, 85.33 0.48 M41.37 57.51 C58.46 37.12, 78.81 13.09, 91.07 0.16 M40.06 58.49 C52.12 42.83, 67.23 26.98, 89.06 -0.9 M46.78 58.96 C53.54 43.82, 67.78 34.06, 94.49 -1.34 M44.64 58.52 C60.65 40.37, 76.2 21.64, 96.54 0.45 M50.86 56.22 C62.94 47.44, 71.31 34.98, 98.84 0.6 M50.78 59.11 C65.41 38.84, 83.58 20.24, 100.38 0.72 M55.93 59.92 C72.25 39.34, 91.56 17.62, 106.1 0.39 M54.45 58.8 C67.72 45.15, 80.45 31.31, 106.97 0.19 M60.52 59.95 C79.04 37.07, 99.9 13.82, 110.78 -0.28 M60.73 57.26 C80.4 35.38, 99.03 13.88, 111.7 0.76 M64.43 56.77 C79.92 43.18, 90.89 31.27, 115.64 -0.67 M66.39 59 C77.08 45.6, 88.4 33.14, 116.07 0.17 M72.29 57.09 C82.89 44.96, 92.78 33.46, 119.95 -1.05 M70.97 57.67 C89.69 37.07, 106.7 16.43, 121.56 0.56 M75.34 56.94 C91.04 39.62, 107.16 21.15, 121.98 7.67 M76.01 57.49 C88.93 44.43, 100.28 29.72, 121.56 7.17 M83.65 56.58 C94.11 44.11, 104.94 31.58, 122.37 14.01 M82.83 58.81 C91.51 47.62, 98.58 38.69, 122.23 13.05 M87.88 59.59 C92.49 49.3, 101.29 41.35, 120.75 20.08 M87.77 57.61 C95 49.37, 102.56 39.33, 120.68 19.66 M91.55 59.81 C105.22 46.3, 116.33 34.03, 120.6 23.25 M91.91 58.93 C99.05 50.15, 107.62 41.53, 121.26 25.02 M96.76 56.39 C105.56 49.68, 109.96 42.6, 122.99 31.19 M98.37 58.47 C104.15 51.42, 110.15 43.62, 120.86 31.33 M104.46 56.71 C109.4 49.21, 116.64 42.69, 122.18 37.59 M104.03 58.01 C109.12 52.09, 114.29 45.91, 121.95 37.08 M108.18 59.5 C110.16 55.32, 115.92 50.21, 122.66 41.41 M108.77 58.93 C112.25 52.31, 117.24 48.44, 121.18 42.91 M114.14 57.81 C116.5 56.24, 118.26 53.89, 120.59 49.94 M113.56 57.85 C116.15 55.59, 117.12 54.24, 121.52 49.47 M0.19 56.18 C0.19 56.18, 0.19 56.18, 0.19 56.18 M0.19 56.18 C0.19 56.18, 0.19 56.18, 0.19 56.18 M5.86 55.69 C3.96 54.4, 1.86 52.42, -0.3 50.24 M5.59 55.69 C4.3 54.33, 1.98 52.72, -0.45 50.61 M11.8 57.27 C8.41 55.22, 7.19 50.3, 1.73 45.56 M12.65 56.48 C7.62 51.91, 3.51 48.31, 0.27 45.69 M17.74 54.48 C12.65 49.91, 3.6 45.4, -2.05 39.7 M18.15 55.41 C12.54 52.65, 7.94 46.88, -0.43 39.96 M24.44 57.5 C14.14 48.89, 5.94 42.61, 0.7 33.93 M24.22 56.38 C17.99 50.66, 13.34 45.34, -0.14 34.27 M30.68 55.09 C20.55 46.22, 10.98 37.8, 0.2 27.62 M31.16 56.99 C20.69 47.84, 9.59 39.21, 0.59 29.48 M35.57 57.39 C29.61 47.31, 21.26 43.96, -0.46 24.06 M35.81 56.69 C21.59 42.74, 8.4 32.2, 0.39 25.15 M43.43 54.44 C28.46 42, 13.87 27.74, 0.01 18.2 M42.13 55.67 C33.99 48.8, 24.6 41.98, -0.53 17.85 M49.56 56.58 C36.4 46.44, 23.57 33.31, -1.87 14.88 M48.49 55.78 C38.95 46.8, 29.26 38.37, 0.22 13.86 M53.45 57.43 C37.35 41.91, 18.16 25.25, -1.39 8.61 M54.39 55.94 C41.56 44.37, 29.85 34.59, -0.35 7.44 M60.1 56.9 C35.76 35.69, 11.68 15.09, -0.59 1.8 M61.22 55.69 C43.08 40.34, 25.69 24.57, -0.07 3.61 M65.7 57.49 C41.89 35.56, 18.52 14.68, 2.2 -2.18 M67.51 56.02 C48 37.92, 27.16 20.6, 0.36 -0.34 M74.67 54.67 C51.61 38.08, 31.54 21.11, 9.4 -0.72 M73.44 56.19 C55.96 41.11, 40.86 28.16, 7.91 -0.05 M81.39 57.19 C56.06 34.51, 31.52 13.92, 12.07 -0.13 M80.08 56.56 C59.7 38.48, 39.07 21.06, 12.61 -1.76 M83.47 54.08 C61.37 35.94, 40.9 14.3, 19.04 -2.88 M86.13 56.13 C71.49 42.83, 56.15 28.86, 20.2 -1.02 M90.98 57.62 C71.31 40.13, 52.12 22.12, 25.35 0.24 M90.68 55.96 C72.3 40.7, 55.52 24.82, 26.04 -2.4 M96.22 55.77 C77.9 41.59, 63.98 25.96, 33.26 0.31 M96.47 56.11 C72.73 35.12, 47.76 14.04, 31.63 -0.74 M102.69 54.36 C83.73 38.68, 64.92 20.15, 38.01 -1.26 M104.39 56.37 C88.16 41.88, 70.65 28.42, 37.86 -0.24 M110.87 57.56 C93.38 43.15, 77.97 28.37, 45.03 -1.76 M110.7 57.16 C84.22 33.72, 58.32 12.32, 43.76 -0.99 M115.47 54.82 C100.59 40.78, 84.86 26.97, 51.25 -2.26 M115.8 55.02 C88.28 33.96, 63.44 10.77, 49.27 -1.5 M121.89 55.16 C101.34 40.03, 85.69 23.66, 54.8 -3.16 M122.24 55.4 C97.84 35.59, 74.34 15.16, 56.44 -1.79 M120.99 49.01 C107.17 38.16, 96.29 27.69, 64.04 -1.95 M120.94 48.97 C102.78 33.96, 83.83 17.99, 61.99 -0.66 M119.66 46.2 C108.22 33.18, 96.12 23.14, 67.28 -0.82 M121.25 44.16 C103.14 28.4, 86.27 14.44, 68.5 -0.76 M122.72 38.65 C113.15 31.91, 101.2 20.81, 74.08 0.33 M120.4 38.29 C103.98 25.02, 86.8 10.11, 73.21 -1.12 M123.22 35.18 C109.3 24.54, 96.55 12.5, 80.44 -1.15 M121.26 34.9 C106.24 20.47, 89.9 8.16, 80.76 -1.71 M119.41 29.26 C109.58 17.03, 92.83 5.92, 86.59 -2.25 M120.81 28.03 C113.7 21.72, 105.16 14.43, 86.4 -2.52 M119.78 25.27 C115.01 14.61, 105.79 8.11, 93.99 -0.06 M120.71 22.95 C113.46 15.94, 104.55 9.69, 92.55 -0.78 M120.02 18.25 C115.45 11.76, 107.08 5.66, 99.04 0.63 M121.74 18.43 C114.96 13, 110.81 9.63, 98.01 -0.1 M120.06 12.14 C115.58 8.83, 108.48 0.77, 106.38 -1.66 M120.32 13.44 C117.58 9.99, 114.34 5.87, 104.72 -0.97 M120.94 7.46 C117.82 6.2, 116.5 3.49, 110.43 -1.83 M120.95 7.42 C118.31 4.97, 115.66 3.31, 110.68 -1.27 M121.5 2.83 C119.85 1.49, 117.98 -0.75, 116.33 -1.56 M121.14 2.61 C119.61 0.95, 117.49 -0.85, 116.55 -1.57" stroke="#99cffa" stroke-width="0.5" fill="none"></path><path d="M-0.66 0.39 C27.02 -1.81, 56.96 0.15, 121.04 0.7 M-0.41 0.71 C34.84 -1.21, 70.83 -1.15, 121.24 0.23 M121.5 1.8 C121.01 10.62, 122.28 23.55, 121.6 54.5 M119.43 0.4 C120.3 17.56, 119.69 35.22, 121.06 55.08 M121.1 54.27 C73.7 56.95, 30.36 56.93, 0.55 54.81 M119.79 56.33 C73.76 56.73, 26.72 56.65, 0.63 56.8 M0.22 55.24 C-1.75 40.33, 0.72 25.14, 0.72 -1.38 M-0.5 56.96 C0.99 42.11, 0.59 28.57, 0.85 0.91" stroke="#000000" stroke-width="1" fill="none"></path></g><g transform="translate(213.71307106999666 206.17529957662055) rotate(0 37.5 22)"><text x="37.5" y="15" font-family="Virgil, Segoe UI Emoji" font-size="18.125332909335516px" fill="#000000" text-anchor="middle" style="white-space: pre;" direction="ltr">Load </text><text x="37.5" y="37" font-family="Virgil, Segoe UI Emoji" font-size="18.125332909335516px" fill="#000000" text-anchor="middle" style="white-space: pre;" direction="ltr">balancer</text></g><g stroke-linecap="round" transform="translate(46.544844351769825 301.6479460540668) rotate(0 63.355334429084905 41.39515062849296)"><path d="M0 0 C0 0, 0 0, 0 0 M0 0 C0 0, 0 0, 0 0 M0.19 5.86 C2.11 4.29, 3.16 1.99, 4.63 1 M-0.65 6.19 C0.93 4.92, 1.78 3.8, 5.07 0 M-0.44 10.62 C3.34 7.71, 8.68 2.48, 11.99 -0.02 M-0.66 12.51 C3.12 7.97, 5.95 4.91, 9.98 0.09 M0.13 19.17 C2.58 12.87, 8.74 9.92, 16.85 -1.63 M-0.83 17.57 C4.1 13.01, 8.73 7.39, 15.21 0.33 M2.19 26.07 C9.63 13.96, 16.99 5.15, 21.41 -0.59 M0.19 23.18 C6.92 16.34, 13.67 7.67, 21.19 -0.2 M1.45 29.52 C6.91 21.03, 16.02 13.18, 27.36 0.63 M0.07 29.55 C10.1 20.04, 19.7 8.87, 25.6 0.42 M0.01 38.02 C7.68 28.64, 15.03 17.08, 32 -0.25 M-0.77 37.7 C10.92 24.08, 22.15 10.4, 31.01 0.72 M1.26 43.31 C10.48 29.71, 25.65 14, 36.27 -0.28 M0.21 42.26 C9.91 31.44, 20.34 19.95, 36.98 0.34 M0.88 49.58 C13.13 30.66, 27.26 15.09, 43.03 1.71 M-0.83 48.28 C10 38.29, 20.9 26.48, 42.78 0.59 M0.47 55.24 C13.11 40.76, 24.14 28.78, 48.77 2.1 M0.05 54.41 C17.67 33.79, 33.77 14.35, 47.69 0.91 M-0.71 61.95 C17.62 39.98, 34.91 18.92, 53.9 1.49 M0.72 61.49 C15.9 40.81, 32.75 22.82, 53.72 -0.62 M-0.16 68.29 C20.25 41.31, 41.07 17.88, 58.5 1.72 M-0.83 67.71 C14.93 50.62, 30.56 32.97, 57.86 -0.78 M-1.09 71.1 C19.51 50.66, 40.88 25.8, 64.53 -1.18 M0.98 73.42 C18.69 52.76, 36.97 31.04, 62.82 -0.72 M-1.4 78.66 C17.45 56.66, 37.29 34.85, 67.63 0.05 M0.87 79.86 C15.38 61.99, 29.59 43.08, 69.32 0.59 M1.21 82.97 C24.14 57.87, 47.86 29.19, 75.34 0.89 M2.12 82.89 C25.86 57.25, 50.11 27.91, 74.8 -1.24 M5.05 84.76 C29.7 57.97, 50.5 31.44, 78.84 2.04 M6.79 83.52 C29.56 57.19, 51.67 30.82, 79.69 0.6 M10.09 84.24 C41.09 50.4, 68.13 19.18, 83.23 -1.58 M11.96 84.18 C28.77 64.91, 44.74 45.5, 84.15 0.52 M15.5 82.32 C45.16 54.12, 71.08 22.97, 91.28 0.17 M17.76 83.42 C34.94 62.23, 51.86 41.82, 90.32 -0.9 M22.81 82.41 C44.32 61.72, 65.99 36.76, 97.63 1.63 M22.98 85.18 C50.85 51.87, 79.06 20.31, 95.09 -0.48 M29.43 84.09 C52.84 53.24, 79.59 27.13, 100.61 -1.62 M27.11 84.04 C51.47 57.61, 72.95 32.06, 100.32 0.15 M32.41 84.2 C47.62 64.67, 66.88 49.16, 104.44 0.22 M32.63 83.73 C49.19 63.75, 65.35 45.01, 105.61 -1.03 M38.73 85.77 C61.03 56.87, 83.44 33.64, 111.01 0.15 M37.79 83.6 C59.62 60.68, 79.53 35.57, 110.54 0.11 M45.03 83.07 C70.16 54.68, 91.41 28.8, 117.43 0.15 M42.78 83.16 C58.42 64.22, 76.4 46.07, 116.78 1.08 M47.84 82.58 C70.77 60.68, 89.04 36.44, 123.13 0.43 M48.54 84.54 C71.08 58.57, 94.35 32.55, 121.59 -0.47 M55.35 83.99 C78.13 57.38, 104.59 29.47, 128.82 0.64 M55.01 85.04 C73.33 62.14, 93.32 41.29, 127.39 0.04 M61.66 85.22 C77.87 64.81, 94.33 41.64, 128.89 7.71 M59.85 83.57 C85.06 52.27, 112.85 22.12, 126.58 5.3 M66.52 83.41 C86.44 59.72, 107.61 35.3, 126.87 10.72 M64.7 83.22 C80.21 68.51, 93.71 49.74, 127.53 12.64 M69.6 83.91 C84.25 65.67, 98.78 48.26, 125.3 20.73 M69.94 83.66 C89.65 60.04, 110.95 36.64, 126.95 19.26 M74.22 85.29 C96.74 61.74, 116.31 35.03, 125.99 26.02 M74.94 83.77 C89.94 66.39, 104.19 49.04, 126.66 25.02 M81.59 84.35 C90.78 70.48, 101.74 61.1, 125.08 29.38 M80.79 84.01 C93.57 69.86, 104.02 56.21, 127.12 31.18 M86.6 85.1 C100.28 68.42, 116.34 48.52, 126.6 37.76 M86.59 83.02 C102.26 66.91, 117.07 48.44, 127.52 35.63 M92.03 83.77 C101.27 71.33, 111.35 59.04, 126.24 43.39 M92.14 84.07 C105.02 69.93, 116.56 54.99, 128.04 43.4 M96.33 85.8 C107 73.89, 115.56 63.44, 124.95 49.41 M96.25 83.57 C104.31 74.59, 112.16 64.93, 125.93 49.93 M103.84 82.86 C110.03 72.68, 119.19 62.16, 127.95 55.21 M101.46 83.56 C111.22 73.57, 118.62 63.55, 127.06 55.77 M108.57 85.84 C114.84 75.85, 121.03 67.48, 127.77 61.66 M106.29 84.23 C115.05 74.35, 123.41 66.29, 127.44 61.37 M112.44 81.85 C118.54 78.53, 123.35 70.11, 125.86 68.81 M111.99 84.42 C117.56 77.54, 123.34 72.13, 127.3 66.34 M117.26 83.41 C121.82 80.55, 123.4 79.02, 127.94 73.09 M118.52 84.04 C121.11 80.58, 125.11 76.61, 127.27 73.75 M122.32 84.54 C123.97 82.72, 125.79 81.54, 127 79.94 M122.61 84.08 C124 82.91, 125 81.68, 126.83 79.89 M-0.24 82.58 C-0.24 82.58, -0.24 82.58, -0.24 82.58 M-0.24 82.58 C-0.24 82.58, -0.24 82.58, -0.24 82.58 M6.96 82.19 C4.13 81.65, 3.23 79.92, 0.08 77.46 M6.24 82.8 C3.94 80.83, 1.38 78.65, 0.52 77.88 M12.91 82.54 C7.66 79.95, 4.06 75.73, 0.96 71.74 M11.97 82.41 C8.55 78.41, 3.42 74.03, -0.41 72.78 M18 84.02 C12.56 78.27, 10.22 76.68, 1.39 68.29 M18.79 81.89 C11.12 76.7, 5.06 69.66, 0.95 67.86 M26.32 82.38 C13.73 75.57, 5.41 66.59, -0.77 62.82 M25.35 82.66 C15.2 75.34, 5.21 66.19, -0.03 61.86 M31.27 82.58 C21.51 72.73, 10.92 65.45, -1.39 55.94 M30.85 82.74 C19.23 74.24, 9.9 63.56, -0.08 56.46 M35.5 82.48 C26.87 78.1, 19.33 71.18, -0.33 50.86 M37.24 83.05 C27.99 75.42, 20.74 67.97, 0.21 51.21 M42.66 83.24 C30.34 73.39, 19.86 65.2, 1.87 45.67 M43.28 83.17 C30.35 72.37, 17.97 60.18, -0.13 45.43 M48.69 82.19 C37.96 72.56, 26.58 60.35, -1.09 39.02 M48.37 81.81 C34.25 70.96, 22.11 58.79, -0.97 39.46 M57.06 81.89 C42.19 70.79, 30.03 59.98, 1.82 34.44 M54.29 83.31 C38.21 67.91, 20.56 53.01, 0.42 34.37 M62.53 84.48 C45.41 67.83, 28.14 51.59, -1.38 30.68 M61.37 83.52 C42.34 66.27, 24.55 51.75, -0.35 29.95 M66.15 83.92 C51.2 69.99, 36.83 58.31, 1.62 22.72 M68.11 83.54 C48.64 66.69, 28.58 49.14, 0.92 25.1 M74.96 84.45 C48.9 61.31, 21.12 38.4, -1.31 18.73 M73.34 83.66 C49.4 62.3, 25.2 42.63, 0.8 20.34 M77.32 81.52 C58.42 60.89, 33.33 41.46, 0.95 14.46 M79.99 81.8 C51.07 60.03, 26.03 36.27, 0.47 13.71 M86.12 82.77 C65.57 65.08, 48.71 50.86, 1.81 9.53 M84.87 82 C55.43 56.49, 22.87 28.66, 1.22 8.49 M90.51 82.42 C66.2 59.21, 38.27 34.82, -0.03 5.13 M90.89 82.3 C71.51 65.4, 51.9 48.94, -0.07 2.51 M98.94 81.54 C76.2 63.89, 55.97 47.99, -0.86 -3.04 M98.58 82.53 C68.55 59.4, 41.24 35.04, 1.38 -1.49 M102.88 82.47 C76.59 55.84, 44.79 34.78, 6.88 0.24 M104.31 82.16 C78.1 58.76, 50.89 36.34, 7.46 -1.33 M108.08 81.73 C83.12 59.48, 54.43 34.37, 12.16 -1.09 M110.07 82.83 C73.17 50.62, 34.84 19.16, 13.34 -0.7 M117.83 83.07 C88.92 58.87, 61.72 33.63, 19.83 -0.36 M115.22 82.77 C84.07 53.03, 50.11 25.77, 20.38 -1.61 M120.69 83.8 C93.18 57.55, 61.11 31.4, 24.96 -2.26 M120.7 82.73 C88.41 52.8, 55.49 23.96, 25.01 -1.04 M128.78 82.44 C102.27 62.3, 78.89 42.6, 31.96 -2.65 M127.84 83.09 C104.96 64.32, 86.08 46.93, 32.28 -1.2 M125.67 77.8 C93.37 49.12, 61.51 19.66, 38.22 -2.16 M126.77 76.42 C98.64 51.02, 71.66 26.77, 38.11 -1.63 M127.07 73.1 C99.46 45.94, 70.23 20.65, 45.43 -1.17 M127.59 71.14 C97.93 46.06, 69.51 20.66, 43.01 -0.74 M129.42 65.17 C104.51 44.52, 79.45 21.41, 50.83 -2.91 M127.42 66.19 C108.71 49.25, 88.47 32.34, 49.88 -1.33 M126.44 62.1 C105.7 40.13, 80.47 21.39, 54.91 -2.97 M127.52 60.21 C111.57 48.4, 97.02 36.21, 56.18 -0.68 M128.4 56.15 C101.65 33.14, 77.1 14.18, 60.47 -1.13 M127.01 55.91 C105.1 37.54, 84.61 17.58, 61.54 -0.79 M125.81 50.16 C110.43 37.1, 94.82 20.78, 68.31 1.09 M127.11 50.03 C110.86 36.78, 93.01 20.34, 67.9 -0.5 M128.51 45.84 C109.57 28.31, 92.36 13.08, 72.54 -2.62 M126.66 45.06 C107.97 29.09, 88.27 10.46, 73.33 -1.03 M128.58 41.49 C112.78 25.8, 98.09 16.61, 79.79 -2.36 M127.6 40.53 C112.15 26.13, 97.46 13.58, 79.76 -1.46 M127.43 36.22 C113.03 20.07, 98.11 8.13, 84.97 -1.66 M128.48 34.72 C110.39 20.48, 94.17 6.34, 85.23 -0.86 M126.68 27.79 C116.96 22.49, 108.81 13, 94.28 -1.2 M127.96 29.94 C119.67 21.57, 111.24 14.45, 93.38 -0.55 M127.31 24.75 C118.89 19.37, 114.34 12.58, 96.92 -0.4 M128.32 24.23 C120.12 16.94, 112.7 11.31, 99.72 -0.16 M128.52 20.28 C119.65 12.86, 110.57 2.01, 104.42 -0.46 M126.92 18.7 C123.22 14.96, 116.95 9.39, 105.35 -1.2 M126.82 12.38 C125.41 10.58, 117.82 5.39, 109.8 0.58 M127.78 13.17 C122.39 9.48, 118.86 4.32, 110.77 -0.54 M127.03 9.09 C122.99 4.92, 121.65 1.9, 115.73 -1.61 M127 7.59 C124.52 5.31, 121.38 2.82, 116.18 -0.82 M127.95 3.01 C126.6 1.3, 124.72 0.32, 123.17 -1.37 M127.67 2.95 C125.66 1.22, 124.49 0.14, 122.75 -1.23" stroke="#12b886" stroke-width="0.5" fill="none"></path><path d="M-1.46 -1.81 C47.45 -0.73, 93.29 -1.67, 128.53 0.44 M0.33 0.31 C29.36 0.52, 59.55 -0.7, 125.93 -0.8 M128.67 -0.19 C128.67 16.3, 125 35.88, 126.66 82.77 M126.51 0.39 C126.12 32.5, 125.06 65.22, 127.61 82.74 M127.72 81.32 C93.34 83.03, 59.45 81.04, 0.2 81.24 M126.15 82.94 C80.26 82.11, 34.86 81.81, -0.06 83.7 M0.17 83.87 C-1.27 60.02, -0.87 36.8, -1.43 -0.43 M0.27 82.66 C0.15 64.82, 0.61 45.95, 0.34 -0.89" stroke="#000000" stroke-width="1" fill="none"></path></g><g transform="translate(74.40017878085473 332.04309668255974) rotate(0 35.5 11)"><text x="35.5" y="15" font-family="Virgil, Segoe UI Emoji" font-size="18.11453054675986px" fill="#000000" text-anchor="middle" style="white-space: pre;" direction="ltr">server 1</text></g><g stroke-linecap="round" transform="translate(191.87753564058994 301.1884444874386) rotate(0 63.355334429084905 41.39515062849296)"><path d="M0 0 C0 0, 0 0, 0 0 M0 0 C0 0, 0 0, 0 0 M-0.56 6.23 C1.18 4.22, 3.08 3.27, 4.35 0.07 M-0.21 6.37 C1.22 5.11, 1.96 3.45, 5.23 -0.03 M-0.72 12 C2.63 8.03, 6.64 3.73, 10.94 0.17 M0.74 12.04 C4.22 7.26, 7.07 3.57, 10.87 -0.6 M-0.07 16.55 C2.45 14.63, 8.26 10.76, 14.45 2.25 M0.23 18.11 C6.11 11.03, 12.62 3.75, 15 0.25 M-0.71 22.79 C4.59 18.74, 8.58 13.79, 22.41 1.38 M1.12 23.72 C6.14 18.28, 11.61 12.57, 20.82 0 M0.49 32.15 C4.01 24.3, 9.84 16.24, 28.16 0.56 M-0.68 30.15 C9.52 19.43, 19.35 9.65, 26.4 -0.22 M0.03 36.04 C10.2 24.29, 25 9.26, 33.86 1.02 M0.19 37.06 C10.7 23.77, 21.59 10.94, 32.54 -0.04 M0.65 43.2 C10.55 30.91, 21.22 18.03, 36.22 1.26 M-0.78 42.18 C12.94 29.69, 24.34 14.44, 36.02 -0.45 M0.31 50.89 C10.64 38.41, 19 26.64, 42.83 0.06 M0.6 49.16 C14.31 33.6, 28.5 16.35, 43.42 -0.36 M-0.15 52.63 C13.82 40.89, 27.58 25.66, 45.84 -0.5 M0.27 53.69 C17.04 36.65, 33.27 17.66, 48.31 0.93 M0.69 61.25 C19.96 38.88, 38.96 18.23, 54.28 -0.08 M-0.83 61.13 C18.92 40.78, 36.79 18.82, 53.04 -0.75 M0.42 68.59 C18.83 42.44, 39.18 21.54, 59.74 -1.05 M0.38 66.65 C12.23 52.87, 23.68 40.29, 57.98 1.03 M1.87 72.78 C19.4 46.52, 42.7 22.72, 64.67 -1.49 M-0.4 73.07 C16.92 53.76, 33.48 35.16, 63.24 0.79 M-1.89 77.5 C24.51 52.74, 47.58 22.88, 68.12 -0.22 M-0.29 78.55 C19.52 58.21, 38.11 35.64, 67.97 0.68 M1.37 82.15 C19.76 61.1, 36.41 44.82, 73.96 -1.76 M1.16 83.34 C25.88 55.71, 51.38 26.96, 74.09 -0.03 M4.79 84.97 C25.99 62.83, 46.07 39.62, 80.69 -1.36 M7.24 83.32 C26.69 58.77, 48.67 33.74, 79.51 0.51 M10.13 83.72 C31.32 61.1, 56.12 34.75, 85.62 -1.98 M11.27 85.24 C28.29 64.76, 43.51 45.81, 85.93 0.28 M15.31 82.94 C36.54 60.78, 54.35 39.43, 90.67 0.71 M17.67 84.45 C33.32 66.56, 48.42 47.99, 90.04 0.87 M23.49 85.7 C49.73 50.36, 81.09 17.62, 94.6 1.28 M22.52 85.17 C45.38 57.44, 68.58 31.99, 95.33 -1.04 M26.68 85.34 C49.89 57.1, 72.46 30.36, 98.77 -0.36 M28.66 84.71 C49.37 59.43, 71.5 34.66, 101.28 -0.14 M31.49 84.51 C50.11 61.66, 70.35 41.47, 107.37 -0.08 M32.96 85.01 C61.92 50.81, 91.18 17.05, 107.14 -1.02 M39.36 82.1 C56.72 59.79, 79.26 34.17, 113.19 1.59 M38.04 84.08 C56.18 63.47, 72.81 43.84, 111.18 -0.66 M44.35 84.32 C59.84 69.38, 72.92 51.39, 117.22 -0.88 M43.54 83.59 C60.85 64.1, 77.88 43.23, 115.78 -0.18 M49.33 83.63 C76.65 51, 105.53 19.19, 121.66 1.25 M49.88 84.29 C71.71 58.9, 91.75 33.61, 121.95 0.91 M55.78 85.8 C83.79 50.71, 110.67 17.8, 126.94 2.27 M53.48 83.54 C82.13 53, 109.6 21.36, 127.89 0.46 M60.03 84.84 C78.28 60.19, 99.62 38.93, 126.12 7.79 M60.53 82.81 C77.26 62.53, 94.7 41.83, 126.79 5.97 M62.99 82.1 C78.81 68.68, 90.37 52.94, 126.33 11.63 M64.23 83.2 C83.64 63.15, 104.42 40.73, 127.89 11.96 M70.43 85.15 C87.95 65.05, 106.28 45.5, 128.65 17.65 M70.55 82.89 C89.82 60.5, 110.7 36.69, 127.77 18.37 M74.7 82.89 C88.33 69.1, 102.01 53.24, 126.35 25.03 M75.49 84.68 C91.86 63.7, 109.74 44.04, 128.13 24.23 M78.99 84.46 C96.58 66.46, 113.02 47.9, 126 31.45 M80.79 83.49 C97.2 65.13, 114.52 45.43, 126.38 31.43 M87.11 82.33 C94.27 72.7, 102.13 64.21, 126.96 36.88 M85.23 83.84 C98.53 69.69, 112.15 54.76, 126.68 36.99 M91.68 83.2 C105.46 70.47, 115.47 54.29, 127.23 42.59 M92.33 83.35 C104.25 67.76, 118.69 52.43, 127.2 42.51 M95.93 83.09 C102.76 76.33, 113.97 67.81, 126.97 50.86 M95.64 84.27 C105.22 74.95, 113.16 66.41, 127.22 48.48 M101.94 82.28 C109.2 76.84, 117.63 66.98, 125.56 56.24 M102.49 82.95 C112.39 72.5, 122.73 60.24, 127.66 53.96 M108.38 84.34 C114.77 76.76, 121.6 70.61, 126.64 60.86 M107.2 83.35 C110.69 79.9, 115.98 74.79, 127.64 60.41 M114.75 83.11 C118.45 75.97, 124.06 69.78, 125.69 66.08 M112.86 84.53 C117.19 79, 121.12 75.64, 127.49 67.88 M118.77 85.18 C121.26 81.26, 123.98 76.71, 127.56 72.1 M118.38 84.09 C121.31 80.5, 124.18 76.64, 126.39 72.78 M122.57 84.3 C123.87 83.5, 124.81 81.65, 126.9 79.52 M122.78 84.43 C124.19 82.93, 124.91 82.03, 126.54 79.48 M-0.24 82.58 C-0.24 82.58, -0.24 82.58, -0.24 82.58 M-0.24 82.58 C-0.24 82.58, -0.24 82.58, -0.24 82.58 M5.84 82.33 C5.2 81.88, 2.76 79.1, 0.17 77.76 M6.03 82.76 C4.87 81.41, 3.26 79.99, 0.01 77.32 M13.37 81.64 C9.38 82.26, 5.33 79.75, -1.54 71.78 M12.46 83.41 C8.52 79.53, 4.05 74.2, 0.15 72.46 M19.97 81.02 C16.01 81.08, 12.12 75, 0.89 68.69 M18.25 82.89 C13.17 79.28, 9.29 75.18, 0.34 67.72 M23.98 82.1 C18.41 78.36, 12.24 70.53, 1.4 62.36 M25.53 83.54 C16.21 76.18, 9.96 70.35, 0.2 61.94 M31.97 80.9 C20.51 74.72, 9.53 68.08, 1.19 55.2 M29.69 83.55 C21.93 75.56, 12.67 68.53, -0.49 56.93 M38.62 82.62 C25.9 73.57, 11.89 62.46, -1.12 50.32 M35.79 83.28 C26.53 72.92, 14.26 63.17, 0.06 50.93 M44.57 81.76 C29.45 71.21, 15.34 60.27, -0.66 45.71 M43.76 82.24 C30.68 72.38, 18.97 63.34, 0.33 45.4 M49.66 81.11 C37.47 72.38, 27 65.8, -1.37 42.05 M49.18 82.55 C37.45 71.71, 24.58 60.71, -0.11 39.27 M54.22 82.7 C37.53 65.41, 17.96 50.1, 1.06 36.89 M56.03 82.38 C32 64.34, 11.11 44.72, 0 35.73 M60.8 84.23 C35.71 61.3, 11.64 38.87, 0.87 29.12 M59.91 82.93 C40.66 63.02, 18.28 45.89, 0.77 31.08 M67.15 81.29 C43.62 62.64, 17.9 37.98, -0.44 25.89 M66.58 83.1 C41.38 61.3, 17.69 41.1, -0.02 24.27 M72 83.8 C48.48 61.92, 21.16 36.85, -0.94 17.62 M73.18 82.45 C55.83 67.49, 38.02 52.75, -0.22 20.29 M80.3 82.94 C64.3 68.69, 44.88 54.26, -0.45 14.38 M79 82.64 C57.54 62.34, 34.41 42.09, -0.03 13.13 M84.47 82.17 C69.39 67.61, 50.18 51.61, 0.41 8.14 M86.2 82.9 C60 62.44, 34.12 40.32, 0.5 8.52 M90.15 81.58 C66.44 58.91, 39.72 37.84, 1.25 4.53 M91.11 82.97 C69.09 62.26, 48.4 44.91, -0.06 4.17 M97.18 84.17 C73.02 60.26, 46.12 39.11, -0.36 -2.26 M96.68 83.8 C70.78 59.96, 44.89 36.35, 0.78 -0.83 M105.4 84.26 C83.48 64.31, 63.03 48.48, 7.9 -2.45 M103.76 82.48 C78.83 62.15, 55.74 41.71, 7.64 -0.45 M107.84 82.45 C79.33 57.09, 48.11 30.39, 12.77 0.51 M109.83 81.74 C80.16 57.22, 50.88 30.98, 12.5 -2.1 M116.01 84.59 C90.04 57.53, 61.2 35.44, 19.72 -2 M115.77 83.35 C80.36 52.58, 45.89 22.63, 18.51 -2 M121.64 82.18 C91.06 56.59, 59.47 30.08, 25.44 0.04 M121.1 83.08 C92.17 55.66, 60.81 30.91, 25.93 -0.9 M128.94 81.99 C92.22 48.78, 54.53 15.43, 30.86 -2.41 M127.72 82.79 C92.87 52.07, 57.94 22.9, 30.72 -1.31 M128.53 75.13 C101.65 52.05, 76.28 31.46, 38.87 -1.11 M127.4 76.03 C93.75 46.94, 59.6 17.71, 37.66 -0.59 M128.09 71.18 C104.71 53.67, 84.37 32.39, 43.56 0.49 M127.87 70.61 C107.91 53.6, 87.57 38.29, 43.23 -1.51 M126.96 65.42 C106.58 47.79, 86.49 29.42, 51.51 -1.83 M126.96 66.4 C99.04 40.9, 70.46 18.03, 50.26 -0.76 M126.73 62.42 C112.29 48.1, 96 33.01, 55.51 -0.63 M126.63 61.37 C104.57 41.01, 83.3 21.73, 55.25 -2.02 M128.43 54.99 C107.6 40.03, 88.34 22.8, 63.57 -2.57 M127.76 55.08 C108.39 40.28, 88.99 21.9, 62.82 -1.26 M126.32 48.62 C109.96 37.48, 95.33 22.41, 68.68 0.04 M127.34 49.57 C107.29 32.37, 89.42 17.21, 68.99 -1.81 M128.9 43.68 C111.14 33.26, 97.71 17.97, 74.02 0.11 M127.01 46.09 C106.42 25.96, 85.9 9.27, 73.91 -0.87 M127.84 39.2 C107.69 22.73, 92.12 6.44, 82.28 -1.15 M127.56 39.42 C108.87 23.74, 92.68 8.95, 80.64 -0.09 M127.08 35.13 C113.4 24.76, 101.5 13.26, 85.32 -1.89 M127.42 34.53 C118.77 26.33, 107.3 17.27, 86.37 -0.61 M127.73 28.07 C115.28 18.26, 98.34 6.02, 93.27 -1.36 M127.14 28.91 C114.84 19.29, 103.86 8.87, 92.93 -0.35 M129.18 25.52 C119.99 17.4, 110.65 9.86, 100.19 0.5 M127.94 23.25 C116.01 14.88, 103.87 3.99, 98.04 -1.09 M125.97 17.65 C121.22 12.29, 110.72 3.75, 105.36 -1.95 M126.16 17.77 C120.78 14.36, 115.47 9.04, 104.06 -0.99 M128.91 11.51 C122.73 10.42, 117.89 5.43, 110.56 -1.11 M127.79 12.87 C120.47 7.53, 113.98 2.26, 110.74 -1.14 M126.33 7.12 C123.48 6.4, 121.14 2.05, 117.39 -0.24 M126.99 7.56 C123.72 4.33, 120 1.78, 116.49 -0.88 M127.46 2.62 C125.52 1.18, 124.44 0.37, 122.69 -1.01 M127.73 3.06 C125.93 1.14, 124.49 -0.06, 122.88 -1.38" stroke="#40c057" stroke-width="0.5" fill="none"></path><path d="M1.08 -1.39 C40.42 -2.27, 82.12 -0.38, 127.05 1.96 M-0.91 0.76 C36.81 0.55, 74.65 -0.34, 126.61 -0.2 M124.9 -1.48 C128.64 27.93, 126.27 55.71, 126.81 83.8 M127.5 -0.91 C127.25 17.99, 127.79 37.83, 126.21 82.23 M127.63 82.1 C86.68 84.54, 46.38 82.21, -1.31 82.96 M126.17 82.58 C81.16 82.59, 36.27 83.04, -0.83 83.06 M1.62 82.99 C0.4 57.23, 0.71 36.96, 0.39 -1.8 M0.8 83.28 C-0.34 56.45, 1.3 29.6, -0.11 0.89" stroke="#000000" stroke-width="1" fill="none"></path></g><g transform="translate(215.73287006967485 331.58359511593153) rotate(0 39.5 11)"><text x="39.5" y="15" font-family="Virgil, Segoe UI Emoji" font-size="18.11453054675986px" fill="#000000" text-anchor="middle" style="white-space: pre;" direction="ltr">server 2</text></g><g stroke-linecap="round" transform="translate(333.7173775508477 300.70299842664417) rotate(0 63.355334429084905 41.39515062849296)"><path d="M0 0 C0 0, 0 0, 0 0 M0 0 C0 0, 0 0, 0 0 M0.21 6.3 C0.91 4.38, 2.38 2.67, 5.7 0.24 M-0.32 6.33 C1.29 4.79, 2.76 2.98, 5.01 0.45 M1.22 11.44 C3.82 8.69, 6.11 5.66, 10.1 -1.58 M-0.32 11.29 C2.73 9.13, 5.66 5.82, 10.19 -0.26 M-0.86 18.8 C6.45 13.68, 11.53 7.13, 14.98 1.98 M-0.55 17.74 C2.82 14.88, 7.03 8.95, 15.09 0.18 M-0.1 25.66 C3.76 19.33, 9.24 13.76, 19.37 1.84 M-0.57 25 C4.15 18.59, 8.2 13.43, 21.25 -0.28 M1.48 30.06 C5.29 21.69, 13.17 13.8, 25.36 -0.23 M0.68 30.93 C9.39 20.96, 17.86 10.43, 26.21 -0.39 M-1.19 37.18 C9.86 23.01, 22.74 10.57, 30.09 -0.83 M-0.53 35.95 C7.1 28.46, 13.75 20, 32.88 -0.72 M-0.88 44.39 C7.95 32.66, 17.43 23.16, 37.34 1.64 M0.65 41.63 C10.38 30.75, 21.19 17.28, 37.63 0.82 M0.95 50.56 C15.22 30.86, 33.73 13.87, 43.8 0 M-0.77 49.43 C15.8 30.1, 30.46 12.48, 43.08 -0.55 M-0.28 53.74 C13.78 38.44, 26.56 27.54, 46.83 -0.71 M0.45 53.93 C10.93 42.45, 22.79 28.79, 48.33 0.03 M-0.44 60.25 C16.16 39.96, 33.3 22.54, 54.67 1.78 M0.03 61.38 C13.27 46.84, 26.49 31.37, 53.71 -0.44 M-1.21 66.34 C14.15 48.25, 29.06 31.88, 58.24 -0.05 M0.28 66.9 C19.07 44.71, 40.59 20.31, 59.04 -0.31 M1.06 71.48 C18.04 53.78, 34.93 31.11, 65.35 1.49 M-0.39 73.26 C21.34 47.03, 44.33 21.06, 64.37 -0.81 M-1.7 79.64 C13.59 64.02, 27.6 44.04, 68.49 -1.68 M0.07 79.63 C27.44 48.01, 53.51 17.56, 68.24 0.5 M1.68 83.45 C16.76 67.53, 31.41 50.8, 75.02 -0.43 M0.76 83.28 C28.96 51.58, 55.41 22.41, 74.42 0.18 M5.32 85.29 C31.24 58.4, 52.72 27.41, 78.99 0.6 M6.07 84.15 C34.56 51.78, 63.09 19.54, 80.17 -0.57 M12.05 84.05 C37.68 54.92, 62.14 26.39, 83.34 -0.01 M11.92 85.08 C28.31 66.61, 44.16 48.86, 84.96 0.6 M18.9 84.29 C46.08 52.19, 74.77 17.68, 91.66 0.52 M17.77 84.56 C43.3 53.67, 67.61 24.05, 90.79 -0.32 M20.21 86.06 C50.19 51.45, 76.72 20.52, 94.46 -1.79 M22.21 83.94 C38.94 64.33, 58.86 41.64, 94.85 -1.21 M29.25 82.62 C54.67 53.36, 78.13 27.48, 100.91 -0.71 M27.07 84.72 C52.97 53.73, 80.78 23.88, 99.84 0.71 M33.92 85.45 C56.53 55.51, 82.91 25.69, 105.06 1.19 M33.69 85.06 C50.52 65.11, 67.22 45.57, 106.69 -0.67 M39.05 85.24 C57.75 59.39, 79.25 37.22, 109.65 1.61 M37.6 84.22 C59.84 59.1, 82.98 33.31, 110.81 0.22 M42.1 84.92 C61.76 63.28, 77.12 42.61, 115.65 0.16 M42.85 85.15 C68.74 53.24, 95.68 22.09, 116.18 -0.19 M47.45 84.62 C73.22 53.14, 97.91 26.8, 121.3 -0.31 M48.7 82.89 C67.79 62.49, 86.62 41.38, 122.92 0.18 M54.15 82.69 C73.16 64.78, 91.33 42.51, 125.19 -0.45 M53.92 83.16 C73.13 62.8, 93.08 40.07, 126.75 -0.2 M58.13 84.71 C84.48 54.72, 113.02 22.52, 126.53 7.29 M59.48 82.81 C85.59 54.57, 110.77 23.26, 127.9 6.82 M63.99 84.47 C85.14 59.5, 107.99 33.86, 128.7 13.66 M64.88 84.31 C87.77 56.45, 112.49 30.91, 127.08 11.46 M71.24 84.98 C85.06 66.49, 95.8 50.43, 125.08 20.37 M70.8 84.3 C82.36 69.36, 95.32 54.72, 125.83 19.36 M74.04 83.47 C88.07 70.18, 102.4 52.52, 127.34 23.37 M75.45 84.05 C94.08 61.31, 113.97 40.11, 127.29 24.3 M79.45 84.38 C96.99 65.94, 114.2 45.97, 128.45 30.09 M81.26 83.96 C98.46 64.61, 114.75 43.74, 127.75 30.96 M87.21 84.39 C98.27 71.58, 108.26 57.11, 128.28 37.15 M85.13 84.09 C100.57 67.35, 114.24 50.25, 126.73 36.15 M91.93 85.38 C102.52 69.29, 114.88 56.34, 125.38 43.42 M91.21 82.62 C101 74.53, 107.99 63.35, 127.24 43.34 M94.91 83.46 C105.3 71.51, 118.08 61.62, 126.52 47.71 M97.13 84.38 C103.48 75.21, 110.2 67.65, 125.85 49.85 M102.33 81.94 C108.63 74.73, 116.65 66.53, 125.78 54.07 M102.76 83.35 C108.96 75.86, 114.52 68.79, 126.27 55.69 M109.05 84.38 C111.1 79.87, 117.84 72.35, 127.54 61.01 M106.45 83.14 C113.13 76.24, 121.16 69.08, 126.82 62.22 M112.83 83.52 C118.69 77.39, 120.21 74.54, 128.08 67.25 M113.77 83.49 C116.38 79.28, 120.36 75.78, 126.58 67.47 M118 82.82 C121.51 81.13, 122.75 76.69, 127.26 72.93 M117.82 84.54 C120.35 80.64, 122.77 77.77, 127.42 72.82 M122.42 84.14 C123.6 83.06, 124.75 81.71, 126.71 79.95 M122.95 84 C124.34 82.94, 125.63 80.82, 126.85 79.56 M-0.24 82.58 C-0.24 82.58, -0.24 82.58, -0.24 82.58 M-0.24 82.58 C-0.24 82.58, -0.24 82.58, -0.24 82.58 M5.8 83.49 C3.45 81.24, 1.96 78.56, -0.3 77.81 M6.24 82.49 C5.1 81.47, 2.93 80.14, -0.23 77.35 M14 83.12 C8.26 77.87, 5.3 74.22, 0.72 71.54 M11.87 83.24 C8.99 80.58, 6.64 77.88, 0.04 71.55 M19.44 80.75 C13.37 77.96, 10.15 73.9, -1.64 66.5 M17.79 82.71 C14.22 78.38, 8.04 75.18, 1.08 67.65 M24.74 82.45 C18.93 76.92, 10.94 72.02, -2.12 60.66 M24.52 82.84 C16.77 76.08, 9.96 70.22, -0.79 61.2 M31.35 82.92 C24.08 77.1, 14.31 69.72, -1.8 57.24 M29.59 82.71 C18.49 72.3, 8.67 63.43, 0.63 56.07 M36.75 82.69 C24.06 72.57, 9.5 57.64, 1.31 51.14 M35.76 83.66 C24.92 72.59, 13.48 62.3, 0.05 49.75 M42.43 82.57 C25.44 67.48, 10.58 54.11, -0.49 45.07 M43.14 83.19 C28.28 69.6, 12.51 57.58, 0.35 44.96 M49.19 84.55 C37.51 72.97, 26.55 63.04, -1.65 39.37 M48.94 83.44 C28.86 67.19, 10.47 50.03, -0.04 40.97 M56.34 84.85 C41.11 70.4, 27 56.98, -0.31 36.2 M55.27 83.66 C44.17 73.41, 31.67 62.37, 0.48 35.28 M61.47 84.24 C45.97 70.71, 32.45 57.5, 1.41 29.98 M61.29 82.12 C47.9 71.1, 34.45 59.53, 0.81 29.59 M67.48 84.37 C49.96 68.28, 33.65 52.46, 0.66 24.34 M66.84 81.86 C41.97 61.34, 17.64 39.1, -1 24.23 M74.27 82.12 C47.91 62.29, 22.92 40.91, 1.15 21.1 M72.56 82.59 C46.14 59.99, 20.16 36.08, -0.06 18.64 M78.03 82.6 C55.21 64.12, 32.79 45.06, 0.84 14.69 M79.71 83.13 C55.42 59.87, 30.42 39.15, -0.36 13.28 M86.49 84.09 C58.42 57.11, 28.31 34.82, -1 8.36 M85.95 81.97 C52.53 54.25, 18.97 23.85, 0.71 9.36 M90.64 84.49 C64.41 60.39, 35.79 34.91, -0.86 3.97 M91.49 83.05 C65.41 59.27, 38.04 34.94, -0.13 4.12 M95.79 81.53 C74.59 62.82, 55.26 46.56, 0.86 -1.12 M96.71 83.63 C70.53 57.89, 41.68 32.34, 0.23 -0.78 M105.25 83.18 C65.43 51.23, 30.62 19.63, 6.52 -1.04 M104.29 82.11 C80.66 60.86, 57.11 41.23, 6.49 -0.73 M111.6 84.64 C72.52 49.84, 32.54 18.14, 14.97 -0.21 M109.06 82.53 C80.84 58.63, 51.02 34.18, 13.17 -1.5 M115.99 81.29 C94.18 65.29, 71.33 44.39, 19.88 0.73 M115.7 83.06 C87.49 59.36, 59.07 34.36, 19.44 -1.67 M119.82 83.13 C97.66 65.78, 78.38 44.92, 24.17 -1.27 M120.99 81.88 C98.48 61.99, 75.11 41.43, 26.07 -1.31 M127.04 82.3 C102 61.48, 79.3 38.5, 31.09 0.57 M126.58 82.26 C89.98 48.02, 53.37 17.36, 30.94 -0.2 M128.08 76.3 C104.24 59.8, 83.88 37.91, 35.89 -2.7 M127.43 77.23 C107.51 60.36, 89.43 43.27, 37.28 0.03 M128.5 71.98 C101.42 47.63, 74.32 24.85, 45.09 -2.83 M126.96 71.09 C100.68 47.65, 73.37 25.44, 43.45 -1.6 M129.56 66.85 C98.83 42, 72.18 21.02, 51.77 -1.35 M128.14 66.25 C104.38 47.49, 82.44 29.35, 50.66 -0.96 M128.84 62.64 C102.45 38.21, 75.4 13.64, 55.27 -3.23 M126.53 60.23 C106.24 42.66, 84.14 25.33, 55.22 -0.92 M127.44 54.26 C109.65 39.6, 93.73 27.12, 60.23 -0.59 M128.1 56.18 C101.75 32.76, 75.84 9.76, 62.07 -1.55 M125.74 52.23 C114.86 39.4, 101.39 24.77, 68.31 -2.29 M127.39 50.76 C107.64 33.26, 87.14 14.51, 68.98 -0.29 M126.4 46.89 C106.7 28.09, 88.52 8.46, 73.44 -0.97 M127.07 45.89 C111.93 32.66, 97.17 19.08, 74.35 -1.4 M125.35 38.21 C115.44 29.7, 107.31 20.66, 81.11 -0.1 M127.39 40.01 C112.61 26.14, 95.73 12.86, 80.94 -1.57 M126.84 35.96 C112.57 19.72, 93.77 7.32, 84.06 0.47 M127.76 33.83 C114.21 22.62, 100.95 11.73, 86.11 -1.93 M126.35 29.54 C118.35 20.13, 106.02 12.53, 93.35 0.72 M128.14 29.56 C115.18 18.15, 103.55 8.22, 93.35 -0.39 M125.68 24.18 C118.18 17.95, 110.65 8.48, 98.02 -1.14 M126.66 24.7 C119.98 17.47, 110.79 10.02, 98.47 -1.66 M127.89 18.7 C121.09 14, 114.31 4.84, 104.43 0.35 M127 19.25 C121.35 13.06, 113.96 8.16, 105.43 -0.81 M128.33 13.76 C124.78 7.88, 119.41 3.58, 111.46 -1.16 M128 13.48 C124.13 10.73, 119.34 6.34, 110.02 -0.8 M126.07 9.07 C123.81 5.41, 120.59 -0.06, 117.74 -1.46 M127.07 7.34 C124.19 4.97, 120.83 2.57, 116.27 -0.85 M127.82 2.66 C126.62 2.22, 125.01 1.17, 123.03 -1.26 M127.54 2.95 C125.69 1.19, 123.97 -0.54, 123.05 -1.23" stroke="#82c91e" stroke-width="0.5" fill="none"></path><path d="M-1.23 1.04 C34.59 1.23, 68.41 0.51, 128.57 0.68 M-0.8 -0.42 C32.13 1.82, 65.97 0.01, 126.52 -0.39 M125.97 1.99 C128.27 30.59, 125.93 59.11, 124.75 82.84 M126.56 -0.16 C126.85 17.46, 126.09 34.36, 126.94 82.66 M127.79 83.23 C85.32 82.42, 40.58 83.63, 1.63 83.46 M127.02 82.52 C96.73 83.5, 67.1 82.78, 0.09 81.88 M0.57 83.56 C1.96 57.78, -1.06 30.25, -0.51 0.9 M-0.11 83.24 C-0.62 62.94, 0.13 41.38, 0.21 0.72" stroke="#000000" stroke-width="1" fill="none"></path></g><g transform="translate(358.0727119799326 331.0981490551371) rotate(0 39 11)"><text x="39" y="15" font-family="Virgil, Segoe UI Emoji" font-size="18.11453054675986px" fill="#000000" text-anchor="middle" style="white-space: pre;" direction="ltr">server 3</text></g><g mask="url(#mask--vLSGkNPw9Zab-2zh4y16)" stroke-linecap="round"><g transform="translate(114.66626882469791 155.04835186305718) rotate(0 33.87052988529831 31.789767845642245)"><path d="M-1.15 0.73 C-2.34 4.2, -11.11 17.58, -7.11 20.71 C-3.12 23.83, 17.75 14.52, 22.8 19.47 C27.85 24.43, 14.6 43.2, 23.17 50.46 C31.74 57.72, 65.67 60.92, 74.21 63.02 M0.44 0.07 C-0.4 3.2, -8.6 15.56, -5.02 18.95 C-1.45 22.34, 17.2 14.98, 21.88 20.41 C26.57 25.84, 14.08 44.36, 23.08 51.55 C32.08 58.73, 67.17 61.75, 75.89 63.51" stroke="#000000" stroke-width="1" fill="none"></path></g><g transform="translate(114.66626882469791 155.04835186305718) rotate(0 33.87052988529831 31.789767845642245)"><path d="M51.23 66.84 C58.97 66.99, 64.36 64.81, 75.83 61.9 M50.21 68.94 C58.59 66.62, 65.74 66.18, 75.89 64.13" stroke="#000000" stroke-width="1" fill="none"></path></g><g transform="translate(114.66626882469791 155.04835186305718) rotate(0 33.87052988529831 31.789767845642245)"><path d="M53.87 48.97 C60.8 54.46, 65.4 57.66, 75.83 61.9 M52.85 51.07 C60.28 54.4, 66.6 59.6, 75.89 64.13" stroke="#000000" stroke-width="1" fill="none"></path></g></g><mask id="mask--vLSGkNPw9Zab-2zh4y16"><rect x="0" y="0" fill="#fff" width="295.77167491653563" height="317.8779097694587"></rect><rect x="131.2558763249176" y="165.25302198286317" fill="#000" width="13" height="20" opacity="1"></rect></mask><g transform="translate(131.2558763249176 165.25302198286317) rotate(0 17.28092238507861 21.58509772583625)"><text x="6.5" y="14" font-family="Virgil, Segoe UI Emoji" font-size="16px" fill="#000000" text-anchor="middle" style="white-space: pre;" direction="ltr">3</text></g><g stroke-linecap="round"><g transform="translate(252.0109543233766 258.2101553599309) rotate(0 68.97066210307958 20.083343587107265)"><path d="M-1.01 0.2 C12.4 1.78, 58.56 6.41, 79.84 8.9 C101.13 11.4, 116.88 9.94, 126.7 15.15 C136.52 20.36, 136.66 35.89, 138.77 40.17 M0.67 -0.74 C13.99 0.57, 58.17 4.4, 79.01 7.26 C99.84 10.13, 115.7 10.86, 125.69 16.47 C135.68 22.07, 136.88 36.79, 138.95 40.91" stroke="#000000" stroke-width="1" fill="none"></path></g><g transform="translate(252.0109543233766 258.2101553599309) rotate(0 68.97066210307958 20.083343587107265)"><path d="M130.61 29.93 C133.55 32.01, 134.61 35.22, 138.13 41.41 M130.81 29.48 C132.29 33.02, 135.4 36.83, 138.51 40.23" stroke="#000000" stroke-width="1" fill="none"></path></g><g transform="translate(252.0109543233766 258.2101553599309) rotate(0 68.97066210307958 20.083343587107265)"><path d="M139.84 27.05 C140.45 29.77, 139.21 33.7, 138.13 41.41 M140.04 26.59 C138.82 31.02, 139.22 35.67, 138.51 40.23" stroke="#000000" stroke-width="1" fill="none"></path></g></g><mask></mask><g stroke-linecap="round"><g transform="translate(254.48655579945762 258.5197936927334) rotate(0 -74.74252665985978 20.10360275294579)"><path d="M-0.95 0.64 C-19.37 1.39, -86 1.33, -110.14 4 C-134.29 6.66, -139.28 10.79, -145.81 16.61 C-152.34 22.43, -148.67 35.26, -149.32 38.93 M0.75 -0.07 C-17.32 0.91, -83.37 2.4, -107.83 5.39 C-132.29 8.38, -139.06 12.04, -146.01 17.86 C-152.96 23.68, -149.15 36.75, -149.5 40.28" stroke="#000000" stroke-width="1" fill="none"></path></g><g transform="translate(254.48655579945762 258.5197936927334) rotate(0 -74.74252665985978 20.10360275294579)"><path d="M-153.41 29.66 C-152.8 34.66, -151.18 36.22, -149.08 39.19 M-154.41 30.6 C-152.23 33.47, -151.35 36.45, -149.66 40.8" stroke="#000000" stroke-width="1" fill="none"></path></g><g transform="translate(254.48655579945762 258.5197936927334) rotate(0 -74.74252665985978 20.10360275294579)"><path d="M-145.99 29.1 C-147.84 34.22, -148.68 35.97, -149.08 39.19 M-146.98 30.03 C-147.12 33.07, -148.55 36.23, -149.66 40.8" stroke="#000000" stroke-width="1" fill="none"></path></g></g><mask></mask><g stroke-linecap="round"><g transform="translate(252.25737482989825 258.95987254889496) rotate(0 -10.208127956143699 21.039697340917883)"><path d="M0.02 0.94 C-3.48 4.67, -18.57 15.52, -19.98 22.31 C-21.4 29.1, -10.54 38.7, -8.47 41.69 M-1.43 0.39 C-5.07 3.78, -19.02 13.97, -20.32 20.53 C-21.62 27.09, -11.49 36.35, -9.25 39.75" stroke="#000000" stroke-width="1" fill="none"></path></g><g transform="translate(252.25737482989825 258.95987254889496) rotate(0 -10.208127956143699 21.039697340917883)"><path d="M-18.26 35 C-14.76 36.1, -10.84 39.22, -9.91 39.56 M-18.71 33.96 C-15.79 35.58, -11.98 38.62, -9.26 39.27" stroke="#000000" stroke-width="1" fill="none"></path></g><g transform="translate(252.25737482989825 258.95987254889496) rotate(0 -10.208127956143699 21.039697340917883)"><path d="M-12.17 29.99 C-11 33.01, -9.41 38.04, -9.91 39.56 M-12.62 28.96 C-11.83 32.3, -10.17 37.11, -9.26 39.27" stroke="#000000" stroke-width="1" fill="none"></path></g></g><mask></mask><g stroke-linecap="round"><g transform="translate(106.89787611623979 387.70246343923964) rotate(0 48.29819265199944 34.095974945389116)"><path d="M-1.02 1.14 C-0.83 8.03, -16.49 30.49, 1 41.48 C18.48 52.46, 86.5 62.75, 103.88 67.05" stroke="#000000" stroke-width="1.5" fill="none" stroke-dasharray="1.5 7"></path></g></g><mask></mask><g stroke-linecap="round"><g transform="translate(242.8316941014159 385.06073102798064) rotate(0 0.8568156818396346 16.093962665586105)"><path d="M0.08 0.29 C0.27 5.56, 1.57 26.81, 1.63 31.9" stroke="#000000" stroke-width="1.5" fill="none" stroke-dasharray="1.5 7"></path></g></g><mask></mask><g stroke-linecap="round"><g transform="translate(383.7610202846822 386.26918915352553) rotate(0 -54.75412130294853 36.873535133471705)"><path d="M0.15 0.87 C-3.37 10.93, -3.12 48.99, -21.42 60.99 C-39.73 72.99, -95.2 70.78, -109.66 72.88" stroke="#000000" stroke-width="1.5" fill="none" stroke-dasharray="1.5 7"></path></g></g><mask></mask><g stroke-linecap="round" transform="translate(223.75266244855356 415.27357884106686) rotate(0 9.525400829590808 6.915867620325798)"><path d="M0 0 C0 0, 0 0, 0 0 M0 0 C0 0, 0 0, 0 0 M0.36 6.45 C0.69 4.13, 2.45 3.26, 4.24 0.44 M-0.59 6.01 C1.7 4.31, 3.52 2.48, 4.8 0.72 M0.36 12.37 C4.19 8.8, 5.01 4.06, 10.94 -1.51 M0.68 12.37 C3.93 6.87, 7.68 3.28, 11.18 0.16 M3.64 15.02 C6.28 13.44, 7.84 6.65, 15.56 0.12 M1.77 15.3 C7.08 11.04, 9.2 7.7, 15.91 0.8 M7.19 16.93 C11.99 11.6, 15.28 7.75, 19.3 2.53 M7.78 15.47 C9.26 13.31, 12.57 10.03, 19.47 1.75 M12.95 15.4 C15.9 13.21, 17.82 8.83, 20.47 6.28 M13.3 14.92 C14.7 12.98, 16.06 12, 19.81 6.6 M-0.06 13.78 C-0.06 13.78, -0.06 13.78, -0.06 13.78 M-0.06 13.78 C-0.06 13.78, -0.06 13.78, -0.06 13.78 M5.6 13.58 C4.72 12.13, 2.61 12.01, 0.18 8.03 M6.29 13.68 C4.26 12.51, 2.34 10.87, 0.08 9.16 M12.16 15.08 C9.36 11.97, 5.27 7.67, 0.55 2.58 M12.5 13.08 C8.85 10.69, 6.1 7.99, 0.36 2.47 M19.35 15.83 C13.31 9.95, 7.07 4.95, -0.43 -0.59 M18.16 13.57 C14.71 11.25, 10.52 6.59, 0.52 -1.44 M19.44 12.16 C15.76 8.48, 12.4 4.83, 7.22 -2.05 M21.9 10.53 C14.77 6.52, 10.74 0.73, 8.08 -1.28 M21.45 5.75 C19.46 3.32, 16.77 1.19, 13.34 -0.91 M21.44 6.24 C18.38 3.26, 15.12 0.55, 12.72 -1.76" stroke="#7950f2" stroke-width="0.5" fill="none"></path><path d="M1.37 -0.46 C5.91 1.32, 15.31 1.06, 20.77 1.88 M-0.79 -0.25 C4.8 0.13, 8.46 0.82, 19.92 -0.2 M19.69 0.65 C18.58 4.43, 18.17 8.09, 19.44 12.62 M19.56 0.3 C18.44 3.5, 18.82 7.72, 19.25 13.3 M18.21 15.71 C12.58 14.54, 2.8 11.93, -0.63 13.1 M19.24 13.99 C14.99 13.23, 10.58 13.58, -0.38 14.39 M-0.36 14.33 C-0.69 9.68, -0.71 4.13, 1.09 -0.99 M0.48 13.92 C-0.62 9.41, -0.25 5.36, -0.52 0.01" stroke="#000000" stroke-width="1" fill="none"></path></g><g stroke-linecap="round" transform="translate(209.80272836133145 444.58784245867764) rotate(0 9.525400829590808 6.915867620325798)"><path d="M0 0 C0 0, 0 0, 0 0 M0 0 C0 0, 0 0, 0 0 M-0.21 5.74 C0.36 4.65, 2.36 3.09, 5.06 0.69 M-0.65 6.55 C1.13 5, 2.77 3, 5.34 0.37 M0.46 12.84 C3.01 7.64, 4.38 6.66, 9.15 1.24 M0.46 11.74 C1.68 8.97, 4.81 7.59, 10.82 -0.47 M2.09 15.95 C7.9 9.99, 8.48 6.86, 15.41 -0.34 M2.37 16.39 C5.04 11.76, 8.62 9.12, 16.09 -0.01 M8.63 16.87 C10.08 13.48, 12.99 8.39, 21.04 -0.28 M7.17 15.04 C12.59 10.44, 16.88 4.74, 20.25 2.1 M13.14 15.54 C16.62 11.82, 17.91 9.55, 19.54 6.29 M12.66 15.27 C14.4 12.91, 17.1 10.74, 19.86 6.94 M-0.06 13.78 C-0.06 13.78, -0.06 13.78, -0.06 13.78 M-0.06 13.78 C-0.06 13.78, -0.06 13.78, -0.06 13.78 M5.87 13.98 C4.3 12.16, 4.13 11.39, -0.46 8.99 M5.98 13.96 C4.37 12.06, 2.23 9.99, 0.67 8.53 M13.42 13.79 C9.88 9.87, 4.97 8.98, -0.67 2.26 M11.42 13.45 C8.02 10.7, 4.4 8.1, -0.78 3.52 M20.31 14.79 C14.92 10.59, 10.48 4.43, 1.61 -2.64 M18.04 14.06 C15.41 10.43, 10.33 6.68, 0.77 -1.41 M22.27 9.51 C16.67 5.17, 10.97 1.31, 6.29 0.81 M20.64 10.08 C16.69 7.54, 10.94 3.64, 7.06 -1.23 M21.21 6.27 C17.45 2.94, 13.97 0.51, 13.47 -0.37 M21.7 6.11 C19.2 3.98, 16.88 1.41, 12.62 -0.96" stroke="#40c057" stroke-width="0.5" fill="none"></path><path d="M-0.46 -0.98 C5.54 1.38, 9.34 1.58, 20.93 -1.15 M-0.25 0.24 C5.52 -0.51, 11.65 1.02, 18.85 -0.41 M19.7 -0.38 C19.81 2.41, 19.9 6.77, 17.84 13.57 M19.36 -0.51 C18.79 2.96, 19.12 6.36, 18.52 14.49 M20.93 14.9 C12.92 12.57, 3.46 13.12, -0.73 12.74 M19.21 14.39 C12.17 14.66, 6.16 13.48, 0.55 14.29 M0.5 13.19 C0.74 8.5, -0.01 5.58, -0.99 0.4 M0.09 13.34 C0.21 8.27, 0.71 2.45, 0.01 -0.01" stroke="#000000" stroke-width="1" fill="none"></path></g><g stroke-linecap="round" transform="translate(257.278055029858 415.61137643440907) rotate(0 9.525400829590808 6.915867620325798)"><path d="M0 0 C0 0, 0 0, 0 0 M0 0 C0 0, 0 0, 0 0 M-0.91 5.88 C0.5 5.35, 1.44 3.59, 5.32 0.11 M-0.11 6.33 C1.13 5.27, 1.91 4.15, 5 0.1 M0.94 12.49 C2.07 7.35, 7.42 2.49, 11.91 -1.57 M-0.17 11.51 C3.21 8.21, 7.99 3.68, 10.2 -0.2 M3.03 17.13 C4.96 9.83, 9.74 6.75, 14.95 -1.24 M3.47 15.15 C6.96 10.35, 12.44 4.93, 15.28 -0.32 M8.58 15.32 C11.25 12.12, 12.22 10.62, 18.23 2.71 M6.74 16.31 C11.08 11.84, 14.32 7.65, 20.61 2.01 M13.28 16.27 C14.58 12.62, 17.34 9.89, 19.55 6.5 M13.01 14.84 C14.5 13.74, 16.17 10.82, 20.2 6.63 M-0.06 13.78 C-0.06 13.78, -0.06 13.78, -0.06 13.78 M-0.06 13.78 C-0.06 13.78, -0.06 13.78, -0.06 13.78 M6.27 13.47 C3.55 12.72, 1.75 9.31, 0.5 9.31 M6.25 14.25 C4.85 13, 3.25 11.85, 0.04 8.61 M12.12 14.52 C8.26 10.54, 7.46 8.7, -0.98 2.98 M11.79 13.21 C7.91 9.51, 4.34 5.9, 0.28 2.9 M19.27 15.14 C13.5 10.78, 5.92 5.16, -0.43 -2.74 M18.54 14.74 C13.7 9.43, 8.67 5.56, 0.79 -0.26 M19.63 11.82 C16.79 8.63, 14.22 4.04, 9.15 -0.19 M20.2 11.2 C17.39 6.51, 13.47 3.45, 7.11 -0.08 M21.73 5.24 C18.83 2.93, 16.85 2.13, 14 -1.44 M21.57 6.09 C19.49 4.46, 16.98 2, 13.41 -1.56" stroke="#fa5252" stroke-width="0.5" fill="none"></path><path d="M-0.98 1.48 C8.81 1.26, 16.3 1.93, 17.9 -0.27 M0.24 0.08 C4.54 0.82, 11.3 -0.15, 18.64 -0.66 M18.67 0.87 C18.33 3.97, 19.5 4.79, 18.79 12.76 M18.55 -0.39 C19.03 5.4, 19.35 10.37, 19.71 14.24 M20.12 14.54 C12.16 12.12, 6.99 13.29, -1.09 14.48 M19.61 13.32 C15.04 13.7, 9.06 14.42, 0.46 14.19 M-0.64 14.49 C-0.62 10.37, 1.12 6.07, 0.4 1.28 M-0.49 13.95 C-0.22 11.21, -0.61 7.37, -0.01 0.12" stroke="#000000" stroke-width="1" fill="none"></path></g><g stroke-linecap="round" transform="translate(238.91924019933595 442.1486762986365) rotate(0 9.525400829590808 6.915867620325798)"><path d="M0 0 C0 0, 0 0, 0 0 M0 0 C0 0, 0 0, 0 0 M-0.78 5.95 C2.11 3.41, 3.78 2.2, 4.74 -0.28 M-0.33 6.58 C1.1 4.87, 2.45 3.75, 4.73 0.49 M0.58 10.49 C2.76 8.51, 5.22 5.68, 9.09 0.8 M-0.39 11.5 C4.42 8.17, 8.01 2.74, 10.46 -0.18 M4.21 14.28 C5.84 9.94, 11.69 3.94, 14.05 1.6 M2.23 15.01 C5.91 12.15, 8.96 8.08, 14.98 -0.52 M7.02 16.84 C10.45 10.98, 15.58 5.84, 21.21 1.35 M8.01 15.74 C11.92 10.64, 16.11 7.02, 20.52 1.27 M14.01 14.79 C14.75 13.14, 16.42 9.87, 19.76 6.53 M12.58 14.99 C15.95 12.12, 17.49 9.76, 19.89 7.05 M-0.06 13.78 C-0.06 13.78, -0.06 13.78, -0.06 13.78 M-0.06 13.78 C-0.06 13.78, -0.06 13.78, -0.06 13.78 M5.76 13.46 C5.8 12.83, 3.11 12.06, 0.82 8.3 M6.54 13.99 C4.92 12.31, 3.29 10.75, 0.12 8.45 M12.85 12.52 C7.16 11.04, 3.81 6.25, -0.26 3.67 M11.55 13.66 C7.1 10.25, 2.59 6.35, -0.34 3.27 M19.61 14.57 C13.64 7.28, 6.73 2.01, -0.54 -1.85 M19.21 13.82 C13.2 9.24, 8.53 5.32, 1.94 -1.72 M21.93 9.92 C18.58 8.07, 14.01 7.49, 8.15 -0.96 M21.32 11.43 C14.82 6.71, 9.84 1.02, 8.26 -1.02 M20.71 5.77 C17.95 3.99, 16.68 2.44, 12.94 -1.94 M21.55 6.05 C18.99 3.34, 15.69 1.77, 12.82 -1.38" stroke="#fab005" stroke-width="0.5" fill="none"></path><path d="M1.48 1.52 C8.31 1.82, 16.06 -1.05, 18.78 -0.5 M0.08 -0.67 C4.9 0.82, 8.08 -0.45, 18.39 -0.79 M19.92 -0.78 C20.08 5.17, 17.9 9.32, 17.98 15.13 M18.66 -0.12 C19.05 5.37, 18.58 11.01, 19.46 13.83 M19.76 12.66 C12.27 13.31, 8.57 12.85, 0.65 12.92 M18.54 14.62 C12.8 13.56, 7.43 14.4, 0.36 13.3 M0.66 13.17 C-0.14 11.13, -1.04 6.66, 1.28 -0.91 M0.12 13.71 C0.6 8.2, -0.01 3.59, 0.12 -0.51" stroke="#000000" stroke-width="1" fill="none"></path></g><g stroke-linecap="round" transform="translate(239.59870518082698 469.36391579943574) rotate(0 9.525400829590808 6.915867620325798)"><path d="M0 0 C0 0, 0 0, 0 0 M0 0 C0 0, 0 0, 0 0 M-0.71 6.79 C0.65 4.66, 3.34 2.48, 4.35 -0.29 M-0.08 6.55 C0.59 5.54, 1.85 3.7, 5.12 0.42 M-1.41 11.39 C3.75 6.66, 8.08 2.73, 11.47 1.06 M-0.41 12.5 C4.3 8.19, 6.9 3.72, 10.48 0.42 M1.36 14.05 C6.07 10.88, 9.13 5.29, 16.89 -1.12 M2.08 15.83 C6.42 11.59, 9.56 6.13, 14.77 0.17 M8.55 15.29 C11.24 11.73, 14.67 6.74, 19.86 2.04 M7.44 16.03 C10.45 12.18, 14.92 8.61, 19.78 1.29 M12.53 14.96 C15.42 12.02, 16.67 9.74, 19.79 7.43 M12.73 15.75 C14.17 13.18, 16.11 11.43, 20.31 7.11 M-0.06 13.78 C-0.06 13.78, -0.06 13.78, -0.06 13.78 M-0.06 13.78 C-0.06 13.78, -0.06 13.78, -0.06 13.78 M5.75 14.72 C4.77 11.97, 3.62 11.99, -0.19 8.69 M6.28 14.31 C4.87 13.35, 3.57 11.7, -0.04 8.84 M10.85 12.67 C7.91 9.05, 1.68 5.36, 0.43 4.18 M11.99 13.09 C9.69 10.5, 6.85 8.53, 0.03 3.54 M19.04 15.36 C9.99 8.63, 3.1 0.5, 0.35 -1.62 M18.29 13.5 C13.24 9.78, 8.89 6.95, 0.49 -2.05 M20.03 11.44 C15.86 5.45, 12.76 2.94, 7.37 0.87 M21.54 10.08 C18.24 7.51, 13.74 5.65, 7.32 -0.85 M21.23 5.03 C19.25 4.19, 17.53 1.6, 12.44 -1.17 M21.52 6.16 C18.01 2.89, 15.71 0.49, 12.99 -1.33" stroke="#fd7e14" stroke-width="0.5" fill="none"></path><path d="M1.52 1.22 C6.97 1.73, 9.35 -0.42, 18.55 -1.58 M-0.67 0.77 C6.09 -0.21, 10.04 -0.67, 18.26 0.44 M18.27 0.97 C19.4 3.58, 18.75 8.53, 20.35 14.85 M18.93 -0.06 C19.15 4.23, 19.61 9.93, 19.05 13.53 M17.88 11.93 C10.83 13.17, 2.77 14.55, -0.91 14.2 M19.84 13.67 C12.63 14.28, 7.43 14.09, -0.53 13.58 M-0.66 13.75 C1.15 8.19, 0.46 5.82, -0.91 0.97 M-0.13 14.45 C-0.42 9.52, 0.08 5.3, -0.51 -0.46" stroke="#000000" stroke-width="1" fill="none"></path></g><g stroke-linecap="round" transform="translate(268.5157657768327 443.21275394630175) rotate(0 9.525400829590808 6.915867620325798)"><path d="M0 0 C0 0, 0 0, 0 0 M0 0 C0 0, 0 0, 0 0 M0.13 5.65 C1 5.44, 1.82 3.15, 4.33 -0.42 M-0.11 6.21 C1.88 4.34, 3.03 2.43, 5.04 0.44 M-0.51 12.35 C2.3 9.19, 5.91 4.52, 11.73 0.62 M0.6 12.59 C3.15 8.51, 5.55 5.64, 11.09 -0.2 M1.12 15.37 C6.44 9.9, 9.37 6.91, 14.17 0.08 M2.9 15.72 C8.22 9.14, 12.32 2.64, 15.46 0.93 M6.99 15.13 C13.07 8.86, 17.7 5.37, 20.55 0.82 M7.74 15.3 C10.48 13.26, 13.51 9.25, 19.8 1.45 M12.7 15.51 C14.52 12.03, 17.01 9.65, 20.68 6.15 M13.49 14.86 C14.73 12.98, 16.78 10.77, 20.37 6.84 M-0.06 13.78 C-0.06 13.78, -0.06 13.78, -0.06 13.78 M-0.06 13.78 C-0.06 13.78, -0.06 13.78, -0.06 13.78 M7.02 13.92 C3.85 12.66, 3.38 10.45, 0.2 8.07 M6.6 13.83 C5.01 12.31, 2.78 10.77, 0.35 9.15 M11 14.29 C7.62 9.44, 4.3 7.6, 0.93 2.01 M11.42 14.1 C8.03 11.13, 5.14 7.99, 0.3 3.92 M19.83 12.46 C12.91 7.32, 4.78 2.91, 0.58 -1.86 M17.98 13.41 C12.53 8.91, 8.23 3.84, 0.15 -0.47 M21.55 10.69 C16.78 9.9, 15.61 5.5, 9.21 -1.64 M20.19 11.55 C17.74 8.17, 16.09 5.9, 7.49 -1.04 M20.49 6.18 C19.05 4.43, 15.75 0.47, 13.2 -0.65 M21.62 5.56 C18.1 3.85, 15.5 0.99, 13.05 -1.69" stroke="#82c91e" stroke-width="0.5" fill="none"></path><path d="M1.22 1.72 C6.61 -1.3, 9.19 -0.65, 17.47 -0.49 M0.77 0.86 C5.99 -0.27, 11.72 -0.66, 19.49 0.45 M20.02 0.39 C17.92 3.51, 18.07 8.84, 20.07 14.44 M18.99 0.2 C18.44 3.8, 19.38 6.28, 18.75 14.51 M17.15 13.2 C11.53 12.63, 6.13 12.8, 0.37 14.16 M18.89 13.45 C12.76 14.44, 5.73 13.46, -0.25 14.17 M-0.09 14.92 C-1.06 10.72, 1.22 5.9, 0.97 0.17 M0.61 13.32 C-0.01 10.64, 0.09 6.98, -0.46 0.54" stroke="#000000" stroke-width="1" fill="none"></path></g><g stroke-linecap="round" transform="translate(204.94347431227516 407.9096044996604) rotate(0 43.45051936314553 41.63480638004398)"><path d="M1.81 1.97 C31.61 -0.84, 65.12 -2.21, 86.38 0.5 M0.91 -0.21 C26.39 -1.39, 52.8 -0.24, 87.37 -0.27 M87.46 -1.76 C86.05 28.68, 88.31 61.92, 87.78 81.81 M87.19 -0.77 C87.71 20.87, 86.75 40.12, 87.89 83.83 M86.24 82.5 C56.46 83.08, 27.34 82.79, 0.34 84.45 M86.5 83.85 C66.01 83.5, 43.61 82.86, 0.36 82.81 M1.57 81.83 C0.97 56.18, -0.92 26.77, 0.25 -1.41 M-0.75 83.28 C0.13 57, -0.58 29.71, 0.78 -0.68" stroke="#000000" stroke-width="1" fill="none"></path></g><g stroke-linecap="round"><g transform="translate(218.76980938515862 442.4886123435099) rotate(0 29.65296970478721 -6.74669572502853)"><path d="M-1.05 -0.25 C3.69 -6.25, 7.96 -9.07, 11.86 -14.13 M10.86 -14.28 C16.75 -7.09, 25.93 -3.71, 30.27 -1.28 M28.64 -1.7 C38.03 -3.02, 44.19 -10.48, 47.26 -12.72 M50.13 -11.28 C51.73 -8.91, 56.81 -2.92, 60.36 0.79" stroke="#000000" stroke-width="1.5" fill="none" stroke-dasharray="1.5 7"></path></g></g><mask></mask><g stroke-linecap="round"><g transform="translate(220.37049902018816 459.033329204864) rotate(0 8.620613514822253 8.37007435123519)"><path d="M-0.29 -0.52 C5.89 5.71, 15.43 12.51, 17.53 17.26" stroke="#000000" stroke-width="1.5" fill="none" stroke-dasharray="1.5 7"></path></g></g><mask></mask><g stroke-linecap="round"><g transform="translate(248.60512825835804 457.02742706793697) rotate(0 1.257845435573472 5.482796246168164)"><path d="M-0.29 -0.91 C0.41 4.62, 1.56 7.9, 2.81 11.88" stroke="#000000" stroke-width="1.5" fill="none" stroke-dasharray="1.5 7"></path></g></g><mask></mask><g stroke-linecap="round"><g transform="translate(276.8782654561069 458.1866484901966) rotate(0 -8.135630863159804 7.569295697688403)"><path d="M-1.66 -0.52 C-3.46 3.98, -9.31 9.27, -14.62 15.66" stroke="#000000" stroke-width="1.5" fill="none" stroke-dasharray="1.5 7"></path></g></g><mask></mask><g stroke-linecap="round"><g transform="translate(229.30654295819295 449.81682537010056) rotate(0 4.599948153808782 0.31630712683045203)"><path d="M-0.25 0.24 C2.84 -0.44, 6.29 1.29, 9.45 0.16" stroke="#000000" stroke-width="1.5" fill="none" stroke-dasharray="1.5 7"></path></g></g><mask></mask><g stroke-linecap="round"><g transform="translate(257.86143097573904 449.62255518600796) rotate(0 5.970868211764355 -0.7844621910337537)"><path d="M0.3 0.1 C2.48 0.74, 7.77 -0.76, 11.64 -1.83" stroke="#000000" stroke-width="1.5" fill="none" stroke-dasharray="1.5 7"></path></g></g><mask></mask><g mask="url(#mask-ICRgwMvzsinBQxclRnam6)" stroke-linecap="round"><g transform="translate(206.02710245407798 79.94797432073665) rotate(0 46.54690230491565 2.1769974987337264)"><path d="M-0.17 0.32 C3.62 -0.75, 11.98 -6.66, 23.76 -6.33 C35.54 -6.01, 58.65 -0.49, 70.49 2.27 C82.33 5.02, 90.51 8.68, 94.82 10.2 M-1.73 -0.56 C1.87 -1.52, 11.1 -5.43, 23.06 -5.31 C35.03 -5.19, 58.11 -2.51, 70.07 0.16 C82.03 2.83, 90.58 8.76, 94.8 10.7" stroke="#000000" stroke-width="1" fill="none"></path></g><g transform="translate(206.02710245407798 79.94797432073665) rotate(0 46.54690230491565 2.1769974987337264)"><path d="M81.69 9.35 C85.35 10.3, 92.12 9.7, 93.49 11.87 M81.11 8.29 C86.01 9.51, 89.12 9.28, 94.36 10.66" stroke="#000000" stroke-width="1" fill="none"></path></g><g transform="translate(206.02710245407798 79.94797432073665) rotate(0 46.54690230491565 2.1769974987337264)"><path d="M86.06 1.13 C88.06 5.21, 93.16 7.75, 93.49 11.87 M85.48 0.07 C89.12 3.77, 90.91 6.03, 94.36 10.66" stroke="#000000" stroke-width="1" fill="none"></path></g></g><mask id="mask-ICRgwMvzsinBQxclRnam6"><rect x="0" y="0" fill="#fff" width="401.34508053562286" height="196.6508067739544"></rect><rect x="250.70296806778288" y="67.12116130832874" fill="#000" width="6" height="20" opacity="1"></rect></mask><g transform="translate(250.70296806778288 67.12116130832874) rotate(0 1.8710366912107474 15.003810511141637)"><text x="3" y="14" font-family="Virgil, Segoe UI Emoji" font-size="16px" fill="#000000" text-anchor="middle" style="white-space: pre;" direction="ltr">1</text></g><g mask="url(#mask-Uj2zuppfSDZl0SbJMLUUS)" stroke-linecap="round"><g transform="translate(302.0781928070578 125.44042967096175) rotate(0 -47.77579834839753 -6.2063414076430945)"><path d="M-0.18 0.15 C-8.14 0.89, -34.5 6.42, -47.92 5.5 C-61.33 4.58, -72.76 -1.44, -80.67 -5.36 C-88.58 -9.28, -92.62 -16.08, -95.37 -18.02 M-1.74 -0.82 C-9.29 0.07, -32.29 4.18, -45.53 3.58 C-58.76 2.98, -72.96 -0.98, -81.16 -4.41 C-89.37 -7.83, -92.36 -15.02, -94.74 -16.97" stroke="#000000" stroke-width="1" fill="none"></path></g><g transform="translate(302.0781928070578 125.44042967096175) rotate(0 -47.77579834839753 -6.2063414076430945)"><path d="M-86.01 -12.47 C-88.33 -12.98, -91.7 -14.26, -94.84 -17.84 M-86.36 -11.46 C-89.23 -14.01, -92.19 -15.86, -94.43 -16.94" stroke="#000000" stroke-width="1" fill="none"></path></g><g transform="translate(302.0781928070578 125.44042967096175) rotate(0 -47.77579834839753 -6.2063414076430945)"><path d="M-91.25 -8.11 C-92.1 -9.86, -93.96 -12.39, -94.84 -17.84 M-91.6 -7.1 C-92.45 -11.28, -93.43 -14.78, -94.43 -16.94" stroke="#000000" stroke-width="1" fill="none"></path></g></g><mask id="mask-Uj2zuppfSDZl0SbJMLUUS"><rect x="0" y="0" fill="#fff" width="498.1632286677168" height="248.45931719294117"></rect><rect x="231.70157167663092" y="116.40504105392529" fill="#000" width="13" height="20" opacity="1"></rect></mask><g transform="translate(231.70157167663092 116.40504105392529) rotate(0 22.600822782029354 2.829047209393366)"><text x="6.5" y="14" font-family="Virgil, Segoe UI Emoji" font-size="16px" fill="#000000" text-anchor="middle" style="white-space: pre;" direction="ltr">2</text></g><g transform="translate(112.45715624362583 522.8656482839028) rotate(0 134 10)"><text x="134" y="14" font-family="Virgil, Segoe UI Emoji" font-size="16px" fill="#000000" text-anchor="middle" style="white-space: pre;" direction="ltr">fig. Multi server with a blockchain</text></g></svg>