<svg version="1.1" xmlns="http://www.w3.org/2000/svg" viewBox="0 0 437.8713557441579 517.8046776980809" width="437.8713557441579" height="517.8046776980809">
  <!-- svg-source:excalidraw -->
  
  <defs>
    <style class="style-fonts">
      @font-face {
        font-family: "Virgil";
        src: url("https://excalidraw.com/Virgil.woff2");
      }
      @font-face {
        font-family: "Cascadia";
        src: url("https://excalidraw.com/Cascadia.woff2");
      }
    </style>
  </defs>
  <g stroke-linecap="round" transform="translate(10 10) rotate(0 208.93567787207894 248.90233884904046)"><path d="M1.66 -0.49 C134.82 2.38, 270.7 2.55, 418.97 0.37 M0.61 -0.03 C108.17 -3.89, 213.37 -4.57, 417.37 1.07 M418.81 -1.16 C415.39 100.74, 418.03 202.52, 418.45 496.63 M418.28 0.5 C415.79 139.35, 416.33 279.63, 418.23 497.2 M419.71 496.74 C255.57 501.08, 94.22 500.95, 0.06 497.56 M417.77 497.66 C284.6 502.69, 150.23 500.84, -0.13 498.6 M1.54 498.91 C-0.06 349.22, 1.4 203.49, 1.06 1.19 M0.53 497.06 C2.88 309.1, 1.73 119.85, 0.58 -0.31" stroke="#000000" stroke-width="1" fill="none"></path></g><g stroke-linecap="round" transform="translate(60.640143063365485 46.10686761904117) rotate(0 52.431042389087 30.415704297113507)"><path d="M0 0 C0 0, 0 0, 0 0 M0 0 C0 0, 0 0, 0 0 M-0.1 6.66 C1.56 4.53, 2.28 2.36, 4.83 1.07 M0.12 6.16 C1.01 5.01, 2.25 3.34, 5.23 0.68 M0.04 11.37 C4.46 7.85, 5.91 2.11, 10.9 -0.32 M0.08 12.34 C2.73 8.91, 6.36 5.65, 10.74 -0.53 M0.36 16.94 C3.29 14.24, 11.68 7.89, 17.45 -1.67 M0.68 18.39 C4.1 13.86, 6.71 9.44, 16.26 0.02 M0.61 22.81 C8.59 15.6, 14.98 4.86, 21.05 -0.18 M0.5 23.34 C5.49 18.7, 10.5 12.7, 22.04 0.55 M1.92 30.59 C7.54 23.02, 12.93 15.69, 25.44 -0.19 M-0.5 31.02 C7.84 20.96, 15.41 13.58, 25.56 0.95 M0.66 34.99 C7.47 27.97, 16.94 16.02, 31.18 1.24 M-0.29 36.57 C8.52 26.76, 17.59 17.19, 32.49 0.38 M-0.51 40.97 C6.88 34.31, 17.79 23.94, 35.48 -0.72 M0.76 43.26 C12.33 29.57, 22.92 16.52, 36.99 -0.35 M-1.61 48.94 C10.5 37.81, 19 25.16, 42.5 -1.68 M-0.54 49.29 C15.03 31.47, 31.66 12.55, 42.46 -0.32 M0.23 56.54 C15.3 36.12, 32.57 19.48, 47 0.96 M-0.18 54.95 C18.78 34.18, 36.59 14.11, 47.78 0.07 M-1.44 59.63 C12.93 49.87, 24.43 32.79, 52.68 1.01 M-0.66 61.22 C18.98 38.19, 38.31 17.59, 54.07 -0.48 M5.05 59.23 C18.05 48.46, 29.24 34.03, 59.9 0.54 M5.02 60.13 C18.84 45.37, 31.83 31.36, 58.92 0.42 M9.58 60.68 C23.63 49.02, 33.47 36.97, 63.9 -1.21 M9.83 61.48 C26.55 42.53, 42.77 23.35, 63.16 -0.76 M18.12 60.49 C34.53 37.25, 55.95 17.45, 70.6 1.25 M17.23 61.14 C28.69 45.87, 43.14 30.06, 69.13 -0.85 M19.36 61.39 C39.05 39.81, 58.9 20.43, 74.81 0.61 M22.15 61.63 C35.24 45.72, 48.79 29.73, 75.35 0.42 M26.2 62.08 C45.04 36.52, 65.92 13.53, 80.01 1.8 M27.13 61.35 C47.08 36.25, 69.26 12.56, 78.89 0.99 M30.83 62.47 C49.41 42.01, 66.32 21.91, 84.58 -1.06 M31.8 61.35 C48.17 41.87, 65.17 22.36, 85.99 -1.1 M35.76 60.95 C50.61 44.95, 66.23 27, 89.55 0.4 M36.41 62.07 C52.1 43.82, 67.74 27.91, 90.43 0.87 M43.39 60.13 C56 47.09, 68.32 32.87, 96.87 -2.27 M41.99 60.6 C53.98 48.97, 64.35 35.66, 96.19 -1.25 M47.81 59.82 C59.54 47.45, 69.39 33.16, 101.13 -1.25 M48.51 61.16 C65.31 40.24, 83.96 18.44, 99.74 0.02 M52.97 62.07 C73.19 40.75, 91.61 16.62, 107.19 1.2 M53.71 61.6 C68.24 45.34, 82.71 28.42, 106.13 1.05 M56.51 60.14 C72.04 42.04, 88.21 24.51, 107.26 4.86 M57.28 61.94 C68.15 48.79, 80.46 37.27, 104.63 6.67 M63.97 59.51 C76.36 45.22, 88.36 33.93, 107.02 10.88 M63.69 60.8 C76.24 47.29, 87.35 33.35, 105.25 12.97 M68.53 62.89 C81.34 46.04, 95.78 28.77, 104.17 17.94 M68.34 61.99 C77.63 50.72, 86.16 41.48, 105.91 19.02 M73.3 59.17 C84.12 51.07, 90.09 40.32, 106.7 26.66 M74.41 60.91 C82.02 53.2, 88.42 44.22, 105.09 24.76 M79.04 60.51 C86.4 52.43, 90.8 47.03, 103.86 28.9 M79.03 61.14 C85.86 53.82, 93.31 45.35, 105.39 31.76 M86.39 59.25 C91.65 52.47, 97.47 48.64, 105.22 37 M84.1 60.88 C91.15 53.24, 98.84 44.82, 105.06 38 M91.69 60.97 C95.51 55.74, 101.69 47.68, 106.25 41.47 M90.47 61.48 C94.45 56.26, 98.35 52.51, 106.06 43.09 M96.78 61.25 C98.19 57.28, 102.57 53.74, 104.44 48.41 M94.97 60.1 C99.08 56.89, 100.36 54.03, 106.15 48.91 M101.36 60.56 C102.18 59.08, 102.35 58.93, 105.9 55.68 M100.96 61.13 C102.44 58.99, 103.64 57.1, 105.52 55.9 M0.07 60.89 C0.07 60.89, 0.07 60.89, 0.07 60.89 M0.07 60.89 C0.07 60.89, 0.07 60.89, 0.07 60.89 M7.05 60.6 C5.41 60.07, 3.68 58.74, -0.67 55.58 M6.21 61.3 C4.5 58.88, 2.08 56.93, -0.51 55.5 M12.8 60.79 C7.32 57.84, 2.89 54.51, 0.19 49.1 M12.6 61.34 C10.04 58.14, 5.68 55.02, -0.49 50.34 M19.24 59.58 C14.27 58.72, 8.89 54.56, -2.3 43.96 M19.11 60.27 C14.33 56.61, 9.11 53.63, -1.3 43.97 M22.63 62.57 C18.79 56.24, 14.28 50.64, 1.94 39.32 M25.01 61.38 C15.97 54.55, 8.41 46.55, -0.86 39.55 M32.53 60.91 C22.07 51.27, 8.97 44.51, 0.61 36.02 M30.98 61.08 C21.76 52.44, 13.39 44.78, -0.5 34.7 M35.35 60.98 C26.62 49.55, 16.91 40.22, 1.64 27.44 M36.42 60.34 C29.53 54.83, 21.73 47.22, -0.84 28.11 M41.78 61.38 C27.83 49.45, 15.43 34.76, 0.52 24.09 M43.36 61.24 C29 48.37, 14.29 36.38, -0.12 24.14 M50.06 61.92 C29.62 47.79, 14.15 32.24, 0 20.13 M48.19 61.49 C32.95 47.79, 16.27 32.73, 0.03 18.62 M53.67 61.96 C39.58 46.48, 21.02 30.01, 1.13 13.53 M53.88 60.32 C39.98 48.72, 26.98 37.91, 0.09 12.66 M60.42 60.75 C46.21 47.71, 30.03 34.14, -1.8 7.86 M61.54 60.21 C45.09 46.88, 28.34 32.54, 0.12 7.9 M68.11 59.76 C40.23 37.61, 12.68 12.9, 1.82 4.54 M66.62 60.82 C43.29 40.24, 18.27 17.2, -0.66 2.22 M71.84 59.7 C45.56 38.07, 19.1 13.33, -0.61 -2.1 M72.7 61.45 C57.08 47.1, 42.88 35.36, 1.04 -1.65 M79.25 61.44 C61.34 46.35, 45.35 29.65, 6.08 -0.6 M79.2 61.51 C51.75 35, 23.21 11.01, 8.17 -0.42 M86.24 60.46 C69.96 46.74, 49.85 30.3, 14.8 -0.43 M85.66 60.42 C67.17 44.7, 50.17 30.56, 13.71 -0.82 M92.01 59.1 C67.51 44.1, 46.19 24.87, 19.28 -1.3 M91.22 61.37 C69.87 41.97, 46.47 22.75, 20.29 -1.42 M98.79 60.92 C82.4 48.01, 65.09 33.16, 24.53 -3.33 M98.9 61.23 C82.69 48.96, 66.52 34.33, 25.15 -1.22 M103.06 59.71 C89.3 49.57, 73.74 36.49, 33.83 -2.79 M103.29 60.99 C83.32 41.64, 63.55 25.45, 31.64 -2.01 M107.87 57.83 C92.82 43.78, 77.11 31.69, 36.49 -1.7 M107.37 57.65 C90.5 45.41, 75.68 32.58, 37.48 -0.36 M109.26 54.51 C85.26 32.09, 59.75 12.87, 43.12 -2.86 M107.46 53.98 C85.84 35.94, 65.04 16.31, 44.47 -1.24 M107.61 46.83 C89 30.03, 68.81 15.94, 48.85 -0.88 M107.02 47.05 C85.16 28.63, 63.63 8.74, 50.3 -1.47 M108.8 41.41 C91.41 28.96, 75.12 13.01, 57.08 -3.79 M106.36 43.37 C92.51 29.91, 78.1 17.98, 56.75 -1.89 M106.99 35.49 C96.52 28.28, 89.49 19.44, 62.52 -0.77 M105.88 37.5 C95.01 26.81, 83.61 15.46, 63.22 -1.56 M107.63 33.14 C98.62 22.39, 88.21 16.85, 66.88 0.27 M107.62 31.75 C98.54 24.91, 91.94 19.45, 68.97 -1.87 M106.42 27.02 C99.52 17.66, 87.38 10.87, 74.16 -2.39 M106.7 27.46 C99.18 19.59, 92.67 14.05, 74.85 -2.05 M108.39 22.66 C100.66 17.17, 94.4 9.95, 81.92 -3.27 M106.86 20.72 C98.07 13.12, 88.09 4.24, 81.09 -0.76 M106.81 16.14 C101.09 8.37, 91.38 3.31, 84.95 -3.29 M105.94 15.65 C100.86 10.83, 97.49 6.22, 85.53 -2.11 M106.31 10.45 C102.98 7.74, 102.45 4.16, 94.28 -1.54 M107.4 10.15 C102.41 6.32, 98.69 3.55, 93.09 -1.94 M106.17 5.14 C104.2 2.88, 103.99 1.91, 98.25 -1.09 M106.3 5.12 C104.29 2.75, 101.61 0.16, 99.67 -1.66" stroke="#a3aefd" stroke-width="0.5" fill="none"></path><path d="M1.54 0.7 C23.22 0.26, 43.99 -1.31, 102.93 1.97 M0.94 -0.34 C36.2 -0.39, 72.46 0.07, 104.79 0.89 M104.95 1.94 C103.46 20.6, 105.71 38.47, 104.32 60.65 M104.91 -0.67 C103.7 13.59, 105.22 28.59, 104.22 60.42 M103.01 58.93 C80.78 62.05, 57.26 63.22, -0.61 59.22 M105.25 60.49 C65.28 61.93, 25.12 60.97, -0.31 61.56 M-0.52 61.96 C0.17 47.1, 0.12 35.93, -1.87 1.62 M0.06 60.39 C-0.61 46.3, -0.17 30.34, -0.48 0.49" stroke="#000000" stroke-width="1" fill="none"></path></g><g transform="translate(94.07118545245248 66.5225719161549) rotate(0 19 10)"><text x="19" y="14" font-family="Virgil, Segoe UI Emoji" font-size="16px" fill="#000000" text-anchor="middle" style="white-space: pre;" direction="ltr">User</text></g><g stroke-linecap="round" transform="translate(89.83240927443194 108.838366365811) rotate(0 22.678182501285164 5.288123070979736)"><path d="M0 0 C0 0, 0 0, 0 0 M0 0 C0 0, 0 0, 0 0 M-0.26 6.4 C1.49 4.39, 3.23 2.38, 4.99 0.36 M-0.26 6.4 C1 4.95, 2.26 3.49, 4.99 0.36 M0.79 11.29 C3.33 8.37, 5.86 5.45, 10.63 -0.03 M0.79 11.29 C4.11 7.47, 7.43 3.65, 10.63 -0.03 M5.78 11.65 C7.99 9.1, 10.2 6.55, 15.62 0.33 M5.78 11.65 C8.68 8.3, 11.59 4.96, 15.62 0.33 M11.42 11.25 C13.75 8.57, 16.07 5.9, 21.26 -0.07 M11.42 11.25 C13.64 8.69, 15.87 6.14, 21.26 -0.07 M16.41 11.61 C19.41 8.15, 22.42 4.7, 26.25 0.29 M16.41 11.61 C19.89 7.6, 23.37 3.6, 26.25 0.29 M22.05 11.22 C24.07 8.89, 26.1 6.56, 31.89 -0.1 M22.05 11.22 C24.7 8.17, 27.34 5.13, 31.89 -0.1 M27.04 11.58 C29.23 9.06, 31.41 6.54, 36.88 0.26 M27.04 11.58 C30.72 7.34, 34.4 3.11, 36.88 0.26 M32.68 11.18 C35.64 7.77, 38.61 4.36, 42.52 -0.14 M32.68 11.18 C35.99 7.37, 39.31 3.56, 42.52 -0.14 M37.67 11.54 C41.33 7.33, 45 3.11, 46.85 0.98 M37.67 11.54 C40.78 7.96, 43.89 4.38, 46.85 0.98 M43.31 11.15 C44.08 10.27, 44.84 9.39, 46.59 7.37 M43.31 11.15 C44.38 9.92, 45.45 8.69, 46.59 7.37 M0.05 10.62 C0.05 10.62, 0.05 10.62, 0.05 10.62 M0.05 10.62 C0.05 10.62, 0.05 10.62, 0.05 10.62 M6.44 10.88 C4.49 9.18, 2.53 7.48, -0.35 4.97 M6.44 10.88 C4.03 8.78, 1.61 6.67, -0.35 4.97 M12.09 10.48 C8.49 7.35, 4.89 4.23, 0.01 -0.01 M12.09 10.48 C7.73 6.69, 3.37 2.9, 0.01 -0.01 M18.48 10.74 C14.56 7.33, 10.63 3.92, 6.41 0.25 M18.48 10.74 C13.97 6.82, 9.46 2.9, 6.41 0.25 M24.13 10.35 C20 6.76, 15.88 3.18, 12.05 -0.15 M24.13 10.35 C20.39 7.1, 16.65 3.85, 12.05 -0.15 M30.53 10.61 C25.93 6.62, 21.33 2.62, 18.45 0.11 M30.53 10.61 C26.31 6.95, 22.1 3.28, 18.45 0.11 M36.92 10.87 C33.24 7.67, 29.56 4.47, 24.09 -0.28 M36.92 10.87 C31.97 6.57, 27.02 2.27, 24.09 -0.28 M42.57 10.48 C39.36 7.69, 36.16 4.91, 30.49 -0.02 M42.57 10.48 C39.21 7.56, 35.85 4.64, 30.49 -0.02 M46.7 8.77 C44.42 6.79, 42.15 4.82, 36.89 0.24 M46.7 8.77 C43.78 6.23, 40.85 3.69, 36.89 0.24 M47.06 3.78 C45.41 2.35, 43.76 0.92, 42.53 -0.15 M47.06 3.78 C45.33 2.28, 43.6 0.78, 42.53 -0.15" stroke="#868e96" stroke-width="0.5" fill="none"></path><path d="M0 0 C15.19 0, 30.39 0, 45.36 0 M0 0 C12.07 0, 24.15 0, 45.36 0 M45.36 0 C45.36 4.2, 45.36 8.4, 45.36 10.58 M45.36 0 C45.36 2.46, 45.36 4.93, 45.36 10.58 M45.36 10.58 C36.05 10.58, 26.75 10.58, 0 10.58 M45.36 10.58 C33.3 10.58, 21.25 10.58, 0 10.58 M0 10.58 C0 6.81, 0 3.04, 0 0 M0 10.58 C0 7.87, 0 5.17, 0 0" stroke="#000000" stroke-width="1" fill="none"></path></g><g stroke-linecap="round" transform="translate(53.686402324412484 120.69789930429397) rotate(0 60.123612434579854 8.281128420633877)"><path d="M0 0 C0 0, 0 0, 0 0 M0 0 C0 0, 0 0, 0 0 M-0.41 7.11 C0.68 4.77, 3.3 3.88, 4.51 0.44 M-0.01 6.71 C1.56 4.41, 3.2 2.59, 4.82 0.53 M0.41 11.75 C3.23 8.49, 6.25 4.77, 11.23 -0.92 M0.24 11.55 C3.85 7.35, 7.73 3.87, 10.03 -0.71 M3.02 14.94 C5.18 12.14, 11.87 5.8, 15.53 1.8 M1.82 16.63 C5.87 13.1, 9.35 8.57, 14.98 0.45 M5.97 17.18 C10.35 12.8, 15.53 5.56, 19.78 0.84 M6.95 17.91 C10.45 12.26, 15.17 7.23, 21.31 0.4 M10.35 17.17 C15.76 13.05, 20.14 5.89, 27.33 0.7 M10.47 18.31 C14.5 14.02, 17.32 9.81, 25.31 -0.24 M16.09 18.6 C21.51 10.4, 26.5 4.82, 31.27 0.28 M17.4 17.74 C19.6 12.4, 23.85 8.54, 31.11 -1.04 M20.4 16.64 C27.43 10.69, 34.28 6.12, 38.36 1.73 M21.9 17.01 C26.17 11.07, 32.45 5.08, 36.89 0.56 M27.41 15.67 C33.53 12.68, 36.02 5.6, 43.26 -0.61 M27.37 17.04 C32.49 11.78, 36.36 5.91, 43.51 -0.24 M31.91 18.31 C37.48 12.54, 37.84 8.38, 48.29 0.85 M32.69 17.42 C35.92 12.63, 40.37 6.78, 46.84 0.91 M37.6 18.37 C45.18 11.8, 48.24 2.3, 53.66 -0.11 M38.98 16.88 C40.39 12.95, 45.06 9.65, 52.48 0 M44.81 17.9 C47.79 11.38, 54.37 2.7, 57.27 1.52 M43.83 17.78 C45.51 13.91, 49.65 8.97, 58.02 1.16 M48.81 16.15 C53.98 10.51, 59.6 3.33, 64.9 -1.03 M48.08 16.6 C54.49 11.27, 58.69 6.53, 63.76 -0.85 M55.51 18.61 C56.49 13.6, 60.27 10.54, 69.99 -1.3 M54.04 16.51 C59.18 11.62, 63.75 4.77, 69.02 -0.12 M59.72 17.97 C62.85 13.52, 69.66 8.48, 75.88 1.37 M60.26 17.78 C66.08 10.58, 70.36 3.26, 74.83 -1.1 M64.92 19.16 C69.96 12.25, 70.84 11.05, 79.59 -1.14 M63.8 18.35 C67.63 12.96, 69.88 9.78, 80.2 -0.09 M69.49 16.3 C75.5 12.59, 78.35 5.08, 86.02 -0.72 M70.9 16.26 C74.3 12.2, 78.48 6.13, 84.91 -0.77 M74.46 17.75 C79.56 10.66, 83.99 5.07, 91.75 -0.05 M75.34 18.23 C78.12 12.73, 82.28 8.85, 89.68 0.33 M81.78 15.09 C84.01 10.95, 90.57 3.79, 95.23 0.41 M81.1 16.1 C85.49 11.4, 93.03 4.01, 94.99 0.33 M86.04 16.11 C90.76 12.21, 96.32 9.4, 100.62 -0.57 M84.65 17.37 C91.05 10.81, 95.64 5.94, 101.3 0.48 M92.75 17.81 C96.23 8.89, 101.65 5.33, 107.93 -0.02 M91.7 17.66 C97.45 10.25, 102.78 2.52, 105.8 -1.34 M98.08 15.43 C98.81 12.72, 103.86 6.72, 112.87 -1.73 M95.45 17.23 C100.62 11.36, 104.84 6.81, 110.67 -0.08 M103.08 15.41 C104.93 13.15, 108.3 8.95, 116.37 1.46 M101.32 17.5 C107.28 11.34, 111 6.2, 117.16 -0.31 M105.48 16.43 C110.45 12.81, 117.57 5.28, 123.01 1.68 M107.22 17.52 C110.42 12.86, 115.35 7.87, 120.49 1.26 M113.41 17.86 C114.52 14.73, 117.75 10.48, 121.25 7.91 M112.37 16.63 C115.22 13.2, 119.36 9.45, 120.82 7.46 M116.92 16.71 C118.11 16.59, 118.71 15.1, 121.43 12.6 M117.38 17.57 C118.78 15.81, 120.29 14.39, 121.18 12.88 M0.1 16.65 C0.1 16.65, 0.1 16.65, 0.1 16.65 M0.1 16.65 C0.1 16.65, 0.1 16.65, 0.1 16.65 M5.93 15.67 C3.14 14.51, 1.97 12.8, 0.06 11.45 M5.86 16.32 C3.97 14.65, 2.5 13.62, -0.13 10.91 M10.99 15.53 C8 12.68, 6.18 8.75, -1.09 7.5 M12.81 16.08 C9.08 14.51, 7.04 12.69, -0.44 6.56 M20.38 16.66 C15.8 13.56, 11.32 11.98, 0.34 1.4 M19.27 17.26 C13.07 12.59, 10.27 9.34, -1.13 -0.36 M24.48 15.95 C18.23 12.2, 13.63 6.91, 4.06 -2.34 M25.13 15.68 C16.09 10.33, 9.43 4.07, 1.69 -1.84 M29.81 17.39 C23.74 9.76, 16.27 2.51, 9.35 -0.8 M30.16 17.21 C25.86 11.49, 19.67 7.84, 8.71 -2.64 M36.42 14.8 C27.25 8.27, 21.87 3.97, 15.78 -0.81 M35.57 16.35 C29.61 10.95, 23.71 5.72, 13.62 -2.62 M40.68 15.85 C33.23 7.97, 24.54 3.26, 19.24 -1.74 M41.68 15.86 C35.95 11.83, 30.62 5.34, 21.71 -2.25 M50.96 16.46 C41.54 9.88, 32.6 5.45, 27.89 -4.37 M48.16 16.7 C41.53 9.1, 32.85 3.46, 26.39 -1.97 M54.91 17.76 C48.53 11.47, 43.38 6.96, 33.17 -2.61 M53.8 16.43 C49.95 11.56, 44.96 7.43, 32.69 -2.47 M62.74 15.08 C54.87 12.42, 53.99 7.72, 37.55 -1.15 M60.25 15.75 C53.88 10.29, 45.6 3.46, 39.49 -2.78 M66.9 16.33 C59.49 7.88, 50.07 4.11, 45.79 -2.43 M66.26 16.37 C60.83 9.68, 54.37 5.35, 45.27 -3.74 M73.18 18.27 C65.18 8.67, 56.76 0.12, 52.17 -1.74 M73.2 16.75 C64.58 8.73, 55.71 1.14, 51.89 -1.64 M80.33 16.91 C70.97 9.92, 66.29 1.97, 56.26 -4.75 M79.3 16.05 C73.38 12.76, 68.75 6.66, 56.79 -2.22 M83.44 16.49 C77.6 8.85, 70.19 5.76, 61.92 -3.29 M85.37 16.53 C78.76 10.41, 69.38 3.72, 62.57 -2.96 M93.11 18.42 C86.45 12.23, 77.16 3.46, 69.01 -0.95 M90.62 16.1 C83.77 8.89, 74.44 1.23, 69.13 -3.17 M95.2 15.71 C88.86 9.57, 85.61 3.43, 76.71 -4.09 M96.86 16.17 C91.76 11.52, 87.85 8.16, 75.51 -3.52 M101.89 17.22 C98.79 10.87, 88.19 4.08, 82.7 -0.88 M103.98 17.4 C97.66 11.53, 93.08 8.03, 81.62 -1.56 M111.36 18.05 C100.79 11.42, 92.45 3.71, 86.95 -2.91 M110.27 17.65 C103.87 11.91, 98.17 6.58, 86.45 -3.86 M115.09 16.52 C107.21 10.08, 96.85 0.85, 94.73 -0.92 M116.1 16.4 C106.47 9.17, 98.42 2.24, 93.62 -2.17 M120.34 14.49 C111.69 8.58, 106.56 4.46, 100.32 -2.4 M120.96 16.6 C112.31 9.59, 105.68 1.37, 99.62 -1.62 M122.84 9.13 C114.77 4.96, 107.67 -0.01, 106.27 -2.62 M120.66 9.91 C116.61 6.63, 114.3 4.91, 105.5 -2.16 M120.18 5.12 C118.04 4.58, 117.65 2.06, 111.3 -3.2 M120.77 5.92 C119.04 3.15, 115.86 1.52, 112.51 -2.3" stroke="#e64980" stroke-width="0.5" fill="none"></path><path d="M-1.94 1.97 C38.17 -0.26, 73.74 2.71, 119.57 0.01 M-0.08 0.89 C26.6 1.06, 52.71 0.46, 121.22 -0.9 M119.8 -0.15 C119.12 4.97, 119.46 11.77, 119.14 15.17 M119.71 -0.34 C119.76 4.29, 120.69 7.96, 119.46 16.47 M119.64 14.95 C80.91 17.33, 39.83 18.52, -0.68 16.47 M119.93 17.29 C78.48 14.98, 39.48 15.63, 0.56 16.37 M-1.55 17.9 C-0.89 13.56, 1 8.33, -0.73 -0.3 M-0.4 16.97 C0.05 10.87, -0.55 5.2, 0.08 0.65" stroke="#000000" stroke-width="1" fill="none"></path></g><g stroke-linecap="round" transform="translate(258.8794195333103 26.02887878363481) rotate(0 55.22225050604288 55.22225050604288)"><path d="M16.42 15.6 C16.42 15.6, 16.42 15.6, 16.42 15.6 M16.42 15.6 C16.42 15.6, 16.42 15.6, 16.42 15.6 M6.31 34.59 C10.64 25.75, 19.62 19.53, 26.19 8.71 M6.46 34.33 C11.46 27.85, 17.22 21.05, 25.76 9.8 M4.17 42.47 C16.28 29.94, 26.15 16.54, 37.93 1.57 M3.18 42.2 C13.39 29.86, 26.01 16.84, 37.54 4.31 M4.14 48.66 C18.65 31.71, 36.76 13.49, 42.66 3.87 M3.84 47.45 C14.63 35.06, 27.02 21.45, 43.18 2.91 M4.44 55.14 C17.9 40.26, 28.28 25.3, 47.01 4.49 M4.38 55.63 C18.93 39.43, 31.88 21.19, 48.99 3.37 M3.16 59.81 C21.46 39.79, 40.84 18.75, 53.96 5.06 M4.49 59.66 C19.78 42.3, 35.49 23.81, 53.97 3.12 M2.75 69.32 C20.92 48.61, 40.65 25.17, 59.76 2.42 M2.48 68.12 C24.98 41.97, 46.77 16.65, 59.21 3.24 M2.8 72.5 C20.41 53.81, 34.87 37.63, 64.97 1.92 M4.67 72.17 C25.16 48.67, 46.7 24.91, 63.46 3.22 M4.67 78.19 C24.48 55.52, 45.51 30.72, 69.38 1.57 M6.46 76.94 C24.03 56.51, 40.66 37.3, 70.49 2.63 M8.92 79.92 C32.18 52.35, 53.98 23.31, 72.53 5.43 M8.3 79.66 C22.35 62.74, 36.98 46.38, 74.18 4.04 M10.44 85.73 C25.65 64.05, 44.16 44.56, 77.74 4.69 M9.27 84.97 C29.13 60.76, 49.74 38.65, 77 5.54 M11.34 88.57 C29.92 68.19, 46.41 45.62, 81.36 6.82 M12.52 88.88 C27.01 69.34, 44.33 52.03, 81.78 7.44 M11.4 92.4 C31.17 74.99, 45.85 52.41, 83.66 11.71 M14.18 92.29 C33.57 70.92, 52.64 47.24, 85.12 9.89 M14.29 97.64 C32.99 77.17, 50.66 54.18, 88.57 12.27 M16.12 96.01 C34.5 74.63, 50.87 54.12, 87.58 12.97 M20 96.91 C34.2 78.51, 49.37 62.97, 91.24 14.34 M18.84 97.96 C48.44 66.46, 76.48 32.53, 91.78 14.13 M23.8 100.33 C50.75 68, 77.41 35.44, 95.15 16.25 M22.96 99.99 C38.36 82.9, 52.75 65.29, 96 17.22 M28.58 102.72 C55.24 70.73, 82.95 38.7, 99.05 17.55 M26.04 100.57 C47.39 77.84, 69.68 54.05, 97.61 18.73 M28.51 104.12 C56.58 71.63, 85.93 42.17, 97.98 21.99 M30.73 102.82 C47.15 83.42, 63.6 64.12, 100.61 22.29 M34.01 104.79 C53.32 84.43, 71.51 59.4, 102.88 25.55 M34.32 104.97 C50.64 86.08, 67.52 67.02, 101.72 26.16 M36.83 108.22 C55.47 88.57, 72.08 67.37, 103.69 30.18 M38.17 106.93 C61.49 81.24, 82.47 53.57, 103.98 30.49 M42.95 108.1 C58 91.28, 71.56 70.16, 108.26 36.04 M41.29 108.74 C61.59 85.16, 82.09 61.82, 106.2 35.1 M46.98 109.84 C69.5 79.22, 95.56 53.81, 106.1 38.53 M47.07 109.54 C63.16 89.1, 82.13 67.47, 107.14 37.91 M53.18 110.08 C72.58 86.62, 93.51 62.57, 109.96 41.99 M50.92 108.68 C64.4 96.43, 76.19 80.12, 109.64 42.27 M57.04 110.42 C69.65 95.22, 78.67 83.75, 108.25 48.02 M56.31 108.85 C74.42 91.19, 89 71.76, 109.55 48.65 M62.4 108.95 C75.85 92.26, 90.74 78.87, 109.26 54.13 M62.36 109.15 C74.96 93.33, 88.6 77.49, 110.39 54.89 M66.31 110.71 C78.1 97.9, 88.75 84.15, 109.62 62.6 M67.25 109.07 C77.65 98.41, 88.88 85.07, 110.38 60.52 M72.8 110.45 C83.06 97.14, 93.37 82.71, 109.86 67.89 M70.49 110.74 C82.23 97.38, 92.22 85.36, 110.47 65.66 M82.43 105.87 C88.89 96.18, 98.41 87.8, 110.83 72.97 M80.88 105.63 C93.21 92.95, 102.82 81.34, 111.22 72.84 M14.52 94.57 C14.52 94.57, 14.52 94.57, 14.52 94.57 M14.52 94.57 C14.52 94.57, 14.52 94.57, 14.52 94.57 M28.85 103.18 C23.75 97.09, 16.52 90.7, 9.57 86.58 M29.19 102.81 C21.91 95.16, 14.45 89.46, 9.92 86.45 M39.23 105.08 C32.86 102.69, 25.72 93.44, 7.02 76.81 M39.9 106.28 C27.78 96.01, 13.32 83.52, 6.16 76.84 M46.26 105.96 C28.45 93.78, 13.44 75.46, 2.04 69.79 M46.69 107.66 C30.87 91.88, 12.66 76.33, 2.13 67.81 M54.6 108.73 C40.73 97.12, 23.65 82.11, 3.07 63.76 M54.15 108.25 C35.94 91.2, 16.94 75.77, 2.15 63.3 M58.9 108.94 C44.91 95, 32.74 84.86, 1 56.64 M60.69 107.42 C41.04 90.29, 19.44 72.26, 1.31 57.85 M66.11 106.34 C41.13 87.15, 19.99 67.12, 2.84 51.46 M67.33 107.66 C46.02 88.31, 23.38 69.99, 1.64 51.52 M70.95 106.6 C48.59 83.55, 20.54 62.52, 2.81 46.87 M71.69 107.81 C55.29 94.54, 39.56 80.17, 1.75 45.92 M75.92 102.93 C44.24 77.75, 17.67 55.86, 0.72 40.69 M74.51 104.16 C46.47 79.95, 17.02 54.35, 1.61 41.25 M77.07 103.7 C51.03 78.63, 27.14 57.76, 2.14 36.26 M77.91 103.58 C61.4 89.34, 44.92 73.24, 3.33 38.17 M82.96 102.24 C63.42 82.91, 43.28 68.72, 6.17 32.89 M82.82 100.85 C61.54 83.06, 42.51 66.07, 5.32 33.7 M86.44 97.72 C56.9 72.26, 27.08 48.66, 6.17 32.09 M87.34 98.97 C59.26 73.92, 31.48 50.13, 7.64 31 M91.64 96.89 C72.34 81.61, 54.74 66.35, 9.06 26.55 M90.13 96.48 C68.65 79.99, 49.07 61.58, 9.71 27.83 M93.73 95.03 C77.61 77.97, 56.16 61.33, 13.29 24.53 M94.73 95.83 C72.48 75.63, 50.05 56.67, 10.79 22.46 M97.38 89.69 C68.27 66.77, 39.61 43.05, 15.32 18.17 M96.53 90.72 C68.61 68.31, 42.97 44.28, 15.02 19.42 M100.07 88.24 C78.61 71.04, 61.41 58.43, 15.66 15.86 M98.53 87.04 C78.27 69.31, 59.3 52.42, 15.88 17.44 M98.57 85.62 C80.1 64.49, 56.74 45.29, 17.11 13.82 M100.36 84.19 C75.77 62.4, 53.37 43.73, 18.97 12.5 M100.91 82.01 C80.07 63.08, 59.82 42.09, 21.22 11.19 M102.74 80.23 C73.61 57.32, 45.82 31.27, 23.02 10.43 M103.4 77.78 C77.67 53.34, 50.22 28.67, 26.1 9.66 M105 76.34 C80.01 53.78, 53.66 31.95, 26.07 8.01 M108.41 73.2 C87.26 57.4, 64.57 36.82, 29.62 6.48 M107.34 74.02 C80.68 50.84, 53.01 27.41, 29.31 7.51 M110.29 68.78 C77.66 43.48, 49.44 16.16, 34.69 6.11 M109.31 70.91 C88.95 53.76, 66.64 34.55, 32.78 3.84 M106.71 66.24 C90.33 47.37, 68.21 29.49, 35.52 3.89 M107.55 65.33 C83.95 42.8, 58.87 21.51, 38.12 3.7 M108.12 59.48 C86.37 37.65, 64.6 20.28, 41.31 0.37 M107.86 58.65 C81.04 36.23, 54.01 13.67, 40.83 1.45 M109.74 53.66 C87.82 38.2, 70.45 21.15, 46.6 0.99 M107.61 53.94 C88.83 35.94, 68.04 19.95, 47.05 2.22 M108.08 50.79 C90.07 34.18, 74.31 19.52, 51.89 -0.22 M108.79 49.06 C87.41 31.54, 66.19 12.75, 52.72 1.17 M107.92 43.48 C99.27 36.03, 87.35 23.72, 58.51 2.94 M107.49 43.86 C92.64 30.28, 79.17 17, 58.95 0.57 M110.09 39.82 C99.34 33.17, 91.63 22.51, 66.81 1.92 M108.2 38.64 C95.39 26.26, 82.21 14.24, 66.67 2.33 M102.89 30.62 C94.4 19.89, 80.64 9.16, 70.66 1.74 M103.67 28.78 C94.84 21.56, 85.24 12.8, 71.67 -0.13" stroke="#15aabf" stroke-width="0.5" fill="none"></path><path d="M70.23 1.93 C78.93 3.68, 88.88 10.2, 95.16 16.69 C101.43 23.18, 105.73 31.92, 107.9 40.85 C110.07 49.78, 110.42 61.22, 108.17 70.28 C105.93 79.34, 100.9 88.79, 94.43 95.22 C87.95 101.66, 78.37 106.81, 69.32 108.88 C60.28 110.95, 49.28 110.02, 40.16 107.65 C31.04 105.28, 20.94 101.23, 14.6 94.64 C8.26 88.06, 4.27 77.08, 2.12 68.14 C-0.03 59.21, -0.67 49.81, 1.71 41.04 C4.1 32.28, 9.91 22.13, 16.45 15.58 C22.99 9.02, 30.83 3.56, 40.95 1.74 C51.08 -0.09, 69.94 3.36, 77.23 4.65 C84.51 5.94, 84.89 8.62, 84.68 9.47 M57.18 0.36 C65.62 -0.1, 75.66 3.05, 83.38 7.59 C91.09 12.12, 99.1 19.56, 103.48 27.57 C107.86 35.58, 109.8 46.43, 109.64 55.65 C109.48 64.86, 107.38 74.93, 102.53 82.83 C97.68 90.74, 88.47 98.3, 80.56 103.07 C72.65 107.84, 64.23 111.65, 55.08 111.44 C45.93 111.23, 33.86 106.79, 25.64 101.83 C17.42 96.87, 9.91 89.88, 5.74 81.68 C1.57 73.49, 0.48 61.87, 0.62 52.67 C0.75 43.46, 1.8 34.06, 6.57 26.44 C11.34 18.82, 20.68 11.4, 29.23 6.92 C37.78 2.44, 53.54 0.33, 57.86 -0.45 C62.19 -1.22, 55.48 1.11, 55.16 2.27" stroke="#000000" stroke-width="1" fill="none"></path></g><g transform="translate(292.6016700393534 68.75112928967837) rotate(0 21.5 12.5)"><text x="21.5" y="18" font-family="Virgil, Segoe UI Emoji" font-size="20px" fill="#000000" text-anchor="middle" style="white-space: pre;" direction="ltr">DNS</text></g><g stroke-linecap="round" transform="translate(161.14465319175997 163.76118605174634) rotate(0 62.5 33)"><path d="M0 0 C0 0, 0 0, 0 0 M0 0 C0 0, 0 0, 0 0 M-0.82 5.66 C0.27 4.76, 1.57 3.5, 4.79 -0.14 M0.13 6.51 C1.79 4.03, 3.47 1.86, 4.77 0.67 M-0.46 13.13 C2.4 7.91, 7.78 4.73, 10.68 0.8 M0.76 12.48 C2.88 9.13, 5.56 5.21, 11.09 0.65 M0.43 18.55 C4.67 14.91, 9.55 9.75, 16.94 1.58 M0.68 18.02 C2.35 14.94, 5.31 10.22, 16.2 0.26 M-1.03 23.85 C4.92 19.61, 10.62 11.16, 20.72 0.18 M0.13 25 C6.69 18.2, 11.13 12.46, 20.8 0.5 M-0.89 30.44 C10.51 20.28, 18.36 9.86, 25.1 -1.5 M-0.64 30.23 C8.05 21.35, 16.25 10, 26.89 0.7 M-0.85 36.47 C11.18 23.86, 23.73 6.57, 31 -0.55 M-0.4 37.24 C10.69 24.9, 19.97 13.39, 32.59 -0.37 M0.59 44.39 C13.27 29.34, 22.57 13.93, 34.94 -1.72 M-0.29 42.17 C10.79 29.59, 22.26 16.22, 37.58 1.17 M1.2 48.17 C10.86 38.54, 18.4 26.38, 41.27 1.48 M0.72 49.53 C13.09 36.22, 24.43 21.43, 42.78 -0.18 M-1.43 53.06 C9.6 42.81, 20.25 29.83, 47.93 1.84 M0.94 54.43 C14.3 40.07, 26.22 23.86, 47.63 0.17 M-0.08 62.6 C12.78 46.09, 24.14 33.97, 54.72 1.42 M-0.82 60.11 C18.47 38.42, 39.31 17.28, 53.83 0.42 M2.28 65.62 C23.11 42.56, 43.19 16.38, 57.02 -1.42 M0.52 67.38 C21.07 43.25, 40.01 21.1, 58.6 -0.09 M4.19 64.41 C23.69 46.62, 41.69 27.98, 62.07 -1.05 M5.46 65.41 C26.95 42.01, 48.99 18.88, 64.43 0.56 M10.91 67.65 C25.31 51.2, 38.14 34.09, 70.68 -1.57 M10.64 67.05 C32.84 40.39, 55.93 13.95, 68.33 0.39 M15.14 67 C35.89 44.2, 56.25 20.22, 73.53 -1.78 M17.07 65.93 C30.95 48.63, 44.96 33.12, 73.56 -0.93 M22.18 65.41 C33.46 51.72, 46.81 37.39, 80.87 -0.2 M20.77 67.35 C39 46.95, 55.58 28.44, 78.91 -0.66 M26.15 68.08 C44.32 44.03, 61.95 25.03, 86.81 -0.09 M26.51 65.68 C48.95 39.86, 70.83 15.21, 84.42 0.56 M31.8 65.54 C56.4 41.68, 78.64 14.75, 91.04 1.6 M33.1 65.91 C48.18 47.28, 62.58 29.89, 90.66 0.22 M38.69 64.57 C60.15 42.98, 81.06 14.67, 95.12 1.18 M37.11 65.13 C54.82 47.41, 70.29 27.15, 96.46 -0.6 M42.98 67.22 C57.43 52.05, 68.37 38.19, 100.17 -0.75 M42.11 66.07 C62.75 43.38, 83.28 22.24, 100.17 0.28 M49.04 66.62 C65.46 43.67, 85.32 23.86, 107.17 -0.32 M47.79 67.28 C62.08 51.45, 77.62 33.76, 105.39 -0.33 M54.44 66.11 C65.36 52.39, 79.38 34.26, 110.7 0.65 M54.49 66.94 C68.89 47.8, 86.84 28.88, 112.26 0.5 M59 66.64 C79.62 42.42, 103.48 13.72, 114.52 2.35 M57.71 66.6 C78.69 43.68, 97.89 21.08, 116.52 0.01 M64.38 66.38 C83.48 45.64, 104.36 21.1, 120.61 -1.77 M63.21 67.38 C79.11 49.21, 94.43 30.48, 122.03 -0.41 M67.85 67.81 C83.67 52.2, 93.85 38.94, 125.53 3.08 M68.28 67.56 C82.33 53.04, 94.15 37.63, 126.7 1.25 M74.52 64.68 C90.53 45.21, 107.22 29.35, 124.78 8.45 M75.46 65.99 C86.89 53.98, 97.7 39.97, 126.24 7.6 M79.07 65.03 C92.78 50.61, 105.29 39.77, 125.58 12.37 M79.83 67.66 C93.3 49.49, 109.37 33.56, 126.55 14.08 M86.06 66.18 C100.14 47.93, 113.86 33.96, 126.82 17.69 M84.72 67.13 C94.9 54.91, 106.99 41.57, 127.1 19.74 M91.62 65.73 C99.78 57.16, 109.55 46.94, 127.21 26.55 M90.96 66.11 C105.55 50.77, 120.45 33.21, 126.62 24.27 M95.72 64.54 C101.34 56.16, 108.59 50.86, 127.1 31.35 M96.67 66.9 C103.36 56.9, 112.86 46.59, 126.38 31.45 M99.95 65.8 C107.32 59.92, 115.84 53.18, 127.99 38.55 M100.49 65.91 C108.55 58.85, 114.1 52.22, 125.22 37.43 M107.71 65.94 C115.21 55.84, 122.82 49.71, 125.6 43.85 M107.29 67.16 C113.24 58.17, 119.83 51.37, 126.15 44.47 M110.02 65.68 C113.64 63.95, 117.76 56.46, 126.93 51.51 M111.5 65.78 C115.77 63.19, 119.77 58.19, 126.85 50.68 M117.62 65.39 C121.13 64.03, 123.37 59.18, 126 54.55 M116.95 65.73 C119.37 63.58, 121.55 61.95, 126.69 56.09 M122.62 66.49 C122.73 65.38, 123.95 64.08, 125.76 62.45 M122.02 66.47 C123.57 65.08, 124.74 63.86, 126.28 61.77 M-0.23 65.8 C-0.23 65.8, -0.23 65.8, -0.23 65.8 M-0.23 65.8 C-0.23 65.8, -0.23 65.8, -0.23 65.8 M6.09 65.44 C3.39 63.31, 1.7 62.35, -0.16 61.49 M6.41 66.41 C4 64.78, 2.78 62.92, 0.52 61.1 M13.98 65.72 C9.53 60.9, 3.5 59.37, -0.5 53.65 M12.43 65.92 C9.81 63.19, 6.27 61.76, -0.04 54.47 M17.46 67.17 C13.85 59.61, 7.64 56.45, -0.03 50.96 M18.63 66.8 C12.89 61.7, 7.28 56.94, -0.55 49.72 M25.05 66.67 C18 60.86, 10.85 52.43, 0.26 44.66 M23.65 65.51 C16.32 59.87, 10.29 53.89, -0.58 44.23 M29.54 64.29 C25.87 61.26, 18.18 54.08, -0.12 40.79 M30.81 65.17 C19.88 55.44, 7.3 45.07, -0.48 38.66 M35.75 65.08 C27.2 57.91, 15.93 47.7, -0.42 34.34 M37.09 65.2 C24.58 56.23, 12.36 45.59, -0.5 34.31 M42.42 67.43 C31.97 57.19, 23.88 48.95, -1.65 27.18 M42.38 66.17 C27.3 54.27, 14.1 41.86, -0.24 29.7 M47.54 66 C34.97 51.05, 17.26 39.12, -1.62 23.84 M48.19 65.25 C38.25 57.38, 27.35 47.98, -0.18 22.84 M53.57 66.7 C40.97 56.27, 29.43 42.94, -1.9 17.77 M54.43 65.71 C34.29 47.17, 11.86 27.39, 0.88 17.96 M61.15 67.09 C39.28 48.66, 21.35 29.17, 1.88 11.72 M60.64 65.78 C45.17 53.45, 30 38.94, 0.98 12.44 M66.18 66.66 C41.97 44.27, 17.28 21.72, 1.33 8.73 M66.53 65.44 C46.14 46.48, 24.99 28.85, -0.17 8.28 M73.52 67.19 C60.39 53.58, 44.36 40.72, 0.53 3.09 M73.17 67.3 C50.31 47.48, 28.71 27.69, -0.47 3.54 M78.23 67.74 C50.73 41.66, 25.11 18.99, 3.26 -1.96 M79.77 66.09 C59.99 49.05, 41.66 32.17, 1.33 -1.42 M86.86 67.63 C70.25 53.37, 53.04 39.52, 6.08 0.07 M86.46 66.1 C69.4 52.26, 52.31 37.3, 8.12 -1.18 M91.17 66.84 C62.71 43.88, 38.41 18.67, 14.17 -1.26 M91.48 66.13 C66.72 45.99, 43.56 25.68, 13.89 -0.9 M97.14 64.25 C68.14 41.03, 34.58 13.19, 18.49 -0.53 M97.74 66.2 C68.91 40.73, 38.54 15.42, 20.3 -1.09 M102.72 66.04 C73.19 41.46, 45.96 14.77, 24.19 -0.69 M104.01 66.46 C73.56 38.65, 41.58 13.05, 24.65 -1.25 M111.07 64.7 C88.12 45.28, 65.56 25.6, 31.68 -2.76 M109.71 66.69 C80.17 38.7, 48.91 13.29, 32.39 -1.17 M115.83 65.94 C97.46 50.28, 79.04 34.75, 38.3 -1.44 M115.66 65.74 C84.68 40.72, 54.02 13.96, 38.34 -1.96 M122.86 65.15 C104.78 49.52, 87.91 36.37, 43.62 -2.18 M121.32 66.43 C104.87 52.06, 89.56 38.08, 43.46 -2.67 M125.71 64.29 C111.4 52.12, 95.19 38.08, 50.69 -2.15 M125.77 65.04 C101.51 43.62, 75.58 18.87, 49.63 -0.73 M126.67 59.69 C99.74 38.96, 74.85 17.1, 55.77 -1.89 M126.24 59.48 C101.27 37.65, 75.29 13.49, 56.85 -1.12 M126.77 52.14 C106.79 34.45, 85.63 17.46, 61.33 -3.01 M125.62 53.98 C109.28 39.37, 93.45 22.95, 61.75 -1.55 M126.73 48.13 C112.28 37.32, 96.67 24.09, 69.83 0.18 M126.93 48.8 C104.63 30.08, 82.17 9.31, 68.88 -1.62 M124.52 42.09 C111.49 31.73, 94.55 14.63, 72.93 -0.34 M126.35 42.96 C107.96 26.75, 87.56 10.2, 75.41 -1.32 M124.29 36.06 C108.96 24.3, 93.03 11.36, 80.78 -3.36 M125.65 38.44 C111.57 24.74, 95.34 12.12, 79.9 -1.53 M125.43 34.04 C115.19 25.98, 106.82 17.63, 87.71 -1.99 M126.79 32.98 C118.23 25.14, 109.35 18.94, 85.55 -1.17 M127.55 25.65 C118.6 18.38, 109.24 12.83, 93.31 -1.45 M126.34 26.26 C117.32 19.03, 107.47 10.51, 92.72 -2.43 M127.47 20.42 C117.28 15.1, 110.35 7.01, 100.12 -2.63 M126.03 22.75 C117.34 15.12, 107.2 5.31, 100.14 -1.86 M124.22 15.55 C121.81 9.79, 115.19 7.09, 106.89 -3.16 M125.21 15.86 C121.52 11.03, 114.71 6.44, 105.69 -0.87 M128.08 10.14 C124.16 6.63, 116.35 3.6, 109.87 -2.41 M127.39 10.76 C121.67 7.37, 116.52 3.97, 111.13 -2.32 M125.72 5.34 C123.51 4.34, 121.18 2.3, 116.67 -1.43 M126.43 6.34 C123.73 3.58, 121.15 1.97, 117.21 -1.73" stroke="#15aabf" stroke-width="0.5" fill="none"></path><path d="M1.33 2 C25.25 1.71, 52.5 -0.04, 123.87 0.82 M-0.02 0.85 C35.44 -0.67, 70.59 -0.15, 125.51 0.68 M126.09 1.8 C123 26.84, 124.51 50.83, 125.72 67.91 M125.93 -0.41 C124.05 14.56, 125.29 29.24, 125.95 66.23 M126.78 67.64 C100.5 65.9, 74.89 66.18, 0.73 64.74 M125.3 66.88 C91.28 65.85, 56.92 67.38, -0.36 66.15 M-1.49 64.45 C-0.98 45.04, -0.13 27.63, -1.03 -1.23 M-0.82 66.73 C0.56 50.82, -0.47 34.19, 0.45 -0.05" stroke="#000000" stroke-width="1" fill="none"></path></g><g transform="translate(169.14465319175997 176.76118605174634) rotate(0 54.5 20)"><text x="54.5" y="14" font-family="Virgil, Segoe UI Emoji" font-size="16px" fill="#000000" text-anchor="middle" style="white-space: pre;" direction="ltr">server/cache/</text><text x="54.5" y="34" font-family="Virgil, Segoe UI Emoji" font-size="16px" fill="#000000" text-anchor="middle" style="white-space: pre;" direction="ltr">CDN</text></g><g stroke-linecap="round" transform="translate(172.31066730677685 295.7737678865474) rotate(0 20.025592226578283 14.539476850927258)"><path d="M0 0 C0 0, 0 0, 0 0 M0 0 C0 0, 0 0, 0 0 M-0.64 6.13 C1.57 4.2, 1.6 4.06, 4.53 0.97 M-0.61 6.58 C1.86 4.37, 3.44 1.46, 4.88 -0.01 M-0.7 10.66 C4.34 8.45, 8.05 3.32, 10.22 1.13 M0.59 12.65 C3.68 7.31, 7.99 3.96, 9.94 -0.03 M1.03 19.45 C4.5 14.95, 8.96 8.54, 14.95 -0.09 M0.87 17.97 C3 14.2, 5.65 11.45, 15.61 -0.54 M-0.67 24.39 C4.75 15.39, 13.14 11.25, 22.61 -0.41 M-0.3 23.57 C7.28 16.21, 13.61 9.13, 20.58 0.89 M-0.97 30.91 C8.94 22.61, 16.28 9.86, 27.99 0.94 M0.2 30.25 C5.78 24.29, 10.98 18.97, 26.5 -0.07 M4.36 29.2 C14.53 18.97, 22.29 10.01, 30.92 -0.33 M5.37 29.48 C13.33 20.18, 21.37 11.88, 31.43 -0.67 M10.67 28.5 C16.81 19.33, 26.89 11.39, 35.87 -0.32 M10.67 29.71 C18.81 20.44, 27.07 11.1, 35.89 -0.45 M15.14 31.73 C24.13 25.14, 27.3 16.24, 40.9 -0.37 M17.24 30.49 C25.32 18.2, 36.69 7.16, 40.35 0.64 M23.25 30.01 C27.3 22.77, 32.3 18.25, 42.09 5.14 M22.8 30.51 C29.02 21.29, 38.32 11.79, 42.1 6.09 M27.79 31.95 C32.96 21.45, 39.06 17.25, 40.34 12.5 M27.24 30.36 C31.13 24.12, 35.52 20.02, 40.58 13.95 M33.78 29.46 C36.19 27.94, 38.47 23.64, 41.18 18.8 M32.64 29.7 C34.71 26.68, 36.39 25.37, 41.52 19.92 M37.55 30.09 C39.06 29.13, 40.03 27.66, 41.81 25.97 M37.59 29.99 C38.52 29.21, 39.29 27.84, 41.68 25.33 M-0.06 29.03 C-0.06 29.03, -0.06 29.03, -0.06 29.03 M-0.06 29.03 C-0.06 29.03, -0.06 29.03, -0.06 29.03 M6.64 29.35 C4.34 27.41, 4.1 26.4, -0.21 24.49 M6.03 29.29 C4.48 27.55, 2.43 26.29, 0.34 24.43 M12.01 30.12 C9.07 27.34, 6.25 22.84, 0.01 18.68 M11.25 28.48 C8.33 25.27, 2.76 22.09, -0.25 18.72 M18.29 29.2 C13.66 21.95, 7.29 17.03, 1.22 13.14 M18.32 30.1 C13.42 23.61, 8.03 18.64, 0.06 12.95 M23.46 30.08 C17.58 22.71, 9.11 14.27, -1.35 6.62 M23.76 29.75 C13.8 21.34, 5.13 13.07, -0.65 6.97 M29.38 27.24 C17.89 19.54, 8.19 9.79, 1.72 2.31 M30.98 28.83 C22.22 20.32, 12 14.54, 0.14 3.16 M37.93 31.1 C22.14 17.07, 11.4 6.76, 1.59 -0.73 M36.9 29.04 C30.41 23.11, 21.5 16.81, 0.61 -0.89 M40.75 27.98 C30.77 18.65, 20.11 10.88, 6.24 0.69 M40.03 27.38 C32.1 19.88, 21.68 11.61, 8.05 -0.48 M42.53 21.09 C33.8 18.26, 27.25 11.6, 14.34 -0.21 M42.26 22.69 C32.19 14.78, 22.08 6.46, 13.29 -2.46 M41.76 16.76 C36.88 14.62, 30.79 9.74, 18.41 -1.4 M40.13 17.34 C32.67 9.89, 25.31 2.85, 20.35 -1 M41.7 10.27 C33.77 7.17, 27.93 0.44, 27.23 -2.28 M42.24 12.56 C36.4 6.84, 30.64 2.48, 25.31 -2.23 M41.48 7.01 C38.14 5.16, 35.16 1.25, 32.46 -2.67 M41.15 5.88 C39.14 4.96, 36.5 3.33, 31.86 -2.13 M41.22 1.27 C40.26 0.09, 39.26 -0.93, 38.27 -1.05 M41.34 1.35 C40.27 0.64, 39.25 -0.13, 38.11 -1.15" stroke="#7950f2" stroke-width="0.5" fill="none"></path><path d="M-1.63 -1.24 C16.96 -0.95, 29.15 0.82, 40.72 -1.72 M0.1 0.89 C14.89 -0.21, 30.63 0.16, 39.51 -0.3 M40.15 1.06 C39.59 8.35, 38.95 16.23, 38.55 30.13 M39.88 -0.98 C39.33 10.29, 40.46 21.41, 40.12 29.82 M38.33 30.54 C26.51 29.28, 10.42 30.61, 1.06 27.56 M40.06 28.63 C30.37 29.31, 23.16 29.71, 0.18 29.66 M-0.07 29.74 C-1.52 23.22, -1.05 15.25, -0.12 -0.75 M-0.88 30.07 C0.91 18.81, -0.63 8.07, 0.75 -0.98" stroke="#000000" stroke-width="1" fill="none"></path></g><g stroke-linecap="round" transform="translate(142.98321992518913 357.4021969816308) rotate(0 20.025592226578283 14.539476850927258)"><path d="M0 0 C0 0, 0 0, 0 0 M0 0 C0 0, 0 0, 0 0 M0.16 5.98 C0.11 5.42, 2.22 4.19, 4.86 0.15 M-0.24 6.63 C1.97 4.1, 3.37 2.17, 5.16 0.01 M-0.33 12.97 C4.09 8.39, 7.94 4.56, 11.33 -0.57 M0.16 12.84 C2.79 8.47, 5.8 4.54, 11.21 -0.04 M-0.97 17.5 C3.52 12.65, 5.22 10.72, 17.56 1.67 M-0.21 17.87 C3.79 13.77, 8.41 8.43, 15.72 -0.35 M-1.11 22.45 C9.74 14.9, 18.68 4.76, 19.44 1.67 M-0.59 23.62 C8.01 16.11, 14.71 8.15, 22.08 0.19 M-0.94 27.78 C7.27 22.55, 12.4 14.89, 24.37 -0.68 M-0.02 28.79 C8.2 20.73, 14.78 12.75, 25.96 -0.17 M6.58 28.71 C11.4 20.35, 16.9 15.95, 30.44 -1.11 M6.97 28.71 C13.19 20.5, 20.64 12.43, 32.68 -1.09 M9.55 28.55 C19.03 24.93, 24.84 15.5, 36.31 -0.05 M11.87 30.65 C16.92 22.7, 21.44 18.05, 36.58 -0.6 M17.86 31.38 C22.5 24.46, 26.2 18.51, 40.18 1.86 M16.34 30.93 C21.99 23.36, 26.96 18.89, 41.43 1.86 M23.62 30.54 C27.71 25.29, 28.02 20.95, 42.18 6.02 M22.2 29.99 C27.22 23.44, 31.4 17.39, 42.39 6.26 M26.17 31.91 C31.77 25.76, 39.06 19.41, 41.23 13.56 M25.94 30.15 C30.32 26.32, 32.58 21.9, 42.29 14.09 M32.01 29.65 C35.53 27.69, 38.58 24.54, 40.93 20.54 M32.07 29.74 C35.94 25.94, 39.79 21.79, 41.03 20.26 M37.99 29.76 C38.12 29.05, 39.42 27.41, 41.86 25.57 M37.4 30.28 C38.76 28.54, 40.72 26.83, 41.19 25.24 M-0.06 29.03 C-0.06 29.03, -0.06 29.03, -0.06 29.03 M-0.06 29.03 C-0.06 29.03, -0.06 29.03, -0.06 29.03 M6.36 29.3 C4.59 27.27, 2.04 25.2, -0.26 24.09 M6.26 28.92 C4.18 27.98, 2.54 25.67, 0.65 23.96 M11.62 28.83 C7.86 26.24, 2.27 22.51, -1.18 19.16 M11.69 28.84 C9.26 26.28, 4.61 23.51, -0.54 18.23 M16.48 28.59 C15.08 26.35, 9.87 21.39, -0.94 12.19 M18.63 28.9 C14.82 25.09, 10.31 22.21, 1.22 12.88 M24.91 27.72 C16.76 22.86, 13.4 19.8, 0.11 9.26 M23.96 29.32 C17.17 23.62, 9.71 16.47, 0.84 7.68 M28.77 30.13 C21.87 19.01, 9.23 12.39, 0.57 3.03 M30.03 29.1 C20.13 21.04, 10.31 10.38, 0.4 2.04 M37.93 29.08 C24.28 17.45, 10.09 5.06, 1.07 -3.06 M36.16 28.36 C22.52 17.92, 9.4 4.77, 2.23 -1.25 M39.97 28.79 C26.95 15.63, 17.64 5.01, 8.94 -0.34 M41.79 28.53 C28.55 17.2, 15.97 5.48, 7.33 -1.38 M41.48 23.43 C35.13 17.49, 30.79 10.64, 14.2 -3.06 M41.25 21.8 C33.13 14.5, 24.02 7.58, 12.78 -1.12 M42.75 17.37 C31.85 9.4, 26.63 3.32, 18.61 0.38 M40.05 17.91 C35.57 12.65, 29.08 7.5, 20.33 -1.54 M42.8 12.96 C38.35 7.92, 34.68 3.58, 24.14 -0.76 M41.33 12.4 C37.38 9.63, 35.51 5.78, 26.36 -1.76 M40.87 6.25 C38.82 5.02, 36.25 3.68, 30.73 -1.42 M40.86 6.6 C37.69 3.26, 34.67 0.11, 32.19 -1.9 M41.27 1.27 C40.23 0.12, 39.05 -0.91, 38.25 -1 M41.3 1.33 C40.36 0.54, 39.16 -0.36, 38.27 -1.32" stroke="#40c057" stroke-width="0.5" fill="none"></path><path d="M0.86 0.1 C11.88 -0.45, 21.06 -1.1, 38.43 -1.5 M0.39 -0.17 C13.14 -0.82, 27.62 0.31, 39.68 0.07 M40.04 -1.72 C41.69 11.71, 40.42 20.87, 41.58 30.14 M40.88 0.01 C39.37 5.66, 39.72 13.79, 40.35 29.26 M41.05 29.01 C26.37 27.17, 13.02 27.64, 1.19 28.96 M40.54 28.2 C30.54 29.81, 18.82 28.26, -0.92 29.83 M0.16 28.42 C0.61 22.35, -1.62 16.26, -0.4 -1.22 M-0.37 29.84 C0.42 19.78, -0.46 11.69, 0.49 -0.63" stroke="#000000" stroke-width="1" fill="none"></path></g><g stroke-linecap="round" transform="translate(242.7923040462565 296.4839318975314) rotate(0 20.025592226578283 14.539476850927258)"><path d="M0 0 C0 0, 0 0, 0 0 M0 0 C0 0, 0 0, 0 0 M-0.53 6.23 C1.11 3.71, 3.91 2.41, 4.61 0.13 M-0.27 6.05 C1.2 4.99, 2.38 3.01, 5.05 -0.01 M1.21 11.77 C2.76 9.13, 4.88 5.42, 9.81 0.69 M-0.41 12.81 C2.96 8.98, 5.12 4.98, 11.11 0.13 M1.62 19.09 C4.04 12.85, 10.48 3.51, 16.66 0.72 M0.13 18.07 C4.93 12.91, 9.24 5.59, 15.55 0.67 M-0.71 23.85 C4.53 19.33, 7.74 12.13, 21.55 -1.04 M-0.19 23.52 C5.04 18.09, 10.24 12.51, 20.67 -1.02 M-0.35 29.15 C6.28 23.53, 12.31 16.67, 26.29 -1.5 M-0.32 29.02 C9.33 19.05, 18.14 8.18, 27.09 1.28 M6 27.59 C17.97 18.11, 27.03 8.93, 32.78 -1.56 M5.45 28.6 C11.75 22.39, 19.74 15.23, 32.07 0.41 M11.78 27.81 C18.65 24.94, 22.39 18.68, 38.59 -0.9 M11.78 28.76 C21.44 17.98, 30.73 8.39, 37.85 0.34 M15.28 29.14 C21.87 24.34, 27.15 18.7, 41.89 0.53 M15.52 30.59 C22.78 22.68, 28.65 16.38, 41.09 2.19 M22.07 28.11 C28.64 18.84, 35.48 11.96, 41.84 6.76 M22.59 29.82 C25.88 25.45, 30.2 19.7, 41.78 7.97 M28.03 31.74 C30.46 22.51, 35.22 18.94, 41.43 13.49 M27.59 29.59 C32.28 23.77, 39.02 16.68, 40.59 13.82 M32.81 30.68 C35.47 26.79, 36.64 25.51, 39.95 21.03 M32.09 29.65 C35.12 25.97, 38.92 22.74, 41.13 19.29 M37.15 30.32 C38.36 29.55, 39.54 27.61, 41.48 25.46 M37.56 30.27 C38.36 29.1, 39.56 27.69, 41.7 25.46 M-0.06 29.03 C-0.06 29.03, -0.06 29.03, -0.06 29.03 M-0.06 29.03 C-0.06 29.03, -0.06 29.03, -0.06 29.03 M6.72 29.18 C5.16 27.57, 3.49 27, 1.06 24.53 M6.26 29.11 C4.85 28.09, 2.94 26.56, 0.56 24.27 M11 27.97 C9.49 26.78, 4.28 21.37, 1.49 17.73 M11.56 28.26 C7.84 24.92, 2.94 20.47, -0.81 17.89 M19.87 28.69 C12.64 24.27, 7.02 20.56, -0.12 14.75 M18.29 29.53 C15.46 27.02, 10.3 23.49, 1.18 12.7 M24.27 29.58 C15.51 23.76, 10.2 17.69, -0.62 9.52 M23.29 29.42 C16.3 22.17, 9.21 15.19, 0.08 7.47 M28.91 31 C22.57 22.82, 13.66 13.51, -0.16 4.4 M30.72 29.83 C18.34 18.57, 6.8 9.78, -0.52 2.41 M37.77 30.76 C23.56 18.69, 10.77 7.25, 1.54 -1.14 M36.72 28.5 C25.84 19.46, 16.35 11.5, 1.25 -1.32 M39.58 27.6 C29.69 15.46, 15.5 3.99, 8.53 -2.51 M41.52 28 C32.88 20.22, 24.05 12.04, 6.9 -1.98 M43.12 22.12 C33.82 14.62, 22.09 9.03, 14.59 -0.08 M41.19 22.18 C32.65 15.3, 25.39 8.89, 13.96 -1.9 M41.97 15.09 C31.52 10.03, 25.1 3.77, 18.34 -0.42 M40.98 15.99 C33.82 10.31, 25.4 3.53, 19.65 -1.16 M41.5 13.16 C37.65 8.51, 33.96 6.54, 25.64 -2.52 M40.7 12.69 C36.32 6.83, 30.35 2.24, 25.74 -2.36 M41.75 6.49 C39.06 4.98, 35.46 1.3, 32.33 -1.54 M40.82 6.77 C39.34 5.09, 36.45 3.32, 32.03 -1.13 M40.87 1.37 C40.73 0.6, 39.12 -0.33, 38.1 -1.5 M41.34 1.3 C40.32 0.43, 39.26 -0.19, 38.42 -1.18" stroke="#fa5252" stroke-width="0.5" fill="none"></path><path d="M1.06 -1.52 C10.83 0.51, 26.5 -0.28, 39.15 -1.72 M0.18 0.58 C11.19 -0.69, 23.71 -0.16, 40.38 -0.84 M39.93 -0.75 C40.79 10.58, 40.86 20.48, 42.03 30.75 M40.8 -0.98 C39.7 7.16, 39.93 15.83, 40.33 28.65 M38.83 29.3 C32.03 27.77, 21.95 30.52, 1.04 28.58 M39.42 30.07 C28.82 30.21, 19.43 28.81, -0.34 29.93 M-1.15 30.6 C1.8 24.66, 0.46 15.55, 0.92 0.83 M-0.27 28.16 C0.66 18.34, 0.71 7.04, -0.86 0.35" stroke="#000000" stroke-width="1" fill="none"></path></g><g stroke-linecap="round" transform="translate(204.19590835262852 352.27425037153944) rotate(0 20.025592226578283 14.539476850927258)"><path d="M0 0 C0 0, 0 0, 0 0 M0 0 C0 0, 0 0, 0 0 M-0.56 7.16 C1.5 4.91, 4.23 2.58, 4.94 0.42 M-0.65 6.45 C0.98 5.05, 1.77 3.42, 5.37 0.63 M-0.54 12.07 C3.8 9.66, 7.56 5.79, 10.45 0.86 M-0.46 12.18 C4.3 7.51, 9.04 2.4, 10.57 0.51 M1.38 17.69 C2.49 14.56, 7.51 8.32, 16.9 0.72 M-0.58 19.43 C4.93 12.48, 12.47 5.63, 14.67 -0.39 M0.89 24.83 C6.98 15.18, 11.46 10.68, 19.98 -1.35 M0.87 23.3 C7.74 15.33, 14.73 6.17, 21.58 0.01 M0.71 29.76 C12.54 17.83, 22.29 6.17, 24.84 0.42 M0.46 28.81 C8.1 21.14, 16.93 10.19, 27.11 0.1 M5.85 29.24 C14.93 20.85, 21.79 10.63, 30.53 0.85 M5.94 29.27 C14.54 21.69, 20.39 13.55, 31.33 -0.31 M9.39 29.13 C19.07 23.27, 24.96 14.83, 35.67 -0.97 M11.54 29.43 C18.2 21.9, 24.28 15.7, 37.83 -0.27 M17.17 29.01 C19.79 22.47, 27.25 17.71, 41.44 2.86 M16.21 30.61 C23 22.79, 29.12 13.52, 42.18 1.28 M20.27 30.76 C30.23 20.41, 34.43 15.01, 41.94 7.26 M21.53 29.73 C28.6 22.75, 35.78 13.32, 41.77 6.28 M28.01 29.81 C32.62 23.33, 36.68 16.15, 41.06 11.9 M26.25 29.09 C32.49 24.16, 39.27 16.69, 42.23 13.71 M31.91 30.41 C34.87 25.46, 40.29 21.97, 41.86 20.43 M33.09 30.24 C35.77 26.03, 38.85 21.76, 40.81 19.75 M37.59 30.23 C38.39 29.14, 39.82 27.7, 41.72 25.04 M37.52 29.74 C38.81 28.46, 39.79 27.21, 41.29 25.62 M-0.06 29.03 C-0.06 29.03, -0.06 29.03, -0.06 29.03 M-0.06 29.03 C-0.06 29.03, -0.06 29.03, -0.06 29.03 M6.95 29.69 C5.25 27.74, 3.86 26.07, -0.21 24.46 M6.36 29.47 C4.84 28.41, 4.16 26.93, 0.68 24.07 M11.96 28.81 C9.23 27.16, 5.8 25.38, -1.55 18.58 M11.95 29.28 C7.72 24.82, 3.7 20.62, 0.39 17.94 M18.52 28.85 C12.16 22.11, 5.17 15.96, 0.4 14.86 M18.64 29.16 C12.97 24.4, 6.03 19.08, 0.5 13.3 M22.21 30.05 C15.5 22.48, 5.4 14.48, -0.4 5.89 M23.04 28.35 C16.05 21.75, 8.95 15.58, -0.5 8.27 M28.91 29.86 C23.77 22.51, 12.26 13.8, -0.47 2.74 M29.83 29.9 C18.26 18.29, 6.98 8.78, 0.47 3.69 M37.47 28.07 C25.1 18.86, 14.61 11.18, 0.77 0.37 M37.09 29.44 C23.89 18.02, 8.83 5.26, 1.02 -0.68 M39.46 28.42 C29.83 19.23, 16.2 8.54, 9.65 -0.03 M41.52 27.37 C28.47 16.6, 13.75 4.44, 7.9 -1.56 M40.41 21.62 C34 17.97, 30.76 12.32, 14.13 -3.17 M41.23 22.38 C35.84 16.76, 28.09 11.82, 12.47 -1.7 M42.6 17.57 C32.82 10.4, 29.04 4.28, 20.95 -2.92 M39.99 16.18 C36.43 11.9, 30.95 7.08, 19.24 -0.72 M42.01 13.15 C39.18 10.94, 36.24 4.95, 24.05 -2.48 M41.71 11.8 C37.12 9.19, 34.82 5, 25.86 -2.73 M41.46 7.27 C36.46 2.69, 33.9 1.31, 32.9 -0.73 M41.19 5.97 C38.32 4.61, 35.97 3.09, 31.72 -1.59 M41.3 1.52 C40.41 0.46, 38.92 -0.48, 38.13 -1.24 M41.34 1.21 C40.46 0.85, 39.99 0.2, 38.34 -1.46" stroke="#fab005" stroke-width="0.5" fill="none"></path><path d="M-1.6 -1.94 C10.42 0.51, 19.36 0.6, 38.18 -0.97 M-0.68 -0.93 C11.7 -0.52, 22.45 -0.01, 39.76 -0.46 M40.33 -0.62 C38.82 5.18, 38.09 15.04, 38.6 28.07 M40.72 -0.62 C40.15 7, 40.66 14.8, 40.84 28.09 M38.31 27.94 C32.54 31.03, 23.27 28.34, -0.57 28.77 M40.63 30.04 C31.96 28.33, 22.51 29.94, -0.3 28.22 M1.59 30.41 C0.57 23.5, -1.4 17.46, -1.03 0.49 M0.06 29.96 C0.57 22.5, 0.39 17.95, 0.23 0.49" stroke="#000000" stroke-width="1" fill="none"></path></g><g stroke-linecap="round" transform="translate(205.62437198318867 409.48982568870815) rotate(0 20.025592226578283 14.539476850927258)"><path d="M0 0 C0 0, 0 0, 0 0 M0 0 C0 0, 0 0, 0 0 M-0.78 7.13 C1.5 4.36, 3.83 2.34, 5.44 0.38 M-0.04 6.51 C0.86 4.63, 1.94 3.95, 5.06 0.06 M0.78 10.53 C3.85 7.27, 8.29 3.71, 9.18 0.84 M0.24 11.46 C2.22 9.2, 5.7 6.94, 10.2 0.69 M0.09 19.08 C1.84 13.54, 8.9 10.82, 16.32 0.5 M0.85 19.36 C4.01 13.93, 8.52 9.43, 16.49 0.84 M1.73 24.02 C9.59 13.65, 15.22 3.88, 21.45 0.24 M0.21 24.06 C6.57 17.16, 12.98 9.75, 20.29 -0.74 M1.98 31.51 C9.19 19.05, 22.82 4.83, 25.61 1.11 M-0.31 30.02 C8.35 20.36, 16.6 11.83, 26.47 -0.55 M6.06 29.58 C15.74 19.63, 23.15 9.9, 31.08 -1.8 M6.19 29.65 C13.19 19.73, 20.97 13.05, 32.72 -0.15 M10.26 28.37 C20.17 19.26, 29.58 5.87, 38.71 -0.1 M11.58 30.33 C21.2 19.86, 29.66 8.52, 36.81 -0.47 M14.65 28.76 C22.92 23.66, 29.02 15.86, 42.88 0.37 M16.94 29.46 C24.9 19.49, 33.85 9.9, 40.9 1.15 M23.54 30.9 C28.32 24.59, 29.5 17.37, 41.92 5.82 M22.51 29.58 C25.59 25.21, 31.81 19.58, 41.56 7.74 M26.45 29.49 C33.56 25.2, 38.29 17.9, 42.92 12.21 M26.16 30.11 C30.27 26.68, 32.9 22.83, 42.03 12.92 M33.35 29.55 C35.89 25.77, 39.07 22.32, 40.12 20.45 M32.56 29.56 C34.29 27.83, 36.17 25.24, 41.41 19.23 M37.83 29.75 C39.03 28.23, 40.59 26.36, 41.59 25.04 M37.79 30.27 C38.79 28.59, 40.05 27.2, 41.22 25.34 M-0.06 29.03 C-0.06 29.03, -0.06 29.03, -0.06 29.03 M-0.06 29.03 C-0.06 29.03, -0.06 29.03, -0.06 29.03 M6.28 28.93 C4.12 28.24, 3.92 26.97, -0.08 24 M6.7 29.46 C4.5 28.31, 3.15 26.38, 0.58 24.2 M12.54 30.15 C8.5 24.51, 3.01 20.67, -1.32 17.99 M11.83 28.55 C8.82 26.27, 5.87 23.91, -0.68 18.29 M19.32 29.94 C11.92 25.87, 8.91 22.19, -1.7 13.93 M17.53 29.69 C11.69 22.91, 4.51 17.28, -0.64 13.17 M25.99 28.69 C15.55 20.93, 7.47 15.62, 0.99 7.44 M23.63 28.23 C15.96 21.29, 8.56 14.16, -1 7.97 M30.82 27.46 C25.83 24.22, 16.38 17.47, 1.52 1.69 M29.93 28.18 C18.88 18.7, 9.68 9.78, 0.71 2.24 M35.87 30.32 C28.64 22.58, 20.27 15.53, 2.69 -3.04 M36.16 29.76 C29.15 21.76, 19.98 15.16, 2.2 -2.16 M42.92 26.3 C30.77 19.56, 17.07 7.23, 8.03 0.7 M41.16 27.49 C28.33 15.56, 14.3 5.25, 6.9 -0.31 M42.72 24.38 C33.71 16.94, 27.43 9.84, 13.73 -0.51 M41.68 21.66 C34.04 15, 24.96 9.27, 13.27 -1.88 M41.76 17.75 C34.34 11.86, 24.51 5.19, 21.76 -0.27 M40.63 17.09 C35.29 11.68, 28.18 6.75, 19.5 -1.87 M43.26 11.57 C37.75 7.34, 34.85 6.07, 24.27 -0.49 M41.54 11.43 C34.33 6.16, 29.44 1, 25.36 -2.29 M40.73 6.52 C38.3 3.15, 33.93 0.57, 32.32 -1.36 M41.31 6.9 C38.2 4.01, 35.69 1.87, 32.42 -1.47 M41.5 1.41 C40.64 0.25, 39.5 -0.23, 38.43 -1.07 M41.41 1.26 C39.93 0.34, 39.04 -0.67, 38.41 -1.21" stroke="#fd7e14" stroke-width="0.5" fill="none"></path><path d="M1.97 -1.62 C14.62 1.25, 27.78 0.54, 38.22 0.52 M0.24 0.17 C13.46 0.52, 26.69 -0.24, 39.57 -0.7 M40.11 0.08 C39.09 12.91, 39.59 23.66, 41.99 30.24 M39.57 -0.92 C39.11 8.7, 40.19 17.01, 39.21 28.23 M39.07 30.82 C23.38 29.18, 8.75 31.07, 0.89 30.94 M39.42 28.18 C27.76 29.6, 16.99 29.46, 0.91 28.57 M-0.7 29.53 C1.31 19.82, -1.7 12.89, -0.55 -0.74 M0.43 29 C-0.51 19.49, -0.93 8.84, 0.67 0.99" stroke="#000000" stroke-width="1" fill="none"></path></g><g stroke-linecap="round" transform="translate(266.4177469021679 354.5112990218572) rotate(0 20.025592226578283 14.539476850927258)"><path d="M0 0 C0 0, 0 0, 0 0 M0 0 C0 0, 0 0, 0 0 M0.41 6.22 C1.06 3.5, 4.06 1.34, 4.87 -0.38 M-0.43 6.06 C1.16 4.44, 2.75 2.71, 5.12 0.11 M-0.27 11.45 C3.94 9.59, 4.56 7.21, 9.53 1.47 M0.81 11.26 C3.32 8.36, 7.03 4.29, 11.27 0.56 M0.7 19.84 C3.75 11.02, 9.38 5.15, 16.58 0.36 M0.22 18.85 C5.91 12.01, 10.83 6.51, 16.1 1.12 M0.24 22.8 C8.12 17.42, 11.2 9.19, 21.24 1.84 M0.31 25.02 C5.74 17.87, 11.18 10.68, 20.39 -0.43 M0.08 28.97 C6.17 22.34, 15.89 10.22, 26.4 1.37 M-0.26 29.05 C7.44 23.07, 14.67 14.33, 26.37 0.29 M7.22 28.63 C14.42 21.09, 20.04 14.2, 32.08 0.28 M6.51 30.24 C12.38 21.46, 19.25 15.89, 30.89 0.57 M11.68 30.18 C17.46 24.88, 22.92 16.2, 36.87 1.22 M11.64 28.82 C17.6 22.29, 22.36 16.63, 36.82 0.35 M15.31 28.74 C22.37 22.79, 27.17 15.61, 40.92 0.58 M15.32 29.09 C24.63 20.47, 31.51 11.91, 41.47 1.18 M20.13 30.71 C27.32 22.93, 34.53 11.64, 40.3 6.85 M22.91 30.46 C25.89 24.38, 30.29 18.97, 42.52 6.97 M25.45 29.06 C33.68 23.42, 35.36 16.62, 39.86 14.22 M27.42 29.21 C33.06 23.18, 37.99 16.46, 42.33 14.2 M31.8 30.51 C36.19 26.84, 38.33 22.33, 42.36 18.75 M32.6 29.03 C35.96 25.95, 38.75 21.69, 41.23 19.92 M37.28 29.69 C38.39 28.96, 39.65 27.32, 41.49 25.48 M37.78 30.27 C38.7 28.78, 39.59 27.37, 41.33 25.18 M-0.06 29.03 C-0.06 29.03, -0.06 29.03, -0.06 29.03 M-0.06 29.03 C-0.06 29.03, -0.06 29.03, -0.06 29.03 M6.37 30.01 C4.56 28.05, 4.15 26.58, 0.02 24.22 M6.5 29.18 C3.94 27.53, 1.9 25.63, 0.47 24.01 M13.48 29.97 C10.4 24.6, 4.59 23.52, -1.24 18.08 M11.35 28.19 C8.44 24.91, 3.43 22.39, -0.08 19.08 M18.41 28.21 C10.87 24.13, 5.62 19.75, -1.04 15.25 M18.39 29.72 C12.91 23.83, 7.48 19.94, 0.83 13.7 M25.71 29.11 C15.96 24.48, 10.32 17.7, 0.68 5.88 M24.67 27.86 C17.88 22.26, 11.1 16.98, 0.01 7.04 M31.63 27.94 C24.29 21.27, 14.12 14.57, 0.45 3.42 M30.99 29.37 C24.4 23.25, 17.52 17.9, 1.21 3.7 M35.98 31.02 C26.4 21.52, 12.79 8, 2.82 -1.61 M36.19 29.38 C24.91 18.47, 13.29 7.49, 1.29 -1.57 M42.29 25.64 C29.7 20.98, 21.12 11.32, 9.07 0.5 M40.24 27.26 C33.98 21.78, 26.48 15.74, 6.77 -0.99 M43.06 23.03 C32.32 16.52, 25.24 11.16, 13.14 -1.43 M41.02 22.19 C30.57 13.88, 20.74 6.38, 13.27 -1.36 M42.54 18.62 C36.05 14.38, 31.79 9.92, 18.75 -2.74 M40.55 17.86 C35.32 12.78, 30.67 8.3, 20.07 -0.79 M41.69 11.82 C33.62 5.87, 28.8 -0.16, 23.8 -3.11 M41.51 12.8 C35.83 8.11, 30.76 3.47, 26.1 -2.41 M40.15 5.95 C38.02 3.31, 36.3 2.23, 32.8 -0.81 M40.47 6.41 C36.96 2.81, 34.32 -0.06, 32.18 -1.6 M41.56 1.31 C40.87 1.01, 39.88 0.07, 38.13 -1.4 M41.2 1.49 C39.97 0.23, 39.07 -0.81, 38.08 -1.28" stroke="#82c91e" stroke-width="0.5" fill="none"></path><path d="M-1.72 -1.38 C10.13 1.39, 25.64 -0.91, 39.64 0.78 M-0.27 0.85 C13.87 0.89, 29.01 -0.66, 40.64 -0.76 M39.33 0.69 C40.03 7.34, 40.95 14.38, 41.71 28.84 M40.86 -0.51 C39.04 8.49, 40.15 15.38, 40.94 29.35 M38.67 28.71 C26.71 29.8, 14.46 28.83, 0.14 29.05 M39.82 28.79 C25.75 28.48, 11.81 29.82, 0.75 29.22 M-1.52 27.87 C0.77 18.49, 0.19 10.86, 1.18 0.29 M0.42 29.18 C-0.19 21.14, 0.78 10.91, -0.8 0.41" stroke="#000000" stroke-width="1" fill="none"></path></g><g stroke-linecap="round" transform="translate(132.76743563929767 280.2922201841261) rotate(0 91.34758718985745 86.15450369733821)"><path d="M-1.03 -1.32 C70.02 -0.26, 140.49 -2.22, 184.53 -0.36 M0.29 0.64 C66.59 -0.4, 131.6 -1.14, 182.62 -0.72 M181.07 -1.29 C182.69 45.43, 182.34 89.66, 184.37 171.3 M183.36 -0.59 C181.45 57.89, 181.9 116.75, 182.39 172.08 M184.31 173.55 C140.89 173.5, 93.73 171.69, 0.31 171.12 M183.28 172.24 C137.77 172.85, 95.18 172.68, -0.04 173.03 M-0.46 171.79 C1.73 112.32, 1.35 49.9, 1.58 -1.2 M-0.75 172.4 C-0.86 132.15, -1.63 91.6, 0.69 -0.49" stroke="#000000" stroke-width="1" fill="none"></path></g><g stroke-linecap="round"><g transform="translate(161.83503637453168 352.9889101259723) rotate(0 62.15428507389947 -11.444863890304987)"><path d="M-1.43 -1.14 C5.15 -7.96, 11.58 -12.64, 25.86 -27.22 M25.2 -28.24 C39.02 -14.96, 51.48 -6.54, 60.92 -1.61 M61.77 -0.79 C72.83 -7.14, 86.84 -17.23, 102.9 -27.14 M102.13 -24.36 C107.27 -20.22, 114.11 -12.74, 125.74 5.35" stroke="#000000" stroke-width="1.5" fill="none" stroke-dasharray="1.5 7"></path></g></g><mask></mask><g stroke-linecap="round"><g transform="translate(165.20022367592446 387.77146251373506) rotate(0 21.328192720653533 15.336353574966097)"><path d="M1.16 -1.86 C9.64 6.81, 16.53 15.4, 41.5 32.54" stroke="#000000" stroke-width="1.5" fill="none" stroke-dasharray="1.5 7"></path></g></g><mask></mask><g stroke-linecap="round"><g transform="translate(224.55889864482788 383.55438241819365) rotate(0 2.665103843908355 10.156184467694175)"><path d="M1.05 -1.04 C2.43 5.53, 1.51 8.98, 4.28 21.35" stroke="#000000" stroke-width="1.5" fill="none" stroke-dasharray="1.5 7"></path></g></g><mask></mask><g stroke-linecap="round"><g transform="translate(283.99853027999734 385.9914552425057) rotate(0 -17.72334424812925 17.28199217252245)"><path d="M-0.87 -0.94 C-11.3 12.08, -25.84 23.09, -34.58 35.5" stroke="#000000" stroke-width="1.5" fill="none" stroke-dasharray="1.5 7"></path></g></g><mask></mask><g stroke-linecap="round"><g transform="translate(183.98678974518225 368.39527553204925) rotate(0 9.169527359781796 0.7422606210652702)"><path d="M-0.8 1.14 C8 -1.09, 15.72 2.18, 19.14 0.79" stroke="#000000" stroke-width="1.5" fill="none" stroke-dasharray="1.5 7"></path></g></g><mask></mask><g stroke-linecap="round"><g transform="translate(244.01875624664126 367.9868543476782) rotate(0 12.06721599144862 -1.9152981892179923)"><path d="M-0.82 -1.94 C8.6 -1.02, 20.34 -2.86, 24.95 -1.84" stroke="#000000" stroke-width="1.5" fill="none" stroke-dasharray="1.5 7"></path></g></g><mask></mask><g stroke-linecap="round"><g transform="translate(167.21145377508765 73.16293078336685) rotate(0 46.01727287981498 -6.644210581720699)"><path d="M0 0 C5.85 -2.21, 19.76 -12.92, 35.1 -13.28 C50.44 -13.64, 82.55 -4.01, 92.03 -2.16 M0 0 C5.85 -2.21, 19.76 -12.92, 35.1 -13.28 C50.44 -13.64, 82.55 -4.01, 92.03 -2.16" stroke="#000000" stroke-width="1" fill="none"></path></g><g transform="translate(167.21145377508765 73.16293078336685) rotate(0 46.01727287981498 -6.644210581720699)"><path d="M63.21 1.07 C72.63 0.02, 82.04 -1.04, 92.03 -2.16 M63.21 1.07 C71.09 0.19, 78.98 -0.7, 92.03 -2.16" stroke="#000000" stroke-width="1" fill="none"></path></g><g transform="translate(167.21145377508765 73.16293078336685) rotate(0 46.01727287981498 -6.644210581720699)"><path d="M67.88 -18.21 C75.77 -12.97, 83.66 -7.72, 92.03 -2.16 M67.88 -18.21 C74.48 -13.82, 81.09 -9.43, 92.03 -2.16" stroke="#000000" stroke-width="1" fill="none"></path></g></g><mask></mask><g stroke-linecap="round"><g transform="translate(259.82328730424615 97.22424940724386) rotate(0 -45.7731415806727 -1.6759476357176482)"><path d="M0 0 C-8.43 0.46, -35.34 3.79, -50.6 2.74 C-65.86 1.69, -84.72 -4.79, -91.55 -6.29 M0 0 C-8.43 0.46, -35.34 3.79, -50.6 2.74 C-65.86 1.69, -84.72 -4.79, -91.55 -6.29" stroke="#000000" stroke-width="1" fill="none"></path></g><g transform="translate(259.82328730424615 97.22424940724386) rotate(0 -45.7731415806727 -1.6759476357176482)"><path d="M-70.66 -8.09 C-75.45 -7.68, -80.24 -7.27, -91.55 -6.29 M-70.66 -8.09 C-76.87 -7.56, -83.08 -7.02, -91.55 -6.29" stroke="#000000" stroke-width="1" fill="none"></path></g><g transform="translate(259.82328730424615 97.22424940724386) rotate(0 -45.7731415806727 -1.6759476357176482)"><path d="M-74.39 5.76 C-78.33 2.99, -82.26 0.22, -91.55 -6.29 M-74.39 5.76 C-79.49 2.17, -84.59 -1.41, -91.55 -6.29" stroke="#000000" stroke-width="1" fill="none"></path></g></g><mask></mask><g stroke-linecap="round"><g transform="translate(108.67222403602955 142.41255631182594) rotate(0 24.046503046500675 29.852667023951653)"><path d="M0 0 C-0.01 9.37, -8.7 47.31, -0.04 56.24 C8.63 65.18, 43.3 54.04, 51.97 53.6 M0 0 C-0.01 9.37, -8.7 47.31, -0.04 56.24 C8.63 65.18, 43.3 54.04, 51.97 53.6" stroke="#000000" stroke-width="1" fill="none"></path></g><g transform="translate(108.67222403602955 142.41255631182594) rotate(0 24.046503046500675 29.852667023951653)"><path d="M29.5 66.76 C35.83 63.06, 42.16 59.35, 51.97 53.6 M29.5 66.76 C37.25 62.23, 44.99 57.69, 51.97 53.6" stroke="#000000" stroke-width="1" fill="none"></path></g><g transform="translate(108.67222403602955 142.41255631182594) rotate(0 24.046503046500675 29.852667023951653)"><path d="M26.3 49.24 C33.53 50.47, 40.76 51.7, 51.97 53.6 M26.3 49.24 C35.15 50.75, 44 52.25, 51.97 53.6" stroke="#000000" stroke-width="1" fill="none"></path></g></g><mask></mask><g stroke-linecap="round"><g transform="translate(221.28671863206546 231.43748475960228) rotate(0 0.8015823304554033 22.980532811985313)"><path d="M0 0 C0.26 5.1, 1.3 22.96, 1.53 30.62 C1.76 38.28, 1.39 43.4, 1.36 45.96 M0 0 C0.26 5.1, 1.3 22.96, 1.53 30.62 C1.76 38.28, 1.39 43.4, 1.36 45.96" stroke="#000000" stroke-width="1" fill="none"></path></g><g transform="translate(221.28671863206546 231.43748475960228) rotate(0 0.8015823304554033 22.980532811985313)"><path d="M-1.04 38.67 C-0.36 40.73, 0.31 42.78, 1.36 45.96 M-1.04 38.67 C-0.26 41.04, 0.52 43.41, 1.36 45.96" stroke="#000000" stroke-width="1" fill="none"></path></g><g transform="translate(221.28671863206546 231.43748475960228) rotate(0 0.8015823304554033 22.980532811985313)"><path d="M4.2 38.83 C3.4 40.84, 2.6 42.86, 1.36 45.96 M4.2 38.83 C3.28 41.15, 2.35 43.47, 1.36 45.96" stroke="#000000" stroke-width="1" fill="none"></path></g></g><mask></mask><g stroke-linecap="round"><g transform="translate(219.68214167570386 236.42063482668527) rotate(0 0.8108875805985463 -2.3343713136478073)"><path d="M0 0 C0.27 -0.78, 1.35 -3.89, 1.62 -4.67 M0 0 C0.27 -0.78, 1.35 -3.89, 1.62 -4.67" stroke="#000000" stroke-width="1" fill="none"></path></g></g><mask></mask><g stroke-linecap="round"><g transform="translate(221.37623962964835 231.42167728396862) rotate(0 1.2415126441446773 2.131029072558931)"><path d="M0 0 C0.41 0.71, 2.07 3.55, 2.48 4.26 M0 0 C0.41 0.71, 2.07 3.55, 2.48 4.26" stroke="#000000" stroke-width="1" fill="none"></path></g></g><mask></mask><g transform="translate(104.04092618145023 474.69573953964755) rotate(0 124 10)"><text x="124" y="14" font-family="Virgil, Segoe UI Emoji" font-size="16px" fill="#000000" text-anchor="middle" style="white-space: pre;" direction="ltr">fig. simplicity 101 with blockchain</text></g></svg>