<svg version="1.1" xmlns="http://www.w3.org/2000/svg" viewBox="0 0 462.91171511123457 390.9811234969343" width="462.91171511123457" height="390.9811234969343">
  <!-- svg-source:excalidraw -->
  
  <defs>
    <style class="style-fonts">
      @font-face {
        font-family: "Virgil";
        src: url("https://excalidraw.com/Virgil.woff2");
      }
      @font-face {
        font-family: "Cascadia";
        src: url("https://excalidraw.com/Cascadia.woff2");
      }
    </style>
  </defs>
  <g stroke-linecap="round" transform="translate(10 10) rotate(0 221.45585755561729 185.49056174846714)"><path d="M1.42 1.03 C128.26 -0.78, 257.84 -2.69, 443.5 1.77 M0.41 -0.28 C107.8 -3.24, 213.3 -3.79, 442.89 -0.87 M445.24 -1.41 C446.04 100.64, 448.84 201.16, 445.09 371.44 M442.2 -0.17 C446.54 134.57, 447.1 268.44, 442.66 370.4 M444.68 371.43 C271.08 366.37, 103.44 365.36, 0.2 369.74 M443.15 371.41 C299.72 369.77, 154.37 368.44, -0.79 370.55 M-1.02 371.58 C-2.26 278.03, 1.88 186.47, 0.59 1.88 M-0.8 370.37 C-0.98 255.86, -1.65 141.98, 0.16 -0.55" stroke="#000000" stroke-width="1" fill="none"></path></g><g stroke-linecap="round" transform="translate(264.3474625777203 26.704473751185105) rotate(0 55.22225050604288 55.22225050604311)"><path d="M20.09 13.49 C20.09 13.49, 20.09 13.49, 20.09 13.49 M20.09 13.49 C20.09 13.49, 20.09 13.49, 20.09 13.49 M4.2 38.46 C15.2 27.81, 23.52 15.09, 30.62 6.96 M4.72 37.26 C14.62 26.06, 23.79 15.81, 28.82 8.71 M5.07 44.42 C17.51 30.35, 25.27 17.82, 38.25 3.05 M4.35 44.07 C13.2 34.72, 22.25 24.54, 38.66 4.26 M4.68 48.22 C19.06 32.19, 38.27 13.53, 46.46 1.86 M4.24 50.42 C19.58 32.4, 33.83 16.26, 47.57 1.75 M4.96 57.46 C23.98 33.28, 39.39 12.82, 51.84 4.02 M4.29 56.76 C13.93 45.12, 24.55 34.65, 51.43 2.1 M5.08 62.03 C14.11 51.67, 27.37 36.31, 56.48 3.41 M3.05 63.13 C24.5 38.6, 46.77 13.85, 56.47 3.33 M5.1 70.33 C24.54 42.48, 44.72 18.25, 61.07 3.49 M4.88 67.94 C24.28 46.02, 43.19 24.53, 62 3.33 M4.26 71.04 C24.38 51.69, 43.77 32.42, 64.54 4.99 M5.75 72.21 C26.93 48.28, 50.52 22.59, 65.45 4.12 M6.73 75.65 C19.3 60.57, 32.06 47.03, 68.97 4.64 M8.48 76.58 C30.74 48.96, 55.09 21.26, 70.89 5.05 M9.25 78.67 C28.47 56.07, 46.43 35.78, 74.73 4.74 M9.87 80.03 C29.62 58.32, 48.38 34.62, 75.52 4.85 M11.38 82.87 C29.87 62.96, 44.64 45.31, 80.74 4.61 M12.49 83.67 C29.31 64.17, 47.85 44.3, 79.56 5.61 M13.3 86.34 C33.23 68.87, 51.19 44.98, 82.1 10.61 M13.91 88.21 C39.13 58.7, 65.85 28.96, 81.32 9.28 M15.36 90.17 C38.01 65.85, 57.73 41.54, 87.79 10.59 M15.84 92.21 C36.22 69.68, 56.05 46.51, 86.4 10.64 M19.78 92.97 C44.7 67.09, 69.67 38.16, 88.38 14.74 M19.24 95.09 C33.29 75.1, 49.13 56.99, 88.95 14.61 M22.4 95.67 C37.33 80.4, 52.87 60.95, 92.29 14.47 M21.63 96.39 C44.79 72.35, 66.08 46.92, 93.35 15.71 M23.56 97.96 C42.2 78.18, 63.62 59.16, 95.53 17.54 M25.46 98.77 C52.59 67.73, 78.74 37.02, 95.5 17.58 M26.5 100.06 C57.68 68.25, 84.84 39.48, 97.3 19.68 M27.99 102.23 C55.56 69.86, 83.47 37.67, 97.94 21.19 M29.69 102.73 C56.52 75.81, 81.78 47.99, 99.04 26.19 M31.13 104.63 C56.34 73.25, 84.3 44.44, 100.34 24.92 M33.81 107.76 C55.97 81.23, 78.21 54.96, 100.05 27.64 M33.92 106.69 C59 77.35, 83.28 49.22, 102.67 28.71 M38.07 109.96 C50.25 93.12, 67.74 73.03, 104.53 33.36 M38.39 108.51 C59.85 83.02, 83.15 57.25, 103.7 34.12 M41.9 111.17 C61.15 87.24, 80.3 61.72, 106.55 38.24 M42.65 110.01 C55.9 93.9, 68.82 77.99, 105.53 35.59 M46.66 111.28 C65.56 91.4, 79.75 71.47, 106.44 38.69 M48.19 108.5 C70.15 86.08, 90.31 61.8, 107.39 40.89 M53.91 109.45 C68.65 93.14, 81.96 76.11, 109.04 45.91 M53.65 110.4 C69.92 89.73, 88.08 68.42, 109.5 44.95 M58.42 110.87 C73.58 91.4, 94.25 68.55, 108.77 53.12 M57.25 110.48 C71.48 94.7, 83.96 79.54, 109.54 51.5 M65.82 109.26 C77.66 91.34, 95.27 72.49, 107.25 57.58 M64.04 108.85 C74.01 97.62, 84.33 86.98, 107.82 57.66 M74.32 105.38 C81.46 92.1, 92.06 82.7, 108.32 66.06 M73.02 106.02 C83.78 91.82, 94.63 81.15, 107.81 65.9 M80.35 101.5 C88.3 91.03, 97.43 84.8, 109.02 71.39 M82.4 101.82 C88.98 94.25, 94.44 87.83, 106.58 71.06 M91.58 96.22 C96.78 90.84, 103.55 82.45, 109.28 74.89 M89.99 98.74 C96.76 91.76, 101.68 84.43, 110.02 75.3 M13.92 90.68 C13.92 90.68, 13.92 90.68, 13.92 90.68 M13.92 90.68 C13.92 90.68, 13.92 90.68, 13.92 90.68 M37.01 105.78 C27.84 99.56, 18.1 89.61, 8.27 79.33 M36.94 106.45 C29.26 100.8, 22.98 93.09, 9.15 80.49 M43.03 105.9 C32.82 95.28, 21.6 85.55, 2.9 70.85 M44.06 106.45 C35.02 97.79, 24.21 90.1, 3.78 72.34 M51.02 106.94 C36.11 92.03, 22.3 79.23, 3.46 65.4 M51.04 106.74 C37.38 95.28, 23.43 82.07, 2.51 63.8 M55.04 106.37 C35.22 90.8, 17.17 72.19, 3.23 59.32 M56.72 107.81 C38.99 92.24, 21.94 76.21, 2.69 59.68 M63.91 109.25 C50.32 94.93, 39.34 86.19, 2.21 54.93 M64.09 109.11 C42.53 88.99, 21.64 71.09, 3.32 54.63 M67.85 106.05 C49.43 90.59, 34.77 77.49, 1.88 48.8 M68.51 107.24 C43.7 84.66, 19.28 64.57, 3.28 49.85 M73.36 103.34 C52.62 90.46, 35.93 72.42, 1.19 42.13 M74.01 105.34 C46.65 81.99, 22.74 59.91, 2.86 44 M77.4 101.73 C54.47 83.03, 34.13 66.18, 2.56 40.34 M77 103.35 C48.36 78.03, 18.6 52.31, 3.25 39.32 M81.37 99.44 C60.83 82.78, 41.53 65.86, 2.37 34.2 M79.78 100.15 C65.43 87.94, 51.01 74.82, 4.49 33.19 M85.16 99.96 C57.62 75.58, 27.66 51.85, 7.24 29.37 M84.05 99.73 C58.16 75.88, 31.87 52.58, 5.31 30.23 M89.64 97.05 C67.75 79.83, 49.1 64.25, 9.48 28.86 M88.88 96.7 C62.39 74.83, 36.95 50.54, 8.05 27.22 M94.62 94.45 C60.34 66, 29.67 42.13, 12.88 23.91 M92.24 96.44 C63.63 68.32, 30.74 41.44, 11.93 24.52 M94.88 92.19 C72.19 74.48, 53.61 54.79, 13.45 21.07 M94.49 91.97 C63.3 66.19, 32.85 38.82, 13.34 21.63 M98.69 90.19 C68.17 64.24, 34.3 36.65, 17.67 18.5 M98.38 90.01 C78.23 72.22, 60.77 56.13, 15.54 17.95 M101.04 84.69 C66.11 55.24, 33.12 30.51, 20.49 13.6 M99.81 85.97 C69.15 59.66, 40.2 33.17, 18.2 14.99 M102.12 83.86 C75.88 60.8, 49.09 40.23, 19.83 12.1 M101.83 81.96 C71.45 57.04, 41.48 30.81, 21.37 11.9 M104.35 79.52 C73.5 52.82, 45.06 29.92, 24.08 8.98 M103.08 79.11 C81.57 60.85, 59.56 41.16, 24.48 10.91 M104.61 76.74 C90.11 62.11, 72.53 44.84, 29.08 8.2 M105.65 75.61 C82.07 54.79, 58.49 33.91, 28.86 7.57 M107.02 72.86 C84.4 51.81, 65.05 34.19, 32.67 6.31 M109.24 72.26 C87.71 54.96, 68 36.94, 33.75 6.82 M110.13 67.23 C82.56 46.06, 58.35 26.4, 34.87 3.5 M107.94 66.69 C89.3 51.46, 71.27 33.67, 35.98 4.58 M110.99 62.07 C84.35 42.82, 61.07 19.31, 38.97 1.86 M109.74 62.74 C89.32 46.41, 70.82 28.9, 40.57 2.52 M108.61 56.93 C88.43 38.19, 65.05 19.86, 45.17 1.81 M109.51 57.38 C92.08 42.83, 73.47 27.92, 43.92 0.94 M109.24 51.61 C92.84 35.58, 72.38 18.37, 47.93 -2.96 M109.79 52.19 C97.06 39.99, 84.87 28.66, 48.55 -1.74 M109.3 47.22 C93.49 32.03, 75.64 14.51, 56.19 0.11 M109.22 46.86 C92.3 32.16, 73.4 15.47, 54.91 -0.92 M111.23 43.8 C93.68 26.44, 76.85 12.73, 62.82 -0.34 M111.86 43.36 C93.32 27.01, 76.83 13.03, 62.3 -0.08 M107.63 35.4 C97.59 27.13, 90.72 19.74, 66.9 -0.78 M106.87 35.49 C99.72 27.4, 92.54 21.61, 68.66 0.5 M104.13 24.92 C95.72 18.1, 83.99 5.78, 76.79 2.24 M104.85 26.23 C93.34 16.67, 83.25 8.91, 77.11 1.32" stroke="#a3aefd" stroke-width="0.5" fill="none"></path><path d="M74.93 3.93 C83.55 6.06, 92.4 12.82, 98.04 19.72 C103.67 26.62, 107.24 36.36, 108.73 45.33 C110.21 54.3, 109.74 64.95, 106.92 73.53 C104.1 82.11, 98.94 90.91, 91.81 96.79 C84.69 102.66, 73.53 106.98, 64.17 108.8 C54.81 110.62, 44.11 110.76, 35.68 107.7 C27.25 104.63, 19.34 97.35, 13.59 90.39 C7.83 83.43, 3.01 75.03, 1.15 65.92 C-0.7 56.82, -0.69 44.51, 2.46 35.78 C5.61 27.04, 12.86 19.44, 20.06 13.52 C27.25 7.61, 36.28 1.95, 45.61 0.28 C54.95 -1.39, 70.57 2.63, 76.08 3.48 C81.58 4.34, 79 4.52, 78.64 5.41 M59.5 0.5 C68.15 0.33, 78.17 3.7, 85.57 9 C92.97 14.3, 99.92 23.98, 103.91 32.33 C107.9 40.67, 109.91 49.8, 109.5 59.07 C109.1 68.33, 106.44 80.02, 101.49 87.91 C96.54 95.8, 88.43 102.44, 79.8 106.39 C71.17 110.34, 59.26 112.63, 49.72 111.6 C40.18 110.58, 30.2 105.72, 22.56 100.26 C14.92 94.79, 7.68 86.93, 3.9 78.8 C0.12 70.67, -0.99 60.86, -0.11 51.48 C0.78 42.1, 4.04 30.46, 9.21 22.54 C14.37 14.61, 22.7 7.83, 30.88 3.93 C39.07 0.03, 53.62 -0.23, 58.3 -0.87 C62.97 -1.51, 58.85 -0.76, 58.95 0.09" stroke="#000000" stroke-width="1" fill="none"></path></g><g transform="translate(298.0697130837634 69.42672425722867) rotate(0 21.5 12.5)"><text x="21.5" y="18" font-family="Virgil, Segoe UI Emoji" font-size="20px" fill="#000000" text-anchor="middle" style="white-space: pre;" direction="ltr">DNS</text></g><g stroke-linecap="round" transform="translate(58.79637152790565 221.7508171769332) rotate(0 57.32966042055932 35.53046255029403)"><path d="M0 0 C0 0, 0 0, 0 0 M0 0 C0 0, 0 0, 0 0 M-0.8 6.9 C2.08 3.65, 3.92 2.57, 5.61 0.55 M-0.09 6.75 C1.39 5.05, 2.27 2.91, 4.67 0.19 M0.34 10.47 C3.84 7.32, 7.03 4.71, 11.49 -1.63 M-0.17 12.26 C3.18 8.05, 6.96 5.65, 10.86 0.35 M-1.6 17.57 C4.71 9.91, 10.49 3.93, 17.4 1.57 M-0.32 18.82 C5.4 12.03, 10.14 6.81, 15.65 -0.07 M-0.35 23.77 C4.73 15.29, 14.05 8.25, 21.85 1.79 M0.41 24.72 C4.98 18.88, 9.71 13.38, 20.63 0.78 M0.97 28.59 C4.4 21.77, 13.24 15.34, 27.83 0.09 M0.96 30.07 C5.8 23.56, 11.63 15.07, 27.14 1.03 M0.37 37.97 C8.99 26.43, 18.79 14.78, 30.99 0.17 M-0.06 37.27 C6.06 29.06, 12.98 21.05, 31.2 -0.19 M2.07 43.13 C14.46 27.77, 25.74 13.02, 37.55 -0.95 M0.09 42.79 C13.63 27.02, 24.79 13.52, 36.88 0.86 M1.55 47.83 C11.75 35.48, 24.25 19.67, 40.59 -2 M0.84 49.04 C13.56 33.59, 27.55 17.52, 41.97 0.02 M1.15 56.1 C11.08 43.12, 25.1 29.67, 45.77 1.62 M-0.61 54.46 C11.99 40.76, 23.47 29.65, 47.31 0.76 M-0.23 59.26 C14.72 44.76, 28.17 29.38, 51.6 0.72 M-0.07 61.15 C17.06 42.51, 32.02 23.41, 52.5 -0.37 M0.53 67.67 C22.09 43.09, 41.32 19.27, 59.2 -0.55 M-1.21 67.05 C16.75 47.08, 35.43 25.41, 57.15 -0.17 M0.39 73.18 C27.79 43.38, 49.62 14.04, 64.5 -1.78 M1.57 72.95 C16.42 54.69, 32.64 37.02, 64.64 0.64 M6.53 72.7 C24.47 53.59, 37.34 33.9, 68.05 0.73 M7 72.5 C28.32 47.37, 50.13 20.96, 69.36 0.94 M12.8 73.19 C31.64 47.46, 53.82 20.98, 75.23 0.94 M10.9 71.74 C37.42 44.34, 62.41 15.29, 74.47 0.76 M17.84 71.37 C34.9 51.83, 48.01 37.41, 78.03 2.11 M17.81 71.3 C35.52 51.72, 54.4 30.9, 79.14 0.7 M22.88 73.26 C46.23 46.84, 64.81 21.1, 83.27 -0.23 M22.28 72.43 C46.74 44.51, 71.49 14.76, 84.31 -0.52 M27.99 73.13 C47.74 48.21, 68.56 27.41, 90.36 0.74 M28.63 72.47 C44.02 53.62, 60.17 35.14, 89.94 -0.55 M33.83 72.56 C51.95 49.04, 72.88 25.13, 95.56 -1.87 M32.18 72.38 C48.1 55.22, 63.63 37.31, 94.75 0.03 M37.92 71.39 C55.13 52.72, 71.67 31.27, 101.74 -1.69 M39.03 72.23 C61.3 45.91, 84.41 20.1, 101.48 -0.7 M44.37 70.76 C63.05 47.09, 84.34 25, 106.58 -0.06 M43.3 72.7 C64.34 48.69, 85.33 23.88, 106.63 -0.61 M48.11 72.07 C67.7 50.46, 86.94 25.02, 112.39 0.97 M48.85 72.57 C64.73 53.03, 81.5 32.28, 111.72 0.1 M52.7 72.03 C73.98 47.31, 94.25 23.16, 116.97 3.12 M54.59 72.24 C68.12 55.73, 82.63 38.06, 115.71 1.81 M58.52 73.58 C76.85 50.56, 91.64 33.67, 116.11 6.18 M60.17 71.21 C73.38 57.63, 84.04 42.65, 116.95 6.27 M64.54 73.01 C80.16 52.83, 94.42 35.04, 116.33 13.65 M65.27 71.61 C77.67 55.93, 92.06 40.34, 115.45 12.81 M68.6 70.84 C84.56 54.57, 97.61 40.2, 116.77 20.34 M69.32 71.64 C80.24 58.86, 91.6 47.63, 116.28 20.39 M77.1 70.89 C91.96 54.25, 108.61 36.04, 114.78 26.36 M74.79 71.16 C89.25 55.9, 104.31 39.65, 116.62 26.06 M81.31 71.25 C89.3 62.92, 94.37 54.32, 114.98 32.34 M80.88 71.09 C92.29 57.41, 103.67 45.5, 116.34 30.77 M87.09 71.31 C94.46 62.65, 99.14 54.41, 116.8 39.17 M84.85 71 C96.51 59.49, 109.38 46.2, 115.06 37.55 M90.47 71.49 C99.67 62.52, 106.48 53.38, 116.3 43.08 M91.04 73.3 C97.3 64.28, 103.71 56.74, 115.42 43.04 M94.72 72.46 C102.09 67.91, 106.25 63.72, 113.7 51.26 M97.42 70.99 C104.72 64.54, 110.93 55.02, 116.17 49.75 M103.34 70.46 C106.97 67.11, 108.51 61.93, 114.44 57.23 M102.17 71.47 C107.8 66.17, 113.08 59.79, 116.72 55.79 M107.49 72.61 C109.48 70.25, 111.47 66.87, 114.72 63.35 M106.84 72.44 C109 69.28, 110.8 67.53, 115.63 62.45 M112.28 72.73 C113.51 71.04, 114.14 68.85, 115.6 67.8 M112.35 72.44 C112.84 71.31, 114 70.27, 115.93 67.63 M0.29 71.31 C0.29 71.31, 0.29 71.31, 0.29 71.31 M0.29 71.31 C0.29 71.31, 0.29 71.31, 0.29 71.31 M6.29 70.43 C3.54 69.58, 1.57 67.4, 0.44 66.13 M6.04 70.7 C4.55 69.46, 2.26 68.13, -0.13 65.72 M13.69 72.38 C8.73 67.27, 2.2 63.02, 0.03 62.15 M11.63 71.81 C8.96 68.41, 6.07 66.6, 0.44 60.08 M17.05 70.52 C14.85 66.53, 6.6 63.6, -1.03 53.53 M18.73 70.52 C14.54 67.78, 9.04 64.2, -0.61 54.47 M25.74 72.24 C15.77 64.24, 10.6 57.83, 1.07 51.4 M24.02 71.99 C16.3 64.26, 8.19 57.37, -0.72 50.86 M29.93 70.14 C22.63 64.27, 17.01 58.17, -0.67 43.31 M31.16 70.47 C21.58 62.95, 12.36 54.14, 0.51 43.54 M36.65 70.83 C22.25 59.53, 11.26 48.49, 2 38.36 M36.64 71.68 C22.38 59.47, 10.57 48.7, -0.42 38.66 M43.42 70.16 C30.39 61.65, 18.52 49.37, 1.57 35.31 M42.33 70.4 C29.23 59.55, 13.41 46.13, -0.36 34.37 M47.96 69.62 C33.22 58.11, 16.35 44.2, -0.27 28.82 M48.75 71.4 C37.27 62.2, 27.74 51.71, 0.97 29.55 M53.23 70.64 C37.46 55.34, 22.41 42.97, 0.39 21.21 M55.56 70.18 C37.83 56.3, 19.44 40.85, -0.51 24.07 M61.15 70.94 C38.41 50.85, 15.7 34.59, -1.29 16.71 M60.81 71.9 C36.31 50.79, 12.82 28.87, -0.73 17.52 M65.83 71.51 C50.41 57.63, 38.79 43.47, -1.98 13.18 M67.69 70.81 C51.38 57.6, 37.27 44.31, -0.98 13.49 M74.9 71.62 C45.68 46.75, 23.21 27.1, -1.1 8.42 M73.29 71.74 C47.88 48.95, 21.72 26.97, 0.57 8.3 M79.18 69.18 C47.49 46.29, 19.57 18.87, 0.15 3.87 M79.81 71.02 C62.23 56.21, 43.53 42.01, -0.57 1.24 M85.7 71.01 C55.94 46.74, 30.55 19.2, 1.28 0.18 M85.13 71.18 C59.42 47.08, 31.47 24.81, 0.72 -1.32 M91.48 73.22 C63.82 47.06, 34.22 18.47, 8.29 -2.34 M92 71.93 C58.2 42.86, 24.45 13.75, 8.48 -1.1 M96.75 72.25 C80.39 56.12, 62.95 38.07, 13.86 -0.71 M96.8 71.56 C69.91 48.19, 43.76 25.17, 13.34 -2.25 M102.2 71.73 C78.47 47.06, 52.1 23.1, 18.65 0.28 M104.33 70.46 C79.89 50.15, 57.17 30.56, 19.36 -1.39 M110.76 71.01 C86.36 51.98, 63.4 33.84, 24.54 -3.52 M109 70 C82.34 46.67, 54.44 22.89, 24.71 -2.67 M115.8 70.63 C87.66 47.82, 63.46 26.26, 31.64 -1.37 M114.63 70.61 C87.79 47.11, 61.23 23.02, 32.24 -1.02 M115.9 66.2 C96.42 47.76, 75.77 31.58, 40.03 -3.2 M114.65 66.1 C90.35 43.36, 67.95 24.14, 38.66 -1.21 M113.66 59.14 C85.5 35.87, 60.14 13.64, 42.99 -0.65 M114.43 58.91 C100.25 47.42, 85.68 34.68, 43.33 -2.41 M113.88 54.5 C95.47 35.38, 73.71 19.11, 52.28 -0.13 M114.96 54.46 C102.38 42.3, 88.94 32.05, 51.01 -0.7 M114.57 50.02 C103.08 40.37, 88.91 29.17, 55.89 -2.38 M115.37 48.68 C96.96 31.73, 78.89 16.65, 57.09 -2.19 M115.96 42.32 C102.11 33.54, 90.02 21.13, 63.02 -0.24 M115.42 44.7 C98.46 30.14, 83.29 15.21, 62.11 -2.25 M113.5 38.68 C103.89 26.36, 90.24 16.6, 69.83 -2.24 M114.03 39.16 C103.48 29.22, 91.53 18.85, 68.98 -0.6 M114.85 35.31 C107.92 25.34, 96.1 15.82, 72.7 -1.63 M115.75 32.92 C101.22 22.21, 89.73 11.55, 73.77 -1.87 M116.9 29.04 C106.19 20.68, 97.62 13.13, 81.49 -1.39 M115.25 27.32 C108.12 21.96, 99 15.29, 80.45 -2.1 M114.75 23.64 C104.32 13.93, 98.27 6.52, 85.28 -1.87 M115.89 22.96 C106.31 15.89, 98.06 8.56, 86.1 -1.85 M114.73 17.51 C108.37 14.69, 106.61 8.81, 93.35 -2.5 M114.12 17.9 C106.46 11.09, 99.71 3.52, 93.46 -1.44 M115.38 13.98 C110.56 6.02, 103.48 0.29, 100.98 -1.4 M116.06 12.45 C111.39 8.8, 107.62 5, 100.16 -2.04 M115.89 5.56 C112.71 3.86, 111.32 4.28, 106.07 -0.95 M114.26 7.1 C110.91 3.05, 107.78 1.32, 105.32 -2.13 M115.39 1.58 C114.09 0.96, 112.47 -0.52, 111.88 -1.79 M115.08 1.38 C114.23 0.83, 113.23 -0.24, 111.33 -1.89" stroke="#ced4da" stroke-width="0.5" fill="none"></path><path d="M-1.07 0.41 C32.52 0.79, 66.08 0.29, 113.05 0.07 M0.85 -0.37 C26.07 -0.29, 51.23 -1.15, 115.28 -0.99 M114.94 1.66 C114.58 22.76, 114.82 46.87, 113.17 71.17 M114.5 0.95 C114.7 18.62, 115.17 38.28, 114.75 70.25 M113.65 72.87 C78.8 69.85, 45.21 69.72, -1.31 71.83 M114.22 71.06 C71.35 70.76, 26.92 71.19, 0.62 71.73 M0.9 69.63 C0.01 45.49, 1.84 24.48, 0.71 -0.69 M0.96 70.22 C-0.54 50.52, -0.68 29.36, 0.46 0.81" stroke="#000000" stroke-width="1" fill="none"></path></g><g transform="translate(83.8713460047411 241.21929380337224) rotate(0 31 12.5)"><text x="31" y="18" font-family="Virgil, Segoe UI Emoji" font-size="20px" fill="#000000" text-anchor="middle" style="white-space: pre;" direction="ltr">server</text></g><g mask="url(#mask-hBnbQSKYwqyWg7FQksQUh)" stroke-linecap="round"><g transform="translate(174.64562938772178 57.26900711405597) rotate(0 46.19993227134228 -3.6992174054380484)"><path d="M0.73 1.15 C9.45 -0.1, 36.66 -7.42, 52 -7.5 C67.34 -7.58, 86.15 -0.57, 92.75 0.66 M-0.35 0.7 C8.34 -0.9, 36.25 -9.54, 51.67 -9.34 C67.09 -9.13, 85.54 0.3, 92.17 1.94" stroke="#000000" stroke-width="1" fill="none"></path></g><g transform="translate(174.64562938772178 57.26900711405597) rotate(0 46.19993227134228 -3.6992174054380484)"><path d="M72.84 4.05 C77.68 2.52, 82.49 0.57, 90.72 3.46 M70.52 2.22 C77.77 1.69, 84.58 2.55, 91.32 2.48" stroke="#000000" stroke-width="1" fill="none"></path></g><g transform="translate(174.64562938772178 57.26900711405597) rotate(0 46.19993227134228 -3.6992174054380484)"><path d="M77.72 -9.63 C81.21 -7.38, 84.69 -5.57, 90.72 3.46 M75.39 -11.47 C81.04 -7.65, 86.29 -2.44, 91.32 2.48" stroke="#000000" stroke-width="1" fill="none"></path></g></g><mask id="mask-hBnbQSKYwqyWg7FQksQUh"><rect x="0" y="0" fill="#fff" width="367.0295730036919" height="166.03694994027842"></rect><rect x="222.4649826555965" y="39.22365859905676" fill="#000" width="6" height="20" opacity="1"></rect></mask><g transform="translate(222.4649826555965 39.22365859905676) rotate(0 -1.6194209965324262 14.346131109561156)"><text x="3" y="14" font-family="Virgil, Segoe UI Emoji" font-size="16px" fill="#000000" text-anchor="middle" style="white-space: pre;" direction="ltr">1</text></g><g mask="url(#mask-xxy12YBdMwvBA4L0iIFOV)" stroke-linecap="round"><g transform="translate(266.5466714318022 101.60488754661947) rotate(0 -45.38014668090295 -8.504523648412487)"><path d="M1.13 0.34 C-7.43 0.52, -37.04 2.79, -52.49 -0.03 C-67.94 -2.85, -84.94 -13.63, -91.56 -16.58 M0.27 -0.52 C-8.29 -0.55, -37.74 1.45, -53.1 -1.52 C-68.46 -4.5, -85.43 -15.85, -91.9 -18.39" stroke="#000000" stroke-width="1" fill="none"></path></g><g transform="translate(266.5466714318022 101.60488754661947) rotate(0 -45.38014668090295 -8.504523648412487)"><path d="M-70.2 -14.81 C-73.12 -14.82, -77.76 -16.44, -92.15 -20.37 M-71.28 -16.08 C-79.23 -16.64, -87.33 -17.16, -92.33 -18.57" stroke="#000000" stroke-width="1" fill="none"></path></g><g transform="translate(266.5466714318022 101.60488754661947) rotate(0 -45.38014668090295 -8.504523648412487)"><path d="M-76.75 -1.82 C-78.2 -4.57, -81.49 -8.87, -92.15 -20.37 M-77.83 -3.09 C-83.26 -8.74, -88.8 -14.35, -92.33 -18.57" stroke="#000000" stroke-width="1" fill="none"></path></g></g><mask id="mask-xxy12YBdMwvBA4L0iIFOV"><rect x="0" y="0" fill="#fff" width="458.939794541488" height="219.21192694090246"></rect><rect x="206.90548106598317" y="90.38547867558373" fill="#000" width="13" height="20" opacity="1"></rect></mask><g transform="translate(206.90548106598317 90.38547867558373) rotate(0 14.261043684916103 2.714885222623252)"><text x="6.5" y="14" font-family="Virgil, Segoe UI Emoji" font-size="16px" fill="#000000" text-anchor="middle" style="white-space: pre;" direction="ltr">2</text></g><g mask="url(#mask-Lkc6zi_IlzO1yXMXH658u)" stroke-linecap="round"><g transform="translate(97.75258910249522 124.13034552191584) rotate(0 -4.8908935458489395 47.42358352483734)"><path d="M0.66 0.27 C-0.38 6.99, -4.71 23.68, -6.4 39.54 C-8.09 55.41, -8.89 86.09, -9.46 95.47 M-0.45 -0.63 C-1.63 6.29, -5.64 24.97, -7.3 40.66 C-8.97 56.35, -10 84.66, -10.45 93.52" stroke="#000000" stroke-width="1" fill="none"></path></g><g transform="translate(97.75258910249522 124.13034552191584) rotate(0 -4.8908935458489395 47.42358352483734)"><path d="M-18.13 67.7 C-17.72 74.34, -12.79 81.24, -8.6 94.64 M-17.6 66.61 C-16.13 74.01, -14.05 80.39, -9.5 94.27" stroke="#000000" stroke-width="1" fill="none"></path></g><g transform="translate(97.75258910249522 124.13034552191584) rotate(0 -4.8908935458489395 47.42358352483734)"><path d="M0.48 68.55 C-4.5 75.04, -4.96 81.7, -8.6 94.64 M1 67.45 C-2.1 74.53, -4.58 80.69, -9.5 94.27" stroke="#000000" stroke-width="1" fill="none"></path></g></g><mask id="mask-Lkc6zi_IlzO1yXMXH658u"><rect x="0" y="0" fill="#fff" width="206.80725828478626" height="318.8575653660414"></rect><rect x="84.7584839369415" y="154.47110988697477" fill="#000" width="13" height="20" opacity="1"></rect></mask><g transform="translate(84.7584839369415 154.47110988697477) rotate(0 8.10321161970478 17.08281915977841)"><text x="6.5" y="14" font-family="Virgil, Segoe UI Emoji" font-size="16px" fill="#000000" text-anchor="middle" style="white-space: pre;" direction="ltr">3</text></g><g mask="url(#mask-Tj9yqenWgDEu-on0B-vqE)" stroke-linecap="round"><g transform="translate(122.84546957503107 220.03355420703383) rotate(0 10.981863788589635 -47.496798674455476)"><path d="M-0.78 -0.4 C2.77 -9.08, 19.19 -35.6, 22.08 -51.3 C24.97 -67, 17.58 -87.47, 16.54 -94.6 M1 -1.65 C4.37 -10.76, 18.93 -37.8, 21.35 -53.1 C23.78 -68.41, 16.52 -86.84, 15.54 -93.46" stroke="#000000" stroke-width="1" fill="none"></path></g><g transform="translate(122.84546957503107 220.03355420703383) rotate(0 10.981863788589635 -47.496798674455476)"><path d="M26.73 -75.06 C23.95 -83.05, 18.05 -90.69, 15.89 -93.81 M27.94 -75.97 C23.69 -79.77, 21.77 -84.92, 16.41 -93.61" stroke="#000000" stroke-width="1" fill="none"></path></g><g transform="translate(122.84546957503107 220.03355420703383) rotate(0 10.981863788589635 -47.496798674455476)"><path d="M12.57 -71.59 C14.93 -80.75, 14.19 -89.65, 15.89 -93.81 M13.79 -72.5 C13.26 -77.09, 15.07 -83.16, 16.41 -93.61" stroke="#000000" stroke-width="1" fill="none"></path></g></g><mask id="mask-Tj9yqenWgDEu-on0B-vqE"><rect x="0" y="0" fill="#fff" width="244.5116893371246" height="414.28592084162347"></rect><rect x="138.5116893371246" y="158.13133275388918" fill="#000" width="12" height="20" opacity="1"></rect></mask><g transform="translate(138.5116893371246 158.13133275388918) rotate(0 -4.684355973503898 14.405422778689172)"><text x="6" y="14" font-family="Virgil, Segoe UI Emoji" font-size="16px" fill="#000000" text-anchor="middle" style="white-space: pre;" direction="ltr">6</text></g><g stroke-linecap="round" transform="translate(66.24519908135608 30.484976747247856) rotate(0 52.431042389087 30.415704297113734)"><path d="M0 0 C0 0, 0 0, 0 0 M0 0 C0 0, 0 0, 0 0 M0.1 7.11 C1.07 3.78, 4.54 1.54, 5.34 0 M-0.21 6.42 C0.81 5.4, 2.05 3.59, 4.95 0.71 M0.66 11.31 C3.49 9.15, 5 6.06, 9.85 0.32 M0.13 12.48 C4.31 7.1, 8.07 2.82, 10.83 0.6 M-1.43 18.67 C2.57 14.9, 7.71 10.38, 16.51 0.94 M-0.7 18.44 C3.57 12.55, 8.13 7.75, 14.75 0.94 M1.87 22.27 C4.69 17.84, 9.66 14.86, 22.3 0.04 M-0.72 23.25 C8.05 16.38, 14.3 7.92, 21.67 -0.02 M1.18 30.7 C3.83 22.8, 10.13 16.93, 24.48 -1 M0 30.87 C9.03 19.78, 17.15 10.38, 25.34 0.26 M1.17 37.73 C6.09 27.61, 12.35 19.76, 30.32 0.39 M0.51 36.03 C10.53 25.2, 20.63 12.32, 31.72 -0.28 M1.71 41.42 C13.85 26.38, 28.26 13.77, 38.73 -0.93 M-0.54 42.07 C10.37 29.92, 22.37 16.14, 36.27 -0.56 M-1.06 47.39 C12.49 35.23, 26.79 19.71, 44.43 1.15 M-0.29 48.68 C14.73 32.61, 29.89 13.18, 41.74 -0.92 M0.85 56.51 C15 34.19, 34.21 17.39, 47.74 -0.95 M-0.63 54.16 C12.6 40.31, 25.36 25.65, 47.37 0.43 M1 59.95 C11.69 48.47, 26.45 34.57, 54.83 -1.53 M-0.94 60.92 C21.03 37.78, 41.53 12.62, 52.68 -1.1 M4.06 60.09 C14.95 47.02, 28.44 36.5, 59.47 1.37 M4.94 60.94 C20.92 43.57, 34.53 28.02, 58.72 0.99 M11.8 59.72 C26.2 43.66, 44.16 24.37, 63.24 1.01 M10.15 61.4 C29.1 38.82, 49.51 15.55, 63.76 -0.19 M15.07 58.83 C37.07 37.48, 55.8 14.58, 69.37 0.93 M16.37 60.03 C35.95 37.63, 56.43 14.89, 68.64 0.58 M22.31 59.71 C39.35 42.26, 55.62 19.56, 74.87 -2.06 M21.8 60.69 C33.32 47.43, 45.25 32.66, 74.43 0.14 M27.16 62.68 C47.47 41.08, 66.61 18.68, 80.4 1.15 M26.23 61.58 C47.91 37.37, 66.34 15.33, 79.73 0.44 M33.49 61.33 C46.45 42.13, 61.15 24.99, 86.43 -1.08 M31.6 61.01 C45.11 46.46, 57.42 31.2, 84.4 0.02 M36.38 61.8 C52.11 46.47, 65.21 30.31, 91.04 1.93 M36.52 61.17 C52.05 45.34, 65.55 28.06, 90.82 -0.45 M41.79 62.49 C63.94 37.58, 82.17 16.25, 94.13 -1.88 M43.38 60.34 C59.9 41.56, 76.05 21.19, 95.63 -0.71 M48.26 61.1 C58.05 46.63, 67.25 36.77, 99.23 -0.29 M47.55 60.43 C59.09 49.55, 70.91 35.6, 100.98 0.64 M51.18 61.6 C69.2 43.76, 82.32 29.09, 105.03 -1.04 M53.21 60.42 C68.44 44.11, 83 28.15, 105.65 0.32 M56.53 61.25 C74.52 41.18, 89.56 25.09, 104.54 6.18 M58.53 61.95 C72.94 43.16, 89 25.69, 105.65 6.97 M65.13 61.58 C71.8 48.25, 84.64 35.77, 105.15 11.16 M63.45 60.72 C79.16 44.04, 94.5 24.99, 105.76 13.02 M70.39 59.42 C79.27 49.18, 90.48 36.87, 105.24 17.25 M68.92 62.09 C81.25 46.73, 93.67 32.93, 105.71 19.28 M74.59 61.85 C84.91 48.14, 95.84 35.2, 106.38 23.82 M74.66 60.48 C85.61 47.23, 96.35 36.37, 105.84 25.94 M78.56 61.26 C87.2 52.99, 91.22 46.19, 106.37 29.54 M78.41 60.96 C87.6 51, 96.46 41.14, 105.6 30.26 M86.02 62.31 C93.22 50.64, 99.3 41.48, 104.25 35.6 M85.67 60.67 C89.56 55.88, 94.37 50.03, 106.16 36.42 M89.24 60.95 C95.03 56.07, 101.53 46.95, 103.91 41.48 M90.97 60.41 C95.33 55.41, 101.72 48.51, 105.4 43.64 M96.95 59.7 C98.58 58.86, 101 53.89, 104.25 48.28 M95.6 60.19 C99.61 57.28, 103.25 52.43, 105.33 49.7 M101.19 61.06 C101.8 59.97, 103.06 58.9, 105.05 56.08 M100.71 60.67 C101.63 59.86, 103.17 58.35, 105.09 55.7 M0.07 60.89 C0.07 60.89, 0.07 60.89, 0.07 60.89 M0.07 60.89 C0.07 60.89, 0.07 60.89, 0.07 60.89 M7.01 61.17 C5.6 59.81, 3.76 57.66, -0.55 55.89 M6.05 61.27 C5.09 59.2, 3.41 58.11, -0.22 55.37 M12.36 59.92 C6.51 56.88, 4.68 54.86, -1.08 51.8 M12.67 60.23 C7.03 57.42, 2.93 53.29, 0.14 49.58 M19.57 60.28 C12.1 54.58, 4.69 47.59, 0.51 44.35 M18.95 61.13 C12.67 55.87, 6.44 50.67, 0.24 45.31 M23.76 62 C17.92 57.24, 15.06 52.31, 0.39 40.43 M23.78 60.74 C19.61 56.07, 13.14 51.87, -0.78 40.04 M29.84 62.88 C21.52 54.31, 13.84 47.27, 1.85 34.99 M29.76 60.37 C23.87 54.75, 18.74 50.76, 0.07 34.58 M38.63 60.22 C23.24 50.64, 12.49 41.04, 1.68 28.87 M37.23 61.62 C28.65 53.45, 20.09 46.3, 0.39 29.51 M44.17 61.63 C28.63 47.84, 14.1 35.7, -0.85 24.18 M43.18 61.71 C31.31 50.61, 19.76 40.85, 1.2 24.5 M50.99 59.96 C27.89 45.95, 11.01 26.95, 1.73 16.67 M49.98 60.92 C35.01 49.13, 22.52 36.81, 0.14 19.18 M55.79 61.72 C32.65 42.42, 11.82 23.97, 2.12 14 M54.65 61.52 C42.88 50.53, 32.7 41.25, -0.02 13.95 M60.54 61.31 C41.98 46.04, 26.56 31.14, -0.77 7.49 M61.36 60.51 C40.86 44.18, 23.91 29.05, -0.84 8.16 M66.15 61.45 C52.24 48.92, 41.15 38.09, -0.79 2.36 M66.65 60.55 C47.28 42.91, 26.88 26.17, 0.25 2.91 M73.75 60.16 C51 39.4, 25.07 18.22, 1.91 -1.2 M72.2 61.39 C51.7 41.59, 29.67 22.82, 1.94 -1.4 M77.96 61.68 C49.04 38.06, 23.03 10.55, 5.94 -1.77 M79.61 61.36 C62.82 47.44, 46.92 33.87, 7.62 -0.32 M84.59 60.93 C65.37 42.07, 44.63 27, 12.55 -0.85 M85.59 60.27 C69.04 46.9, 51.92 32.59, 12.73 -1 M91.69 61.73 C74.2 45.01, 54.89 29.86, 18.75 -2.09 M92.5 60.19 C76.61 49.39, 63 36.06, 19.41 -0.89 M99.26 61.2 C78.31 42.73, 56.24 27.45, 25.77 -3.48 M97.61 60.31 C82.07 49.14, 69.01 35.4, 26.42 -1.48 M102.54 60.76 C86.75 46.36, 69.44 32.47, 32.07 -3.12 M103.79 60.41 C86.46 45.97, 68.2 28.75, 31.68 -1.5 M106.2 58.44 C83.12 36.31, 56.45 15.02, 39.06 -2.78 M107.31 57.78 C85.94 39.48, 63.82 22.12, 37.47 -2.08 M108.92 55.22 C88.03 39.82, 74.13 22.55, 44.36 -0.96 M107.86 53.91 C83.4 33.61, 60.92 12.46, 43.25 -1.18 M108.59 45.97 C87.49 31.78, 71.89 17.3, 51.1 -1.9 M107.26 48.08 C94.63 36.67, 81.34 24.68, 50.34 -2.25 M105.58 41.21 C90.78 32.13, 78.77 16.87, 57.59 -3.19 M108.21 43.48 C92.7 31.19, 77.76 16.86, 55.22 -1.2 M107.44 38.08 C88.37 20.6, 71.25 5.29, 62.38 -1.51 M106.57 36.81 C96.96 29.97, 88.3 22.04, 61.99 -1.73 M105.99 30.67 C97.53 25.7, 87.26 16.71, 69.97 -0.23 M107.83 32.99 C93.4 19.19, 80.59 7.14, 69.66 -0.41 M106.22 25.69 C97.21 20.76, 90.61 9.1, 76.09 -2.45 M107.59 27.45 C97.32 19.18, 89.93 9.93, 74.86 -1.17 M107.38 20.77 C98.48 15.05, 91.47 8.77, 80.94 0 M108.15 20.82 C99.49 15.46, 91.53 8.9, 80.65 -1.9 M107.89 16.21 C100.82 12.53, 96.77 8.21, 86.94 -1.06 M106.9 15.24 C101.63 11.52, 98.71 8.4, 85.68 -1.47 M106.47 9.27 C103.54 5.58, 97.94 3.46, 91.79 0.01 M106.92 11.05 C101.76 6.39, 95.88 1.44, 92.78 -1.06 M106.83 5.39 C104.22 3.45, 103.29 1.22, 98.56 -0.92 M107.04 5.19 C105.02 3.61, 103.48 2.02, 99.67 -1.22" stroke="#99cffa" stroke-width="0.5" fill="none"></path><path d="M1.86 0.49 C28.84 -1.37, 62.15 0.72, 103.48 0.71 M-0.69 0.94 C31.8 0.96, 64.88 0.97, 104.9 -0.72 M104.94 -0.65 C105.1 17.22, 106.18 35.12, 103.4 59.51 M105.72 0.71 C105.88 19.85, 106.07 41.25, 105.54 60.88 M105.86 61.24 C61.52 61.88, 23.61 62.09, -0.23 59.99 M103.97 60.13 C82.41 62.61, 60.05 62.65, 0.15 60.97 M-1.9 61.05 C-0.64 39.26, -0.44 17.8, 0.76 1.26 M0.94 60.73 C-1.49 47.2, 0.47 32.89, 0.13 0.25" stroke="#000000" stroke-width="1" fill="none"></path></g><g transform="translate(99.67624147044307 50.90068104436159) rotate(0 19 10)"><text x="19" y="14" font-family="Virgil, Segoe UI Emoji" font-size="16px" fill="#000000" text-anchor="middle" style="white-space: pre;" direction="ltr">User</text></g><g stroke-linecap="round" transform="translate(95.43746529242253 93.21647549401769) rotate(0 22.678182501285164 5.288123070979736)"><path d="M1.81 -1.15 L45.37 -1.65 L44.21 9.06 L-0.4 8.84" stroke="none" stroke-width="0" fill="#868e96"></path><path d="M-1.98 1.13 C18.45 0.96, 33.28 0.55, 46.74 -0.03 M-0.8 -0.26 C10.3 0.17, 21.08 -0.97, 44.48 -0.61 M45.9 0.51 C45.8 2.55, 46.25 7.83, 46.19 9.91 M44.9 -0.22 C45.93 3.01, 45.64 6.15, 44.98 10.65 M44.75 12.25 C35.25 10.1, 25.72 12.33, -1.4 11.82 M45.99 10.54 C28.89 10.15, 11.79 10.59, 0.7 10.03 M0.31 10.04 C0.15 6.35, 0.27 3.54, -0.28 0.09 M-0.42 10.93 C-0.13 8.34, 0.31 5.32, -0.08 -0.07" stroke="#000000" stroke-width="1" fill="none"></path></g><g stroke-linecap="round" transform="translate(59.19512570222332 106.56808868064763) rotate(0 60.123612434579854 8.281128420633877)"><path d="M0 0 C0 0, 0 0, 0 0 M0 0 C0 0, 0 0, 0 0 M0.17 6.86 C0.6 5.33, 2.9 3.1, 4.44 0.71 M-0.41 6.09 C1.67 3.95, 3.26 1.98, 5.05 0.29 M-0.99 11.19 C1.79 9.43, 5.22 4.58, 11.53 1.34 M0.85 11.37 C3.63 6.98, 7.61 3.2, 11.02 -0.35 M-0.69 15.53 C3.47 11.91, 6.98 7.99, 14.29 1.04 M0.94 16.45 C6.16 10.65, 10.98 6.37, 15.45 -0.04 M6.37 17.1 C10.72 11.5, 16.74 2.54, 22.6 0.46 M6.87 17.9 C11.78 10.63, 17.25 4.25, 21.89 -0.1 M12.79 16.11 C17.47 11.3, 18.38 7.67, 26.72 -0.72 M11.95 17.53 C15.14 11.94, 20.59 5.81, 25.72 0.6 M17.33 18.9 C22.21 13.71, 23.51 9.39, 33.59 0.07 M16.03 17.66 C21.11 13.63, 24.02 9.25, 32.41 0.41 M23.04 16.3 C25.14 14.32, 30.42 10.8, 38.82 1.64 M22.61 17.03 C26.69 10.8, 33.69 5.08, 35.94 -0.68 M26.92 17.36 C33.79 12.83, 38.16 5.32, 40.9 -0.01 M26.92 17.99 C30.71 13.5, 33.52 10.79, 43.52 -0.56 M31.58 18.33 C40.2 10.23, 44.93 5.68, 49 1.35 M32.15 17.04 C36.82 10.91, 43.01 5.44, 47.84 -0.44 M39.56 15.69 C43.34 11.8, 47.81 8.84, 53.18 -0.83 M38.25 17.32 C44.82 11.54, 49.21 4.61, 53.83 -0.43 M41.05 19.15 C48.5 13.53, 51.36 8.34, 56.17 -0.88 M42.15 17.13 C47.21 12.04, 52.09 6.61, 58.9 1.04 M48.16 16.61 C53.85 10.52, 57.39 9.44, 63.6 0.07 M48.5 16.37 C53.78 10.67, 59.94 4, 63.7 -0.36 M54.64 19.22 C59.81 9.06, 65.7 4.21, 67.75 -0.85 M53.97 17.13 C58.99 11.17, 66.33 3.05, 68.36 -0.29 M58.14 18.32 C65.04 13.23, 69.15 4.87, 73.82 0.66 M59.92 18.1 C63.18 12.9, 66.25 10.01, 75.24 0.72 M63.99 18.5 C68.49 15.26, 69.14 10.16, 79.65 1.15 M64.72 17.14 C68.13 12.56, 74.3 7.04, 79.19 -0.22 M71.42 18.55 C77.05 11.24, 81.39 4.37, 86.01 -1.62 M70.48 17.72 C76.11 11.13, 80.57 5.14, 84.29 0.14 M73.29 16.47 C79.12 9.74, 86.77 5.76, 88.29 0.34 M75.26 17.48 C78.45 13.04, 80.84 10.03, 90.12 -0.29 M82.39 18.49 C86.1 12.43, 92.09 6.19, 94.83 -1.78 M79.9 16.67 C85.45 13.34, 88.42 7.97, 96.47 -0.5 M87.18 16.07 C90.6 10.88, 95.53 4.7, 102.58 -0.56 M86.19 16.73 C90.32 13.51, 93.68 7.1, 101.64 0.2 M89.99 18.86 C95.52 12.29, 101 5.14, 107.44 0.62 M91.67 16.67 C95.25 13.45, 96.95 10.63, 107.13 0.61 M94.83 15.76 C101.95 14.28, 104.21 8.35, 111.94 0.64 M95.87 17.72 C101.15 11.28, 105.99 4.29, 111.97 0.21 M101.62 15.87 C105.44 11.19, 113.08 5.11, 114.86 2.3 M101.03 17.68 C106.89 10.85, 111.75 6.07, 116.72 0.33 M105.92 17.52 C111.39 13.23, 116.15 8.52, 121.62 2.41 M106.39 17.54 C109.45 12.23, 114.21 9.93, 120.44 1.7 M112.94 17.13 C114.39 14.06, 117.09 9.56, 120.77 7.7 M112.78 17.57 C115.19 13.62, 118.54 8.82, 121.33 6.56 M117.8 17.75 C118.47 16.35, 119.51 14.85, 121.23 12.71 M117.51 17.37 C118.05 16.47, 119.17 15.41, 121.45 12.75 M0.1 16.65 C0.1 16.65, 0.1 16.65, 0.1 16.65 M0.1 16.65 C0.1 16.65, 0.1 16.65, 0.1 16.65 M5.52 15.97 C3.37 14.58, 3.33 13.08, 0.05 10.84 M5.38 16.25 C3.75 14.13, 1.31 12.47, -0.6 11.32 M12.64 16.9 C9.07 13.96, 2.47 7.6, -0.08 6.09 M11.65 15.86 C7.63 13.15, 4.17 9.55, 0.16 6.46 M19.69 14.79 C12.77 12.48, 5.59 5.7, -0.35 1.75 M18.21 16.09 C12.47 11.66, 6.43 5.09, -0.84 -0.15 M26.07 16.59 C18.59 13.68, 11.9 5.17, 4.03 -1.87 M23.92 17.2 C17.25 11.91, 11.76 5.43, 2.43 -1.9 M32.54 18.29 C24.58 13.26, 20.77 7.4, 9.43 -1.56 M29.61 16.94 C21.77 10, 15.81 2.64, 8.66 -2.16 M35.99 14.37 C27.7 9.7, 22.47 2.08, 15.27 -2.49 M36.29 17.24 C28.41 9.56, 19.84 1.35, 13.85 -1.85 M40.63 18.15 C34.53 8.32, 26.94 1.35, 20.28 -1.37 M42.63 15.78 C35.64 9.58, 28.08 3.92, 20.13 -3.02 M49.68 16.21 C39.86 11.12, 33.77 5.71, 26.45 -3.32 M49.13 15.93 C43.12 10.39, 36.82 6.12, 26.23 -2.21 M56.64 17.34 C48.59 8.29, 39.99 1.63, 34.09 -1.6 M53.9 17.19 C49.88 12.04, 44.99 7.34, 33.02 -2.67 M60.55 17.51 C53.89 9.51, 45.69 3.4, 37.5 -3.24 M60.41 15.67 C54.73 11.16, 46.88 4.8, 39.7 -2.5 M65.72 14.31 C59.26 9.25, 50.81 1.81, 44.28 -4.03 M65.75 16 C60.97 11.51, 53.09 4.45, 45.58 -2.14 M72.76 15.14 C66.43 11.96, 59.38 5.06, 50.56 -3.59 M72.11 17.07 C64.47 8.51, 54.94 0.37, 51.84 -1.94 M78.3 15.68 C75.44 10.85, 67.85 6.94, 56.76 -2.95 M79.05 15.95 C71.87 9.97, 63.36 3.55, 57.77 -2.22 M86.24 16.81 C78.95 10.78, 73.98 7.29, 62.56 -4.28 M85.22 16.34 C80.02 11.66, 73.09 6.44, 62.27 -3.55 M91.03 17.61 C86.71 12.4, 80.38 3.45, 70.7 -0.5 M92.15 17.06 C85.6 12.65, 81.33 6.63, 70.08 -2.81 M97.38 17.73 C94.06 13.95, 86.08 6.66, 74.16 -2.32 M96.46 15.94 C90.61 11.19, 85.09 5.91, 75.58 -2.75 M103.32 17.7 C99.57 9.93, 91.14 5.4, 83.5 -1.27 M103.4 15.57 C97.97 12.23, 92.44 5.67, 82.49 -3.51 M111.87 17.27 C103.59 13.49, 101.87 8.09, 86.52 -3.27 M109.07 17.22 C104.4 11.41, 97.98 6.2, 88.14 -2.71 M114.35 16.42 C106.33 7.56, 96.86 0.66, 95.34 -4.41 M116.16 17.31 C107.46 10.89, 102.08 4.2, 92.99 -1.7 M120.86 15.66 C118.11 11.79, 111.61 8.03, 102.07 -0.51 M121.01 15.18 C115.98 12.84, 113.26 7.43, 100.81 -1.68 M120.98 11.83 C119.18 7.75, 113.5 4.24, 106.12 -2.19 M120.75 10.45 C114.81 6.76, 109.48 1.09, 106.54 -3.18 M120.75 5.8 C117.77 2.95, 114.52 -1.08, 112.94 -2.14 M120.77 4.84 C117.36 2.47, 113.98 -1.03, 112.03 -2" stroke="#82c91e" stroke-width="0.5" fill="none"></path><path d="M-1.54 1.42 C34.32 0.87, 65.52 -0.82, 119.45 0.21 M0.36 0.58 C44.89 -1.05, 90.71 0.81, 120.47 0.07 M118.72 -0.71 C120.57 5.73, 120.49 8.05, 119.11 15.82 M120.59 -0.1 C120.01 4.16, 120.42 8.35, 119.89 15.91 M118.63 15.26 C79.37 17.95, 37.83 15.59, -1.03 14.83 M120.58 16.29 C89.22 17.62, 56.57 16.84, 0.77 15.93 M1.07 16.28 C-1.63 12.55, -0.88 6.14, -0.9 1.02 M0.04 16.74 C-0.28 9.61, -0.53 3.04, 0.19 -0.07" stroke="#000000" stroke-width="1" fill="none"></path></g><g mask="url(#mask-0fNYkKgben0SBTo874Gbw)" stroke-linecap="round"><g transform="translate(175.23921158860958 250.01025753181193) rotate(0 56.508346505179134 -6.441754124339241)"><path d="M-1.12 0.19 C8.15 -2.17, 37.64 -14.23, 56.85 -13.84 C76.06 -13.45, 104.64 -0.19, 114.14 2.53 M0.49 -0.76 C10.02 -3.46, 40.12 -15.65, 58.99 -15.41 C77.86 -15.16, 104.51 -1.92, 113.73 0.71" stroke="#000000" stroke-width="1" fill="none"></path></g><g transform="translate(175.23921158860958 250.01025753181193) rotate(0 56.508346505179134 -6.441754124339241)"><path d="M85.08 -1.34 C98.08 1.96, 109.51 1.56, 115.26 -1.16 M85.45 0.26 C92.42 0.19, 97.81 0.61, 113.39 0.22" stroke="#000000" stroke-width="1" fill="none"></path></g><g transform="translate(175.23921158860958 250.01025753181193) rotate(0 56.508346505179134 -6.441754124339241)"><path d="M92 -19.9 C102.29 -9.27, 110.96 -2.27, 115.26 -1.16 M92.37 -18.3 C97.67 -13.9, 101.41 -9.05, 113.39 0.22" stroke="#000000" stroke-width="1" fill="none"></path></g></g><mask id="mask-0fNYkKgben0SBTo874Gbw"><rect x="0" y="0" fill="#fff" width="388.7090715010331" height="366.44995388138705"></rect><rect x="227.1785883749626" y="225.1045550859185" fill="#000" width="12" height="20" opacity="1"></rect></mask><g transform="translate(227.1785883749626 225.1045550859185) rotate(0 4.568969718826111 18.4639483215542)"><text x="6" y="14" font-family="Virgil, Segoe UI Emoji" font-size="16px" fill="#000000" text-anchor="middle" style="white-space: pre;" direction="ltr">4</text></g><g mask="url(#mask-MKB61rV4GgOJnJQREbbZ6)" stroke-linecap="round"><g transform="translate(284.66451314726464 278.5079380473753) rotate(0 -53.44646290763308 -3.569877885010328)"><path d="M-1.02 -1.01 C-9.88 -1.73, -36.4 -2.78, -54.1 -3.99 C-71.81 -5.19, -98.38 -7.73, -107.25 -8.22 M0.65 1.08 C-8.22 0, -36.54 -4.26, -54.57 -5.66 C-72.6 -7.06, -98.86 -6.72, -107.54 -7.31" stroke="#000000" stroke-width="1" fill="none"></path></g><g transform="translate(284.66451314726464 278.5079380473753) rotate(0 -53.44646290763308 -3.569877885010328)"><path d="M-83.96 -14.14 C-86.5 -12.5, -94.85 -10.77, -106.66 -8.39 M-83.28 -15.2 C-88.18 -12.34, -94.98 -10.71, -107.44 -6.48" stroke="#000000" stroke-width="1" fill="none"></path></g><g transform="translate(284.66451314726464 278.5079380473753) rotate(0 -53.44646290763308 -3.569877885010328)"><path d="M-84.5 4.04 C-86.97 1.62, -95.2 -0.72, -106.66 -8.39 M-83.82 2.99 C-88.55 0.97, -95.2 -2.27, -107.44 -6.48" stroke="#000000" stroke-width="1" fill="none"></path></g></g><mask id="mask-MKB61rV4GgOJnJQREbbZ6"><rect x="0" y="0" fill="#fff" width="492.81428841853176" height="385.9553493054159"></rect><rect x="223.6533460816886" y="263.6723302944233" fill="#000" width="12" height="20" opacity="1"></rect></mask><g transform="translate(223.6533460816886 263.6723302944233) rotate(0 7.56470415794297 11.265729867941673)"><text x="6" y="14" font-family="Virgil, Segoe UI Emoji" font-size="16px" fill="#000000" text-anchor="middle" style="white-space: pre;" direction="ltr">5</text></g><g stroke-linecap="round" transform="translate(317.143411001985 192.26936024703673) rotate(0 14.610626097784234 10.607968919108771)"><path d="M0 0 C0 0, 0 0, 0 0 M0 0 C0 0, 0 0, 0 0 M-0.41 5.7 C1.24 5.42, 1.82 4.29, 4.48 -0.11 M-0.01 6.33 C0.84 4.82, 1.9 3.48, 5.35 0.05 M1.54 12.37 C1.53 8.01, 4.29 5.63, 10.2 1.21 M-0.65 12.8 C2.97 9.5, 6.24 6.13, 10.78 0.44 M1.12 20.43 C5.98 14.4, 9.21 7.44, 14.27 1.29 M-0.54 17.69 C5.68 11.56, 11.04 5.94, 16.1 1.29 M1.79 20.69 C6.95 14.18, 14.47 10.34, 23.21 1.02 M1.08 22.39 C7.15 15.43, 12.02 9.35, 21.26 0.13 M5.57 21.03 C12.79 16.96, 17.14 13.24, 24.5 -0.47 M6.13 22.78 C13.02 16.41, 19.73 9.45, 26.26 1.07 M13.5 23.02 C20.59 13.47, 26.93 6.72, 31.33 2.32 M11.9 21.77 C18.12 14.86, 24.34 8.79, 31 1.73 M16.22 22.93 C24.14 18.61, 26.32 11.73, 30.89 5.9 M17.6 23.85 C22.76 16.09, 28.32 9.77, 30.2 7.16 M23.7 21.74 C24.81 19.93, 27.52 17.54, 31.03 13.45 M23.04 22.3 C24.7 20.19, 25.82 18.11, 30.74 13.18 M0.06 21.27 C0.06 21.27, 0.06 21.27, 0.06 21.27 M0.06 21.27 C0.06 21.27, 0.06 21.27, 0.06 21.27 M7.15 21.33 C5.22 19.31, 3.17 18.65, -1.04 15.99 M6.41 21.45 C4.63 19.49, 1.89 17.61, -0.68 15.95 M12.97 21.73 C7.97 17.37, 2.06 12.59, 1.36 11.01 M12.77 20.53 C9.44 18.79, 5.71 16.14, 0.31 11.01 M17.5 22.58 C12.09 14.46, 5.88 12.92, -0.21 6.3 M19.12 22.04 C13.2 17.46, 8.03 12.11, -0.3 5.89 M26.07 20.94 C14.31 12.27, 4.7 3.74, 1.06 -1.61 M25.04 21.35 C18.15 16.91, 11.26 10.45, 0.49 -0.36 M29.56 21.92 C18.81 13.34, 12.56 2.87, 2.45 -4.06 M30.27 19.96 C21.33 13.17, 12.13 6.12, 3.04 -3.59 M28.11 16.78 C21.34 9.5, 14.22 2.95, 10.21 -1.26 M30.14 14.75 C23.62 11.24, 19.12 6.25, 9.75 -2.1 M27.99 11.14 C23.93 7.1, 20.16 0.99, 14.81 -4.45 M28.96 9.38 C25.06 5.46, 19.79 2.49, 14.57 -3.28 M30.17 5.78 C26.66 3.13, 25.26 1.14, 20.44 -2.59 M30.7 5.07 C27.31 3.04, 25.37 0.87, 20.79 -2.74" stroke="#7950f2" stroke-width="0.5" fill="none"></path><path d="M1.57 -0.32 C4.37 -0.51, 10.89 -0.07, 27.93 -0.32 M0.85 0.88 C7.85 -0.79, 14.56 0.52, 29.73 0.8 M27.76 -0.43 C28.52 7.4, 27.61 13.99, 27.94 20.8 M28.26 0.41 C28.57 5.66, 29.68 12.62, 28.66 20.59 M30.82 20.87 C22.36 22, 10.1 20.65, -0.74 22.28 M28.28 21.53 C20.4 20.58, 13.6 22.39, 0.66 21.06 M0.44 22.16 C-1.27 15.51, -0.26 13.21, 0.55 -0.9 M0.56 21.7 C-0.35 14.07, 0.41 5.98, -0.69 0.35" stroke="#000000" stroke-width="1" fill="none"></path></g><g stroke-linecap="round" transform="translate(295.7461727457244 237.23332057910602) rotate(0 14.610626097784234 10.607968919108771)"><path d="M0 0 C0 0, 0 0, 0 0 M0 0 C0 0, 0 0, 0 0 M0.06 6.75 C1.35 4.87, 2.91 1.75, 4.53 0.46 M-0.43 6.27 C0.79 4.71, 3.01 2.71, 4.76 0.07 M-1.1 10.9 C1.84 8.17, 5.25 6.76, 10.07 -0.58 M0.15 12.8 C4.79 7.87, 8.49 3.1, 10.56 0.52 M1.53 19.57 C3.79 13.43, 5.89 10.64, 16.6 -0.29 M0.12 17.99 C5.83 12.18, 11.98 6.24, 15.65 -0.05 M0.9 20.9 C6.88 18.98, 12.4 13.61, 20.64 0.12 M1.88 21.6 C8.26 13.94, 15.08 7.41, 20.54 -0.27 M8.26 22.06 C13.51 17.61, 15.5 10.2, 26.47 -0.04 M6.86 23.43 C13.16 17.08, 17.91 10.81, 27.03 -0.56 M13.47 21.29 C16.57 18.05, 20.51 14.57, 31.15 2.4 M12.19 21.8 C17.9 16.53, 23.61 10.45, 31.33 1.61 M19.01 24.49 C19.59 19.53, 24.18 13.72, 32.7 6.6 M17.4 22.12 C20.78 18.1, 22.77 15.5, 31 7.71 M22.49 22.68 C25.26 20.21, 28.08 16.81, 29.69 14.61 M23.1 22.18 C25.37 18.77, 28.58 15.65, 30.44 13.36 M0.06 21.27 C0.06 21.27, 0.06 21.27, 0.06 21.27 M0.06 21.27 C0.06 21.27, 0.06 21.27, 0.06 21.27 M7.13 21.05 C5.46 20.76, 2.68 19.25, -0.12 15.06 M6.79 21.41 C4.37 19.8, 2.35 18.57, -0.04 16.06 M12.49 21.32 C8.49 18.31, 8.5 17.31, -1.03 11.79 M12.34 21.22 C7.46 17.55, 4.54 14.66, 0.16 10.85 M18.11 19.52 C10.9 17.14, 4.59 10.53, -0.86 3.59 M18.28 21.8 C10.82 14.67, 3.7 9.58, 0.43 5.01 M23.5 20.35 C16.54 14.3, 12.35 8.38, -1.05 1.89 M24.33 21.92 C14.08 12.79, 6.14 4.8, 0.53 -0.73 M28.25 21.44 C20.88 10.16, 8.16 1.06, 2.93 -2.79 M29.93 20.65 C21.3 14.01, 14.29 6.1, 3.09 -3.34 M28.36 15.72 C22.98 10.76, 19.78 7.14, 8.17 -3.99 M28.76 15.81 C23.3 10.06, 17.85 5.02, 9.33 -2.67 M28.95 11.48 C26.03 6.1, 21.47 1.33, 14.97 -1.3 M29.94 9.47 C23.75 5.51, 18.16 -0.33, 14.55 -2.22 M29.36 5.4 C27.81 3.35, 23.96 0.53, 20.42 -2.86 M29.55 4.89 C26.14 1.54, 22.54 -1.14, 21.43 -2.4" stroke="#40c057" stroke-width="0.5" fill="none"></path><path d="M-1.87 -0.79 C4.4 -0.3, 10.71 -0.28, 28.38 -1.34 M0.31 -0.99 C6.23 0.06, 14 0.54, 29.57 -0.64 M28.65 0.29 C27.59 4.81, 27.78 9.66, 28.94 22.23 M28.46 -0.4 C29.37 7.91, 28.46 14.22, 29.18 21.17 M31 21.94 C18.03 20.54, 9.79 22.23, -0.64 19.23 M28.23 20.36 C18.25 22.26, 7.87 21.15, -0.7 21.02 M-1.31 20.39 C-0.35 15.13, 0.51 4.61, 1.15 -0.73 M-0.42 21.65 C0.21 15.69, -0.81 10.66, 0.35 -0.52" stroke="#000000" stroke-width="1" fill="none"></path></g><g stroke-linecap="round" transform="translate(368.56665129915064 192.7874942784897) rotate(0 14.610626097784234 10.607968919108771)"><path d="M0 0 C0 0, 0 0, 0 0 M0 0 C0 0, 0 0, 0 0 M-0.5 6.93 C0.32 4.61, 1.49 3.9, 4.83 0.86 M-0.64 6.39 C1.61 4.4, 2.5 2.71, 4.87 0.71 M-0.88 11.44 C3.16 9.49, 6.4 3.82, 12 -1.59 M0.63 12.62 C4.42 7.64, 8.36 2.96, 10.13 0.47 M0.17 17.89 C4.67 12.07, 13.3 3.25, 16.95 -0.5 M-0.01 18.7 C3.86 15.39, 6.95 9.97, 14.88 0.43 M2.46 23.92 C7.65 19.16, 9.13 13.6, 22.06 -1.07 M1.46 21.6 C7.05 16.59, 11.86 9.83, 20.95 -0.57 M8.12 23.5 C8.66 17.61, 14.67 13.41, 25.96 -0.58 M7.44 23.51 C12.13 17.15, 18.5 9.07, 25.34 0.94 M12.87 22.52 C18.78 16.72, 24.56 9.94, 30.52 0.79 M12.38 22.67 C16.73 18.29, 21.16 13.45, 30.11 0.92 M16.02 23.55 C21.13 16.86, 27.09 12.77, 29.63 7.85 M17.64 21.92 C21.83 16.85, 28.08 11.14, 31.14 7.76 M22.82 23.03 C25.04 20.35, 25.56 19.37, 31.49 13.84 M22.53 22.05 C24.92 19.87, 26.72 17.64, 31.18 13.45 M0.06 21.27 C0.06 21.27, 0.06 21.27, 0.06 21.27 M0.06 21.27 C0.06 21.27, 0.06 21.27, 0.06 21.27 M7.02 22.09 C3.82 20.22, 2.85 17.64, -0.54 15.53 M6.25 21.45 C4.15 20.17, 2.89 18.63, -0.77 15.87 M10.98 20.38 C9.34 17.98, 2.88 15.23, 0.37 11.98 M11.43 21.02 C9.65 19.16, 6.79 16.65, 0.62 10.24 M17.89 23.18 C11.91 16.64, 4.49 8.04, 1.46 6.23 M18.3 20.97 C11.73 16.4, 5.61 9.55, -0.75 5.96 M23.07 19.8 C18.1 13.07, 8.82 10.34, 1.57 1.81 M23.42 20.66 C16.52 13.83, 8.48 6.43, 0.95 -0.11 M31.6 19.32 C19.87 11.03, 10.41 3.67, 2.44 -2.05 M29.32 21.06 C23.79 14.48, 17.45 9.19, 2.3 -3.65 M28.32 15.32 C22.72 9.61, 12.72 -0.03, 8.97 -1.25 M29.51 15.38 C24.57 10.86, 18.49 5.37, 8.84 -3.63 M30.19 9.73 C24.55 4.08, 19.31 2.53, 16.34 -4.72 M29.45 10.65 C26.01 6.62, 22.37 4.52, 14.71 -3.09 M30.58 5.69 C26.24 2.43, 22.89 -0.72, 22.24 -1.7 M29.83 4.67 C27.09 2.66, 24.9 0.53, 20.52 -2.48" stroke="#fa5252" stroke-width="0.5" fill="none"></path><path d="M-1.6 -0.34 C7.01 -0.21, 15.74 -1.23, 27.84 1.7 M-0.51 0.32 C11.84 1.09, 23.02 -0.35, 28.6 -0.73 M27.74 -0.22 C27.88 5.49, 28.88 12.83, 30.22 19.29 M29.57 0.49 C28.5 6.6, 29.02 14.4, 29.42 22.02 M27.38 20.59 C20.22 22.39, 12.06 19.33, 1.53 19.33 M29.25 22.17 C20.2 20.81, 9.15 20.77, 0.7 21.43 M-0.31 22.98 C0.69 12.95, 1.29 5.76, -0.86 1.11 M0.33 21.14 C-0.6 14.17, 0.44 5.9, -0.83 -0.99" stroke="#000000" stroke-width="1" fill="none"></path></g><g stroke-linecap="round" transform="translate(340.40680964146986 233.49198250921336) rotate(0 14.610626097784234 10.607968919108771)"><path d="M0 0 C0 0, 0 0, 0 0 M0 0 C0 0, 0 0, 0 0 M-0.77 5.92 C1.1 4.38, 3.22 2.7, 4.85 0.03 M0.1 6.09 C0.98 4.48, 2.5 3.5, 5.07 0.05 M-0.3 13.29 C2.05 8.77, 6.38 5, 12.15 -0.01 M0.28 12.51 C4.13 7.76, 7.84 2.94, 11.43 0.63 M-1.47 19.4 C6.45 11.41, 12.41 4.74, 14.12 0.82 M0.36 19.4 C3.91 13.39, 7.16 9.24, 14.68 -0.01 M3.53 23.66 C5.11 17.73, 10.79 11.65, 20.89 0.52 M1.58 22.77 C4.88 17.98, 9.27 13.08, 20.31 0.78 M4.81 22.17 C11.66 16.74, 16.2 10.39, 25.95 0.88 M6.58 23.71 C14.03 14.04, 19.24 7.62, 26.49 0.92 M12.96 23.45 C17.07 18.52, 20.8 11.89, 29.04 1.37 M12.63 22.86 C17.07 17.94, 20 12.49, 30.6 2.31 M17.12 21.75 C24.24 16.39, 26.4 11.63, 32.88 7.46 M16.42 23.01 C20.21 20.17, 23.43 16.69, 30.34 6.76 M23.15 22.51 C24.3 20.78, 28.58 17.16, 30.31 13.96 M22.86 22.24 C24.56 20.24, 27.24 18.09, 30.94 13.28 M0.06 21.27 C0.06 21.27, 0.06 21.27, 0.06 21.27 M0.06 21.27 C0.06 21.27, 0.06 21.27, 0.06 21.27 M5.76 21.9 C4.96 19.55, 2.86 18.56, -0.5 16.29 M6.11 21.85 C4.92 20.34, 2.32 18.53, -0.17 15.73 M13.43 21.51 C7.35 18.96, 4.99 15.88, -1.18 11.12 M12.39 21.5 C8.58 18.07, 5.3 14.21, 0.5 10.48 M18.65 22.71 C14.16 16.77, 12.59 16.03, 0.91 4.56 M18.56 22.29 C12.91 15.74, 5.3 11.11, -0.4 4.67 M25.21 19.39 C16.76 17.13, 12.93 11.45, 0.68 0.39 M24.64 20.63 C15.37 11.96, 6.33 4.36, 0.65 -0.76 M29.62 19.56 C20.61 12.59, 10.84 5.27, 1.32 -2.72 M30.21 20.02 C22.1 13.21, 13.03 5.7, 3.52 -3.52 M30.59 16.45 C21.76 7.78, 15.68 4.53, 8.57 -4.01 M30.13 15.62 C21.86 8.32, 13.55 0.56, 9.6 -3.15 M29.9 8.67 C24.37 6.88, 20.08 -1.46, 13.46 -2.76 M29.66 9.84 C25.92 7.73, 22.32 3.59, 15.32 -3.77 M29.5 5.28 C26.42 2.44, 25.22 0.97, 21.21 -4.01 M29.85 5.13 C27.96 3.19, 24.48 0.88, 21.49 -3.03" stroke="#fab005" stroke-width="0.5" fill="none"></path><path d="M-1.29 -0.32 C6.77 -1.29, 13.84 1.75, 30.98 0.63 M0.5 0.8 C6.22 -0.73, 11.12 -0.82, 29.01 -0.28 M27.94 -0.41 C28.78 7.69, 30.06 11.43, 30.03 19.7 M28.66 -0.62 C29.25 5.47, 29.49 11.83, 29.05 22.1 M28.48 22.28 C18.75 19.13, 11.1 19.24, 0.63 19.23 M29.89 21.06 C22.26 21.3, 17.4 21.71, 0.47 20.56 M0.55 20.31 C1.18 15, -0.83 11.35, 0.97 -0.84 M-0.69 21.56 C0.28 13.41, -0.9 5.64, -0.17 0" stroke="#000000" stroke-width="1" fill="none"></path></g><g stroke-linecap="round" transform="translate(341.44901342572075 275.2363348594663) rotate(0 14.610626097784234 10.607968919108771)"><path d="M0 0 C0 0, 0 0, 0 0 M0 0 C0 0, 0 0, 0 0 M-0.72 6.49 C1.55 4.71, 3.49 1.67, 4.74 -0.4 M-0.49 6.1 C1.13 4.98, 2.91 2.52, 4.7 0.11 M-0.42 11.49 C4.29 7.23, 7.2 5.64, 12.14 0.96 M0.06 12.6 C3.52 7.98, 8.74 3.64, 11.08 0.08 M0.86 17.83 C5.62 12.6, 7.08 8.98, 14.73 0.55 M-0.1 18.06 C4.19 12.47, 9.13 6.12, 14.78 0.77 M0.96 22.76 C9.38 13.15, 15.44 6.43, 19.31 -0.31 M0.86 22.37 C5.26 17.44, 8.61 14.19, 20.83 0.71 M6.79 22.6 C12.94 14.7, 19.4 8.72, 27.25 2.04 M7.34 22.08 C12.71 15.32, 20.91 7.19, 25.62 0.62 M12.78 23.53 C17.56 15.52, 21.58 9.78, 29.09 1.75 M12.96 22.74 C17.41 15.37, 23.64 10.15, 31.37 0.82 M18.92 22.45 C20.44 18.51, 28.27 12.85, 29.42 7.94 M17.22 23.56 C20.28 20.39, 22.26 16.18, 31.12 7.04 M21.82 23.67 C26.3 19.78, 27.82 16.79, 30.07 12.82 M22.57 22.42 C25.07 20.51, 26.6 18.31, 30.33 13.53 M0.06 21.27 C0.06 21.27, 0.06 21.27, 0.06 21.27 M0.06 21.27 C0.06 21.27, 0.06 21.27, 0.06 21.27 M6.67 20.96 C3.84 19.33, 1.42 17.95, -0.57 15.2 M6.75 21.97 C4.15 20.16, 2.84 18.36, -0.28 15.31 M11.04 22.29 C9.3 19.86, 4.7 16.33, 0.19 9.3 M12.24 21.35 C9.22 17.8, 5.64 15.04, -0.72 10.39 M18 19.99 C12.97 16.38, 5.08 8.32, 0.44 4.6 M19.3 21.41 C13.26 18.31, 8.76 12.81, -0.7 4.46 M23.1 22.88 C19.81 17.57, 13.13 11.11, 1.82 -1.44 M24.68 20.26 C18.57 15.21, 11.85 8.98, 0.41 0.92 M30.1 20.83 C23.22 15.86, 15.7 9.62, 2.71 -3.95 M30.26 20.28 C19.99 11.66, 11.84 3.63, 2.99 -3.54 M28.54 13.73 C22.77 10.99, 15.9 2.6, 10.7 -2.52 M29.71 15.04 C22.13 8.17, 15.92 2.59, 9.77 -2.53 M30.07 11.82 C27.09 4.53, 19.87 2.72, 13.65 -3.75 M29.65 10.9 C24.28 5.2, 19.35 -0.3, 15 -2.75 M29.47 5.02 C28.09 3.37, 23.81 -1.76, 20.86 -3.44 M30.49 5.47 C27.38 3.48, 26.13 0.99, 20.49 -2.98" stroke="#fd7e14" stroke-width="0.5" fill="none"></path><path d="M-0.84 -1.34 C6.88 1.75, 18.28 0.67, 27.24 -1.02 M0.35 -0.64 C9.07 -0.96, 19.17 -0.52, 29.37 -0.74 M28.94 1.02 C30.08 4.2, 29.9 10.74, 28.42 21.92 M29.18 -0.05 C29.3 8.21, 28.93 15.7, 29.58 20.29 M28.58 19.23 C22.91 19.49, 14.16 19.39, -1.71 21.28 M28.52 21.02 C18.37 21.39, 6.58 20.52, -0.41 21.06 M1.15 20.49 C-0.92 14.09, 0.92 3.9, 0.88 0.66 M0.35 20.7 C-0.68 14.02, -0.02 8.79, -0.74 0.4" stroke="#000000" stroke-width="1" fill="none"></path></g><g stroke-linecap="round" transform="translate(385.80372014868817 235.12412806688508) rotate(0 14.610626097784234 10.607968919108771)"><path d="M0 0 C0 0, 0 0, 0 0 M0 0 C0 0, 0 0, 0 0 M-0.42 6.89 C0.9 4.61, 2.05 2.72, 4.98 1.09 M-0.38 6.75 C1.02 4.79, 1.82 3.5, 4.84 0.25 M1.5 10.48 C5.67 7.54, 9.62 3.94, 11.8 0.26 M-0.37 12.54 C4.71 8.3, 8.13 3.42, 10.41 -0.57 M1.2 17.62 C3.77 12.68, 9.85 6.11, 16.15 1.3 M-0.87 18.54 C5.17 10.98, 11.51 4.58, 16.29 1.3 M2.38 21.57 C8.25 15.12, 13.65 6.27, 19.32 -0.06 M1.26 22.07 C7.08 16.22, 13.89 8.91, 21.55 -0.94 M6.27 22.06 C11.4 17.63, 17.84 12.86, 27.41 0.32 M5.66 23.58 C14.06 15.18, 20.63 6.33, 26.24 0.67 M12.15 21.92 C16.96 15.11, 23.37 8.18, 30.84 2.25 M11.74 22.05 C18.18 16.38, 25.06 7.86, 30.9 1.37 M15.85 23.7 C22.31 19.5, 22.2 16.12, 29.02 5.5 M17.37 23.61 C20.85 17.58, 25.93 12.92, 31.41 7.31 M23.62 22.9 C24.87 20.22, 27 16.36, 29.8 13.5 M23.3 22.5 C25.12 20.03, 26.52 17.97, 30.46 13.02 M0.06 21.27 C0.06 21.27, 0.06 21.27, 0.06 21.27 M0.06 21.27 C0.06 21.27, 0.06 21.27, 0.06 21.27 M6.25 21.44 C3.96 20.14, 1.58 17.04, -0.49 14.92 M6.02 21.77 C4.06 19.51, 1.43 16.89, -0.55 16 M12.44 22.48 C7.06 18.31, 4.52 13.1, -0.21 11.21 M12.7 20.74 C8.38 17.38, 2.98 13.66, 0.74 10.7 M20.33 22.63 C12.92 14.83, 5.56 8.88, -1.23 5.12 M18.12 22.36 C10.99 14.69, 3.35 8.1, -0.97 5.53 M25.72 22.81 C19.65 17.01, 15.5 10.58, -0.69 1 M25.1 20.89 C18.34 14.54, 11.76 10.7, -0.65 -0.07 M29.61 21.57 C21.73 15.08, 16.4 8.01, 3.52 -2.16 M29.46 19.97 C24.02 14.3, 16.93 8.58, 2.79 -2.41 M29.35 16.46 C21.4 6.94, 15.9 1.81, 9.85 -1.28 M29.22 14.09 C22.48 8.11, 15.21 2.27, 8.89 -2.67 M31.44 8.4 C24.99 7.42, 21.64 3.35, 15.99 -3.32 M29.81 10.03 C26.1 5.73, 21.45 2.98, 15.24 -3.65 M31.3 6.17 C27.37 1.31, 24.08 -0.67, 20.41 -3.41 M29.58 5.39 C27.56 2.36, 23.63 -0.13, 21.08 -2.8" stroke="#82c91e" stroke-width="0.5" fill="none"></path><path d="M-1.38 1.7 C10.05 0.82, 14.61 -0.83, 29.85 1.01 M-0.63 -0.73 C10.89 -0.1, 22.36 -0.55, 29.11 -0.64 M30.22 -1.93 C30 4.41, 28.39 12.55, 30.2 20.1 M29.42 0.8 C29.04 5.93, 29.57 9.17, 28.91 20.84 M30.75 19.33 C19.53 18.94, 6.86 20.99, 1.91 22.54 M29.92 21.43 C21.37 20.5, 12.17 21.01, 0.88 21.49 M-0.86 22.33 C0.85 14.96, 0.75 11.07, -0.15 -1.39 M-0.83 20.23 C-0.24 14.11, -0.81 7.41, -0.25 0.56" stroke="#000000" stroke-width="1" fill="none"></path></g><g stroke-linecap="round" transform="translate(288.29275999228366 180.9740585982354) rotate(0 66.64698982506934 71.47187978547186)"><path d="M1.76 0.63 C29.06 -2.16, 62.71 -0.12, 134.9 0.7 M-0.22 -0.28 C31.57 0.23, 62.74 0.33, 133.09 -0.14 M134.1 -1.51 C133.2 50.85, 134.99 99.18, 132.05 142.86 M133.12 0.89 C133.94 41.32, 133.26 84.1, 133.83 142.62 M133.93 140.96 C104.86 141.75, 81.76 143.02, -0.31 141.55 M133.76 142.29 C95.44 143.08, 59.3 143.51, -0.45 143.52 M0.97 142.1 C1.49 105.93, 0.47 66.2, 0.7 0.7 M-0.17 142.94 C0.45 107.83, 0.94 72.48, -0.56 0.72" stroke="#000000" stroke-width="1" fill="none"></path></g><g transform="translate(323.5371247269618 306.19821846523155) rotate(0 38.5 10)"><text x="38.5" y="14" font-family="Virgil, Segoe UI Emoji" font-size="16px" fill="#000000" text-anchor="middle" style="white-space: pre;" direction="ltr">blockchain</text></g><g stroke-linecap="round"><g transform="translate(309.50041473212787 234.01339662476175) rotate(0 45.14344603988411 -8.752645501252573)"><path d="M0.63 1.01 C7.75 -5.76, 10.82 -14.27, 16.51 -20.22 M17.74 -21.07 C24.79 -14.56, 33.43 -7.97, 42.58 0.57 M45.48 -1.35 C50 -4.63, 57.82 -8.34, 75.82 -19.3 M73.59 -19.7 C82.1 -10.93, 85.77 -0.24, 89.65 3.57" stroke="#000000" stroke-width="1.5" fill="none" stroke-dasharray="1.5 7"></path></g></g><mask></mask><g stroke-linecap="round"><g transform="translate(311.9556476587427 259.390666965347) rotate(0 15.040447322618775 12.503968698089466)"><path d="M1.6 0.7 C6.02 4.58, 13.07 11.37, 28.48 24.31" stroke="#000000" stroke-width="1.5" fill="none" stroke-dasharray="1.5 7"></path></g></g><mask></mask><g stroke-linecap="round"><g transform="translate(355.263600593064 256.3138950125758) rotate(0 0.2990780552538581 7.717678480888026)"><path d="M-1.09 -1.06 C-0.07 5.47, 1.71 11.93, 1.69 16.49" stroke="#000000" stroke-width="1.5" fill="none" stroke-dasharray="1.5 7"></path></g></g><mask></mask><g stroke-linecap="round"><g transform="translate(398.6306193251671 258.09197774821814) rotate(0 -13.97196539374022 11.899707587966759)"><path d="M-1.46 -0.43 C-9.17 8.39, -18.53 16.13, -26.49 24.23" stroke="#000000" stroke-width="1.5" fill="none" stroke-dasharray="1.5 7"></path></g></g><mask></mask><g stroke-linecap="round"><g transform="translate(325.66228311769055 245.25384544281314) rotate(0 7.084372750860666 0.9023368622392809)"><path d="M-0.42 0.22 C2.41 0.08, 6.07 0.15, 14.59 1.64" stroke="#000000" stroke-width="1.5" fill="none" stroke-dasharray="1.5 7"></path></g></g><mask></mask><g stroke-linecap="round"><g transform="translate(369.4614680078844 244.95586228467528) rotate(0 9.097651306030002 -1.7598691859707287)"><path d="M-1.38 -0.21 C4 -0.83, 10.12 0.08, 19.58 -3.31" stroke="#000000" stroke-width="1.5" fill="none" stroke-dasharray="1.5 7"></path></g></g><mask></mask><g transform="translate(112.02276516854681 341.7678451246602) rotate(0 117.5 8.5)"><text x="117.5" y="12" font-family="Virgil, Segoe UI Emoji" font-size="13.833752208767338px" fill="#000000" text-anchor="middle" style="white-space: pre;" direction="ltr">fig. Single server with a blockchain</text></g></svg>