<svg version="1.1" xmlns="http://www.w3.org/2000/svg" viewBox="0 0 437.8713557441579 389.7459553127842" width="437.8713557441579" height="389.7459553127842">
  <!-- svg-source:excalidraw -->
  
  <defs>
    <style class="style-fonts">
      @font-face {
        font-family: "Virgil";
        src: url("https://excalidraw.com/Virgil.woff2");
      }
      @font-face {
        font-family: "Cascadia";
        src: url("https://excalidraw.com/Cascadia.woff2");
      }
    </style>
  </defs>
  <g stroke-linecap="round" transform="translate(10 10) rotate(0 208.93567787207894 184.8729776563921)"><path d="M-0.66 1.32 C159.22 -4.27, 321.09 -0.69, 415.94 1.81 M0.13 -0.98 C111.99 2.32, 225.15 2.75, 418.65 0.37 M420.14 0.71 C419.95 106.89, 421.1 213.39, 417.11 371.43 M417.08 -0.93 C422.24 112.81, 420.63 223.81, 419 370.37 M417.22 371.86 C328.23 373.11, 238.11 373.23, 0.82 370.74 M418.38 370.72 C294.89 367.9, 172.8 366.67, -0.14 369.68 M0.04 369.1 C-3.35 282.01, -0.99 194.38, -0.87 1.18 M-1.11 370.41 C-2.77 269.04, -3.04 169.18, 0.01 0.73" stroke="#000000" stroke-width="1" fill="none"></path></g><g stroke-linecap="round" transform="translate(272.7419188354197 31.178029989127936) rotate(0 55.22225050604311 55.22225050604288)"><path d="M12.36 18.7 C12.36 18.7, 12.36 18.7, 12.36 18.7 M12.36 18.7 C12.36 18.7, 12.36 18.7, 12.36 18.7 M5.13 32.44 C14.58 24.15, 18.94 17.13, 23.24 10.82 M5.55 31.43 C13.53 23.02, 19.78 16.72, 22.98 11.93 M-1.01 45.32 C8.93 33.76, 19.18 25.32, 34.87 3.12 M1.47 44.37 C9.8 33.13, 18.43 23.99, 35.57 4.33 M2.6 49.8 C10.02 41.47, 20 29.72, 38.26 5.81 M1.83 49.47 C10.57 38.44, 22.09 26.79, 40.09 5.83 M0.94 55.5 C15.58 40.42, 29.9 24.98, 45.37 3.87 M2.28 55.99 C13 41.76, 24.02 29.21, 45.09 4.36 M0.17 62.46 C20.13 40.96, 36.5 23.21, 50.57 5.83 M1.46 61.05 C20.29 40.16, 38.61 19.19, 51.92 4.31 M2.73 66.95 C20.83 45.03, 41.79 22.39, 54.84 5.9 M2.66 66.9 C14.76 52.04, 28 35.57, 57.33 4.19 M4.35 72.44 C25.13 48.38, 46.82 22.5, 61.42 4.54 M3.25 73.43 C19.61 51.38, 36.7 32.79, 61.68 4.67 M4.99 74.36 C25.18 52.85, 43.77 31.3, 69.52 2.67 M4.2 76.41 C25.38 53.49, 43.67 28.88, 69.1 2.29 M7.99 77.91 C29.67 53.49, 50.92 30.57, 70.66 5.93 M7.63 78.78 C21.52 63.36, 34.43 46.8, 72.4 5.26 M10.9 82.21 C27.22 64.41, 44.44 45.75, 75.57 8.42 M10.25 82.35 C34 56.01, 58.14 28.12, 76.39 6.64 M12.57 85.62 C25.71 70.14, 38.62 55.51, 78.64 9.46 M12.88 86.58 C36.47 57.45, 59.43 30.9, 78.88 8.66 M14.14 88.7 C31.85 68.6, 54.86 43.37, 81.51 9.58 M13.95 89.07 C37.32 63.15, 59.59 37.8, 82.77 10.18 M16 93.27 C42.55 64.79, 67.82 35.32, 86.8 12.81 M16.99 92.05 C43.41 63.9, 67.19 34.15, 88.25 10.44 M18.87 97.31 C35.31 78.31, 51.9 57.93, 92.41 12.62 M20.15 96.91 C46.65 66.13, 72.86 35.99, 91.63 12.59 M20.71 98.07 C47.01 71.56, 71.94 42.31, 96.5 14.46 M21.68 98.65 C43.4 72.52, 66.96 47.6, 94.81 15.68 M27.08 101.49 C50.02 74.56, 73.55 46.64, 98.55 19.26 M24.77 100.93 C44.59 80.38, 64.43 56.76, 96.83 17.62 M28.22 101.73 C47.34 86.94, 63.72 67.7, 100.28 21.89 M29.07 103.05 C49.45 79.84, 67.74 57.01, 99.29 23.23 M32.59 102.93 C56.45 76.15, 83.94 46.94, 101.35 27.7 M32.83 105.21 C47.84 87.68, 64.84 69.74, 100.59 26.21 M35.98 106.71 C57.52 80.4, 81.86 52.85, 105.73 30.53 M36.42 105.49 C51.46 89.06, 66.54 72.95, 104.73 28.66 M42.42 106.63 C61.11 81.93, 84.57 58.61, 105.34 32.65 M39.8 107.85 C60.08 86.64, 79.57 65.28, 105.52 32.56 M43.25 109.48 C64.85 87.02, 84.55 61.59, 107.72 37.34 M44.04 108.92 C59.67 92.19, 75.82 73.84, 108.68 37.79 M50.04 110.26 C72.1 84.65, 89.96 62.88, 109.67 43.09 M50.82 108.42 C68.4 87.75, 86.68 68.65, 108.07 41.89 M57.06 110.23 C76.82 84.68, 99 62.11, 107.61 49.08 M55.3 108.78 C74.42 87.76, 91.51 67.31, 108.45 49 M60.13 109.06 C80.39 87.53, 97.36 69.3, 109.9 54.97 M61.53 108.76 C77.99 89.14, 95.39 69.14, 108.37 55.16 M68.38 109.93 C83.96 90.45, 101.43 71.16, 107.18 58.9 M66.7 108.04 C80.05 93.62, 93.21 77.39, 109 59.81 M71.86 107.48 C81.11 97.41, 94.17 84.89, 108.07 65.48 M73.28 108.69 C86.85 91.97, 100.43 75.76, 108.29 65.3 M85.16 99.26 C92.9 92.29, 95.66 87.74, 106.18 75.57 M85.04 100.11 C92.27 91.97, 99.82 84.1, 104.53 78.12 M18.77 97.3 C18.77 97.3, 18.77 97.3, 18.77 97.3 M18.77 97.3 C18.77 97.3, 18.77 97.3, 18.77 97.3 M28.71 104.1 C25.61 96.24, 20.99 92.34, 9.43 83.5 M29.69 102.4 C23.4 95.57, 15.11 88.64, 9.55 84.2 M41.26 105.99 C33.35 100.76, 25.9 90.71, 4.49 71.56 M41.94 107.39 C28.08 93.66, 11.1 81.8, 2.74 72.08 M46.3 106.8 C35.52 98.55, 28.64 87.82, 2.4 67.82 M47.23 105.46 C30.81 92.11, 16.1 79.24, 2.48 67.8 M54.41 106 C37.26 91.5, 18.65 78.49, 2.41 61.94 M52.97 104.57 C36.6 89.66, 18.07 75.59, 2.83 60.78 M60.86 107.11 C42.63 92.43, 24.1 76.11, 2.09 57.07 M59.15 106.08 C45.23 93.07, 31.27 81.7, 2.5 56.85 M64.47 105.2 C48.23 89.98, 30.57 78.66, 0.28 51.56 M65.58 105.89 C45.73 86.73, 24.74 69.66, 2.29 49.45 M74.59 107.16 C47.92 84.05, 19.33 60.86, 2.11 45.97 M73.48 108.11 C47.73 86.73, 23.18 63.54, 0.66 44.17 M74.83 103.59 C48.52 79.69, 18.15 54.16, 2.26 40.08 M77.6 104.49 C48.78 80.52, 21.03 57.27, 3.38 41.24 M81.6 102.12 C57.43 84.51, 39.49 64.62, 3.16 37.93 M79.39 103.23 C64.29 89.48, 47.67 73.41, 4.35 38.05 M82.37 102.02 C61.94 83.65, 41.08 62.05, 6.77 32.74 M83.61 101.09 C57.64 78.73, 31.17 55.68, 5.82 33.62 M85.85 97.77 C64.7 79.64, 40.12 56.45, 9.36 31.96 M87.15 98.45 C69.79 81.07, 50.45 66.53, 7.65 29.12 M91.04 94.06 C72.24 79.99, 52.37 63.55, 10.47 28.26 M90.49 95.86 C65.65 74.68, 40.74 52.31, 10.82 26.34 M92.24 92.82 C60.35 64.6, 28.92 39.3, 13.9 22.52 M93.24 92.49 C64.54 67.45, 33.54 41.45, 12.92 22.22 M96.01 92.17 C68.26 63.03, 34.53 38.34, 12 18.2 M97.6 90.65 C81.67 77.51, 64.66 62.12, 12.87 18.68 M101.45 88.82 C64.7 58.83, 34.77 29.35, 15.18 16.24 M99.14 87.64 C78.16 69.95, 56.47 50.08, 17.01 15.08 M102.67 86.34 C74.55 59.89, 43.82 35.95, 19.82 14.21 M101.79 83.56 C72.83 61.5, 46.77 36.25, 19.47 12.8 M101.86 82.18 C85.68 63.34, 64.84 48.74, 24.88 11.88 M103.33 79.8 C74.93 56.6, 46.87 31.12, 23.29 10.35 M103.95 76.68 C88.74 63.75, 70.82 49.78, 27.32 8.88 M104.65 75.59 C83.53 56.67, 61.52 38.88, 28.34 8.52 M105.42 71.41 C85.45 53.74, 67.42 37.47, 32.15 9.09 M107.03 73.75 C81.87 52.18, 58.33 31.31, 31.85 6.29 M106.77 68.13 C80.88 45.1, 50.77 18.43, 33.9 3.6 M109.07 69.28 C91.81 55.36, 76.9 43.24, 34.44 5.25 M107.79 65.88 C82.31 42.46, 55.5 16.12, 38.65 3.03 M108.49 63.83 C92.21 49.31, 73.53 34.66, 38.55 1.44 M108.52 59.87 C90.09 42.35, 69.22 26.93, 44 3.21 M109.62 58.18 C85.83 41.03, 65.1 21.21, 43.03 2.55 M108.6 54.52 C91.41 38.14, 75.87 24.23, 49.32 2.25 M109.16 52.73 C93.91 39.89, 78.87 27.07, 49.77 2.46 M108.38 47.16 C92.41 35.58, 76.35 19.81, 55.53 1.42 M107.92 48.69 C93.51 34.28, 76.22 20.98, 54.08 1.65 M107.54 40.33 C97.24 32.81, 89.2 23.44, 59.81 2.26 M107.8 41.93 C93.77 29.96, 80.79 16.58, 59.84 1.75 M106.02 36.79 C96.14 25.35, 83.25 14.36, 65.39 2.14 M107.33 37.46 C93.88 24.34, 80.53 12.04, 65.82 0.68 M98.24 24.61 C94.47 21.98, 92.29 17.44, 78.31 8.6 M100.35 24 C92.9 17.59, 86.08 12.75, 78.91 6.45" stroke="#a3aefd" stroke-width="0.5" fill="none"></path><path d="M66.54 1.53 C75.24 2.17, 85.47 7.02, 92.21 12.84 C98.95 18.66, 104.26 27.76, 106.99 36.44 C109.73 45.13, 110.22 55.85, 108.64 64.96 C107.06 74.07, 103.58 83.89, 97.53 91.09 C91.47 98.3, 81.15 105.27, 72.32 108.18 C63.5 111.08, 53.55 110.38, 44.57 108.53 C35.6 106.67, 25.51 102.82, 18.47 97.05 C11.44 91.28, 5.38 82.73, 2.36 73.91 C-0.66 65.09, -1.37 53.39, 0.35 44.13 C2.07 34.86, 6.55 25.14, 12.67 18.34 C18.8 11.53, 27.36 6.02, 37.09 3.28 C46.83 0.55, 64.38 1.58, 71.07 1.93 C77.77 2.29, 77.6 4.29, 77.28 5.41 M31.96 5.26 C40.05 1.32, 52.51 0.87, 61.73 1.62 C70.94 2.37, 79.97 4.75, 87.26 9.78 C94.55 14.81, 101.42 23.24, 105.49 31.79 C109.56 40.34, 112.34 51.99, 111.67 61.06 C111 70.12, 107.07 78.98, 101.46 86.16 C95.84 93.34, 86.75 100.23, 77.99 104.15 C69.24 108.07, 58.16 110.11, 48.94 109.7 C39.72 109.29, 30.16 106.67, 22.66 101.67 C15.15 96.67, 7.4 88.52, 3.91 79.71 C0.42 70.89, 0.58 58.26, 1.73 48.78 C2.87 39.3, 5.6 30.29, 10.8 22.84 C16 15.39, 29.27 6.71, 32.92 4.06 C36.58 1.41, 32.4 6.09, 32.74 6.94" stroke="#000000" stroke-width="1" fill="none"></path></g><g transform="translate(306.4641693414628 73.9002804951715) rotate(0 21.5 12.5)"><text x="21.5" y="18" font-family="Virgil, Segoe UI Emoji" font-size="20px" fill="#000000" text-anchor="middle" style="white-space: pre;" direction="ltr">DNS</text></g><g stroke-linecap="round" transform="translate(77.6464690390685 210.69984268183816) rotate(0 57.32966042055932 35.53046255029403)"><path d="M0 0 C0 0, 0 0, 0 0 M0 0 C0 0, 0 0, 0 0 M-0.03 5.8 C1.53 4.68, 3.59 3.21, 5.6 0.15 M-0.08 6.18 C1.34 4.67, 2.53 3.11, 4.81 0.23 M-1.04 11.33 C3.49 9.64, 3.78 7.84, 11.83 1.51 M-0.63 12.74 C2.65 7.78, 6.64 4.34, 10.81 0.52 M0.43 20.16 C6.87 14.21, 12.03 5.37, 15.95 -1.66 M-0.66 17.94 C3.58 14.35, 5.56 11.07, 15.62 0.87 M-0.14 23.01 C9.37 15.91, 15.84 4.64, 20.25 -0.25 M0.4 23.36 C6.18 17.56, 12.93 10.08, 21.84 0.11 M1.83 32.1 C5.23 25.25, 12.83 15.52, 24.82 -0.93 M0.09 30.25 C7.1 21.8, 15.33 13.45, 27.01 -0.1 M1.37 36.82 C8.27 26.23, 14.54 17.47, 31.35 -1.52 M-0.73 36.5 C10.2 25.08, 21.54 12.5, 30.91 -0.62 M0.75 42.88 C13.42 26.43, 27.95 12.72, 37.09 0.45 M0.41 42.64 C12.78 27.53, 26.76 12.64, 36.81 0.82 M-1.53 47.49 C11.16 39.4, 17.46 25.33, 43.15 -1.26 M0.19 49.56 C15.36 31.26, 31.27 12.78, 43.27 -0.93 M0.9 55.16 C13.02 41.04, 27.42 22.3, 48.23 1.38 M0.51 54.72 C11.87 40.95, 24.36 28.01, 47.35 1.12 M-0.03 60.68 C13.36 46.82, 26.39 28.97, 52.86 1.7 M-0.18 61.75 C16.3 41.7, 31.8 24.2, 52.38 -0.46 M0.83 68.87 C9.65 55.67, 22.36 40.13, 57.18 1.29 M0.18 66.6 C21.13 43.17, 42.71 18.09, 57.21 0.04 M-0.52 73.06 C23.06 49.93, 43.92 23.28, 65.18 1.03 M0.42 72.57 C16.06 55.36, 30.7 38.67, 63.94 -1.11 M7.12 70.61 C22.99 52.64, 35.87 36.18, 70.43 0.08 M6.01 72.32 C26.19 48.85, 47.31 27.19, 69.21 0.54 M10.64 71.97 C27.78 51.27, 44.66 33.79, 76.34 -1.12 M11 71.43 C27.37 53.87, 43.33 36.73, 73.91 -1.01 M18.71 72.32 C38.7 43.61, 64.49 19.58, 77.92 -1.83 M17.66 72.52 C33.61 53.01, 47.42 36.22, 78.45 -0.63 M23.58 71.14 C42.82 46.75, 63.13 26.51, 86.03 -2.07 M21.79 71.37 C33.53 57.79, 47.68 43.24, 84.51 -0.58 M29.36 71.19 C45.35 50.85, 63.77 27.76, 89.11 0.47 M28.43 72.33 C45.44 51.76, 64.39 30.55, 90.26 1 M33.76 73.5 C54.48 44.61, 78.76 17.8, 97.47 1.34 M33.13 71.89 C51.6 49.8, 70.24 29.32, 96.17 -0.45 M40.3 72.39 C52.83 52.38, 68.28 36.37, 100.98 0.4 M37.75 72.11 C60.9 46.93, 83.21 19.01, 100.22 -0.34 M44.14 70.46 C58.68 51.84, 78.15 28.95, 105.37 0.77 M43.61 72.2 C65.4 47.26, 87.48 23.61, 105.62 0.49 M48.24 73.58 C59.8 56.36, 74.44 43.72, 109.97 -0.13 M49.33 71.95 C71.12 47.02, 93.27 22.96, 112.15 -0.66 M53.17 73.92 C66.04 58.07, 80.47 43.91, 114.63 1.9 M54.05 71.29 C72.53 50.71, 92.29 27.69, 116.5 0.6 M61.37 72.92 C71.61 57.63, 81.72 46.38, 114.15 8.09 M59.14 71.72 C77.49 51.51, 95.28 32.25, 116.24 6.55 M62.83 72.31 C76.9 55.59, 90.13 41.89, 115.09 14.44 M65.53 71.89 C81.07 53.13, 98.59 31.71, 116.14 13.54 M71.42 73.08 C85.04 56.55, 98.16 41.16, 113.63 19.21 M69.38 71.02 C83.38 55.96, 94.96 41.64, 115.48 20.03 M74.57 70.53 C84 58.02, 93.76 48.32, 117.14 24.99 M75.39 72.48 C90.05 55.17, 104.62 37.42, 115.18 25.1 M81.59 73.23 C92.62 57.8, 107.4 38.55, 117.27 29.87 M80.51 71.21 C90.28 60.39, 99.25 51.41, 116.34 32.21 M85.36 70.01 C97.98 60.84, 107.77 47.66, 117.5 39.22 M85.22 71.29 C93.58 61.36, 103.02 51.27, 115.33 37.39 M89.94 73.77 C101.36 61.7, 108.01 51.6, 114.89 44.72 M90.58 72.14 C97.72 65.38, 104.03 57.91, 115.02 42.82 M95.65 72.66 C105.13 64.34, 112.34 55.38, 115.72 48.05 M96.83 72.3 C103.92 63.14, 110.02 55.45, 115.9 51.01 M100 73.37 C107.27 65.37, 113.87 58.81, 116.45 56.18 M101.86 73.17 C105.09 68.72, 107.01 64.78, 116.59 56.6 M105.99 72.54 C109.5 66.87, 114.76 64.4, 116.4 61.14 M106.59 71.48 C109.78 69.1, 111.93 66.27, 116.12 62.08 M112.31 72.62 C113.42 70.19, 115.42 68.66, 115.83 68.16 M112.33 72.08 C113.12 70.7, 114.16 69.9, 116.13 67.82 M0.29 71.31 C0.29 71.31, 0.29 71.31, 0.29 71.31 M0.29 71.31 C0.29 71.31, 0.29 71.31, 0.29 71.31 M5.48 70.49 C4.07 68.24, 2 67.19, 0.11 66.2 M6.1 70.8 C4.1 69.41, 1.42 67.58, -0.19 65.49 M12.55 69.89 C10.13 69.39, 4.36 64.61, -1.23 59.31 M12.44 71.79 C8.37 68.02, 4.38 63.38, -0.24 60.48 M19.68 70.77 C10.5 67.57, 7.3 61.33, 0.39 53.1 M18.94 70.74 C12.4 65.61, 6.73 60.46, 0.76 55.7 M24.93 69.92 C14.96 63.83, 8.9 56.4, -0.73 51.38 M23.98 70.47 C16.55 63.55, 9.65 56.9, -0.47 50.51 M32.2 69.82 C23.87 62.55, 12.7 56.39, -0.88 42.48 M31.16 71.27 C23.21 65.46, 15.61 58.6, -0.47 43.78 M35.56 70.51 C30.13 65.71, 20.74 57.83, 0.22 39.96 M36.19 71.35 C28.54 64.7, 19.11 55.7, 0.02 38.7 M44.56 72.33 C28.99 57.96, 17.96 47.02, 0.08 34.04 M43.71 70.51 C26.92 58.61, 12.74 45.13, 0.36 32.92 M49.96 72.25 C35.05 57.64, 20.76 48.1, -1.55 29.86 M48.44 71.06 C37.41 60.58, 25.04 51.56, 0.58 29.35 M56.74 70.14 C39.82 55.64, 25.97 45.02, -1.75 23.2 M55.8 70.49 C39.94 57.09, 24.14 45.07, -0.18 22.37 M61.85 73.21 C39.82 53.04, 21.79 36.12, -1.33 18.75 M61.07 70.49 C49.32 60.03, 36.17 48.78, 0.9 18.58 M67.44 70.92 C45.73 53.5, 25.82 34.23, 0.08 13.86 M66.15 70.31 C40.58 47.79, 12.69 25.59, -1.26 13.09 M74.17 69.99 C46.96 46.72, 19.33 23.24, 1.09 8.79 M72.38 70.31 C56.54 57.98, 40.06 43.31, 0.94 8.23 M78.88 70.81 C48.65 44.3, 23.75 20.83, -0.48 2.45 M79.7 70.82 C57.56 52.64, 38.46 35.56, 0.21 1.82 M83.64 69.66 C63.95 51.86, 39.49 33, 2.94 -0.03 M85.23 70.9 C55.42 45.13, 26.96 19.74, 2.43 -2.78 M93.51 71.15 C61.43 48.23, 32.51 21.54, 6.35 -2.9 M92.43 71.27 C73.96 56.13, 57.83 42.65, 7.86 -1.74 M97.73 71.14 C72.37 52.03, 50.89 31.91, 12.47 -0.69 M97.93 71.75 C65.77 44, 35.36 16.25, 12.86 -1.21 M103.05 71.78 C83.21 52.71, 57.42 31.35, 21 -0.73 M104.27 70.73 C75.52 44.96, 45.62 21.51, 20.74 -1.3 M111.39 69.85 C83.53 48.14, 58.83 27.73, 25.85 -2.7 M109.09 70.09 C82.43 46.43, 55.22 23.35, 26.4 -1.15 M116.19 70.37 C86.77 44.67, 57.73 23.58, 32.15 -0.39 M114.94 71.29 C85.62 43.56, 54.06 15.31, 32.91 -2.16 M117.05 64.43 C97.57 47.63, 77 33.87, 38.02 -1.25 M115.48 65.64 C87.89 41.62, 60.43 16.46, 38.74 -1.09 M114.6 59.9 C88.1 35.24, 60.75 11.85, 43.77 -3.46 M115.82 59.62 C90.48 38.99, 67.18 16.41, 44.46 -2.59 M116.67 55.32 C98.82 41.5, 78.94 25.63, 49.2 -0.97 M116.19 55.15 C99.84 41.59, 84.29 28.08, 49.58 -1.73 M113.29 48.88 C101.64 34.16, 86.64 20.53, 55.31 -3.05 M114.44 49.17 C98.65 34.66, 80.82 19.77, 55.72 -1.11 M113.74 44.67 C98.54 27.17, 79.98 9.61, 61.34 -0.06 M114.59 44.33 C99.78 30.63, 85.07 17.71, 63.14 -2.07 M115.49 40.46 C102.19 28.38, 92.43 18.77, 70.49 -3.06 M115.27 39.29 C104.42 29.46, 93.49 21.94, 68.01 -1.83 M117.24 33.9 C104.17 23.52, 94.87 12.21, 75.17 -0.84 M116.26 33.42 C99.14 19.07, 83.54 6.99, 75.12 -1.99 M115.89 26.31 C103.35 18.38, 96.06 11.97, 82.27 -0.92 M115 27.09 C103.79 17.75, 93.45 7.72, 80.67 -1.08 M115.61 20.92 C106.42 16.1, 99.61 11.31, 86.89 -1.16 M115.04 22.4 C108.8 17.1, 103.49 12.75, 87.49 -1.64 M116.72 18.6 C110.03 12.19, 102.3 5.2, 93.35 -3.53 M114.59 17.43 C106.44 10.62, 97.51 3.02, 93.54 -1.47 M116.82 12.15 C107.78 6.54, 103.82 0.92, 100.96 -1.69 M115.01 13 C112.12 9.27, 108.67 5.41, 99.19 -0.75 M115.39 6.2 C110.56 3.57, 108.75 0.37, 105.15 -1.98 M115.12 6.8 C111.86 4.29, 108.89 1.43, 105.62 -2.33 M115.49 1.83 C114.22 1.12, 113.91 -0.16, 111.35 -1.4 M115.03 1.38 C114.27 0.69, 113.17 0.11, 111.37 -1.58" stroke="#ced4da" stroke-width="0.5" fill="none"></path><path d="M-1.92 -1.79 C30.91 0.96, 58.19 -0.26, 112.98 -1.62 M0.56 0.2 C27.33 -0.55, 56.04 0.36, 113.98 -0.69 M115.89 -0.05 C114.49 25.32, 115.61 48.65, 114.58 72.98 M115.35 -0.62 C114.14 27.48, 114.71 54.98, 115.23 71.29 M115.65 70.98 C87.67 72.4, 60.99 72.64, -1.88 71.69 M115.38 70.75 C83.33 71.41, 52.44 71.75, 0.17 70.55 M1.22 69.37 C-2.16 49.86, -1.38 29.87, 1.72 1.24 M-0.65 70.6 C-1.4 45.98, -1.39 21.09, -0.39 0.97" stroke="#000000" stroke-width="1" fill="none"></path></g><g transform="translate(103.87600713088523 231.3206079210613) rotate(0 31 12.5)"><text x="31" y="18" font-family="Virgil, Segoe UI Emoji" font-size="20px" fill="#000000" text-anchor="middle" style="white-space: pre;" direction="ltr">server</text></g><g mask="url(#mask-sLatGba95IxnMbwLZPYie)" stroke-linecap="round"><g transform="translate(182.9043438476665 61.69344200044861) rotate(0 46.896400168531045 -3.905903393914741)"><path d="M0.97 0.73 C9.46 -0.65, 36.33 -7.16, 51.4 -7.25 C66.47 -7.34, 84.76 -1.01, 91.4 0.17 M0.02 0.06 C8.36 -1.13, 35.13 -9.17, 50.75 -8.98 C66.38 -8.8, 87.09 -0.41, 93.77 1.17" stroke="#000000" stroke-width="1" fill="none"></path></g><g transform="translate(182.9043438476665 61.69344200044861) rotate(0 46.896400168531045 -3.905903393914741)"><path d="M73.77 3.21 C80.99 0.07, 85.93 -0.6, 92.26 -0.79 M73.24 2.32 C79.65 1.61, 88.73 1.01, 94.65 0.47" stroke="#000000" stroke-width="1" fill="none"></path></g><g transform="translate(182.9043438476665 61.69344200044861) rotate(0 46.896400168531045 -3.905903393914741)"><path d="M78.04 -10.67 C83.92 -9.07, 87.43 -5.03, 92.26 -0.79 M77.51 -11.57 C82.25 -7.1, 89.73 -2.5, 94.65 0.47" stroke="#000000" stroke-width="1" fill="none"></path></g></g><mask id="mask-sLatGba95IxnMbwLZPYie"><rect x="0" y="0" fill="#fff" width="375.2882874636366" height="170.46138482667106"></rect><rect x="230.7236971155412" y="43.69721483699914" fill="#000" width="6" height="20" opacity="1"></rect></mask><g transform="translate(230.7236971155412 43.69721483699914) rotate(0 -0.9229530993436583 14.090323769534734)"><text x="3" y="14" font-family="Virgil, Segoe UI Emoji" font-size="16px" fill="#000000" text-anchor="middle" style="white-space: pre;" direction="ltr">1</text></g><g mask="url(#mask-CJKwTbqbKFKbCyuoy7qSR)" stroke-linecap="round"><g transform="translate(274.9411276895016 106.0784437845623) rotate(0 -46.4371474534089 -8.461085439329509)"><path d="M-0.99 -0.6 C-10.13 -1.08, -38.88 0.56, -54.31 -2.13 C-69.74 -4.82, -87.12 -14.02, -93.57 -16.75 M0.7 1.7 C-8.15 1.28, -36.88 2.32, -52.21 -1.07 C-67.54 -4.45, -84.48 -15.83, -91.29 -18.62" stroke="#000000" stroke-width="1" fill="none"></path></g><g transform="translate(274.9411276895016 106.0784437845623) rotate(0 -46.4371474534089 -8.461085439329509)"><path d="M-71.18 -17.92 C-79.06 -19.03, -83.4 -18.98, -92.7 -17.25 M-69.91 -16.56 C-75.75 -17.57, -83.48 -18.67, -91.81 -18.94" stroke="#000000" stroke-width="1" fill="none"></path></g><g transform="translate(274.9411276895016 106.0784437845623) rotate(0 -46.4371474534089 -8.461085439329509)"><path d="M-77.83 -4.97 C-83.47 -10.53, -85.5 -14.99, -92.7 -17.25 M-76.56 -3.61 C-80.24 -8.56, -85.94 -13.63, -91.81 -18.94" stroke="#000000" stroke-width="1" fill="none"></path></g></g><mask id="mask-CJKwTbqbKFKbCyuoy7qSR"><rect x="0" y="0" fill="#fff" width="467.33425079918743" height="223.72540199397918"></rect><rect x="215.29993732368257" y="94.85903491352701" fill="#000" width="13" height="20" opacity="1"></rect></mask><g transform="translate(215.29993732368257 94.85903491352701) rotate(0 13.20404291241016 2.758323431705776)"><text x="6.5" y="14" font-family="Virgil, Segoe UI Emoji" font-size="16px" fill="#000000" text-anchor="middle" style="white-space: pre;" direction="ltr">2</text></g><g mask="url(#mask-M-stj0Iuq7LRdEexa7w3r)" stroke-linecap="round"><g transform="translate(106.6513635775741 128.60390175985867) rotate(0 -3.302490219941774 39.60737110074342)"><path d="M0.68 0.25 C-0.36 6.86, -6.48 26.66, -7.19 39.93 C-7.91 53.21, -4.03 73.48, -3.61 79.89 M-0.43 -0.67 C-0.99 6.1, -4.21 28.16, -4.85 41.26 C-5.48 54.35, -4.24 71.6, -4.24 77.9" stroke="#000000" stroke-width="1" fill="none"></path></g><g transform="translate(106.6513635775741 128.60390175985867) rotate(0 -3.302490219941774 39.60737110074342)"><path d="M-11.06 58.68 C-10.51 64.14, -7.16 66.35, -5.58 78.86 M-11.48 60.03 C-9.6 64.38, -8.79 67.43, -3.3 78.68" stroke="#000000" stroke-width="1" fill="none"></path></g><g transform="translate(106.6513635775741 128.60390175985867) rotate(0 -3.302490219941774 39.60737110074342)"><path d="M2.26 58.27 C-0.1 63.9, 0.34 66.19, -5.58 78.86 M1.84 59.63 C0.88 64.14, -1.14 67.28, -3.3 78.68" stroke="#000000" stroke-width="1" fill="none"></path></g></g><mask id="mask-M-stj0Iuq7LRdEexa7w3r"><rect x="0" y="0" fill="#fff" width="213.14546874312782" height="307.80659087094637"></rect><rect x="93.65725841202038" y="158.9446661249176" fill="#000" width="13" height="20" opacity="1"></rect></mask><g transform="translate(93.65725841202038 158.9446661249176) rotate(0 9.691614945611946 9.26660673568449)"><text x="6.5" y="14" font-family="Virgil, Segoe UI Emoji" font-size="16px" fill="#000000" text-anchor="middle" style="white-space: pre;" direction="ltr">3</text></g><g mask="url(#mask-YOryP0VI7o93vc8UAaH7-)" stroke-linecap="round"><g transform="translate(139.91328929058636 208.9825797119388) rotate(0 7.015440083094745 -39.54552154341013)"><path d="M0.26 0.68 C2.47 -5.45, 11.05 -23.79, 12.55 -37.2 C14.05 -50.61, 9.85 -72.98, 9.28 -79.77 M-1.06 0 C1.59 -5.97, 13.19 -22.93, 14.84 -36.1 C16.48 -49.27, 9.7 -71.66, 8.83 -79.01" stroke="#000000" stroke-width="1" fill="none"></path></g><g transform="translate(139.91328929058636 208.9825797119388) rotate(0 7.015440083094745 -39.54552154341013)"><path d="M21.02 -62.15 C15.9 -64.19, 12.85 -68.85, 10.05 -79.05 M19.39 -60.83 C17.23 -65.79, 12.89 -72.27, 9.52 -79.63" stroke="#000000" stroke-width="1" fill="none"></path></g><g transform="translate(139.91328929058636 208.9825797119388) rotate(0 7.015440083094745 -39.54552154341013)"><path d="M6.73 -59.3 C5.07 -62.07, 5.48 -67.41, 10.05 -79.05 M5.1 -57.99 C7.54 -63.97, 7.81 -71.38, 9.52 -79.63" stroke="#000000" stroke-width="1" fill="none"></path></g></g><mask id="mask-YOryP0VI7o93vc8UAaH7-"><rect x="0" y="0" fill="#fff" width="253.27467988477838" height="387.71041561349057"></rect><rect x="147.27467988477838" y="162.604888991832" fill="#000" width="12" height="20" opacity="1"></rect></mask><g transform="translate(147.27467988477838 162.604888991832) rotate(0 -0.3459505110972714 6.832169176696652)"><text x="6" y="14" font-family="Virgil, Segoe UI Emoji" font-size="16px" fill="#000000" text-anchor="middle" style="white-space: pre;" direction="ltr">6</text></g><g stroke-linecap="round" transform="translate(74.63965533905548 34.86226010471319) rotate(0 52.431042389087 30.415704297113734)"><path d="M0 0 C0 0, 0 0, 0 0 M0 0 C0 0, 0 0, 0 0 M-0.66 5.85 C2.07 4.91, 3.53 2.25, 4.19 0.41 M-0.58 6.03 C1.28 4.96, 2.72 2.92, 5.25 0.66 M-0.39 11.61 C2.42 9.98, 5.07 3.98, 10.97 0.3 M0.26 11.25 C3.74 7.6, 7.32 3.52, 10.95 0.03 M-1.1 16.77 C6.78 13.49, 12.19 5.36, 13.84 0.36 M0.17 17.48 C3.62 13.56, 7.72 11.03, 14.83 1.15 M1.87 23.99 C5.19 16.7, 11.13 10.46, 21.74 -1.46 M0.85 25.06 C7.16 15.24, 15.99 5.68, 21.33 0.48 M-1.12 31.55 C9.38 22.06, 15.93 11.38, 27.8 -0.71 M0.61 30.24 C5.67 23.54, 13.33 15.28, 26.28 0.74 M-0.3 38.8 C7.04 28.73, 17.73 17.98, 29.96 -1.84 M-0.2 36.85 C12.94 22.17, 24.31 8.09, 31.68 -0.22 M0.36 43.32 C13.76 27.26, 24.61 17.01, 38.8 -1.03 M0.38 42.86 C7.5 34.01, 14.85 25.48, 36 1.1 M-1.8 50.15 C13.5 35.5, 22.91 22.52, 43.85 -1.29 M-0.56 49.14 C13.12 33.2, 27.44 16.94, 42.95 0.3 M1.49 53.55 C18.83 34.02, 36.37 11.88, 49.26 0.62 M-0.68 54.68 C17.11 35.78, 32.74 16.55, 47.72 -0.33 M1.12 62 C22.13 38.57, 42.46 14.86, 52.1 -0.86 M-0.16 61.13 C18.92 38.73, 38.17 16.04, 53.73 0.6 M6.18 61.16 C18.78 46.53, 28.33 35.63, 58.09 0.94 M6.29 61.22 C24.19 39.07, 42.89 18.63, 58.91 0.16 M11.88 60.98 C29.88 37.19, 50.5 15.12, 63.86 -2.08 M9.97 61.44 C24.83 44.08, 40.67 26.95, 64.39 -0.48 M17.61 58.6 C31.2 43.87, 49.92 23.72, 68.7 0.16 M16.65 60.34 C32.61 40.87, 49.34 22.03, 68.8 0.53 M21.39 61.39 C35.86 45.15, 47.04 27.88, 72.8 1 M21.58 61.13 C39.03 42.22, 54.9 22.6, 75.02 0.15 M25.52 60.65 C43.83 39.48, 60.73 19.99, 81.01 1.98 M25.59 60.9 C36.75 48.82, 47.56 37.54, 80.38 0.99 M31.57 60.92 C53.37 38.2, 71.28 16.08, 85.08 -2.14 M32.63 61.38 C47.88 41.4, 63.66 22.05, 85.48 -0.19 M35.41 61.24 C54.57 38.63, 75.5 16.55, 91.43 1.62 M37.29 61.72 C56.68 39.18, 74.86 17.36, 90.38 0 M40.82 60.81 C57.77 43.2, 68.67 28.24, 95.36 1.45 M42.87 61.66 C60.04 42.09, 75.98 20.79, 95.38 0.08 M47.26 60.09 C67.03 37.26, 86.01 16.95, 100.87 1.77 M47.69 62.14 C67.04 39.39, 84.59 19.53, 101.27 0.25 M52.08 61.74 C64.24 44.52, 77.47 31.16, 106.16 0.98 M53.77 61.68 C66.6 43.64, 81.86 28.17, 105.42 -0.44 M58.26 59.66 C78.02 40.46, 93.45 18.28, 104.85 7.46 M59.14 60.99 C77.71 40.78, 95.97 18.72, 105.39 7.51 M64.73 59.94 C78.29 41.92, 94.74 24.95, 103.96 10.98 M64.56 61.39 C75.13 47.6, 85.53 36.43, 105.51 12.89 M70.06 61.92 C84.62 45.34, 96.7 27.96, 106.59 18.87 M69.76 61.36 C80.42 47.57, 94.01 32.98, 106.02 19.46 M74.72 59.12 C85.7 48.27, 95.38 35.39, 106.09 24.36 M74.23 61 C80.87 52.03, 88.82 43.07, 105.7 25.84 M80.83 60.32 C88.46 53.3, 97.2 43.45, 105.1 31.93 M79.41 60.57 C86.41 54.48, 91.17 48.81, 105.48 30.29 M86.43 62.49 C91.54 51.29, 101.96 43.11, 106.55 38.55 M85.5 60.97 C93.29 51.91, 99.93 43.73, 105.91 37.48 M89.23 59.83 C94.06 57.54, 98.47 50.27, 107.29 43.37 M89.67 60.22 C95.1 54.03, 101.6 49.09, 105.27 43.69 M96.52 60.72 C97.18 56.18, 101.84 54.71, 105.75 48.92 M95.06 60.16 C98.39 56.87, 100.46 53.94, 105.75 49.37 M101.28 60.97 C101.82 59.29, 102.32 59.35, 104.79 55.17 M100.41 60.7 C102.42 58.84, 104.44 56.57, 105.5 55.96 M0.07 60.89 C0.07 60.89, 0.07 60.89, 0.07 60.89 M0.07 60.89 C0.07 60.89, 0.07 60.89, 0.07 60.89 M6.81 60.49 C3.34 59.41, 0.87 57.75, -0.86 54.65 M6.45 60.88 C4.61 59.6, 2.33 57.34, -0.14 54.94 M11.07 62.15 C8.53 58.22, 6.17 55.48, -1.38 49.68 M11.74 61.35 C9.17 58.17, 5.94 55.66, -0.6 49.63 M18.92 59.17 C11.22 57.1, 6.19 51.27, -1.95 45.05 M19.1 61.37 C13.34 56.85, 7.47 52.04, -0.95 43.77 M25.03 60.62 C18.33 56.52, 14.59 50.38, 1.85 38.96 M25.04 60.36 C18.25 54.52, 11.78 50.65, -0.23 39.04 M31.9 62.61 C22.17 55.86, 13.8 47.08, -1.31 33.04 M30.33 61.45 C22.16 55.03, 14.65 46.98, 0.5 35.55 M35.31 60.14 C28.23 52.27, 20.48 46.81, 1.9 29.27 M36.7 60.28 C28.33 53.76, 21.46 46.77, 0.94 28.7 M43.32 60.46 C34.2 51.99, 23.36 42.9, 0.34 22.81 M42.47 61.62 C31.58 51.1, 21.63 42.99, 1.17 23.53 M47.55 59.96 C36.92 53.2, 28.95 44.76, -1.89 16.42 M48.34 61.88 C34.85 47.7, 17.84 34.72, -0.15 18.56 M54.86 58.68 C38.46 47.99, 23.27 33.18, 1.64 12.7 M55.61 60.96 C38.58 45.87, 21.67 32.2, -0.22 13.59 M62.43 60.45 C38.43 39.09, 10.34 20.74, -1.38 7.86 M61.7 60.04 C44.44 46.38, 29.5 33.81, -0.64 6.93 M65.43 59.38 C45.86 41.98, 20.14 22.12, 1.03 3.94 M68.37 61.46 C49.59 47.1, 33.03 30.01, 0.08 3.17 M72.35 60.81 C58.83 45.44, 39.42 32.97, 1.62 -0.12 M73.5 61.21 C55.37 46.22, 40.44 31.81, 1.58 -2.28 M80.2 62.23 C55.95 40.61, 29.05 17.24, 8.96 -0.21 M78.84 61.39 C64.64 46.03, 49.06 33.9, 7.09 -1.45 M86.24 59.75 C62.81 40.28, 35.64 19.48, 13.33 -1.19 M84.23 60.1 C69.43 45.47, 52.5 31.61, 13.92 -2.38 M91.07 60.33 C65.11 38.33, 37.81 15.89, 17.83 -2.15 M91.14 61.24 C70.49 42.07, 49.76 24.5, 19.02 -0.94 M98.26 60.15 C79.45 46.09, 60.2 26.04, 24.84 -2.58 M98.88 60.33 C78.7 42.92, 58 27.52, 25.93 -1.46 M101.71 61.64 C83.04 43.88, 62.4 22.6, 31.02 -2.12 M104.37 61.08 C76.69 36.35, 48.91 13.45, 32.32 -1.03 M105.8 59.78 C89.69 43.73, 74.54 33.83, 39.07 -2.17 M106.89 59.16 C79.5 33.85, 52.38 10.93, 38.21 -1.54 M107.98 54.41 C85.2 34.71, 58.32 11.28, 44.94 -0.9 M107.08 54.04 C88.68 38.23, 72.26 22.6, 43.73 -1.26 M105.99 47.25 C89.87 33.83, 70.12 18.14, 49.17 -0.3 M106.71 47.46 C89.92 34.38, 74.06 19.92, 50.87 -2.35 M107.09 41.54 C94.6 32.29, 85.71 24.12, 56.52 -3.78 M106.4 42.63 C89.01 26.88, 69.79 10.84, 55.72 -0.93 M106.8 35.15 C94.34 27.66, 83.82 17.18, 63.07 0.12 M106.88 36.8 C97.38 28.09, 86.99 20.5, 62 -1.39 M107.95 32.77 C98.39 23.79, 89.81 16.09, 67.92 0.1 M106.48 32.97 C99.17 23.57, 90.2 16.71, 69.28 -0.43 M107.64 27.69 C94.52 17.67, 83.2 7.94, 72.43 -0.92 M106.63 27.15 C94.73 17.47, 84.72 6.85, 74.72 -2.6 M108.24 22.05 C99.84 18.1, 96.69 11.8, 79.53 -0.85 M107.4 22.13 C99.79 14.29, 91 6.43, 80.88 -1.85 M108.43 16.58 C100.98 11.06, 97.47 9.23, 85.41 0.02 M106.94 16.71 C99.87 9.13, 91.33 3.03, 85.88 -1.62 M106.18 10.86 C101.31 6.85, 99.41 4.65, 94.46 -0.81 M107.04 11.43 C103.3 6.88, 98.46 4.59, 92.99 -1.11 M106.16 5.13 C103.39 3.24, 102.66 0.76, 99.32 -1.38 M106.65 5.59 C104.05 3.57, 102 1.17, 99.03 -1.28" stroke="#99cffa" stroke-width="0.5" fill="none"></path><path d="M1.5 -0.99 C19.85 2.4, 42.64 -0.71, 104.1 0.54 M-0.38 -0.99 C24.78 0.41, 50.93 0.05, 104.26 0.34 M103.14 -2 C102.65 16.48, 104.6 35.4, 106.7 60.94 M105.84 0.45 C105.69 15.91, 104.72 32.33, 104.12 60.5 M106.81 62.81 C75.92 60.86, 49.83 61.02, -1.29 60.93 M104.14 61.44 C67.43 59.63, 30.14 61.15, 0.54 60.51 M1.64 60.34 C1.92 45.64, -0.09 27.1, -0.47 1.05 M0.96 59.92 C-0.08 46.25, 0.13 33.33, 0.17 -0.74" stroke="#000000" stroke-width="1" fill="none"></path></g><g transform="translate(108.07069772814248 55.27796440182692) rotate(0 19 10)"><text x="19" y="14" font-family="Virgil, Segoe UI Emoji" font-size="16px" fill="#000000" text-anchor="middle" style="white-space: pre;" direction="ltr">User</text></g><g stroke-linecap="round" transform="translate(103.83192155012193 97.59375885148302) rotate(0 22.678182501285164 5.288123070979736)"><path d="M0 0 C0 0, 0 0, 0 0 M0 0 C0 0, 0 0, 0 0 M-0.26 6.4 C0.96 5, 2.17 3.6, 4.99 0.36 M-0.26 6.4 C0.84 5.14, 1.93 3.87, 4.99 0.36 M0.79 11.29 C3.48 8.19, 6.17 5.1, 10.63 -0.03 M0.79 11.29 C2.77 9.01, 4.74 6.74, 10.63 -0.03 M5.78 11.65 C7.91 9.19, 10.04 6.74, 15.62 0.33 M5.78 11.65 C7.78 9.34, 9.79 7.03, 15.62 0.33 M11.42 11.25 C14.33 7.91, 17.23 4.56, 21.26 -0.07 M11.42 11.25 C15.33 6.75, 19.24 2.25, 21.26 -0.07 M16.41 11.61 C19.88 7.61, 23.36 3.61, 26.25 0.29 M16.41 11.61 C19.12 8.49, 21.84 5.36, 26.25 0.29 M22.05 11.22 C25.95 6.73, 29.85 2.24, 31.89 -0.1 M22.05 11.22 C24.98 7.85, 27.91 4.48, 31.89 -0.1 M27.04 11.58 C30.38 7.73, 33.73 3.88, 36.88 0.26 M27.04 11.58 C30.33 7.79, 33.62 4.01, 36.88 0.26 M32.68 11.18 C36.24 7.09, 39.8 2.99, 42.52 -0.14 M32.68 11.18 C35.85 7.54, 39.02 3.89, 42.52 -0.14 M37.67 11.54 C39.96 8.91, 42.25 6.27, 46.85 0.98 M37.67 11.54 C40.53 8.25, 43.39 4.96, 46.85 0.98 M43.31 11.15 C44.46 9.82, 45.62 8.49, 46.59 7.37 M43.31 11.15 C44.35 9.95, 45.39 8.76, 46.59 7.37 M0.05 10.62 C0.05 10.62, 0.05 10.62, 0.05 10.62 M0.05 10.62 C0.05 10.62, 0.05 10.62, 0.05 10.62 M6.44 10.88 C4.39 9.09, 2.33 7.3, -0.35 4.97 M6.44 10.88 C4.05 8.8, 1.66 6.72, -0.35 4.97 M12.09 10.48 C9.63 8.34, 7.17 6.21, 0.01 -0.01 M12.09 10.48 C8.69 7.53, 5.3 4.58, 0.01 -0.01 M18.48 10.74 C14.56 7.33, 10.64 3.92, 6.41 0.25 M18.48 10.74 C14.58 7.35, 10.67 3.95, 6.41 0.25 M24.13 10.35 C20.87 7.52, 17.61 4.68, 12.05 -0.15 M24.13 10.35 C20.93 7.57, 17.74 4.8, 12.05 -0.15 M30.53 10.61 C26.86 7.43, 23.2 4.24, 18.45 0.11 M30.53 10.61 C26.27 6.91, 22.01 3.21, 18.45 0.11 M36.92 10.87 C33.06 7.52, 29.2 4.16, 24.09 -0.28 M36.92 10.87 C32.43 6.97, 27.94 3.06, 24.09 -0.28 M42.57 10.48 C38.95 7.34, 35.34 4.2, 30.49 -0.02 M42.57 10.48 C37.93 6.45, 33.29 2.41, 30.49 -0.02 M46.7 8.77 C44.29 6.68, 41.89 4.59, 36.89 0.24 M46.7 8.77 C42.82 5.4, 38.94 2.02, 36.89 0.24 M47.06 3.78 C45.49 2.42, 43.91 1.05, 42.53 -0.15 M47.06 3.78 C45.3 2.25, 43.53 0.72, 42.53 -0.15" stroke="#868e96" stroke-width="0.5" fill="none"></path><path d="M0 0 C11.35 0, 22.71 0, 45.36 0 M0 0 C9.11 0, 18.23 0, 45.36 0 M45.36 0 C45.36 2.12, 45.36 4.23, 45.36 10.58 M45.36 0 C45.36 3.65, 45.36 7.29, 45.36 10.58 M45.36 10.58 C27.26 10.58, 9.17 10.58, 0 10.58 M45.36 10.58 C28.99 10.58, 12.62 10.58, 0 10.58 M0 10.58 C0 7.66, 0 4.75, 0 0 M0 10.58 C0 8.37, 0 6.16, 0 0" stroke="#000000" stroke-width="1" fill="none"></path></g><g stroke-linecap="round" transform="translate(67.68591460010248 109.45329178996599) rotate(0 60.123612434579854 8.281128420633877)"><path d="M0 0 C0 0, 0 0, 0 0 M0 0 C0 0, 0 0, 0 0 M-1.05 6.45 C1.63 4.19, 3.71 1.18, 4.26 0.43 M0 6.7 C1.59 3.82, 3.76 1.73, 4.88 0.2 M0.47 12.38 C4.87 8.09, 8.7 3.33, 9.04 -0.01 M0.45 12.1 C3.54 8.73, 5.41 5.07, 9.96 0.42 M-0.59 16.97 C5.16 9.94, 10.72 4.9, 13.69 0.52 M0.39 17.75 C3.85 13, 7.88 10.49, 15.57 -0.04 M6.65 15.9 C11.69 14.54, 13.34 9.52, 23.21 -1.77 M6.24 17.83 C11.02 10.77, 16.75 5.53, 21.8 0.57 M12.71 16.65 C15.44 13.05, 21.28 7.15, 25.77 -1.56 M11.19 18.1 C16.46 10.45, 23.11 4.23, 27.21 -0.16 M14.87 15.52 C23.87 9.68, 29.12 4.93, 31.84 0.69 M16.6 17.14 C21.66 12.45, 25.93 6.95, 32.29 0.88 M23.71 16.33 C23.23 14.59, 27.43 10.42, 37.56 -0.25 M20.92 18.46 C26.67 10.93, 32.55 5.2, 37.49 0.95 M28.76 16.06 C32.94 11.64, 38.67 5.01, 42.96 -1.41 M27.86 17.66 C33.74 10.75, 39.25 5.37, 42.01 -0.08 M34.17 17.97 C38.72 12.27, 43.43 3.54, 47.74 1.42 M32.63 17.03 C38.19 11.46, 42.77 6.94, 48.03 0.85 M37.01 16.5 C44.81 8.92, 50.03 3.65, 53.48 -1.36 M38.65 17.96 C41.57 11.5, 46.37 7.77, 53.45 0.4 M43 18.3 C47.83 11.99, 50.55 10.15, 59.46 -0.1 M43.82 17.52 C47.78 12.58, 51.56 9.16, 58.17 -0.6 M48.77 15.27 C53.19 12.66, 56.6 4.74, 64.82 -0.95 M49.3 16.88 C52.97 12.77, 56.88 7.99, 62.82 -0.72 M53.61 17.52 C59.98 11.16, 64.32 4.5, 68.39 -0.84 M53.71 17.89 C57.33 13.73, 61.28 8.6, 69.02 0.66 M57.71 18.36 C64.49 11.31, 70.18 6.96, 74.88 1.53 M59.93 17.51 C65.61 10.8, 71.57 3.05, 74.11 -0.24 M65.92 19.34 C66.31 11.91, 70.45 7.33, 78.69 -1.34 M65.29 18.35 C69.23 13.32, 72.12 7.97, 79.43 0.97 M69.99 15.22 C74.9 11.86, 80.89 7.47, 86.09 -0.71 M70.39 17.17 C74.59 12.52, 79.03 7.21, 85.05 -0.7 M76.34 18.97 C79.71 11.31, 83.16 9.39, 91.03 1.36 M75.29 17.36 C78.38 14.13, 83.14 7.94, 90.02 0.91 M80.28 18.8 C85.04 14.48, 86.96 9.03, 97.35 1.04 M80.29 17.44 C87.28 9.88, 92.51 3.38, 95.12 -0.4 M85.78 19.13 C89.83 12.18, 92.01 10.05, 102.57 1.72 M86.18 17.61 C88.19 13.51, 92.33 9.31, 101.14 -0.68 M91.73 17.58 C93.89 14.95, 99.6 10.94, 108.09 -1.01 M90.98 16.17 C96.1 12.85, 99.66 7.47, 105.56 0.63 M95.66 18.02 C103.06 11.31, 104.94 8.12, 110.98 1.7 M96.2 18.07 C102.56 10.63, 107.55 4.79, 110.88 -0.73 M100.02 15.51 C105.08 13.2, 110.1 9.35, 117.55 1.61 M101.58 17.42 C106.25 13.49, 109.18 9.3, 116.68 1.35 M107.9 17.36 C112.31 11.72, 117.75 8.28, 121.76 -0.49 M107.33 17.95 C112.63 10.22, 116.96 4.94, 120.46 0.86 M113.02 16.37 C114.16 14.4, 116.95 11.11, 121.37 6.01 M112.76 17.33 C114.87 14, 116.99 12.19, 120.75 7.36 M117.29 17.62 C118.44 15, 120.12 13.84, 121.09 13.35 M117.41 17.12 C118.86 16.23, 119.47 14.84, 121.67 12.61 M0.1 16.65 C0.1 16.65, 0.1 16.65, 0.1 16.65 M0.1 16.65 C0.1 16.65, 0.1 16.65, 0.1 16.65 M6.35 16.43 C3.79 14.37, 1.38 12.01, -0.95 10.83 M5.54 16.56 C4.39 15.18, 3.06 14.26, -0.27 10.63 M12.39 16.08 C9.03 14.61, 7.37 10.54, -0.98 6.05 M12.39 16.57 C8.83 14.8, 6.41 12.56, 0.02 6.31 M17.2 15.19 C16.58 13.26, 9.2 8.67, -2.1 0.04 M19.23 17.44 C13.16 12.23, 8.78 8.4, -0.57 -0.57 M24.13 16.02 C18.27 10.08, 11.33 4.39, 3.16 -1.93 M24.1 15.68 C16.11 9.28, 7.34 2.13, 1.56 -3.5 M29.4 15.31 C23.97 11.98, 14.62 4.11, 7.49 -0.69 M31 15.95 C21.54 9.44, 13.93 1.17, 9.56 -2.63 M34.46 15.52 C28.37 11.98, 24.41 3.58, 15.82 -2.43 M35.43 15.46 C30.47 10.25, 24.24 5.49, 13.41 -3.13 M41.03 16.94 C33.67 11.3, 23.8 3.14, 21.44 -1.9 M42.03 15.66 C33.9 10.32, 27.49 3.28, 20.73 -2.78 M50.87 16.11 C40.66 9.97, 33.81 6.13, 25.86 -3.25 M48.79 16.18 C44.08 12.54, 39.48 9.46, 27.24 -3.33 M53 14.78 C45.45 10.19, 38.4 1.22, 33.91 -3.77 M54.8 17.28 C45.89 8.37, 38.66 1.18, 32.27 -2.8 M63 16.91 C54.46 11.79, 52.53 7.6, 37.43 -3.52 M62.03 16.34 C54.99 12.03, 49.81 7.64, 39.03 -1.51 M66.71 15.04 C58.77 8.92, 52.94 4.17, 46.55 -4.33 M67.54 15.76 C60.38 12.12, 56.86 6.19, 44.29 -3.63 M71.28 14.55 C66.14 8.91, 57.03 2.89, 52.95 -0.84 M73.02 16.7 C65.73 10.31, 59.4 3.87, 50.24 -2.75 M80.85 16.09 C72.13 11.45, 64.93 5.93, 57.54 -2.12 M78.99 16.97 C75.3 13.05, 69.08 8.34, 56.64 -1.92 M83.87 16.5 C78.81 13.2, 73.11 8.01, 61.57 -3.36 M84.6 15.57 C80.05 11.15, 74.06 6.02, 62.38 -1.94 M92.32 17.82 C82.99 9.24, 76.69 5.05, 70.29 -3.52 M91.37 17.05 C82.24 8.27, 74.54 1.21, 69.68 -1.44 M97.44 17.7 C90.45 12.36, 84.6 7.69, 76.22 -4.34 M97.39 15.54 C89.56 9.48, 81.64 3.12, 75.91 -2.39 M104.77 17.61 C94.96 9.03, 87.85 2.61, 82.45 -1.39 M102.9 16.37 C98.82 13.16, 93.96 8.71, 81.26 -1.66 M109.9 17.29 C102.07 10.73, 95.09 3.36, 86.32 -1.6 M110.49 16.1 C104.4 11.32, 97.28 5.83, 87.06 -3.12 M113.64 15.67 C108.53 12.07, 99.99 3.67, 94.45 -3.1 M114.83 16.88 C109.93 12.1, 105.65 6.84, 93.24 -1.86 M120.65 15.24 C112.69 10.99, 103.89 4.27, 98.52 -0.75 M121.74 16.36 C116.46 11.78, 111.17 6.87, 100.58 -2.29 M120.04 9.8 C116.74 5.52, 110.19 1.79, 106.45 -1.2 M121.34 10.89 C116.65 7.96, 114.4 3.99, 106.47 -3.69 M121.72 4.84 C120.51 4.81, 116.25 1.99, 113.11 -2.16 M121.21 5.21 C119.1 3.41, 116.51 1.21, 112.48 -2.05" stroke="#82c91e" stroke-width="0.5" fill="none"></path><path d="M-0.77 0.54 C43.13 2.81, 87.2 0.28, 118.27 -1.04 M-0.6 0.34 C31.94 -0.13, 65.23 -0.04, 119.25 -0.82 M121.77 0.09 C119.82 4.78, 119.82 11.02, 120.99 17.89 M119.63 -0.28 C119.89 4.62, 119.6 8.49, 121.07 15.85 M118.96 16.66 C80.51 17.74, 37.17 15.7, 1.22 17.38 M120.79 16.24 C90.92 16.74, 62.44 18.51, -0.24 17.23 M-0.39 17.43 C-1.09 11.15, 0.95 6.55, -1.51 0.11 M0.14 15.95 C0.53 12.19, -0.33 9.12, 0.16 0.32" stroke="#000000" stroke-width="1" fill="none"></path></g><g mask="url(#mask-B-f_0Sjpq9qKStggcnRFu)" stroke-linecap="round"><g transform="translate(194.08930909977244 246.2817607163788) rotate(0 43.96242751755881 -0.472120513436721)"><path d="M0.37 1.38 C19.33 -1.89, 42.13 -1.22, 53.98 -0.07 M-0.29 0.49 C16.75 -0.33, 34.41 -0.58, 52.95 -2.15 M53.11 0.23 C63.33 -1.17, 75.32 -0.32, 88.14 -2.32 M51.86 -0.6 C60.11 -2.65, 69.7 -2.62, 88.22 -1.81" stroke="#000000" stroke-width="1" fill="none"></path></g><g transform="translate(194.08930909977244 246.2817607163788) rotate(0 43.96242751755881 -0.472120513436721)"><path d="M71.4 5.04 C76.69 0.36, 85.49 -0.82, 90.02 -0.78 M70.8 4.24 C76.6 2, 82.93 0.32, 89.08 -2.65" stroke="#000000" stroke-width="1" fill="none"></path></g><g transform="translate(194.08930909977244 246.2817607163788) rotate(0 43.96242751755881 -0.472120513436721)"><path d="M71.82 -7.3 C77.04 -7.09, 85.67 -3.39, 90.02 -0.78 M71.22 -8.1 C76.81 -6.36, 83 -4.05, 89.08 -2.65" stroke="#000000" stroke-width="1" fill="none"></path></g></g><mask id="mask-B-f_0Sjpq9qKStggcnRFu"><rect x="0" y="0" fill="#fff" width="382.13652838769576" height="348.94954881052854"></rect><rect x="240.0806926420496" y="235.07607542963297" fill="#000" width="12" height="20" opacity="1"></rect></mask><g transform="translate(240.0806926420496 235.07607542963297) rotate(0 -2.0289560247183545 10.733564773309126)"><text x="6" y="14" font-family="Virgil, Segoe UI Emoji" font-size="16px" fill="#000000" text-anchor="middle" style="white-space: pre;" direction="ltr">4</text></g><g stroke-linecap="round" transform="translate(288.87278824798386 186.71148270251524) rotate(0 44.41781696909857 59.10308253979247)"><path d="M3.45 8.3 C3.45 8.3, 3.45 8.3, 3.45 8.3 M3.45 8.3 C3.45 8.3, 3.45 8.3, 3.45 8.3 M0.56 17.72 C3.08 13.48, 8.21 8.03, 11.06 5.64 M0.56 17.72 C4.39 13.22, 8.66 9.19, 11.06 5.64 M0.96 23.36 C7.82 16.89, 13.11 9.22, 18.02 3.74 M0.96 23.36 C4.86 20.06, 8.99 15.49, 18.02 3.74 M0.7 29.76 C8.8 17.62, 19.08 6.96, 24.97 1.83 M0.7 29.76 C8.35 20.6, 17.38 11.24, 24.97 1.83 M0.44 36.15 C8.39 23.68, 20.45 14.78, 29.96 2.19 M0.44 36.15 C9.97 23.61, 21.86 13.13, 29.96 2.19 M0.83 41.8 C11.64 29.51, 20.23 17.11, 34.95 2.55 M0.83 41.8 C12.38 29.72, 23.98 16.61, 34.95 2.55 M0.57 48.2 C9.97 36.57, 21.56 24.2, 40.59 2.16 M0.57 48.2 C10 36.62, 19.42 25.98, 40.59 2.16 M0.96 53.84 C17.17 37.76, 29.1 22.2, 45.58 2.52 M0.96 53.84 C17.86 34.92, 32.94 16.3, 45.58 2.52 M0.7 60.24 C11.9 46.17, 27.28 32.09, 51.22 2.12 M0.7 60.24 C11.85 48.62, 22.61 36.3, 51.22 2.12 M0.44 66.63 C12.24 50.23, 29.21 34.53, 56.21 2.48 M0.44 66.63 C13.2 51, 28.13 35.21, 56.21 2.48 M0.84 72.28 C22.83 45.54, 46.65 21.94, 61.85 2.09 M0.84 72.28 C20.61 50.44, 38.99 27.47, 61.85 2.09 M0.57 78.67 C22.64 55.3, 42.66 32.4, 66.84 2.45 M0.57 78.67 C23.02 55.55, 44.15 30.22, 66.84 2.45 M0.31 85.07 C24.95 53.8, 52.86 23.84, 73.14 1.3 M0.31 85.07 C14.79 67.67, 30.53 50.67, 73.14 1.3 M0.71 90.72 C29.58 58.57, 60.49 24.52, 77.47 2.41 M0.71 90.72 C25.1 63.29, 48.78 36.13, 77.47 2.41 M1.1 96.36 C19.88 74.16, 39.87 53.82, 81.14 4.28 M1.1 96.36 C27.7 68.75, 51.19 39.7, 81.14 4.28 M2.15 101.25 C28.82 73.15, 54.6 41.67, 84.16 6.91 M2.15 101.25 C31.76 68.53, 59.93 34.84, 84.16 6.91 M3.2 106.14 C34.09 70.79, 62.26 39.19, 87.18 9.53 M3.2 106.14 C24.14 82.33, 42 61.4, 87.18 9.53 M4.25 111.02 C24.74 88.84, 45.87 63.95, 88.23 14.42 M4.25 111.02 C31.73 79.8, 57.61 48.84, 88.23 14.42 M7.27 113.65 C34.25 82.84, 63.64 46.86, 89.28 19.31 M7.27 113.65 C33.9 83.22, 62.07 50.88, 89.28 19.31 M10.29 116.27 C34.05 88.76, 58.19 61.61, 90.99 23.44 M10.29 116.27 C32.62 90.4, 55.81 64.41, 90.99 23.44 M13.97 118.14 C33.2 96.19, 53.93 72.88, 90.73 29.84 M13.97 118.14 C42.98 85.02, 70.69 51.48, 90.73 29.84 M18.3 119.26 C33.74 103.87, 45.45 87.66, 90.46 36.24 M18.3 119.26 C37.84 98.49, 57.25 75.87, 90.46 36.24 M23.94 118.86 C48.8 92.87, 71.39 63.88, 90.86 41.88 M23.94 118.86 C42.84 96.72, 62.25 76.06, 90.86 41.88 M28.93 119.22 C52.67 94.64, 72.84 65.99, 90.6 48.28 M28.93 119.22 C46.97 98.69, 64.55 78.63, 90.6 48.28 M33.91 119.58 C53.41 97.8, 71.26 77.1, 90.99 53.92 M33.91 119.58 C54.62 97.87, 74.49 74.12, 90.99 53.92 M39.56 119.19 C51.27 106.04, 59.22 96.83, 90.73 60.32 M39.56 119.19 C56.39 99.14, 74.59 78.52, 90.73 60.32 M44.54 119.55 C57.45 105.36, 73.01 88.55, 90.47 66.72 M44.54 119.55 C55.49 105.7, 67.96 92.6, 90.47 66.72 M50.19 119.15 C61.44 105.54, 77.11 89.57, 90.86 72.36 M50.19 119.15 C64.85 102.34, 81.62 82.91, 90.86 72.36 M55.17 119.51 C64.51 112.7, 71.16 104.63, 90.6 78.76 M55.17 119.51 C63.2 108.73, 73.01 99.22, 90.6 78.76 M60.82 119.12 C72.74 104.05, 84.72 93.41, 91 84.4 M60.82 119.12 C72.34 106.92, 81.94 94.36, 91 84.4 M66.46 118.72 C71.99 111.06, 77.01 105.86, 90.73 90.8 M66.46 118.72 C74.45 108.37, 83.64 98.45, 90.73 90.8 M73.42 116.82 C78.49 110.09, 82.11 106.36, 90.47 97.2 M73.42 116.82 C79.74 109.77, 85.9 103.74, 90.47 97.2 M80.37 114.92 C83.79 112.47, 85.76 107.5, 88.24 105.86 M80.37 114.92 C83.73 111.64, 86.35 108.57, 88.24 105.86 M8.64 115.05 C8.64 115.05, 8.64 115.05, 8.64 115.05 M8.64 115.05 C8.64 115.05, 8.64 115.05, 8.64 115.05 M17.3 117.28 C14.92 115.25, 13.01 112.82, 5.23 106.78 M17.3 117.28 C14.38 115.47, 11.13 111.41, 5.23 106.78 M23.7 117.54 C20.19 114.96, 14.54 107.13, 4.08 100.48 M23.7 117.54 C18.76 113.55, 16.13 110.94, 4.08 100.48 M29.34 117.15 C22.89 111.62, 15.08 106.76, 2.17 93.53 M29.34 117.15 C18.34 108.51, 8.66 99.33, 2.17 93.53 M35.74 117.41 C23.32 106.38, 8.55 94.36, 2.53 88.54 M35.74 117.41 C24.78 107.38, 12.59 97.03, 2.53 88.54 M42.14 117.67 C27.81 105.07, 15.99 94.46, 2.14 82.9 M42.14 117.67 C31.32 109.13, 20.98 98.89, 2.14 82.9 M47.78 117.28 C31.68 104.57, 15.54 91.47, 2.5 77.91 M47.78 117.28 C33.38 103.41, 16.6 91.73, 2.5 77.91 M54.18 117.54 C38.52 102.58, 20.86 90, 2.1 72.27 M54.18 117.54 C42.26 108.45, 31.91 98.91, 2.1 72.27 M60.58 117.8 C44.59 103.45, 25.58 87.36, 2.46 67.28 M60.58 117.8 C41.6 99.8, 21.68 82.67, 2.46 67.28 M66.97 118.06 C44.14 98.81, 17.37 78.83, 2.07 61.64 M66.97 118.06 C48.05 102.16, 30.79 86.8, 2.07 61.64 M71.86 117.01 C52.06 100.18, 30.9 81.15, 2.43 56.65 M71.86 117.01 C48.89 96.59, 25.7 78.19, 2.43 56.65 M76.75 115.96 C59.12 100.74, 43.01 88.01, 2.03 51.01 M76.75 115.96 C51.93 93.59, 24.58 70.78, 2.03 51.01 M80.88 114.25 C66.22 99.8, 49.84 86.33, 2.39 46.02 M80.88 114.25 C62.06 98.77, 42.93 82.26, 2.39 46.02 M83.51 111.23 C65.99 94.45, 47.26 81.38, 2.75 41.04 M83.51 111.23 C64.66 96.76, 47.4 80.5, 2.75 41.04 M86.89 108.87 C60.39 86.92, 34.23 64.31, 2.36 35.39 M86.89 108.87 C54.32 81.43, 21.61 52.53, 2.36 35.39 M87.25 103.88 C70.37 89.76, 53.94 76.64, 2.72 30.41 M87.25 103.88 C61.75 82.18, 37.04 61.11, 2.72 30.41 M88.36 99.55 C64.37 79.12, 37.71 56.97, 2.33 24.76 M88.36 99.55 C65.96 79.82, 44.31 61.21, 2.33 24.76 M89.48 95.22 C59.9 67.44, 28.09 41.93, 2.69 19.77 M89.48 95.22 C58.45 68.51, 29.93 42.43, 2.69 19.77 M89.84 90.23 C65.83 69.12, 40.22 46.34, 2.29 14.13 M89.84 90.23 C62.86 66.42, 36.49 43.88, 2.29 14.13 M89.44 84.59 C61.37 60.52, 36.12 37.27, 4.16 10.46 M89.44 84.59 C61.4 59.29, 32.13 34.97, 4.16 10.46 M89.8 79.6 C64.49 60.36, 42.75 39.99, 5.27 6.13 M89.8 79.6 C56.04 50.62, 24.49 23.49, 5.27 6.13 M89.41 73.96 C55.21 46.44, 23.47 15.7, 7.9 3.11 M89.41 73.96 C57.79 47.31, 27.72 20.07, 7.9 3.11 M89.77 68.97 C71.96 55.32, 53.83 40.73, 11.28 0.74 M89.77 68.97 C65.03 49.31, 42.95 28.28, 11.28 0.74 M89.37 63.33 C70.51 49.07, 52.64 30.65, 16.17 -0.31 M89.37 63.33 C61.05 37.92, 33.36 15.36, 16.17 -0.31 M89.73 58.34 C66.23 39.23, 44.92 20.66, 22.56 -0.04 M89.73 58.34 C75.05 44.77, 58.66 32.52, 22.56 -0.04 M89.34 52.7 C76.95 42.19, 66.77 32.39, 28.21 -0.44 M89.34 52.7 C76.93 41.33, 62.96 30.61, 28.21 -0.44 M89.7 47.71 C76.92 35.68, 62.87 24.88, 34.61 -0.18 M89.7 47.71 C71.22 31.32, 52.5 15.83, 34.61 -0.18 M89.3 42.07 C78.1 32.44, 70.9 23.87, 41 0.08 M89.3 42.07 C75.09 28.22, 58.64 15.09, 41 0.08 M89.66 37.08 C79.14 29.21, 72.54 21.59, 46.65 -0.31 M89.66 37.08 C72.58 22.56, 57.08 9.31, 46.65 -0.31 M89.27 31.44 C78.79 25.88, 72.76 17.18, 53.04 -0.05 M89.27 31.44 C78.58 22.08, 66.89 10.88, 53.04 -0.05 M89.63 26.45 C78.73 19.91, 71.77 10.38, 59.44 0.21 M89.63 26.45 C81.8 19.42, 74.94 14.05, 59.44 0.21 M89.99 21.47 C83.74 14.95, 78.05 9.15, 65.08 -0.18 M89.99 21.47 C84.58 15.04, 77.26 11.18, 65.08 -0.18 M88.09 14.51 C85.06 9.03, 80.58 5.32, 71.48 0.08 M88.09 14.51 C83.35 10.53, 80.92 8.75, 71.48 0.08" stroke="#ced4da" stroke-width="0.5" fill="none"></path><path d="M22.21 0 M22.21 0 C37.79 -0.71, 51.88 -0.53, 66.63 0 M22.21 0 C32.19 -0.1, 43.09 1.02, 66.63 0 M66.63 0 C83.31 -0.07, 89.71 7.44, 88.84 22.21 M66.63 0 C82.05 -1.41, 89.53 9.58, 88.84 22.21 M88.84 22.21 C91.07 42.91, 88.09 62.99, 88.84 96 M88.84 22.21 C88.01 39.89, 89.4 55.42, 88.84 96 M88.84 96 C87.1 111.77, 79.89 118.5, 66.63 118.21 M88.84 96 C89.14 112.1, 80.3 117.21, 66.63 118.21 M66.63 118.21 C51.19 118.69, 33.55 119.02, 22.21 118.21 M66.63 118.21 C56.88 119.25, 48.3 118.84, 22.21 118.21 M22.21 118.21 C6.39 118.45, 1.48 109.1, 0 96 M22.21 118.21 C8.63 116.71, -0.38 110.83, 0 96 M0 96 C-0.89 72.33, 0.82 52.66, 0 22.21 M0 96 C-0.74 70.66, -0.29 43.45, 0 22.21 M0 22.21 C-1.54 8.97, 8.6 -1.5, 22.21 0 M0 22.21 C0.06 6.93, 5.71 -0.77, 22.21 0" stroke="#000000" stroke-width="1" fill="none"></path></g><g stroke-linecap="round" transform="translate(289.1964500203935 185.3531390504968) rotate(0 43.79775248140277 15)"><path d="M-0.28 15.65 C-0.28 15.65, -0.28 15.65, -0.28 15.65 M-0.28 15.65 C-0.28 15.65, -0.28 15.65, -0.28 15.65 M2.14 18.9 C4.31 16.03, 6.4 13, 9.58 8.91 M2.49 18.72 C5.24 15.26, 7.97 12.99, 10.48 9.92 M7.24 19.96 C8.27 17.35, 12.5 11.95, 18.08 8.55 M6.49 21.62 C8.8 18.86, 9.93 15.58, 16.06 7.3 M7.77 24.16 C12.05 17.26, 16.86 14.86, 25.62 6.63 M8.24 24.23 C12.88 19.25, 15.47 14.14, 24.43 5.36 M10.36 25.19 C16.87 21.59, 20.23 17.85, 31.83 1.74 M12.6 25.94 C17.69 20.6, 21.4 12.87, 30.86 3.37 M15.66 26.3 C21.66 20.96, 28.12 15.27, 36.33 2.2 M16.1 27.41 C21.38 19.5, 27.6 13.23, 36.41 3.47 M19.71 27.24 C26.5 22.48, 31.32 14.57, 41.72 4.23 M20.63 28.26 C28.58 19.15, 37.84 9.59, 42.86 3.25 M25.03 28.51 C30.33 23.63, 36.32 15.63, 48.87 1.64 M24.07 30.24 C32.22 21.07, 37.4 14.74, 47.18 3.69 M31.05 29.13 C35.1 24.3, 38.62 19.74, 51.81 2.24 M30.07 29.44 C35.62 24.17, 38.87 18.45, 53.97 2.13 M33.77 31.44 C39.84 25.77, 47.04 16.29, 60.18 2.12 M33.31 31.59 C41.05 23.41, 46.81 15.67, 59.31 3 M40.68 33.02 C45.57 23.1, 55.01 10.71, 62.79 1.43 M39.85 30.47 C47.68 21.99, 54.34 13.05, 63.91 4.11 M42.56 32.51 C54.84 21.45, 63.88 8.04, 67.39 5.06 M44.48 32.29 C50.3 26.21, 54.34 19.83, 68.31 3.88 M50.38 31.32 C55.4 24.77, 61.6 19.2, 70.23 4.72 M49.1 31.81 C56.85 21.44, 65.39 14.42, 71.99 5.81 M55.65 30.14 C57.85 27.87, 64.43 22.61, 77.13 6.11 M54.58 31.46 C60.88 23.59, 68.76 16.82, 75.92 6.3 M58.79 31.94 C67.06 23.39, 77.07 13.43, 79.14 9.26 M60.6 30.71 C66.54 23.85, 74.79 14.22, 79.71 7.33 M68.07 31.48 C69.22 23.88, 74.81 19.18, 82.21 10.95 M66.13 30.19 C70.32 24.8, 76.46 19.99, 82.81 9.5 M71.34 27.55 C77.73 25, 82.59 16.84, 85.46 14 M72.65 28.38 C78 22.76, 81.95 18.04, 86.26 13.78 M9.96 25.12 C9.96 25.12, 9.96 25.12, 9.96 25.12 M9.96 25.12 C9.96 25.12, 9.96 25.12, 9.96 25.12 M17.36 27.85 C10.86 22.78, 7.4 17.95, 1.75 11.87 M18.19 26.35 C11.74 21.89, 7.29 17.74, 2.2 13.55 M26.5 28.25 C21.13 21.71, 10.85 15.83, 3.87 9.54 M24.95 27.32 C18.12 21.41, 9.04 14.22, 5.2 10.32 M32.36 28.82 C25.25 24.52, 21.36 16.44, 8.95 4.9 M33.11 27.67 C24.24 22.19, 17.71 14.88, 7.2 7.37 M38.3 27.66 C32.49 23.89, 29.04 20.62, 10.81 3.89 M38.74 27.84 C30.89 22.57, 23.95 15.28, 12.54 5.91 M42.65 28.81 C34.23 21.04, 21.3 11.66, 15.99 2.78 M44.84 29.01 C33.49 19.78, 24.16 9.96, 17.7 4.86 M50.7 28.61 C44.11 23.86, 39.21 18.01, 20.74 2.47 M50.75 28.01 C40.52 18.93, 31.8 11.01, 21.81 3.51 M57.47 28.01 C48.43 18.36, 34.8 11.06, 26.81 2.08 M58.49 30.11 C48.84 21.94, 39.76 12.71, 25.89 1.78 M61.41 28.95 C53.73 21, 46.97 16.4, 31.13 -0.6 M61.92 27.88 C49.92 17.38, 39.4 8.83, 30.09 1.03 M68.5 27.25 C57.7 16.98, 46.38 7.68, 35.63 1.78 M68.35 26.62 C57.57 17.74, 44.82 9.3, 34.97 -0.45 M71.63 27.03 C61.68 18.44, 55.35 11.45, 42.68 0.56 M71.45 27.25 C62.56 17.74, 51.7 9.06, 42.47 -0.58 M75.96 23.71 C66.01 15.94, 55.64 5.86, 48.16 1.35 M78.04 25.8 C71.15 18.87, 65.29 13.99, 48.42 -0.66 M80.33 23.67 C75.34 18.12, 68.82 10.69, 51.87 1.05 M81.06 23.62 C75 18.17, 68.61 12.4, 52.53 0.11 M84.06 20.54 C75.48 13.12, 69.95 9.75, 59.59 -0.48 M83.86 20.1 C74.52 12.93, 65.9 5.16, 57.91 -3.18 M87.7 18.23 C79.13 10.15, 71.59 6.74, 68.14 1.78 M86.44 16.28 C78.03 11.41, 71.99 5.05, 65.6 -0.44" stroke="#fab005" stroke-width="0.5" fill="none"></path><path d="M55.98 0.31 C64.02 1, 73.69 3.28, 78.96 5.79 C84.22 8.31, 87.38 12.3, 87.57 15.4 C87.76 18.5, 85.1 22.08, 80.11 24.41 C75.11 26.75, 65.75 28.64, 57.61 29.44 C49.46 30.24, 39.23 29.96, 31.24 29.2 C23.26 28.44, 14.95 27.14, 9.69 24.89 C4.44 22.63, 0.1 18.57, -0.29 15.66 C-0.68 12.75, 2.44 9.87, 7.34 7.43 C12.23 5, 19.63 2, 29.1 1.05 C38.57 0.1, 56.94 1.29, 64.15 1.74 C71.37 2.18, 72.56 3.62, 72.4 3.71 M26.2 2.6 C33.61 1.52, 45.23 0.52, 53.79 1.13 C62.35 1.74, 72.11 4.33, 77.55 6.26 C82.98 8.19, 85.88 10, 86.38 12.72 C86.87 15.43, 84.85 19.82, 80.53 22.55 C76.21 25.28, 68.16 27.68, 60.43 29.11 C52.71 30.53, 42.44 31.75, 34.15 31.12 C25.86 30.5, 16.16 27.8, 10.67 25.38 C5.19 22.95, 2 19.4, 1.27 16.57 C0.54 13.75, 2.36 11.15, 6.28 8.42 C10.21 5.68, 21.66 1.18, 24.81 0.13 C27.95 -0.91, 24.58 1.61, 25.16 2.16" stroke="#000000" stroke-width="1" fill="none"></path></g><g stroke-linecap="round" transform="translate(289.0607082226388 228.93114317153686) rotate(0 43.79775248140277 15)"><path d="M0.3 12.19 C0.3 12.19, 0.3 12.19, 0.3 12.19 M0.3 12.19 C0.3 12.19, 0.3 12.19, 0.3 12.19 M1.32 15.71 C4.87 11.18, 9.26 9.04, 10.17 5.14 M2.33 16.85 C6.18 12.27, 9.46 8.51, 10.53 6.37 M2.13 20.87 C8.2 17.41, 8.27 14.74, 16.71 7.76 M3.21 20.62 C7.43 13.98, 12.6 10.02, 15.68 5.64 M7.34 23.08 C12.87 18.69, 15.7 12.84, 21.42 4.66 M5.79 22.57 C12.17 16.58, 16.92 9.28, 21.96 5.01 M10.44 26.11 C15.15 18.04, 18.73 16.12, 29.95 6.19 M9.42 24.24 C14.61 18.98, 19.97 12.48, 28.21 4.34 M14.11 28.35 C18.49 19.96, 24.03 15.73, 36.06 3.37 M13.83 26.55 C19.91 19.98, 26.34 11.31, 33.95 3.05 M18.65 25.97 C22.57 23.4, 30.21 14.45, 40.68 3.39 M19.26 28.04 C24.82 21.23, 30.55 12.96, 40.34 3.15 M21.59 29.67 C29.04 21.63, 33.44 17.38, 43.65 1.96 M21.59 30.12 C29.89 20.74, 38.19 10.53, 45.36 4.03 M24.67 33.17 C30.53 23.83, 36.82 17.76, 50.67 4.35 M24.82 32.03 C32.39 23.83, 37.72 17.97, 50.28 3.91 M31.48 31.72 C39.48 22.93, 44.17 15.7, 54.99 3.83 M30.26 31.89 C38.46 24.08, 44.89 16.85, 54.84 4.9 M35.89 30.1 C45.13 19.06, 55.11 11.17, 61.09 5.98 M36.37 31.16 C41.73 26.62, 47.23 20.01, 60.45 3.71 M42.31 30.14 C49.17 22.93, 56.44 12.98, 64.34 4.89 M40.61 32.7 C50.53 21.14, 58.08 11.62, 65.28 4.4 M47.35 32.68 C51.66 23.3, 61.43 14.75, 70.67 3.95 M46.54 33.19 C54.83 23.21, 62.19 12.7, 69.55 5.66 M52.82 32.86 C57.82 25.62, 62.27 21.61, 72.87 6.82 M52.38 32.93 C57.79 24.58, 64.91 17.21, 73.23 6.28 M60.12 29.82 C63.44 24.6, 72.46 16.28, 79.63 8.68 M58.81 30.08 C62.33 24.57, 67.41 20.53, 78.59 8.88 M64.53 28.54 C69.35 23.25, 76.96 16.96, 83.85 8.26 M64.85 30.91 C68.87 22.91, 76.1 17.01, 82.06 8.49 M70.2 28.2 C72.97 25.48, 77.75 21.85, 86.35 12.08 M70.28 28.81 C73.85 25.3, 76.77 20.51, 85.41 13.22 M76.51 28.47 C80.18 26.42, 82.44 22.38, 87.2 17.82 M75.81 28.8 C80.01 24.89, 82.57 21.86, 86.73 16.61 M4.76 21.96 C4.76 21.96, 4.76 21.96, 4.76 21.96 M4.76 21.96 C4.76 21.96, 4.76 21.96, 4.76 21.96 M13.81 25.28 C10.28 21.83, 7.98 20.08, 1.41 11.39 M14.84 25.7 C13.09 23.88, 8.93 20.14, 0.88 13.13 M25.83 27.04 C19.22 20.58, 10.62 15.56, 1.73 11.23 M24.61 27.73 C19.7 24.84, 14.17 19.69, 2.83 9.61 M32.58 30.38 C22.73 20.95, 16.9 15.55, 5.82 9.51 M30.81 28.16 C24.6 23.22, 18.62 17.09, 6.69 6.88 M35.45 30.68 C27.3 19.6, 21.16 14.35, 11.75 6.54 M37.53 27.98 C28.11 20.47, 16.78 12.09, 9.52 5.34 M44.06 28.97 C33.83 20.62, 26.4 12.77, 12.36 3.86 M43.46 28.19 C36.77 22.82, 29.94 15.52, 15.06 3.44 M49.23 30.21 C43.76 23.42, 36.18 17.59, 20.94 4.63 M50.48 28.51 C39 19.99, 27.61 11.84, 18.91 2.57 M53.74 29.02 C46.81 19.28, 37.11 13.06, 24 0.68 M55.79 29.67 C48.41 23.13, 41.57 15.44, 24.82 2.62 M60.36 26.58 C51.46 22.07, 43.9 11.21, 31.02 3.37 M59.53 28.82 C52.9 21.9, 47.32 16.75, 29.94 1.35 M67.81 29.04 C57.26 19.79, 46.55 10.61, 34.69 -1.26 M66.22 28.34 C55.1 17.34, 42.79 7.48, 34.54 0.02 M70.05 25.17 C64.52 22.08, 55.59 15.35, 38.42 0.44 M71.52 26.12 C60.62 16.35, 48.5 7.73, 39.06 -1.19 M76.5 24.02 C64.05 18.5, 54.14 7.93, 44.87 -0.02 M75.98 25.61 C63.9 16.92, 53.51 5.97, 46.06 -0.38 M78.52 23.93 C72.49 17.04, 62.35 7.65, 50.64 0.59 M79.03 23.41 C71.11 15.07, 62.84 8.54, 52.5 0.39 M81.74 22.16 C75.98 15.14, 66.92 4.34, 57.55 1.42 M82.76 21.37 C76.7 15.9, 72.04 10.75, 58.47 -0.22 M83.73 19.27 C78.12 13.44, 71.76 3.94, 66.37 1.88 M85.13 17.44 C80.83 13, 74.17 9.48, 66.45 0.09 M89.39 15.98 C85.69 11.47, 80.92 9.79, 76.11 5.71 M88.97 15.22 C85.24 13.62, 82 9.49, 76.06 4.01" stroke="#fab005" stroke-width="0.5" fill="none"></path><path d="M37.35 1 C45.27 0.56, 56.74 1.39, 64.19 2.66 C71.65 3.93, 78.31 6.19, 82.07 8.63 C85.83 11.07, 87.91 14.33, 86.74 17.3 C85.57 20.26, 81.16 24.3, 75.03 26.43 C68.89 28.55, 58.55 29.6, 49.92 30.06 C41.29 30.52, 30.8 30.56, 23.25 29.19 C15.7 27.82, 8.49 24.65, 4.63 21.86 C0.77 19.06, -1.44 15.38, 0.09 12.43 C1.62 9.48, 6.85 6.37, 13.8 4.16 C20.75 1.96, 36.72 -0.14, 41.77 -0.82 C46.83 -1.5, 44.25 -0.33, 44.12 0.09 M63.32 2.68 C70.65 3.41, 77.22 4.6, 81.01 6.96 C84.81 9.31, 87.12 13.7, 86.08 16.81 C85.04 19.91, 80.49 23.19, 74.78 25.58 C69.07 27.97, 60.12 30.59, 51.81 31.16 C43.5 31.72, 32.43 30.43, 24.91 28.96 C17.38 27.49, 10.66 24.8, 6.63 22.34 C2.61 19.87, 0.1 17.27, 0.74 14.16 C1.37 11.05, 4.91 5.88, 10.46 3.66 C16.02 1.45, 25.36 1.13, 34.06 0.87 C42.76 0.62, 57.88 1.91, 62.66 2.12 C67.43 2.32, 63.24 2.14, 62.7 2.1" stroke="#000000" stroke-width="1" fill="none"></path></g><g transform="translate(319.8584607040416 233.93114317153686) rotate(0 13 10)"><text x="13" y="14" font-family="Virgil, Segoe UI Emoji" font-size="16px" fill="#000000" text-anchor="middle" style="white-space: pre;" direction="ltr">DB</text></g><g stroke-linecap="round" transform="translate(289.1964500203935 275.64426883873466) rotate(0 43.79775248140277 15)"><path d="M4.64 8.01 C4.64 8.01, 4.64 8.01, 4.64 8.01 M4.64 8.01 C4.64 8.01, 4.64 8.01, 4.64 8.01 M2.38 18.25 C3.97 15.09, 9.07 12.07, 11.43 7.18 M0.65 17.45 C5.14 13.47, 8.25 10.74, 11.81 5.4 M6.45 21.87 C11.53 12.96, 15.31 6.14, 16.72 3.03 M5.09 19.85 C8.97 14.54, 15.07 8.91, 19.16 3.66 M9.84 22.58 C14.85 13.13, 19.61 7.86, 25.39 0.46 M7.96 22.3 C12.03 18, 16.04 14.12, 24.62 2.03 M11.05 25.89 C19.99 14.25, 24.01 6.86, 30.21 2.25 M10.98 24.26 C15.6 20.08, 20.06 15.15, 30.03 2.47 M15.43 25.28 C20.42 17.76, 28.57 8.7, 36.84 0.92 M14.57 26.71 C19.52 21.67, 22.84 16.11, 36.89 2.93 M19.24 27.05 C25.03 23.25, 29.9 15.84, 42.83 1.04 M18.98 27.25 C25.35 20.99, 30.21 15.54, 41.06 1.75 M25.95 29.76 C30.66 17.89, 41.18 8.62, 48.65 -0.28 M24.09 28.08 C32.11 18.45, 40.32 9.47, 47.19 0.62 M27.97 30.76 C37.26 17.72, 45.61 11.47, 51.29 1.08 M28.65 29.04 C38.54 18.97, 46.57 9.15, 51.94 1.6 M32.85 31.44 C39.27 21.23, 46.6 16.19, 56.65 3.79 M33.96 29.3 C42.6 19.57, 49.97 9.43, 55.75 3.11 M36.38 32.46 C44.98 21.3, 52.54 13.53, 63.13 5.29 M38.52 31.13 C45.22 23.2, 50.81 14.67, 61.99 2.65 M44.94 31.49 C52.18 20.6, 58.94 15.55, 64.77 3.29 M43.76 30.19 C50.09 23.1, 56.86 14.32, 65.59 4.85 M50.42 28.28 C52.47 24.31, 61.15 18.04, 71.39 2.81 M48.63 28.98 C54.88 24.45, 59.57 18.9, 70.72 4.97 M54.63 28.07 C61.76 21.94, 71.15 12.22, 74.47 7.13 M55.38 28.87 C59.75 25.33, 63.37 18.63, 76.07 6.34 M59.58 27.41 C68.25 22.83, 71.22 12.87, 77.97 6.32 M61.36 28.33 C67.02 20.66, 74.2 11.23, 79.28 7.44 M65.17 28.61 C71.78 24.07, 79.43 12.68, 80.09 11.74 M64.3 29.96 C70.31 24.97, 73.48 19.54, 82.13 10.82 M71.52 28.45 C74.68 22.91, 79.5 18.71, 84.92 12.29 M71.98 27.65 C75.31 24.19, 78.08 22.01, 85.68 13.87 M79.29 24.43 C82.72 21.15, 85.71 20.87, 88.73 15.67 M79.98 24.98 C82.76 22.42, 85.7 18.68, 88.39 15.14 M-0.31 17.12 C-0.31 17.12, -0.31 17.12, -0.31 17.12 M-0.31 17.12 C-0.31 17.12, -0.31 17.12, -0.31 17.12 M12.12 24.55 C8.71 18.4, 3.41 16.53, 2.24 12.64 M13.75 23.61 C11.25 22.05, 7.31 19.62, 0.77 13.43 M19.83 24.27 C17.48 22.28, 11.25 17.69, 4.41 7.96 M21.31 25.47 C17.28 22.68, 13.61 17.29, 2.46 9.52 M29.61 27.66 C26.24 23.42, 18.53 19.37, 6.23 8.6 M30.41 28.04 C24.78 21.2, 18.37 16, 5.06 7.51 M39.33 28.36 C29.1 22.59, 18.36 15.45, 10.34 3.33 M38.09 29.25 C29.63 22.14, 20.44 13.46, 9.89 5.38 M42.46 28.11 C34.97 24.13, 29.06 17.84, 15.96 5.1 M42.97 29.76 C36.91 23.54, 32.41 19.26, 15.11 3.92 M50.47 29.23 C40.58 21.9, 29.11 12.52, 18.72 0.48 M49.61 27.59 C37.24 17.25, 26.19 8.45, 18.75 2.87 M53.76 26.35 C41.93 18.48, 33.71 7.98, 26.29 2.59 M54.93 28.43 C47.18 22.01, 39.99 15.74, 25.78 2.36 M58.98 29.39 C53.1 20.11, 48.43 14.25, 29.75 1.56 M60.99 27.07 C51.54 20.33, 42.76 11.93, 31.01 1.85 M66.47 27.23 C56.03 17.58, 47.02 10.91, 35.94 2.12 M63.99 25.58 C55.3 17.08, 45.22 9.4, 36.92 0.22 M70.56 25.3 C58.64 18.19, 50.45 10.17, 41.64 -0.07 M70.04 25.45 C60.86 17.25, 50.65 8.13, 43.37 0.61 M75.05 24.04 C67.59 17.05, 59.18 8.36, 49.61 -0.04 M74.12 22.47 C67.34 18.02, 62.71 14.38, 49.1 1.32 M78.95 21.82 C71.92 14.81, 63.16 8.69, 50.58 0.13 M79.36 22.18 C70.34 15.25, 63.78 9.85, 53.25 -0.12 M82.24 19.28 C80.15 16.99, 74.58 10.79, 59.52 0.87 M84.28 20.76 C79.13 15.79, 74.27 12.08, 61.14 1.23 M84.84 16.4 C82.19 13.73, 76.52 11.85, 66.82 0.37 M85.26 16.52 C78.21 11.9, 72.06 5.81, 66.91 1.34" stroke="#fab005" stroke-width="0.5" fill="none"></path><path d="M51.22 0.9 C59.35 1.21, 68.54 2.51, 74.46 4.62 C80.39 6.73, 85.37 10.65, 86.77 13.55 C88.17 16.44, 86.8 19.53, 82.86 21.99 C78.93 24.44, 70.7 27.01, 63.16 28.29 C55.62 29.57, 45.9 30.28, 37.61 29.69 C29.32 29.1, 19.75 26.85, 13.43 24.76 C7.11 22.66, 1.21 19.86, -0.3 17.13 C-1.82 14.39, 0.15 10.84, 4.33 8.36 C8.51 5.88, 16.69 3.46, 24.78 2.25 C32.88 1.05, 47.92 1.48, 52.91 1.11 C57.9 0.74, 55.05 0.09, 54.74 0.06 M44.13 1.45 C52.39 1.3, 62.57 1.85, 69.67 3.38 C76.77 4.92, 84.09 7.74, 86.75 10.65 C89.4 13.56, 88.78 18.25, 85.6 20.83 C82.42 23.42, 74.97 24.52, 67.66 26.15 C60.35 27.77, 50.04 30.32, 41.74 30.58 C33.45 30.84, 24.37 29.49, 17.89 27.69 C11.41 25.9, 5.57 22.87, 2.85 19.79 C0.13 16.71, -1.32 11.84, 1.59 9.2 C4.5 6.55, 13.11 5.61, 20.29 3.91 C27.48 2.21, 40.39 -0.43, 44.71 -0.99 C49.02 -1.56, 46.21 0.29, 46.17 0.54" stroke="#000000" stroke-width="1" fill="none"></path></g><g mask="url(#mask-agK17Jim-9UwO14YpIykp)" stroke-linecap="round"><g transform="translate(288.950075708392 266.3533283848378) rotate(0 -48.155637611655266 -0.7131856018579583)"><path d="M-0.23 0.67 C-9.37 0.68, -38.56 0.26, -54.43 -0.27 C-70.3 -0.8, -88.75 -2.22, -95.46 -2.53 M-1.81 -0.02 C-11.06 0.18, -39.22 1.3, -54.93 1.07 C-70.64 0.84, -88.98 -1.05, -96.08 -1.39" stroke="#000000" stroke-width="1" fill="none"></path></g><g transform="translate(288.950075708392 266.3533283848378) rotate(0 -48.155637611655266 -0.7131856018579583)"><path d="M-75.49 -5.52 C-83.7 -4.7, -90.11 -1.52, -95.99 -1.04 M-76.74 -6.35 C-82.3 -6.28, -86.51 -4.51, -95.91 -0.53" stroke="#000000" stroke-width="1" fill="none"></path></g><g transform="translate(288.950075708392 266.3533283848378) rotate(0 -48.155637611655266 -0.7131856018579583)"><path d="M-76.47 8.29 C-84.32 4.54, -90.41 3.13, -95.99 -1.04 M-77.72 7.47 C-83.03 4.09, -86.99 2.43, -95.91 -0.53" stroke="#000000" stroke-width="1" fill="none"></path></g></g><mask id="mask-agK17Jim-9UwO14YpIykp"><rect x="0" y="0" fill="#fff" width="484.6744162991272" height="368.63414447634887"></rect><rect x="227.65547323540113" y="256.4542710749124" fill="#000" width="12" height="20" opacity="1"></rect></mask><g transform="translate(227.65547323540113 256.4542710749124) rotate(0 13.13896486133558 9.185871708067452)"><text x="6" y="14" font-family="Virgil, Segoe UI Emoji" font-size="16px" fill="#000000" text-anchor="middle" style="white-space: pre;" direction="ltr">5</text></g><g transform="translate(105.40583000381639 341.6602210125552) rotate(0 118 8.5)"><text x="118" y="12" font-family="Virgil, Segoe UI Emoji" font-size="13.833752208767338px" fill="#000000" text-anchor="middle" style="white-space: pre;" direction="ltr">fig. Single server with a database</text></g></svg>