<svg version="1.1" xmlns="http://www.w3.org/2000/svg" viewBox="0 0 437.8713557441579 389.74595531278396" width="437.8713557441579" height="389.74595531278396">
  <!-- svg-source:excalidraw -->
  
  <defs>
    <style class="style-fonts">
      @font-face {
        font-family: "Virgil";
        src: url("https://excalidraw.com/Virgil.woff2");
      }
      @font-face {
        font-family: "Cascadia";
        src: url("https://excalidraw.com/Cascadia.woff2");
      }
    </style>
  </defs>
  <g stroke-linecap="round" transform="translate(10 10) rotate(0 208.93567787207894 184.87297765639198)"><path d="M1.88 0.92 C102.38 2.88, 200.41 3.06, 417.64 -0.1 M0.28 -1.05 C108.47 -2.62, 217.85 -2.74, 418.51 1.02 M418.07 0.56 C418.36 113.53, 416.52 228.47, 420.11 370.51 M418.1 0.82 C415.25 110.68, 415.21 218.28, 417.37 369.44 M419.55 370.82 C269.21 370.45, 119.65 370.95, 0.45 368.82 M417.65 369.45 C326.18 370.79, 235.49 371.36, 0.2 370.81 M-0.4 367.7 C3.37 276.91, 2.81 186.08, 1.54 -1.44 M-1.1 370.4 C-2.36 243.67, -3.21 118.89, -0.41 -0.06" stroke="#000000" stroke-width="1" fill="none"></path></g><g stroke-linecap="round" transform="translate(272.86852543628174 36.35717889171315) rotate(0 55.22225050604288 55.222250506043)"><path d="M20.72 11.39 C20.72 11.39, 20.72 11.39, 20.72 11.39 M20.72 11.39 C20.72 11.39, 20.72 11.39, 20.72 11.39 M2.74 36.9 C14.32 26.29, 22.75 12.65, 28.56 9.03 M3.18 37.13 C14.37 25.83, 23.82 14.84, 28.86 8.52 M3.68 43 C16.22 29.97, 29.73 16.46, 35.71 6.02 M2.74 44.43 C11.41 34.3, 21.89 23.5, 37.76 3.68 M3.86 50.08 C15.1 33.68, 30.6 16.12, 45.92 2 M1.72 50.07 C18.48 31.54, 35.38 14.65, 44.85 1.37 M-0.66 58.78 C13.15 45.85, 22.72 35.24, 49.2 4.85 M1.57 59.11 C20.62 37.24, 38.67 15.79, 48.46 2.21 M0.13 64.18 C22.72 40.58, 42.7 18.04, 52.34 4.59 M0.51 65.5 C15.51 48.33, 28.52 32.5, 55.06 2.86 M3.18 66.87 C14.85 55.5, 28.55 37.53, 58.18 4.79 M3.04 68.58 C14.81 55.04, 28.91 40.2, 59 2.96 M5.42 72.39 C22.96 53.91, 37.51 34.17, 63.16 3.69 M3.47 72.09 C21.94 51.23, 39.16 31.74, 64.55 3.75 M6.04 76.25 C21.5 60.09, 33.61 47.04, 69.02 2.79 M6.7 76.67 C25.05 54.7, 43.51 33.51, 70.09 4.13 M10.19 80.43 C33.71 53.09, 56.29 25.45, 77.06 4.26 M8.39 79.83 C31.83 54.62, 53.72 27.04, 74.91 3.62 M11.29 83.39 C25.55 64.47, 42.73 47.97, 77.97 6.32 M9.84 83.49 C25.21 66.47, 41.42 50.44, 77.54 5.18 M12.04 90.53 C37.56 62.65, 61.13 35.8, 82.62 10.31 M11.44 87.94 C32.68 65.41, 55.36 40.98, 80.95 7.85 M15.42 91.49 C31.97 68.92, 51.35 46.16, 84.5 11.85 M14.17 92.62 C41.07 61.8, 69.75 31.06, 85.61 11.33 M17.03 95.88 C39.76 70.1, 62.29 46.78, 89.42 15.01 M16.48 95.35 C37.79 71.78, 58.99 46.8, 87.66 13.73 M22.74 95.52 C42.05 73.22, 65.31 49.21, 92.46 14.83 M20.41 96.11 C35.09 78.48, 49.94 60.18, 90.27 15.53 M24.4 100.95 C45.99 76.88, 64.38 52.28, 92.32 19.32 M23.82 99.02 C43.18 77.28, 61.38 55.87, 94.59 19.11 M28.11 100.69 C43.97 80.03, 65.03 59.87, 97.61 18.96 M27.14 101.09 C55.99 71.04, 82.97 38.87, 98.54 19.72 M29.25 102.46 C56 72.49, 85.21 43.23, 101.28 24.71 M30.9 102.93 C57.95 71.83, 85.03 40.8, 101.67 23.05 M35.52 106.46 C51.32 85.41, 70.44 62.74, 104.21 27.98 M33.28 105.61 C59.49 77.42, 85.41 45.93, 103.29 26.63 M35.85 107.87 C59.9 83.07, 83.24 55.6, 105.54 30.15 M37.53 108.53 C53.42 91.14, 70.64 70.29, 105.3 30.91 M40.79 108.54 C59.31 89.42, 76.42 71.28, 104.36 33.33 M40.83 108.75 C60.94 87.86, 79.34 65.64, 106.4 35.46 M46.2 110.11 C68.76 83.15, 92.49 55.12, 106.04 37.84 M46.53 109.5 C62.82 91.07, 79.05 70.28, 106.88 40.01 M51.58 110.89 C68.32 93.02, 83.32 73.68, 111.26 45.22 M50.91 110.61 C65.85 93.53, 82.52 75.47, 110.16 42.91 M57.63 112.17 C72.35 94.32, 84.48 79.61, 112.29 49.99 M55.3 110.32 C73.41 90.73, 89.97 70.91, 109.6 48.43 M59.39 109.72 C77.31 91.87, 97.72 69.87, 110.05 54.63 M61.71 112.26 C74.58 95.53, 86.13 82.28, 110.03 55.21 M65.19 110.52 C78.5 96.29, 91.71 81.39, 107.01 64.09 M66.22 111.71 C75.27 100.81, 84.64 88.86, 109.14 62.27 M74.87 109.74 C87.82 94.85, 98.01 81.35, 106.96 70.77 M73.8 110.03 C82.99 98.6, 91.47 87.55, 107.79 69.55 M83.03 105.56 C89.29 99.07, 92.26 92.69, 106.63 74.56 M81.99 105.05 C90.33 96.25, 98.2 85.97, 108.1 75.35 M12.07 89.77 C12.07 89.77, 12.07 89.77, 12.07 89.77 M12.07 89.77 C12.07 89.77, 12.07 89.77, 12.07 89.77 M36.74 104.11 C27.97 99.1, 18.9 90.41, 7.73 81.22 M36.01 104.93 C26.79 98.1, 18.23 88.69, 8.51 81.57 M42.25 105.28 C34.41 95.84, 22.93 90.31, 2.87 70.28 M43.33 106.11 C31.48 94.92, 18.47 84.85, 3.25 71.17 M49.2 105.92 C39.53 97.01, 26.93 88.31, 0.9 62.59 M50.25 107.6 C31.61 90.68, 12.78 75.07, -0.34 64.36 M54.78 106.13 C44.42 94.59, 27.89 83.73, 1.31 59.51 M55.53 106.74 C42.84 93.53, 27.46 82.06, -0.23 58.04 M63.71 107.21 C48.44 96.48, 36.94 86.05, -0.15 55.35 M64.31 108.5 C50.26 95.81, 37.21 84.02, 1.18 53.99 M69.74 108.06 C41.87 83.26, 19.15 64.03, 1.03 50.98 M68.05 107.36 C42.82 84.36, 15.69 61.44, 2.11 49.96 M72.65 102.73 C51.62 89.55, 35.62 72.57, 3.93 45.43 M72.13 104.39 C52.9 87.05, 31.79 71.19, 1.64 44.78 M77.53 102.87 C50 78.11, 24.66 56.31, 4.91 40.96 M75.51 103.15 C59.46 90.27, 44.07 77.5, 2.97 40.95 M78.72 99.31 C49.43 75.51, 20.75 51.29, 4.32 36.09 M79.24 100.85 C51.57 77.33, 22.91 51.55, 4.64 35.11 M84.85 101.14 C63.11 81.35, 42.55 61.51, 6.36 30.48 M84.02 98.82 C62.9 82.02, 43 64.78, 6.83 32.52 M88.58 99.3 C62.78 77.36, 39.24 55.16, 9.45 26.78 M88.37 97.71 C62.96 73.92, 34.64 50.89, 8.3 28.29 M91.1 93.68 C63.78 73.42, 39.05 48.73, 9.81 26.76 M91.68 96.03 C67.67 75.78, 44.22 55.23, 10.44 25.14 M95.37 91.32 C63.04 65.03, 28.52 37.94, 15.71 20.47 M93.97 91.86 C72.33 75.05, 51.27 55.66, 13.97 21.93 M94.68 89.48 C66.1 61.96, 32.69 34.74, 14.67 19.18 M96.85 89.41 C71.93 68.62, 48.48 49, 14.75 18.19 M98.53 84.02 C69.33 62.51, 43.47 39.09, 16.76 16.33 M98.04 84.93 C80.65 70.27, 62.57 54.22, 17.49 16.55 M99.77 81.63 C82.48 67.25, 62.13 50.53, 18.34 9.96 M100.88 82.41 C79.21 63.69, 58.47 45.35, 20 12.64 M102.23 78.27 C85.54 59.98, 63.94 44.15, 21.02 6.96 M102.56 79.53 C76.47 55.24, 48.03 31.22, 22.72 8.88 M104.04 76.09 C86.71 60.67, 70.3 43.02, 25 6.78 M105.89 76.11 C85.67 58.99, 66.85 41.82, 26.43 7.67 M108.87 72.46 C81.22 47, 51.01 23.23, 32.43 7.11 M107.02 72.56 C79.84 48.2, 50.58 23.61, 30.29 4.55 M108.14 69.01 C83.57 48.08, 57.88 27.79, 36.31 2.19 M108.22 66.53 C88.02 48.22, 64.84 29.87, 35.03 4.06 M108.6 63.84 C86.54 41.95, 66.04 24.69, 39.88 0.46 M109.88 62.52 C89.51 45.53, 68.56 30, 39.03 2.85 M110.74 57.34 C90.68 42.19, 73.47 28.38, 41.68 -0.41 M109.48 57.26 C89.21 40.48, 70.61 23.48, 43.75 0.22 M108.61 53.09 C89.78 36.42, 67.09 18.6, 48.52 -2.53 M109.88 54.07 C93.8 38.74, 77.25 23.64, 47.3 -1.39 M112.51 46.87 C90.72 30.81, 73.92 15.97, 55.54 -2.18 M110.53 49.43 C91.93 30.85, 72.68 13.21, 54.86 -1.27 M111.8 43.73 C93.54 28.14, 75.07 11.04, 61.32 0.69 M110.76 43.48 C93.76 28.89, 76.21 12.6, 60.48 -0.49 M108.59 33.61 C92.47 20.29, 77.85 7.77, 68.29 -0.72 M107.96 35.2 C92.33 21.75, 76.16 8.32, 67.82 0.48 M103.05 25.59 C99.07 20.84, 89.52 13.02, 75.9 3.65 M105.44 28.1 C93.26 17.55, 81.47 7.87, 75.91 0.95" stroke="#a3aefd" stroke-width="0.5" fill="none"></path><path d="M74.98 2.9 C83.51 5.3, 92.98 13.77, 98.71 21.11 C104.44 28.45, 108.16 37.98, 109.35 46.93 C110.55 55.88, 109.26 66.14, 105.89 74.8 C102.51 83.47, 96.27 93.09, 89.1 98.93 C81.92 104.76, 71.97 108.56, 62.84 109.82 C53.72 111.07, 42.86 109.82, 34.36 106.45 C25.86 103.08, 17.59 96.66, 11.85 89.59 C6.12 82.51, 1.34 72.97, -0.03 64.02 C-1.39 55.07, 0.18 44.68, 3.65 35.89 C7.13 27.11, 13.74 17.16, 20.81 11.29 C27.88 5.42, 36.15 1.58, 46.05 0.7 C55.94 -0.18, 73.95 4.44, 80.18 6.03 C86.41 7.61, 83.81 9.23, 83.44 10.21 M72.41 2.11 C80.89 4.34, 89.53 12.82, 95.63 19.94 C101.73 27.07, 106.95 35.98, 109 44.87 C111.05 53.75, 110.72 64.61, 107.92 73.27 C105.13 81.94, 99.09 90.76, 92.24 96.87 C85.39 102.99, 75.83 108.21, 66.82 109.97 C57.82 111.73, 47.1 110.61, 38.22 107.43 C29.33 104.24, 19.54 97.47, 13.53 90.84 C7.52 84.2, 3.94 76.57, 2.15 67.63 C0.35 58.69, 0.09 46.42, 2.77 37.2 C5.46 27.97, 11.3 18.29, 18.26 12.3 C25.21 6.31, 35.48 2.89, 44.48 1.26 C53.48 -0.37, 67.71 2.2, 72.25 2.52 C76.79 2.85, 71.81 2.43, 71.72 3.2" stroke="#000000" stroke-width="1" fill="none"></path></g><g transform="translate(306.59077594232485 79.07942939775626) rotate(0 21.5 12.5)"><text x="21.5" y="18" font-family="Virgil, Segoe UI Emoji" font-size="20px" fill="#000000" text-anchor="middle" style="white-space: pre;" direction="ltr">DNS</text></g><g stroke-linecap="round" transform="translate(52.321588886210975 207.8950820223772) rotate(0 168.45315384547598 56.29794649468761)"><path d="M0 0 C0 0, 0 0, 0 0 M0 0 C0 0, 0 0, 0 0 M-0.05 6.07 C1.89 4.44, 4.2 2.59, 4.37 0.94 M-0.42 6.65 C0.84 5.07, 2.85 3.26, 5.19 0.01 M1.44 11.34 C2.15 7.68, 6.3 3.12, 10.95 0.65 M-0.27 11.33 C3.99 6.97, 8.53 3.79, 10.09 0.14 M-2.1 19.1 C4.23 14.41, 6.65 12.02, 15.62 2.15 M0.13 19.44 C6.26 11.97, 11.65 5.08, 14.88 -0.49 M-0.65 23.76 C9.31 14.7, 16.85 6.48, 19.41 1.14 M-0.27 25.07 C6.16 17.33, 10.8 11.12, 22.14 -0.59 M0.43 28.71 C5.52 25.32, 12.46 15.14, 25.25 1.34 M0.29 30.41 C5.11 24.46, 12.52 17.33, 26.08 -0.49 M0.7 36.49 C10.37 27.15, 17.13 16.37, 30.89 -0.51 M-1.25 36.19 C9.38 24.82, 18.52 14.63, 32.28 -0.45 M0.01 41.86 C9.4 32.19, 15.69 25.84, 36.75 -1.42 M0.67 42.28 C11.07 29.66, 21.59 17.62, 37.82 -0.07 M1.53 49.06 C16.32 31.8, 30.07 14.31, 44.13 0.81 M-0.27 48.46 C15.02 32.91, 28.6 14.89, 41.99 0.17 M1.32 53.52 C10.57 40.47, 22.74 29.74, 47.01 0.6 M-0.12 53.63 C10.48 41.99, 22.1 31.24, 46.58 -0.53 M0.11 62.93 C19.92 41.41, 37.9 20.99, 54.28 1.58 M-0.49 60.34 C15.71 43.36, 33.42 24.65, 52.61 -0.88 M0.87 66.91 C14.03 48.14, 30.02 29.29, 57.47 1.61 M-0.39 68.04 C21.65 42.64, 45.61 17.33, 58.59 1.09 M-0.15 74.32 C20.36 51.01, 40.72 30.18, 65.02 1.75 M-0.71 73.79 C18.52 52.6, 37.59 30.07, 63.26 0.48 M1.62 78.49 C20.53 56.63, 43.4 33.06, 70.03 -0.69 M-0.71 79.08 C13.7 61.79, 28.26 43.81, 67.84 0.01 M0.65 86.94 C23.41 61.53, 42.98 35.57, 72.51 0.78 M0.08 85.01 C20.5 62.09, 39.74 39.47, 74.79 0.57 M1.09 90.45 C19.1 67.29, 42.35 44.6, 79.11 -1.09 M0.12 90.84 C32.35 57.05, 62.64 21.09, 80.05 -0.33 M-1.71 96.75 C30.77 60.22, 65.69 24.38, 85.41 1.64 M-0.06 97.22 C32.92 59.31, 65.79 21.61, 85.8 -0.02 M1.94 103.77 C23.51 76.04, 48.53 46.58, 91.63 1.13 M-0.3 102.91 C33.86 65.69, 67.69 25.1, 90.7 -0.21 M-1.01 108.95 C32.57 73.09, 65.66 34.4, 96.89 -1.22 M0.67 109.61 C23.84 84.44, 48.05 55.55, 96.65 -0.46 M0.64 113.4 C28.66 83.53, 54.92 54.86, 98.98 -1.82 M0.69 113.61 C31.27 80.95, 59.88 46.99, 101.02 0.32 M6.06 114.96 C43.55 70.51, 82.23 25.29, 104.6 -1.84 M6.39 114.35 C33.07 83.8, 59.97 50.74, 105.44 0.33 M12.74 114.24 C40.34 83.22, 66.64 50.89, 113.1 1.77 M12.08 113.96 C37.95 84.52, 65.58 53.86, 112 -0.54 M18.8 115.52 C45.36 84.25, 69.15 56.12, 118.07 2.01 M16.47 113.67 C48.93 77.87, 79.52 41.92, 115.38 0.45 M21.22 112.31 C57.62 72.88, 96.83 29.25, 122.39 -0.89 M23.53 114.85 C49.53 82.58, 74.41 54, 122.37 -0.32 M27.67 112.36 C58.54 78.9, 88.83 44.36, 125.26 1.77 M28.7 113.54 C50.59 87.12, 73.04 60.13, 127.39 -0.04 M34.73 114.59 C71 72.05, 105.24 30.89, 131.77 0.91 M33.66 114.88 C59.61 83.74, 84.9 53.36, 132.6 -0.31 M39.61 114.19 C63.73 88.01, 83.73 62.05, 136.68 -1.34 M38.56 113.68 C70.85 76.8, 103.09 38.49, 138.15 -0.55 M42.44 115.52 C71.39 82.04, 97.31 54.59, 142.65 1.38 M44.81 112.87 C70.01 83.83, 94.31 54.17, 142.92 0.43 M50.02 113.22 C82.99 78.99, 114.96 41.31, 148 0.64 M49.29 114.05 C81.21 77.51, 114.11 38.81, 148.78 1 M54.02 113.08 C80.4 84, 102.56 59.05, 152.95 -1.76 M55.1 113.91 C85.61 77.85, 115.46 43.03, 153.33 -0.88 M58.81 113.16 C84.71 86.26, 108.02 60.52, 159.38 -0.83 M59.85 114.84 C95.3 71.4, 130.8 30.01, 158.14 0.94 M63.63 112.72 C90.14 84.45, 110.7 57.93, 165.08 0.68 M64.38 113.33 C91.45 84.66, 115.94 56.35, 163.53 -0.79 M70.4 113.24 C91 88.45, 115.11 64.7, 167.48 1.22 M70.99 114.53 C91.65 89.32, 113.58 64.45, 168.82 -0.14 M77.93 115.4 C112.54 67.71, 152.6 26.8, 173.95 1.44 M76.25 114.71 C114.7 68.78, 151.62 23.74, 175.03 0.42 M81.7 112.14 C107.04 83.61, 137.21 51.94, 181.48 1.23 M81.18 113.8 C108.72 82.94, 134.76 52.09, 179.18 0.59 M88.09 113.59 C123.35 70.31, 160.85 29.83, 186.98 0.7 M86.06 113.87 C106.07 88.98, 127.1 65.38, 185.04 0.69 M90.13 112.1 C128.33 68.35, 167.14 25.77, 191.02 1.18 M90.65 113.63 C128.06 71.47, 164.73 27.92, 191.34 0.2 M97.77 115.24 C123.73 83.77, 150.57 51.5, 196.08 -1.8 M96.94 112.92 C121.55 83.24, 147.83 53.88, 196.55 0.23 M101.6 114.81 C132.29 78.68, 165.34 42.72, 202.28 -1.48 M101.39 113.22 C137.72 75.21, 170.9 37.21, 201.14 0.04 M107.13 111.81 C140.33 75.46, 175.77 36.12, 205.67 1.13 M107.72 114.17 C136.7 79.88, 166.03 46.49, 206.29 -0.49 M114.53 113.49 C153.52 68.87, 190.4 24.07, 213.93 -1.78 M113.12 114.03 C137.53 84.87, 162.71 54, 212.19 -0.32 M116.85 114.28 C157.96 68.86, 194.46 24.62, 216.66 0.21 M119.02 114.2 C146.54 79.57, 175.69 47.14, 216.74 -0.78 M123.82 112.85 C156.92 74.12, 193.29 35.27, 221.12 0.74 M123.32 113.75 C144.65 90.27, 165.44 64.57, 221.84 0.96 M127.42 113.84 C151.2 90.68, 172.12 63.79, 226.46 -2.35 M128.53 114.62 C155.25 84.65, 182.6 54.45, 228.13 0.33 M132.9 113.1 C160.73 84.65, 183.51 58.02, 231.51 -1.97 M133.23 114.36 C168.21 76.43, 200.8 37.56, 233.21 -0.05 M137.83 114.96 C160.63 90.29, 184.58 62.25, 236.34 -0.09 M139.68 114.97 C163.67 87.21, 188.98 58.67, 237.78 0.8 M145.68 113.95 C180.79 72.52, 213.41 31.96, 245.29 1.56 M143.83 114.06 C182.21 71.08, 218.22 29.06, 243.14 -1 M149.58 115.85 C182.14 76.46, 213.79 39.42, 250.01 -1.3 M149.65 113.37 C181.08 79.51, 209.04 46.23, 248.74 0.57 M154.57 114.61 C185.47 76.74, 218.03 42.87, 255.09 -1.71 M155.84 113.29 C182.71 80.3, 209.48 49.85, 254.24 0.68 M161.33 113.46 C185.6 83.24, 212.78 54.35, 257.75 -0.51 M160.07 113.38 C188.55 79.81, 218.73 46.24, 259.82 0.11 M164.48 113.8 C198.06 76.55, 228.28 39.26, 266.1 -1.32 M165.75 114.78 C192.92 82.53, 219.81 51.45, 264.87 -0.18 M172.26 112.27 C202.22 74.8, 237.03 38.49, 270.95 -1.53 M170.28 114.84 C206.53 74.52, 241.82 34.19, 270.27 -0.62 M176.83 113.72 C216.34 72.54, 255.25 28.6, 275.98 0.69 M175.79 113.48 C211.92 74.16, 246.96 33.27, 275.14 -0.49 M182.02 112.23 C221.31 67.46, 262.04 23.87, 281.54 -0.63 M181.39 113.83 C221.28 68.03, 260.62 23.43, 281.07 0.57 M185.54 112.09 C213.17 86.77, 234.81 57.5, 286.88 1.78 M187.93 114.59 C223.22 69.55, 259.77 26.63, 286.89 -0.93 M190.78 112.81 C224.22 80.14, 252.84 43.97, 289.92 1.39 M192.25 114.68 C232.18 69.8, 270.95 25.58, 290.93 0.15 M197.01 114.11 C219.15 85.48, 245.57 59.2, 297.48 -1.09 M197.91 113.58 C217.92 90.15, 239.18 65.07, 297.74 0.1 M203.19 112.96 C233.08 78.77, 260.4 48.57, 301.02 -0.75 M203.47 113.97 C234.53 76.56, 265.09 40.64, 302.35 0.83 M210.17 112.5 C235.53 79.08, 266.67 47.57, 306.94 0.55 M209.21 114.14 C244.27 74.24, 281.16 31.79, 307.03 0.41 M212.44 115.14 C249.06 74.7, 284.49 34.47, 312.25 -0.84 M213.4 114.54 C252.52 71.28, 290.49 27.23, 313.54 -0.44 M220.42 115.47 C244.22 84.6, 271.42 53.91, 318.91 -1.35 M219.05 114.24 C253.68 75.2, 286.26 38.13, 317.88 0.1 M224.18 113.32 C247.9 88.6, 273.06 57.49, 321.52 -1.17 M224.15 113.47 C246.85 88.54, 270.13 61.13, 322.51 -0.45 M231.68 114.73 C253.77 86.86, 281.12 57.41, 329.58 0.68 M230.43 114.09 C257.77 81.15, 285.16 49.01, 329.14 -0.5 M236.57 112.96 C265.86 73.47, 299.64 36.19, 335.24 -0.54 M235.59 114.09 C264.29 80.86, 294.79 45.99, 332.96 0.25 M239.71 114.24 C266.8 84.23, 288.5 57.84, 338.28 3.11 M239.41 114.88 C276.36 72.45, 312.97 28.96, 338.1 0.7 M244.28 115.01 C278.68 79.72, 309.01 40.37, 337.77 9.32 M245.3 113.99 C272.62 81.38, 299.57 50.66, 337.84 6.92 M250.74 115.21 C275.53 82.65, 302.68 52.49, 338.3 13.45 M249.79 113.84 C270.02 92.23, 287.2 72.49, 339.25 13.58 M254.47 111.95 C286.03 79.89, 313.95 43.95, 339.15 21.6 M256.65 112.99 C282.48 85.75, 307 55.2, 338.98 20.5 M261.51 112.6 C292.21 81.57, 318.66 46.07, 336.51 27.09 M261.13 114.65 C276.85 94.21, 294.06 76.62, 337.88 24.66 M266.81 115.72 C286.05 92.73, 303.18 72.28, 339.23 31.48 M266.74 113.17 C286.64 89.89, 306.18 67.86, 337.3 30.67 M269.95 116.12 C288.65 97.51, 305.97 75.94, 338.4 38.26 M271.43 114.54 C286.39 96.71, 300.17 80.96, 337.18 38.03 M277.46 113.79 C295.56 92.15, 315.05 70.96, 338.42 42.17 M276.42 112.87 C297.99 87.74, 321.62 63.27, 337.54 43.88 M282.48 114.98 C294.48 99.25, 306.95 86.27, 339.96 50.41 M282.41 114.95 C299.79 95.63, 317.29 76.19, 338.07 49.77 M287.08 113.13 C301.38 95.79, 317.97 81.99, 337.63 56.39 M288.32 114.68 C306.24 94.36, 323.12 74.62, 338.18 54.85 M293.99 113.9 C304.56 102.43, 315.03 87.36, 339.68 60.75 M293.55 113.6 C309.33 95.14, 324.98 76.29, 337.26 62.45 M296.84 112.19 C306.64 104.09, 314.97 93.75, 337.63 69.09 M298.77 113.41 C308.25 103.13, 317.54 92.79, 338.79 69.27 M303.92 113.09 C317.72 98.56, 329.71 81.76, 337.24 73.24 M304.09 114.45 C314.92 101.75, 325.86 89.38, 337.85 74.16 M308.41 112.93 C316.14 103.92, 328.39 94.54, 337.63 80.49 M309.88 114.16 C316.3 105.13, 323.91 96.54, 338.66 80.86 M316.16 112.25 C321.54 105.98, 329.32 94.86, 336.8 87.34 M314.99 113.69 C321.94 105.46, 328.78 96.93, 338.69 85.24 M319.94 112.81 C325.8 107.47, 328.09 103.97, 339.41 92.54 M319.51 114.26 C324.26 107.41, 329.5 102.65, 338.87 91.82 M323.15 114.6 C329.38 110.34, 332 106.03, 338.36 98.77 M325 113.79 C328.02 109.74, 332.13 105.96, 337.73 99.01 M330.25 113.16 C332.91 111.77, 334.78 110.38, 338.06 105.43 M330.95 113.45 C333.39 110.14, 336.75 106.12, 338.68 104.17 M335.12 114.21 C336.08 113.75, 336.35 112.64, 337.75 111.33 M335.29 113.93 C336.11 113.01, 337.05 112.08, 338.19 110.99 M0.1 112.68 C0.1 112.68, 0.1 112.68, 0.1 112.68 M0.1 112.68 C0.1 112.68, 0.1 112.68, 0.1 112.68 M5.5 112.76 C3.86 110.68, 1.85 107.66, 0.4 107.08 M5.71 112.13 C3.31 110.42, 1.79 108.26, -0.03 106.79 M11.94 113.2 C10.29 108.23, 6.51 106.04, 0.36 102.47 M12.62 112.61 C9.21 108.92, 5.25 106.33, 0.44 102.47 M17.98 112.21 C12.68 108.73, 6.88 103.56, 0.46 97.65 M19.03 112.37 C14.13 108.84, 8.78 104.02, -0.39 96.59 M24.34 114.34 C16.07 107.15, 9.61 101.29, -0.75 92.68 M23.42 112.33 C15.12 104.04, 5 96.74, 0.23 91.92 M31.46 113.32 C17.89 103.18, 6.53 92.08, -2.2 87.56 M31.17 113.36 C20.03 103.76, 11.64 95.47, -0.36 85.54 M35.08 114.27 C22.7 98.8, 11.15 89.92, -0.59 82.01 M36.14 111.8 C22.97 99.84, 10.42 90.16, -0.83 81.68 M41.24 114.17 C31.52 105.06, 20.44 95.31, 1.38 74.01 M42.32 113.25 C33.04 105.26, 23.74 96.4, 0.55 75.75 M50.02 112.25 C35.93 101.23, 19.55 90.39, -1.69 68.75 M48.02 112.51 C30.06 95.2, 9.95 78.28, -0.42 70.79 M54.75 110.97 C41.51 103.65, 29.77 91.48, 1.35 63.64 M53.7 111.99 C41.39 100.13, 25.79 86.43, -0.05 65.98 M61.33 112.96 C50.22 101.67, 35.87 91.58, 1.89 58.63 M61.66 112.23 C41.3 94.56, 21.23 77.96, -0.56 60.48 M67.9 111.44 C43.5 91.76, 21.44 72.16, -1.37 52.57 M66.3 111.78 C50.93 100.23, 37.58 86.62, -0.55 55.24 M71.91 114.5 C51.84 92.39, 29.59 76.99, 0.54 48.86 M73.65 112.95 C55.37 97.13, 38.49 82.85, 0.48 48.2 M77.84 111.44 C55.4 93.11, 34.54 73.84, 1.89 43.76 M79.6 113.74 C58.42 94.67, 38.3 76.62, -0.34 44.1 M84.44 113.82 C64.13 92.34, 40.61 74.31, 1.19 40.14 M85.62 112.27 C53.53 83.48, 20.77 57.05, 0.19 37.66 M92 112.37 C68.6 92.72, 47.87 76.91, 0.28 31.68 M90.57 113.27 C57.61 81.66, 24.28 52.18, 0.92 33.38 M98.08 111.41 C60.12 77.63, 19.96 43.34, -0.75 28.68 M96.91 111.99 C68.93 87.53, 42.84 65.72, -0.22 26.8 M104.53 113.1 C63.13 81.18, 24.41 44, -0.52 22.28 M104.2 111.97 C64.62 77.12, 25.99 44.32, -0.66 22.19 M109.24 111.86 C89.51 91.7, 67.03 73.09, -1.37 18.2 M109.38 112.88 C81.42 87.83, 51.36 60.63, 0.25 17.85 M117.35 111.33 C85.46 83.77, 53.02 55.58, 1.64 13.02 M116.47 113.05 C78.96 80.72, 42.16 48.84, 0.79 11.84 M120.58 113.33 C84.96 82.03, 47.25 50.92, -0.26 7.91 M122.39 111.94 C85.17 79.53, 49.41 46.3, 0.32 7.25 M129.64 112.94 C93.79 83.75, 60.49 54.47, 1.44 0.87 M127.87 112.64 C95.83 83.73, 59.63 54.3, 0.86 1.92 M133.52 111.44 C87.61 74.56, 44.66 34.92, 1.77 -1.52 M133.28 112.41 C85.15 70.27, 35.81 28.8, 2.75 -2.32 M138.78 113.32 C107.7 82.44, 72.85 53.41, 10.33 -2.5 M140.36 113.11 C98.06 74.54, 55.19 37.23, 9.21 -2.52 M145.23 112.65 C109.21 80.19, 70.57 45.43, 13.68 -1.31 M146.42 113.12 C109.15 81.21, 73.39 49.35, 13.29 -3.34 M152.97 113.35 C108.83 75.52, 65.64 38.14, 19.46 -1.06 M151.93 113.09 C126.62 88.7, 99.1 64.66, 20.42 -1.34 M158.12 111.57 C113.51 74.02, 69.41 36.13, 27.56 -2.28 M158.67 113.82 C127.38 84.73, 95 58.18, 26.13 -3.13 M164.09 112.72 C114.94 70.04, 68.77 28.11, 33.21 -2.63 M163.56 112.78 C129.76 83.71, 95.56 52.88, 31.58 -1.49 M172.84 112.36 C140 88.48, 109.43 62.26, 38.6 -2.56 M170.37 112.53 C126.25 73.32, 80.55 34.96, 39.75 -1.58 M176.58 110.66 C127.54 70.32, 77.81 24.81, 44.24 -4.26 M175.98 112.64 C143.6 84.5, 109.59 54.55, 45.28 -2.38 M184.83 112.62 C143.48 79.18, 108.76 46.96, 52.18 -2.75 M183.88 113.47 C148.92 84.77, 115.1 54.73, 50.13 -2.29 M188.1 114.52 C138.42 67.19, 85.62 22.86, 57.73 -3.47 M188.42 112.03 C137.13 68.87, 84.66 24.1, 55.88 -3.18 M193.23 112.83 C165.75 86.22, 136.1 62.46, 64.49 -2 M194.56 112.49 C156.3 79.66, 117.67 46.23, 63.23 -2.65 M202.56 113.22 C151.47 68.5, 101.63 25.77, 68.08 -1.66 M201.62 112.6 C164.02 78.92, 128.06 47.33, 70.24 -2.15 M205.72 112.94 C170.94 79.88, 134.24 48.93, 75.43 -0.57 M207.51 111.66 C156.68 67.41, 108 23.93, 74.06 -2.46 M214.62 113.1 C172.94 77.94, 135.17 42.25, 79.97 -2.67 M214.29 112.21 C163.73 69.05, 112.11 26.06, 80.72 -1.28 M219.2 113.07 C177.72 74.94, 132.45 35.64, 85.42 -3.28 M220.35 111.98 C181.17 79.86, 145.55 48.61, 87.33 -3.26 M226.69 111.4 C186.59 75.99, 147.13 42.72, 92.79 -0.89 M226.18 112.32 C177.73 73.6, 132.7 32.09, 93.66 -2.32 M232.85 110.86 C180.6 68.09, 129.67 22.51, 100.12 -2.74 M232.16 112.71 C182.14 68.53, 133.33 25.73, 100.29 -1.68 M237.7 112.81 C197.78 81.17, 161.45 45.23, 105.72 -3.85 M236.76 112.63 C198.49 78.47, 158.28 43.69, 106.42 -1.44 M244.57 113.44 C207.09 81.72, 174.1 51.76, 111.45 -2.06 M244.07 113.34 C206.43 80.63, 171.93 50.3, 111.65 -2.08 M251.81 114.21 C201.48 70.21, 156.29 29.7, 118.43 -3.6 M250.02 113.76 C206.05 74.98, 163.33 37.49, 118.12 -2.56 M256.04 110.77 C213.2 78.2, 175.47 44.36, 122.07 -2.87 M256.17 112.96 C228.78 89.65, 202.12 64.59, 124.14 -2.59 M263.43 113.99 C215.72 71.75, 167.63 30.73, 131.82 -4.02 M261.43 112.6 C209.7 66.74, 155.68 21.36, 130.36 -2.7 M269.41 112.31 C229.46 77.38, 192.34 46.35, 134.4 -3.97 M268.32 112.89 C238.88 85.55, 206.52 59.27, 135.51 -1.77 M273.71 112.02 C233.95 76.76, 190.17 39.76, 141.06 -3.45 M274.48 112.27 C237.28 81.35, 201.33 49.93, 142.23 -2.58 M280.1 111.66 C239.32 75.53, 198.42 40.92, 147.34 -0.63 M280.89 113.37 C249.53 85.48, 217.81 58.1, 147.22 -1.9 M287.59 111.01 C253.46 82.56, 218.85 54.38, 156.06 -2.79 M285.64 113.46 C237.73 70.15, 189.84 28.73, 154.84 -2.71 M293.77 112 C253.08 79.55, 216.94 44.53, 161.07 -4 M293.71 112.93 C249.21 75.33, 205.34 36.39, 161.27 -2.36 M298.47 113.17 C250.69 71.94, 200.33 29.32, 166.5 -4.08 M299.15 113.15 C262.78 81.74, 227.64 51.27, 166.31 -2.02 M306.83 113.92 C267.66 78.75, 229.21 46.76, 174 -3.67 M304.64 112.3 C272.25 86.95, 240.76 59.55, 173.13 -2.27 M313.02 112.87 C285.41 91.13, 259.03 66.4, 178.52 -1.84 M311.73 113.19 C279.57 86.15, 245.89 56.57, 178.49 -3.17 M315.46 112.89 C266.45 68.71, 219.26 27.11, 183.29 -3.78 M316.55 111.81 C273.04 75.07, 229.96 36.7, 184.28 -2.51 M324.14 114.01 C283.21 76.19, 245.01 41.83, 191.55 -2.46 M323.62 113.73 C274.91 70.7, 227.22 27.71, 191.73 -1.92 M328.31 111.87 C286.02 73.72, 241.78 35.44, 197.85 -1.62 M328.04 112.05 C279.45 70.77, 230.07 27.18, 197.2 -2.38 M335.51 113.95 C288.17 72.83, 238.88 31.41, 203.25 -2.8 M335.05 113.13 C292.6 75.33, 249.69 38.45, 203.89 -1.76 M340.28 111.36 C288.78 65.09, 236.65 22.32, 207.1 -2.97 M339.2 109.87 C288.3 66.74, 238.34 22.89, 208.12 -2.91 M338.23 105.69 C303.35 75.28, 272.02 45.91, 214.03 -2.24 M338.94 106.12 C309.95 82.16, 281.41 56.28, 214.82 -1.93 M337.5 98.75 C300.84 68.87, 264.77 38.94, 221.71 -1.47 M338.58 99.81 C313.41 78.21, 289.71 56.01, 221.77 -2.25 M340.76 92.88 C304.42 63.67, 267.99 32.35, 228.07 -1.32 M338.8 94.87 C312.46 69.5, 284.49 45.45, 227.38 -2.12 M339.93 88.04 C314.49 66.27, 288.91 46.62, 234.58 -1.22 M337.86 89.72 C308.71 63.36, 279.25 38.36, 234.39 -2.24 M339.27 86.01 C306.82 57.36, 276.21 32.12, 238.01 -1.07 M339.15 83.09 C306.63 55.13, 273.51 25.89, 240.17 -1.75 M338.25 80.18 C306.84 50.61, 278.26 26.67, 245.39 -0.86 M338.64 79.19 C310.45 52.76, 280.95 27.91, 246.2 -2.53 M338.68 71.78 C314.77 51.09, 293.23 35.09, 253.78 -2.38 M338.45 73.5 C314.64 50.17, 288.04 30.14, 252.31 -1.31 M339.61 67.63 C320.34 52.57, 303.32 36.51, 257.54 -4.17 M338.27 68.04 C308.98 42.57, 276.99 14.78, 258.43 -3.16 M340.4 64.41 C313.41 39.08, 283.29 15.1, 263.54 -0.6 M338.94 63.06 C314.11 41.46, 288.53 19.46, 264.38 -3.05 M339.68 58.37 C321.31 41.29, 304.43 29.01, 270.95 -3.43 M337.87 56.36 C322.57 42.9, 306.47 30.05, 270.07 -1.92 M338.36 53.61 C316.21 30.18, 291.21 12.2, 278.21 -1.61 M338.6 52.97 C318.44 35.14, 298.18 16.81, 277.01 -2.97 M338.62 47.84 C327.69 37.31, 314.92 24.94, 282.79 -2.79 M338.28 46.47 C325.32 34.44, 312.2 23.5, 282.59 -1.7 M338.95 40.6 C327.33 29.54, 315.91 20.76, 288.44 -4.45 M339.17 40.69 C324.07 27.19, 308.14 14.42, 287.8 -1.49 M337.1 35.02 C323.25 21.94, 309.53 8.65, 296.46 -0.85 M338.12 34.97 C322.79 20.94, 306.03 7.19, 294.98 -3.11 M337.11 30.07 C328.58 20.99, 320.36 14.59, 301.41 -0.67 M338.11 29.93 C332.03 23.48, 324.33 17.23, 300.09 -2.79 M341.04 27 C329.76 16.64, 319.97 11.51, 306.14 -2.74 M338.48 25.34 C331.85 20.39, 324.46 13.25, 306.21 -2.52 M340.23 18.25 C333.18 13.43, 325.42 7.56, 313.53 -1.64 M338.67 20.64 C330.24 13.59, 323.48 5.95, 313.76 -2.11 M338.58 16.46 C333.24 10.31, 323.96 2.59, 317.73 -2.74 M339.97 15.35 C334.02 11.37, 329.81 6.17, 318.27 -2.74 M340.1 8.92 C335.5 6.61, 331.29 3.3, 323.63 -1.31 M337.91 9.09 C333.67 5.83, 328.49 0.18, 326.05 -2.43 M339.98 5.1 C336.85 1.3, 334.41 -0.6, 330.19 -3.17 M339.19 4.82 C336.95 1.93, 333.81 0.64, 330.87 -2.43" stroke="#ced4da" stroke-width="0.5" fill="none"></path><path d="M-0.59 -1.24 C126.7 -1.03, 251.95 -1.54, 335.92 -0.82 M-0.01 -0.45 C82.67 1.21, 165.53 0.91, 337.3 -0.11 M334.98 0.17 C336.88 43.62, 335.48 88.44, 337.43 114.53 M336.62 -0.52 C335.77 41.92, 336.21 82.55, 337.15 112.88 M337.45 113.15 C224.4 113.41, 111.32 114.59, 1.34 112.49 M336.98 112.67 C244.65 110.17, 152.59 110.01, 0.27 112.16 M0.27 114.45 C1.91 67.43, 2.34 24.89, -1.57 0.24 M-0.8 113.32 C-0.99 79.45, -0.74 48.87, 0.57 0.8" stroke="#000000" stroke-width="1" fill="none"></path></g><g transform="translate(188.42728725392953 220.93545568183026) rotate(0 31 12.5)"><text x="31" y="18" font-family="Virgil, Segoe UI Emoji" font-size="20px" fill="#000000" text-anchor="middle" style="white-space: pre;" direction="ltr">server</text></g><g mask="url(#mask-onCmL6S2qexVtrYUF6NvC)" stroke-linecap="round"><g transform="translate(183.03095044852853 66.92171225458355) rotate(0 46.63058510123983 -3.5930317313227533)"><path d="M0.37 -0.57 C9.01 -2.12, 35.51 -9.03, 50.73 -8.93 C65.94 -8.82, 84.61 -1.42, 91.65 0.07 M-0.9 1.74 C7.67 0.29, 33.89 -7.73, 49.73 -7.85 C65.58 -7.97, 86.85 -0.39, 94.16 1.05" stroke="#000000" stroke-width="1" fill="none"></path></g><g transform="translate(183.03095044852853 66.92171225458355) rotate(0 46.63058510123983 -3.5930317313227533)"><path d="M72.06 2.86 C75.93 1.32, 80.7 3.17, 92.98 1.02 M72.96 2.37 C78.53 2.42, 83.74 2.14, 93.42 0.09" stroke="#000000" stroke-width="1" fill="none"></path></g><g transform="translate(183.03095044852853 66.92171225458355) rotate(0 46.63058510123983 -3.5930317313227533)"><path d="M75.74 -11.19 C78.89 -9.81, 82.9 -5.04, 92.98 1.02 M76.64 -11.68 C81.33 -8.36, 85.68 -5.37, 93.42 0.09" stroke="#000000" stroke-width="1" fill="none"></path></g></g><mask id="mask-onCmL6S2qexVtrYUF6NvC"><rect x="0" y="0" fill="#fff" width="375.41489406449864" height="175.689655080806"></rect><rect x="230.85030371640323" y="48.87636373958412" fill="#000" width="6" height="20" opacity="1"></rect></mask><g transform="translate(230.85030371640323 48.87636373958412) rotate(0 -1.1887681666348726 14.452316783676679)"><text x="3" y="14" font-family="Virgil, Segoe UI Emoji" font-size="16px" fill="#000000" text-anchor="middle" style="white-space: pre;" direction="ltr">1</text></g><g mask="url(#mask-fWqSt3jjEgaZdo-P_v0tm)" stroke-linecap="round"><g transform="translate(275.06773429036366 111.25759268714728) rotate(0 -46.04819821008982 -8.339114870279218)"><path d="M-0.73 -0.65 C-9.47 -0.83, -37.24 1.03, -52.52 -1.93 C-67.8 -4.89, -85.73 -15.76, -92.41 -18.41 M1.08 1.62 C-7.75 1.67, -37.43 2.43, -53.14 -0.76 C-68.85 -3.95, -86.63 -14.83, -93.18 -17.51" stroke="#000000" stroke-width="1" fill="none"></path></g><g transform="translate(275.06773429036366 111.25759268714728) rotate(0 -46.04819821008982 -8.339114870279218)"><path d="M-73.12 -14.22 C-79.38 -16.07, -85.72 -17.04, -93.55 -17.62 M-71.17 -15.25 C-77.78 -16.78, -81.93 -16.37, -93.12 -18.23" stroke="#000000" stroke-width="1" fill="none"></path></g><g transform="translate(275.06773429036366 111.25759268714728) rotate(0 -46.04819821008982 -8.339114870279218)"><path d="M-79.52 -1.15 C-83.81 -6.79, -88.28 -11.58, -93.55 -17.62 M-77.57 -2.19 C-82.75 -6.79, -85.39 -9.46, -93.12 -18.23" stroke="#000000" stroke-width="1" fill="none"></path></g></g><mask id="mask-fWqSt3jjEgaZdo-P_v0tm"><rect x="0" y="0" fill="#fff" width="467.46085740004946" height="228.86463208143027"></rect><rect x="215.4265439245446" y="100.03818381611177" fill="#000" width="13" height="20" opacity="1"></rect></mask><g transform="translate(215.4265439245446 100.03818381611177) rotate(0 13.592992155729235 2.880294000756294)"><text x="6.5" y="14" font-family="Virgil, Segoe UI Emoji" font-size="16px" fill="#000000" text-anchor="middle" style="white-space: pre;" direction="ltr">2</text></g><g mask="url(#mask-KB3vS8Lbi8AQt0w3fPRRy)" stroke-linecap="round"><g transform="translate(106.27365196105666 133.78305066244366) rotate(0 -2.052263951663008 34.434158435263384)"><path d="M-0.01 -0.8 C-1.21 4.58, -7.16 20.02, -6.56 31.62 C-5.96 43.21, 1.76 62.47, 3.57 68.76 M-1.48 1.39 C-2.91 7.02, -8.32 21.66, -7.61 33.04 C-6.9 44.42, 0.68 63.46, 2.77 69.67" stroke="#000000" stroke-width="1" fill="none"></path></g><g transform="translate(106.27365196105666 133.78305066244366) rotate(0 -2.052263951663008 34.434158435263384)"><path d="M-10.97 54.33 C-5.73 59.84, -2.25 66.37, 2.44 71.36 M-9.58 54.64 C-5.98 58.59, -1.61 64.06, 3.72 70.3" stroke="#000000" stroke-width="1" fill="none"></path></g><g transform="translate(106.27365196105666 133.78305066244366) rotate(0 -2.052263951663008 34.434158435263384)"><path d="M1.59 49.85 C2.38 56.93, 1.44 65.04, 2.44 71.36 M2.98 50.16 C2.77 55.33, 3.37 62.15, 3.72 70.3" stroke="#000000" stroke-width="1" fill="none"></path></g></g><mask id="mask-KB3vS8Lbi8AQt0w3fPRRy"><rect x="0" y="0" fill="#fff" width="216.26876274206552" height="303.3107303434574"></rect><rect x="93.41533072292805" y="155.61758181289156" fill="#000" width="13" height="20" opacity="1"></rect></mask><g transform="translate(93.41533072292805 155.61758181289156) rotate(0 10.806057286465602 12.599627284815483)"><text x="6.5" y="14" font-family="Virgil, Segoe UI Emoji" font-size="16px" fill="#000000" text-anchor="middle" style="white-space: pre;" direction="ltr">3</text></g><g mask="url(#mask-YTKQ4FffMnd9vaumuxGLj)" stroke-linecap="round"><g transform="translate(137.61431851366933 206.61088929757375) rotate(0 8.110151303573502 -34.86536526903615)"><path d="M-0.06 -0.77 C2.87 -7.22, 15.46 -27.2, 17.41 -38.93 C19.36 -50.67, 12.93 -65.61, 11.65 -71.17 M-1.56 1.44 C1.3 -4.81, 14.67 -25.62, 16.83 -37.5 C19 -49.39, 12.65 -64.13, 11.43 -69.85" stroke="#000000" stroke-width="1" fill="none"></path></g><g transform="translate(137.61431851366933 206.61088929757375) rotate(0 8.110151303573502 -34.86536526903615)"><path d="M20.13 -55.57 C18.17 -58.89, 15.69 -65.32, 9.84 -69.71 M21.78 -56.32 C19.07 -60.04, 15.02 -64.51, 11.19 -70.28" stroke="#000000" stroke-width="1" fill="none"></path></g><g transform="translate(137.61431851366933 206.61088929757375) rotate(0 8.110151303573502 -34.86536526903615)"><path d="M9.29 -52.41 C10.4 -56.62, 11 -63.94, 9.84 -69.71 M10.94 -53.16 C11.46 -57.75, 10.65 -63.16, 11.19 -70.28" stroke="#000000" stroke-width="1" fill="none"></path></g></g><mask id="mask-YTKQ4FffMnd9vaumuxGLj"><rect x="0" y="0" fill="#fff" width="254.32196223699384" height="377.7878858821757"></rect><rect x="148.32196223699384" y="157.87867832864617" fill="#000" width="12" height="20" opacity="1"></rect></mask><g transform="translate(148.32196223699384 157.87867832864617) rotate(0 -2.5974924197510063 13.866845699891428)"><text x="6" y="14" font-family="Virgil, Segoe UI Emoji" font-size="16px" fill="#000000" text-anchor="middle" style="white-space: pre;" direction="ltr">4</text></g><g stroke-linecap="round" transform="translate(74.76626193991751 40.1376818877759) rotate(0 52.431042389087 30.41570429711362)"><path d="M0 0 C0 0, 0 0, 0 0 M0 0 C0 0, 0 0, 0 0 M-0.37 6.32 C2.28 3.91, 2.67 2.02, 4.48 0.02 M-0.49 6.61 C1.19 4.07, 3.01 2.24, 5.24 0.76 M-1.33 12.11 C0.97 9.85, 5.53 6.52, 10.32 1.27 M-0.44 11.65 C3.38 9.12, 6.37 5.16, 10.03 0.63 M-1.1 19.9 C2.66 13.88, 7.94 10.24, 15.84 1.57 M-0.68 17.82 C2.49 15.73, 6.6 10.38, 15.09 -0.19 M1.36 25.42 C8.95 13.1, 16.47 7.3, 22.11 -1.7 M-0.43 23.65 C5.68 18.13, 9.72 12.73, 21.9 0.08 M-0.56 31.84 C8.62 21.59, 16.53 14.38, 25.37 0.9 M0.8 31.13 C5.64 22.26, 13.69 14.4, 26.45 -0.04 M-1.86 35.26 C10.65 23.93, 22.44 10.8, 30.79 1.68 M-0.27 37.69 C10.01 25.78, 18.72 15.41, 31.09 0.89 M0.75 42 C16.41 25.78, 30.32 9.59, 36.23 1.2 M0.7 42.93 C13.77 25.83, 28.71 11.18, 36.67 0 M-0.13 49.86 C11.29 36.04, 19.78 24.08, 42.43 1.21 M-0.81 49.36 C11.13 34.82, 22.76 21.78, 43.29 0.54 M-1 53.83 C10.56 45.09, 21.67 32.94, 48.82 1.69 M-0.11 53.57 C16.14 34.55, 32.86 16.18, 48.5 0.41 M0.3 59.17 C14.64 45.62, 25.07 29.58, 51.7 -2.16 M-0.99 60.86 C13.61 44.91, 27.05 28.59, 54.12 0.62 M4.1 60.27 C22.94 41.03, 41.97 18.68, 60.06 1.08 M6.22 59.59 C23.22 39.51, 43.08 17.46, 58.42 -0.13 M8.85 59.84 C25.13 44.88, 36.1 30.97, 65.77 0.04 M11.19 61.84 C29.62 38.85, 48.93 17.04, 62.93 -1.04 M17.2 59.76 C27.61 49.93, 39.38 37.33, 67.37 1.58 M16.05 59.81 C26.54 48.3, 37.82 35.12, 68.65 -0.64 M22.44 60.15 C39.78 39.49, 55.77 18.97, 76.3 -0.24 M20.44 60.33 C36.93 42.36, 52.87 26, 74.82 -0.35 M26.08 61.07 C44.46 37.44, 63.94 15.68, 80.66 0.9 M25.57 62.11 C42.79 40.71, 59.21 21.8, 79.17 0.08 M32.97 59.81 C53.49 38.29, 70.31 16.19, 83.45 0.48 M31.75 60.52 C51.31 36.66, 71.62 14.9, 84.66 -0.99 M38.21 60.14 C55.68 37.61, 76.39 16.87, 90.34 0.24 M35.95 60.32 C57.12 39.17, 74.72 18.37, 89.72 -0.52 M40.86 62.03 C62.8 36.1, 84.91 12.52, 95.89 1.14 M41.85 60.89 C53.69 47.23, 65.92 34.87, 95.04 -0.37 M47.6 62.69 C64.72 40.74, 81.62 20.77, 99.32 0.34 M48.14 60.77 C59.22 48.14, 70.56 35.66, 99.78 -0.73 M55.02 61.53 C64.51 48.23, 76.91 36.29, 106.12 0.97 M53.23 60.13 C72.98 37.34, 92.73 14.4, 105.67 1.09 M57.4 61.18 C77.59 42.32, 95.39 20.65, 105.12 8.17 M57.51 61.29 C75.37 39.23, 94.36 18.24, 104.66 6.2 M64.88 60.51 C70.97 48.64, 79.97 41.32, 106.62 12.49 M64.11 61.21 C78.27 46.18, 92.11 28.76, 105.47 13.04 M67.29 59.58 C81.41 44.56, 93.77 30.67, 104.97 17.96 M69.14 61.97 C77.33 51.39, 84.4 43.35, 104.68 18.97 M76.34 60.68 C86.54 48.83, 97.96 36.12, 104.75 26.59 M74.46 61.32 C82.48 52.56, 90.91 42.23, 105.47 24.25 M77.42 61.34 C88.63 51.97, 96.66 43.12, 103.86 31.61 M79.91 61.14 C86.5 52.64, 93.25 45.85, 105.13 30.75 M83.82 59.26 C90.93 53.94, 99.83 42, 104.48 38.73 M86.04 59.93 C91.14 53.36, 96.97 47.14, 104.6 36.79 M88.47 61.42 C95.18 55.02, 99.58 52.83, 106.72 43.86 M90.41 61.37 C94.78 55.53, 99.37 51.25, 106.52 42.26 M94.59 60.88 C98.62 56.04, 103.27 51.04, 104.62 49.93 M96.15 60.72 C98.57 57.78, 101.49 54.38, 105.54 49.27 M100.99 61.46 C101.54 59.34, 103.59 58.44, 105.62 56.4 M100.78 61.18 C102.25 59.47, 103.65 57.25, 104.96 55.54 M0.07 60.89 C0.07 60.89, 0.07 60.89, 0.07 60.89 M0.07 60.89 C0.07 60.89, 0.07 60.89, 0.07 60.89 M6.09 61.57 C5.1 59.44, 2.86 58.61, -0.13 55.89 M6.68 61 C5.34 60.06, 3.82 58.51, -0.01 55.02 M12.96 61.94 C10.8 59.65, 5.87 54.32, 1.38 50.76 M12.62 61.15 C9.27 59.05, 6.86 55.59, -0.52 49.52 M17.81 61.8 C13.53 54.13, 5.74 52.36, 1.17 45.28 M19.19 60.14 C11.61 54.57, 5.21 48.64, -1.24 45.47 M24.27 60.45 C20.38 56.17, 14.28 50.08, 1.7 39.14 M24.89 61.32 C14.69 52.91, 5.71 45.26, -0.77 40.37 M30.56 62.69 C21.75 53, 14.74 47.87, -0.4 34.96 M31.1 61.38 C19.88 52.33, 11.42 44.82, 0.25 33.91 M35.71 60.28 C23.92 50.82, 9.1 37.74, -0.56 27.49 M37.9 61.58 C26.23 50.98, 15.42 42.25, -0.13 29.14 M43.04 61.21 C28.14 49.72, 14.28 37.85, 1.32 24.63 M42.01 60.34 C27.29 47.29, 14.36 35.04, 0.56 24.7 M47.4 62.63 C34.4 47.29, 19.7 37.84, 0.61 17.9 M48.5 61.67 C36.95 51.44, 24.74 41.22, -0.64 18.74 M54.92 61.32 C43.7 49.6, 30.68 39.75, -1.02 14.65 M55.04 61.12 C33.62 41.54, 11.23 23.45, -0.57 12.7 M62.01 61.86 C39.74 44.84, 23.08 26.99, -0.63 7.83 M61.43 61.46 C45.88 47.94, 29.38 33.74, -0.45 8.51 M67.11 63.13 C53.55 47.76, 37.6 37.08, 1 4.23 M67.8 60.69 C51.78 47.09, 36.78 34.64, -0.4 2.37 M73.95 59.19 C55.17 45.6, 40.4 33.77, -0.11 -0.45 M72.41 60.41 C58.51 47.55, 42.68 34.59, 1.57 -0.68 M78.78 60.3 C56.94 41.65, 39.09 22.85, 7.85 -1.36 M79.38 60.33 C63.73 48.27, 49.53 34.92, 7.08 -1.03 M86.13 59.32 C62.32 42.03, 41.66 23.92, 14.4 -2.61 M84.93 60.21 C70.93 47.98, 55.23 35.22, 13.82 -1.11 M91.83 59.94 C73.6 45.2, 55.01 27.87, 17.91 -2.52 M90.89 61.54 C63.36 38.3, 37.61 15.02, 19.1 -1.15 M98.72 63.12 C81.64 48.43, 65.01 33.45, 24 0.14 M96.97 61.49 C72.26 37.55, 47.15 15.24, 24.84 -1.88 M103.93 60.02 C81.67 43.41, 60.85 22.76, 32.58 -1.49 M104.45 61.38 C80.74 39.37, 56.94 18.47, 31.09 -0.74 M107.12 58.37 C88.35 40.8, 67.08 24.56, 37.6 -0.09 M106.98 58.51 C92.1 44.66, 76.7 31.99, 38.25 -2.01 M108.95 54.77 C84.46 34.94, 65.21 17.08, 42.27 -1.06 M107.59 53.98 C85.13 34.82, 63.83 14.44, 44.8 -2.33 M106.44 47.68 C92.45 32.32, 73.58 18.93, 50.36 -1.65 M106.42 47.14 C87.16 31.77, 68.72 13.88, 51.13 -2.22 M106.08 41.1 C91.44 28.86, 75.93 16.31, 57.89 -0.51 M106.47 42.85 C90.15 28.74, 74.54 15.61, 55.7 -2.21 M106.66 37.64 C96.63 26.27, 85.86 17.53, 64.19 -1.43 M106.82 37.96 C91.56 23.99, 76.9 11.05, 62.61 -1.04 M106.25 30.75 C92.45 19, 82.58 9.45, 67.6 -2.97 M108.19 33.1 C94.97 22.32, 81.54 10.19, 67.79 -1.78 M105.2 26.46 C94.07 15.22, 84.5 7.79, 72.76 -1.46 M106.4 25.92 C99.19 20.86, 92.32 13.7, 74.78 -1.37 M109.14 19.67 C99.45 15.77, 92.02 7.73, 81.83 -2.05 M107.88 20.83 C98.69 13.65, 89.77 6.43, 80.52 -2.13 M107.97 15.85 C99.38 8.06, 93.12 0.78, 86.24 -0.29 M107.16 16.24 C102.28 11.29, 96.86 6.31, 85.5 -1.88 M106.9 11.31 C103.77 5.5, 95.79 0.94, 93.68 -1.86 M106.43 10.38 C103.91 8.05, 98.78 5.23, 93.35 -2.13 M106.06 6.13 C104.34 4.22, 103.11 2.79, 99.62 -0.81 M106.79 4.8 C104.59 3.68, 102.77 1.94, 99.17 -0.84" stroke="#99cffa" stroke-width="0.5" fill="none"></path><path d="M0.01 -1.49 C35.68 -0.73, 75.18 -0.79, 103.43 1.43 M-0.41 0.05 C33.93 -1.2, 67.75 0.14, 104.62 0.37 M105.16 0.93 C105.85 20.56, 104.86 39.12, 103.66 62.24 M104.56 -1 C104.93 24.44, 104.42 48.42, 104.35 60.34 M103.15 60.46 C69.43 63.61, 34.4 60.39, 1.38 60.71 M104.89 60.16 C80.85 61.41, 57.47 59.72, -0.71 61.47 M-1.63 60.78 C-1.81 39.34, -0.08 18.05, -0.78 -1.89 M-0.62 61.1 C-1.2 44.37, 0.26 27.21, 0.47 0.24" stroke="#000000" stroke-width="1" fill="none"></path></g><g transform="translate(108.19730432900451 60.55338618488963) rotate(0 19 10)"><text x="19" y="14" font-family="Virgil, Segoe UI Emoji" font-size="16px" fill="#000000" text-anchor="middle" style="white-space: pre;" direction="ltr">User</text></g><g stroke-linecap="round" transform="translate(103.95852815098397 102.86918063454573) rotate(0 22.678182501285164 5.288123070979736)"><path d="M0.68 1.51 L46.98 -1.55 L46.82 9.76 L-0.64 9.9" stroke="none" stroke-width="0" fill="#868e96"></path><path d="M0.53 1.94 C15.16 -1.14, 27.84 -0.9, 44.32 -1.36 M0.24 0.29 C17.68 -0.02, 35.15 0.24, 45.77 -0.09 M46.41 -0.08 C45.01 2.67, 44.24 6.09, 45.48 10.16 M45.57 -0.34 C45.77 2.46, 45.2 5.9, 45.85 10.83 M43.78 10.81 C34.58 10.6, 23.04 8.95, 1.46 8.66 M45.93 11.38 C36.96 10.05, 26.83 10.21, 0.12 10.78 M-0.23 11.13 C0.92 6.39, 0.32 2.57, 0.5 0.61 M-0.07 10.86 C0.31 7.21, 0.06 3.87, -0.21 0.15" stroke="#000000" stroke-width="1" fill="none"></path></g><g stroke-linecap="round" transform="translate(67.71618856078476 116.22079382117568) rotate(0 60.123612434579854 8.281128420633877)"><path d="M0 0 C0 0, 0 0, 0 0 M0 0 C0 0, 0 0, 0 0 M0.32 5.94 C1.5 4.41, 1.72 3.15, 4.46 0.87 M-0.57 6.03 C1.89 3.58, 4.1 1.7, 4.99 0.28 M1.63 10.89 C3.35 7.75, 9.74 2.82, 11.56 -1.23 M0.83 11.65 C4.82 7.14, 8.12 3.21, 10.68 0.05 M0.39 15.83 C5.33 9.75, 13.77 5.4, 14.42 -0.73 M0.43 17.48 C5.29 13.09, 7.32 8.66, 16.51 0.75 M4.61 15.9 C8.7 13.98, 12.71 7.77, 22.41 1.21 M6 17.01 C11.64 12.41, 15.52 7.19, 21.73 -0.51 M11.03 19.24 C17.53 9.96, 19.84 7.21, 24.25 0.69 M10.38 16.85 C14.3 13.01, 18.8 8.84, 25.62 -0.26 M16.86 17.23 C24.31 11.68, 28.08 3.48, 32.36 -1.71 M17.44 17.56 C22.4 11.2, 28.75 3.99, 32.19 -0.43 M22.64 18.75 C27.72 11.23, 31.21 7.13, 38.82 -0.15 M21.18 17.61 C26.49 13.33, 29.65 7.55, 36.43 0.21 M25.81 15.84 C33.89 10.03, 36.69 3.43, 41.58 1.4 M27.84 16.58 C32.78 11, 39.68 5.28, 43.06 0.52 M32.47 16.83 C35.98 9.96, 42.36 3.23, 48.29 2.22 M32.14 17.73 C36.42 12.72, 41.9 5.87, 46.79 -0.5 M39.64 15.19 C40.96 13.32, 45.53 8.36, 54.48 1.76 M38.05 16.41 C43.56 10.31, 50.09 4.18, 53.06 0.79 M42.95 18.69 C46.19 9.72, 54.92 5.45, 59.33 0.75 M43.01 16.65 C46.65 13.65, 50.79 7.89, 58.3 1.18 M47 18.24 C55.13 10.62, 57.37 5.2, 63.96 -1.91 M48.69 17.61 C51.74 13.59, 56.35 10.28, 64.68 -0.91 M52.99 17.04 C58 10.6, 64.99 5.2, 67.11 -0.09 M53.26 18.09 C56.57 14.09, 59.78 9.29, 68.33 1.1 M61.06 15.45 C62.75 12.21, 67.22 8.49, 75.44 0.58 M60.11 17.03 C63.48 11.44, 67.39 6.46, 74.14 0.39 M66 16.1 C71.12 11.83, 73.27 4.95, 79.28 -0.33 M64.12 18.01 C68.12 13.2, 73.25 6.5, 79.97 -0.68 M71.49 16.78 C74.24 10.24, 78.87 4.61, 86.84 -1.04 M70.41 17.74 C72.74 12.71, 76.27 9.35, 85.43 -0.12 M73.89 15.57 C77.69 13.72, 83.6 5.22, 92.01 -0.53 M74.57 16.61 C78.98 12.84, 81.68 9.18, 90.09 0.19 M80.45 15.7 C86.48 8.91, 91.16 3.93, 96.57 -1.57 M81.44 17.09 C85.7 11.65, 89.67 6.06, 96.27 -0.98 M85.08 18.66 C89.64 11.69, 95.16 6.05, 101.96 -1.71 M85.34 18.34 C89.43 13.72, 92.54 10.45, 101.28 0.29 M90.6 17.15 C94.69 10.9, 100.91 3.7, 107.54 -0.3 M90.82 16.64 C96.65 11.51, 102.77 5.25, 106.15 -0.47 M96.49 16.09 C101.89 9.38, 105.82 4.15, 110.31 -1.42 M96.92 17.92 C99.84 12.39, 102.76 8.31, 111.91 0.44 M101.11 17.61 C107.06 13.39, 112.33 8.88, 114.52 -0.25 M101.9 16.23 C106.18 10.98, 111.15 4.87, 115.65 0.1 M105.52 18.07 C112.37 14.72, 112.81 8.62, 122.05 -0.95 M107.53 18.3 C111.24 12.83, 116.1 7.99, 121.42 0.49 M111.93 17 C116.42 13.53, 120.04 10.42, 120.88 7.41 M112.03 16.3 C114.26 15.37, 115.85 13.42, 121.09 6.55 M117.65 17.6 C118.84 15.87, 119.77 14.35, 121.63 12.47 M117.37 17.12 C118.35 15.79, 119.93 14.72, 121.12 12.64 M0.1 16.65 C0.1 16.65, 0.1 16.65, 0.1 16.65 M0.1 16.65 C0.1 16.65, 0.1 16.65, 0.1 16.65 M5.96 16.55 C3.92 14.6, 1.42 12.77, 0.36 11.6 M5.52 15.97 C4.37 14.93, 2.75 14, -0.69 10.77 M12.3 17.51 C8.24 13.42, 4.09 10.68, -0.86 6.06 M11.67 16.89 C9.18 13, 4.74 10.95, 0.14 6.44 M19.84 17.43 C12.01 10.42, 4.82 3.27, -1.78 -1.33 M17.93 17.12 C14.68 11.99, 8.79 9.53, -1.02 -0.48 M23.33 16.74 C16.46 9.37, 11.41 7.82, 0.91 -3.09 M23.4 15.97 C17.53 9.93, 9.31 2.69, 2.28 -2.43 M28.93 17.61 C21.94 10.94, 15.21 3.21, 7.86 -0.98 M31.39 17.18 C25.98 12.79, 20.6 6.78, 7.75 -1.54 M38 17.54 C30.06 10.61, 23.71 5.65, 13.95 -4.16 M35.96 15.9 C32.07 12.79, 26.14 7.73, 14.89 -2.01 M42.22 17.88 C33.44 10.67, 27.25 5.54, 20.39 -4.28 M43.28 16.57 C34.26 9.99, 25.83 2.18, 19.85 -1.66 M47.27 18.26 C44.05 10.32, 36.71 4.52, 26.64 -4.44 M49.87 16.78 C41.59 8.88, 31.23 1.56, 25.89 -3.29 M56.12 17.47 C48.7 8.55, 39.88 4.75, 33.46 -2.88 M54.34 15.76 C49.14 12.33, 45.37 7.36, 32.88 -2.91 M60.28 18.55 C57.04 11.55, 49.7 6.93, 38.64 -2.58 M61.21 16.87 C54.37 10.45, 47.64 4.35, 39.53 -1.89 M67.54 15.09 C58.55 8.06, 50.46 5.36, 44.24 -2.31 M67.05 15.45 C59.48 8.84, 49.67 1.4, 45.18 -2.44 M72.97 15.53 C68.5 11.06, 62.13 4.49, 51.86 -3.67 M74.09 16.65 C66.19 10.87, 58.19 4.28, 51.53 -3.17 M78.66 17.59 C72.07 9.89, 62.86 1.34, 58.37 -4.63 M80.39 17.26 C74.7 11.29, 69.29 8.31, 56.87 -3.18 M84.99 17.17 C79.74 11.63, 73.06 3.82, 62.96 -3.34 M85.62 16.22 C78.06 9.27, 68.25 1.35, 63.62 -2.28 M89.88 17.38 C82.6 9.23, 74.85 2.61, 70.79 -3.7 M90.83 17.08 C85.18 11.33, 79.98 7.1, 70.55 -3.13 M96.51 14.92 C88.87 9.31, 82.28 1.31, 76.36 -2.39 M96.65 15.9 C88.32 8.36, 79.71 2.44, 74.53 -2.74 M104.37 16.33 C95.87 8.81, 91.51 5.65, 82.65 -3.9 M102.85 17.01 C95.74 9.59, 89.51 3.76, 82.31 -2.03 M108.95 16.4 C103.57 12.79, 99.92 6.09, 88.97 -2.11 M110.55 16.92 C101.44 10.23, 93.76 3.1, 86.74 -3.87 M117.04 15.14 C111.42 9.98, 104.97 7.19, 93.87 -4.08 M115.95 16.78 C109.53 9.8, 102.11 3.56, 94.28 -3.38 M121.2 14.1 C113.42 8.26, 102.45 2.8, 98.96 -3.62 M121.4 16.17 C114.66 10.17, 109.12 4.75, 99.24 -2.03 M120.51 12.13 C117.51 7.1, 110.45 3.03, 104.11 -4.3 M120.55 10.43 C115.09 5.87, 108.9 -0.27, 105.55 -3.11 M121.17 5.41 C118.18 2.08, 113.7 -1.56, 111.31 -2.53 M121.39 5.84 C119.52 3.04, 117 1.86, 112.37 -3.01" stroke="#82c91e" stroke-width="0.5" fill="none"></path><path d="M1.3 -0.81 C44.77 -1.74, 88.28 -2.53, 121.9 -0.48 M0.34 0.15 C40.96 0.06, 81.4 -0.43, 120.07 -0.6 M119.8 -0.5 C118.76 6.32, 120.6 11.63, 119.84 15.71 M120.98 -0.71 C120.16 4.27, 121.08 8.72, 119.68 17.13 M119.96 16.62 C83.58 15.11, 51.04 14.78, -1.92 15.15 M121.1 15.75 C76.44 16.87, 32.8 17.73, 0.34 16.17 M1.38 15.54 C0.47 11.7, 0.82 10.71, 0.39 0.78 M0.56 16.65 C0.2 11.42, -0.31 6.06, 0.28 0.63" stroke="#000000" stroke-width="1" fill="none"></path></g><g stroke-linecap="round" transform="translate(77.0409412852332 263.69091389024857) rotate(0 39.58767293425444 23.321947747000877)"><path d="M0 0 C0 0, 0 0, 0 0 M0 0 C0 0, 0 0, 0 0 M0.16 5.99 C0.78 4.24, 2.76 2.8, 5.78 -0.18 M-0.24 6 C1.61 4.64, 3.17 2.48, 5.31 0.36 M-0.65 12.45 C5.72 7.49, 9.17 1.47, 11.95 -1.22 M0.72 11.67 C2.19 9.77, 4.67 6.89, 11.13 -0.77 M-1.37 17.36 C7.6 12.58, 10.1 4.41, 14.58 2.08 M0.54 18.65 C3.03 13.75, 8.72 9.79, 14.8 -0.17 M-0.59 24.65 C7.72 13.86, 16.39 8.49, 21.56 -0.41 M0.95 24.56 C4.77 19.5, 10.1 12.98, 21.56 -0.57 M1.3 28.49 C5.99 22.83, 12.7 13.79, 25.58 1.07 M-0.8 30.42 C6.87 23.07, 13.53 14.13, 27.14 0.23 M1.37 37.94 C6.21 28.49, 14.12 19.27, 33.87 1.78 M-0.52 37.7 C8.16 27.45, 16.98 16.7, 32.36 0.7 M0.97 42.24 C11.81 29.27, 27.44 12.53, 36.37 -0.81 M0.61 43.05 C12.04 28.04, 24.28 14.49, 37.55 0.01 M2.07 46.62 C12.89 31.51, 27.01 18.89, 43.88 -2 M0.82 47.46 C11.27 37.7, 20.11 26.96, 43.26 0.43 M4.2 46.76 C20.95 28.24, 38.99 13.06, 47.88 -0.86 M5.28 48.33 C15.57 36.04, 24.55 25.17, 46.51 -0.11 M11.63 47.1 C28.14 28.39, 43.43 14.45, 54.74 0.74 M11.67 47.23 C28.63 29.42, 44.03 11.51, 53.6 0.45 M14.85 46.04 C34.85 28.6, 50.9 10.24, 57.51 -0.86 M16.26 48.6 C31.59 30.36, 47.43 14.08, 58.26 0.82 M24.29 46.16 C32.86 33.69, 44.32 20.91, 62.12 -2.07 M22.06 47.53 C35.2 34.21, 46.96 19.28, 64.49 -1.16 M26 47.31 C42.05 31.76, 54.96 14.17, 67.18 0.9 M27.06 48.24 C42.88 28.92, 58.67 12.19, 68.77 0.01 M31.95 47.51 C41.38 37.96, 53.5 25.69, 74.19 1.06 M32.99 46.58 C42.71 34.51, 53.54 23.69, 74.8 -0.06 M39.79 48.04 C52.78 28.52, 70.24 9.88, 79.31 1.63 M37.54 48.56 C51.75 31.3, 65.62 15.71, 79.77 0.92 M43.05 46.37 C54.75 32.29, 70.16 17.83, 77.71 7.86 M43.17 46.82 C52.64 36.17, 63.08 25.14, 79.22 7.12 M46.91 49.19 C56.19 37.3, 66.55 29.26, 78.31 14.11 M49.3 47.16 C57.31 37.8, 66.46 27.78, 80.26 11.32 M54.48 45.43 C58.7 41.16, 65.56 34.29, 79.14 19.29 M55.09 46.98 C62.53 37.1, 70.98 27.82, 79.41 17.71 M58.51 47.22 C63.93 41.63, 69.86 35.16, 78.1 22.48 M59.7 47.86 C66.99 39.64, 74.97 30.43, 79.94 25.11 M63.66 46.91 C70.58 38.95, 77.45 34.36, 80.75 32.03 M64.99 47.99 C69.16 44.11, 71.95 39, 80.08 31.5 M70.16 46.53 C72.51 43.37, 76.27 38.54, 78.29 35.75 M69.87 46.99 C72.13 43.74, 75.96 41.31, 79.15 37.16 M75.26 48.4 C76.78 47.2, 76.7 44.98, 79.95 42.95 M74.67 47.89 C75.84 46.44, 77.2 45, 79.38 42.35 M0.3 46.91 C0.3 46.91, 0.3 46.91, 0.3 46.91 M0.3 46.91 C0.3 46.91, 0.3 46.91, 0.3 46.91 M6.43 46.65 C4.64 45.13, 1.69 43.03, -0.89 41.3 M6 46.74 C4.31 45.25, 2.72 43.22, 0.05 41.09 M12.44 46.92 C8.74 44.69, 7.66 41.43, 0.05 37.26 M11.77 46.1 C10.45 44.4, 6.48 41.84, 0.85 36.06 M16.48 47.78 C9.28 42.6, 2.89 33.21, -1.13 30.12 M18.17 46.84 C11.07 41.19, 6.08 35.62, 0.34 30.55 M25.04 47.01 C16.26 40.4, 10.57 34.82, -1.11 26.88 M24.54 46.28 C15.13 39.01, 5.53 30.23, 0.63 25.22 M30.98 47.62 C24.16 42.99, 16.11 35.43, -0.33 19.04 M31.42 46.44 C23.48 41.82, 17.15 35.5, 0.8 20.29 M37.42 46.75 C28.56 38.44, 16.88 29.37, -0.87 13.7 M37.11 45.63 C22.66 35.69, 9.1 22.45, -0.11 15.33 M41.04 44.77 C27.32 35.62, 12.17 20.82, 0.47 7.56 M43.28 46.79 C32.45 36.84, 22.71 29.07, 0.52 8.4 M47.77 47.63 C32.59 32.48, 14.1 18.55, -0.85 3.17 M49.2 47.34 C36.11 35.17, 21.52 25.17, 0.47 3.82 M55.84 47.12 C35.59 30.79, 12.61 9.58, -1.32 -0.68 M55.25 46.99 C34.39 28.65, 16.32 13.12, 0.85 0.11 M59.51 47.27 C41.51 32.17, 22.63 12.14, 8.63 -2.08 M61.17 47.62 C42.31 31.04, 22.93 15.5, 6.67 0.3 M68.29 45.36 C48.77 29.01, 29.93 12.64, 14.04 -2.05 M67.8 45.76 C44.24 27.31, 23.49 9.16, 12.72 -0.57 M74.28 44.83 C52.89 30.69, 35.35 13.54, 17.5 0.83 M72.87 47.01 C57.55 31.54, 40.21 17.18, 18.21 -0.6 M79.81 45.71 C65.45 35.35, 54.37 25.64, 24.89 -0.42 M79.17 46.04 C60.27 29.55, 41.28 13.99, 24.91 -0.38 M78.48 39.66 C66.77 33.68, 57.18 22.99, 32.38 -0.96 M80.11 41 C64.03 27.85, 51.12 16.65, 30.77 -1.25 M80.23 35.39 C64.52 20.48, 48.76 7.6, 38.15 -1.68 M79.26 36.56 C66.65 26.34, 55.59 14.91, 38.03 0.65 M80.26 31.23 C71.87 23.43, 65.86 16.09, 41.67 -0.26 M79.76 29.91 C69.83 23.43, 60.04 14.19, 43.09 -1.2 M80.04 26.1 C70.42 15.83, 59.35 7.8, 50.97 -2.18 M79.87 25.26 C70.67 17.93, 64.09 12.37, 50.18 -1.21 M78.33 19.75 C70.84 13.29, 64.36 4.82, 54.31 -2.34 M78.46 19.58 C69.64 12.18, 61.3 2.99, 55.65 -1.75 M78.16 14.54 C75.94 10.18, 72.99 8.7, 63.28 -0.8 M78.49 13.86 C72.07 9.72, 65.31 3.3, 61.46 -1.46 M78.19 8.13 C77.49 8.02, 75.32 4.48, 68.31 -0.35 M78.71 9 C76.16 6.47, 73.04 4.1, 67.54 -1.05 M79.24 4.94 C78.44 2.8, 76.89 1.9, 74.01 -1.08 M79.37 4.69 C77.46 2.87, 75.13 0.52, 73.31 -0.45" stroke="#fa5252" stroke-width="0.5" fill="none"></path><path d="M0.11 -0.57 C30.39 -1.04, 64.5 -0.16, 79.91 0.49 M0.46 0.41 C26.43 -0.21, 51.87 -0.72, 79.88 1 M77.18 0.22 C79.28 12.85, 78.56 26.24, 78.2 47.45 M78.99 0.14 C80.51 11.46, 78.9 22.66, 79.11 45.86 M77.84 45.05 C55.95 44.75, 27.89 45.25, 1.28 47.79 M79.15 45.98 C49.18 46.2, 19.29 45.61, -0.94 46.43 M0.53 44.88 C0.55 31.36, 0.09 14.7, 0.48 -0.27 M0.21 46.91 C-0.72 30.4, 0.02 14.36, 0.81 -0.78" stroke="#000000" stroke-width="1" fill="none"></path></g><g transform="translate(89.03102851728727 278.21905694730617) rotate(0 28.5 10)"><text x="28.5" y="14" font-family="Virgil, Segoe UI Emoji" font-size="16px" fill="#000000" text-anchor="middle" style="white-space: pre;" direction="ltr">Webapp</text></g><g stroke-linecap="round" transform="translate(183.2930408383686 268.55000950227077) rotate(0 44.02318215135506 20.197081034860958)"><path d="M0 0 C0 0, 0 0, 0 0 M0 0 C0 0, 0 0, 0 0 M-0.79 6.91 C1.89 4.36, 2.59 2.77, 4.25 0.39 M-0.26 6.32 C1.1 5.16, 2.2 4.32, 4.7 0.16 M1.06 10.84 C4.75 6.92, 5.55 5.56, 9.85 1.13 M0.18 12.13 C3.32 8.19, 5.97 5.54, 10.19 -0.53 M-1.32 17.39 C2.53 15.69, 6.41 7.96, 16.71 1.66 M0.76 18.87 C4.27 12.14, 10.67 6.04, 14.92 -0.1 M1.41 25.37 C7.48 16.01, 12.5 8.07, 20.7 1.29 M0.74 23.64 C7.92 15.03, 14.71 7.07, 22.05 0.58 M-1.99 30.88 C4.8 25.07, 10.04 16.68, 24.65 -1.33 M-0.62 29.93 C8.71 21.45, 14.68 12.67, 26.24 1.1 M0.22 35.27 C13.16 25.77, 21.86 12.11, 32.5 -0.63 M0.05 36.55 C12.49 23.35, 24.8 8.82, 32.46 0.31 M3.39 40.6 C11.25 28.01, 22.5 16.2, 36.87 1.19 M1 40.97 C14.83 26.57, 26.83 11.63, 36.19 0.7 M5.5 42.91 C17.58 28.88, 24.12 20.74, 41.25 -0.87 M6.98 42.03 C17.77 29.02, 28.92 15.82, 42.14 -1.13 M12.21 43.72 C21.05 30.52, 28.28 20.68, 47.8 -1.57 M10.7 41.01 C23.36 26.9, 37.91 13.25, 46.51 0.13 M18.39 43.27 C28.71 30.67, 39.27 17.86, 51.59 -0.47 M16.98 42.3 C27.53 30.01, 38.35 17.51, 53.72 -1.15 M23.25 42.26 C28.86 31.72, 38.62 23.75, 56.35 -0.9 M22.22 42.69 C36.32 26.36, 49.74 8.82, 58.68 1.11 M27.87 39.59 C34.88 29.64, 44.95 21.49, 64.7 -0.98 M28.59 40.6 C39.52 26.88, 50.83 14.25, 63.54 -0.93 M31.02 41.42 C41.24 30.65, 54.56 17.41, 69.93 -0.59 M32.25 42.61 C45.65 27, 57.8 13.33, 67.94 -0.41 M39.36 42.09 C49.56 29.37, 60.09 16.76, 74.24 -0.42 M38.06 41.9 C47.13 32.28, 55.89 23.51, 73.72 0.62 M43.19 41.18 C54.99 30.01, 67.09 14.89, 80.46 -0.93 M43.89 40.83 C57.68 26.5, 71.88 10.31, 79.25 -0.21 M50.75 40.47 C56.95 32.12, 66.99 21.12, 86.37 -1.35 M49.34 41.39 C58.44 31.19, 67.11 19.47, 84.1 -1.17 M55.92 40.98 C66.23 28.42, 80.54 10.33, 87.7 2.05 M54 41.7 C63.74 30.46, 71.03 20.94, 88.7 0.91 M60.48 39.94 C65.78 34.86, 72.63 28.74, 89.19 8.75 M60.19 40.53 C67.72 31.27, 74.92 22.56, 89.74 6.83 M65.88 39.8 C70.02 31.85, 79.95 25.06, 91.37 13.62 M65.2 41.8 C72.95 32.9, 81.67 22.34, 89.57 12.22 M71.46 41.21 C77 36.52, 79.98 28.07, 88.5 19.31 M70.07 41.03 C77.99 33.58, 85.34 24.53, 88.6 19.42 M74.22 40.09 C77.21 36.18, 81.69 35.82, 90.07 25.43 M75.83 41.95 C78.36 38.4, 80.91 34.34, 89.3 26.13 M79.7 40.72 C84.66 38.03, 86.65 33.91, 88.41 30.32 M80.44 40.95 C83.14 37.75, 86.38 35, 89.61 31.88 M86.03 41.07 C87.19 40.27, 88.21 38.93, 89.6 37.71 M85.87 41.43 C87.18 39.99, 88.32 38.62, 89.13 37.87 M0.38 40.72 C0.38 40.72, 0.38 40.72, 0.38 40.72 M0.38 40.72 C0.38 40.72, 0.38 40.72, 0.38 40.72 M6.33 39.91 C4.07 39.2, 1.63 36.84, -0.51 34.51 M5.66 40.15 C4.96 39.08, 3.66 37.9, 0.38 34.78 M11.12 39.32 C7.25 36.41, 4.42 33.31, -0.91 30.39 M13.13 40.96 C8.67 36.95, 4.27 33.6, 0.64 30.35 M19.7 41.67 C10.97 36.44, 7.99 29.05, -1.5 24.76 M17.08 39.59 C13.74 35.68, 7.74 32.05, 0.57 24.55 M23.3 40.51 C16.17 32.65, 6.71 25.39, 1.24 20.74 M24.55 40.97 C19.4 35.61, 11.78 30.64, 0.63 19.96 M29.4 39.01 C19.96 30.94, 12.77 22.65, 0.59 15.19 M30.16 39.85 C24.11 35.53, 18.26 29.07, 0.09 12.93 M35.11 39.87 C30.06 32.49, 20.88 26.42, -0.56 9.76 M36.48 40.54 C26.43 29.53, 15.28 20.17, 0.75 8.48 M42.06 41.98 C26.13 25.93, 10.85 15.19, 0.94 4.66 M41.95 41.43 C25.85 25.07, 9.31 11.7, 0.52 3.68 M48.16 38.81 C30.9 27.14, 18.54 13.31, 0.3 -0.36 M49.09 40.95 C33.33 26.68, 17.58 11.9, 1.68 -2.02 M54.6 38.68 C41.62 25.91, 25.58 15.79, 7.51 -1.06 M54.05 41.3 C37 25.8, 19.99 8.88, 8.13 -0.19 M61.6 39.18 C51.02 28.83, 39.63 21.64, 13.05 0.53 M60.85 40.33 C51.02 31.07, 40.5 22.16, 13.58 -0.79 M67.67 40.09 C56.05 33.29, 47.98 22.95, 18.2 -1.88 M67.08 40.05 C50.44 26.56, 34.96 12.86, 20.39 -0.58 M72.84 40.39 C61.08 29.56, 48.87 18.19, 25.53 -0.95 M73.73 41.07 C60.61 29.62, 46.59 18.32, 24.49 -1.82 M78.44 40.65 C70.57 31.44, 58.91 23.65, 29.89 0.47 M79.38 40.52 C66.71 28.33, 55.2 18.08, 30.99 -0.49 M86.06 39.3 C72.53 27.04, 57.95 18.67, 38.16 -0.19 M85.73 39.79 C67.98 25.95, 48.25 8.73, 38.28 -0.39 M91.07 37.02 C73.27 26.05, 58.96 14.38, 44.5 -0.3 M89.56 38.47 C79.51 29.96, 69.78 21.7, 43.91 -0.7 M88.86 32.41 C76.78 19.28, 60.65 10.01, 49.6 0.97 M89.52 33.47 C77.7 21.36, 64.93 10.5, 50.28 -1.47 M90.66 26.79 C79.26 18.35, 72.33 10.09, 56.43 -2.97 M90.41 27.37 C81.79 20.03, 71.87 13.3, 54.89 -1.75 M90.94 23.51 C83.14 15.41, 74.27 7.17, 61.26 -1.86 M89.11 23.16 C83.31 16.74, 75.7 12.2, 61.86 -1.83 M90.44 16.11 C85.56 13.71, 80.48 8.41, 69.37 -2.19 M90.1 17.98 C84.01 12.19, 79.27 8.28, 68.17 -1.3 M91.47 13.3 C85.33 6.73, 79.39 3.81, 74.31 -2.22 M89.25 11.54 C83.83 8.53, 79.69 3.75, 73.38 -0.63 M89.53 5.99 C87.93 4.39, 84.55 4, 80.88 0.17 M89.78 6.41 C87.35 4.91, 83.63 2.24, 79.83 -0.81 M89.51 1.56 C88.73 0.9, 87.78 0.06, 86.13 -1.6 M89.59 1.95 C88.83 1.08, 87.64 0.11, 86.26 -1.26" stroke="#4c6ef5" stroke-width="0.5" fill="none"></path><path d="M1.65 -0.48 C24.62 1.09, 48.35 1.27, 88.34 0.93 M-0.18 -0.6 C30.7 1.08, 59.92 -0.19, 87.74 -1 M87.56 -1.03 C87.12 13.38, 86.8 26.91, 86.34 40.03 M87.36 0.69 C88.36 11.88, 88.54 25.2, 88.07 39.72 M86.12 38.98 C69.93 40.7, 50.86 41.26, -1.63 40.34 M88.39 40 C66.51 40.36, 47.38 41.41, -0.62 40.66 M0.47 41.34 C0.29 31.56, 0.89 24.64, 0.2 0.42 M0.34 41.15 C0.98 26.42, 0.89 13.59, -0.32 -0.34" stroke="#000000" stroke-width="1" fill="none"></path></g><g transform="translate(187.6790365969241 278.21905694730617) rotate(0 40.5 10)"><text x="40.5" y="14" font-family="Virgil, Segoe UI Emoji" font-size="16px" fill="#000000" text-anchor="middle" style="white-space: pre;" direction="ltr">Database</text></g><g stroke-linecap="round" transform="translate(299.37938007230105 269.55431457033524) rotate(0 34.43784640193235 19.3270987207585)"><path d="M0 0 C0 0, 0 0, 0 0 M0 0 C0 0, 0 0, 0 0 M-0.08 5.78 C0.86 4.27, 2.71 2.3, 5.27 0.36 M0.1 6.77 C0.87 4.51, 2.74 3.41, 5.01 0.59 M-1.17 13.43 C1.62 10.56, 4.03 6.42, 11.27 0.06 M0.62 11.72 C2.88 7.89, 6.15 5.42, 10.87 -0.51 M-1.16 16.92 C4.96 15.16, 8.18 7.56, 15.42 2.11 M0.39 17.66 C4.72 11.88, 11.09 6.03, 14.69 0.9 M-1.29 23.73 C7.31 16.68, 16.48 6.14, 22.7 0.87 M0.06 24.02 C6.36 18.65, 9.95 11.13, 21.76 -1.07 M-0.69 28.92 C6.9 19.11, 16.77 10.4, 27.02 -0.96 M-0.83 30.51 C6.15 23.91, 13.12 15.47, 26.05 0.53 M-0.92 38.15 C7.05 27.93, 15.15 20.47, 32.99 0.5 M0.22 37.3 C8.73 27.14, 16.62 16.38, 32.71 0.87 M2.73 39.03 C11.92 30.2, 22.7 17.04, 35.9 -0.64 M2.3 39.45 C11.43 28.96, 21.99 15.77, 36.37 -0.21 M5.59 41.43 C18.9 24.86, 33.62 12.2, 43.95 0.94 M7.97 40.64 C19.37 24.53, 32.19 10, 41.89 0.25 M11.32 39.67 C26.85 22.63, 41.57 8, 45.98 -1.22 M13.45 41.01 C20.05 31.14, 28.83 22.8, 46.63 0.88 M19.54 40.57 C29.9 23.95, 45.21 9.4, 53.75 -0.35 M18.7 40.53 C32.15 23.24, 44.77 8.86, 53.16 0.42 M24.73 40.11 C33.11 26.16, 48.05 13.21, 57.67 0.52 M22.94 39.34 C37.76 24.9, 50.51 7.69, 57.55 0.28 M28.07 40.55 C37.22 31.36, 44.28 25.28, 65.06 1.59 M28.86 40.2 C35.98 30.79, 44.17 22.1, 64.11 -1.04 M35.61 39.32 C45.5 27.76, 55.42 15.99, 67.89 -0.72 M33.39 41.02 C46.88 23.86, 61.53 8.06, 69.62 0.67 M38.09 42.09 C49.14 28.29, 58.15 15.54, 67.79 5.25 M39.94 41.36 C49.11 28.72, 60.94 14.64, 68.85 5.74 M45.13 39.74 C52.44 31.14, 59.9 24.73, 67.55 13.34 M45.15 40.89 C49.72 33.44, 54.77 27.05, 68.57 13.09 M49.02 41.39 C56.07 33.55, 58.83 27.97, 68.95 19.36 M49.16 39.95 C54.66 32.57, 62.38 26.29, 67.84 19.58 M54.96 39.35 C57.39 36.89, 61.83 30.8, 69.07 24.36 M54.32 40.02 C58.75 35.34, 62.8 29.95, 68.87 24.68 M60.59 41.57 C62.32 39.07, 63.95 36.15, 67.79 31.41 M59.76 40.29 C62.63 37.96, 64.08 35.93, 68.59 31.06 M66.23 39.94 C67.08 39.46, 67.44 38.54, 69.59 36.59 M66.11 39.97 C66.95 38.63, 67.96 37.57, 68.94 36.43 M-0.27 38.42 C-0.27 38.42, -0.27 38.42, -0.27 38.42 M-0.27 38.42 C-0.27 38.42, -0.27 38.42, -0.27 38.42 M6.19 39.26 C5.22 37.33, 2.75 35.58, -0.51 33.93 M5.95 38.53 C4.18 37.08, 2.26 35.46, 0.46 33.08 M12.02 39.05 C7.74 34.7, 5.42 31.35, -0.72 26.72 M13.13 38.38 C9.39 36.53, 6.31 32.11, -0.36 28.12 M17.4 39.95 C16.16 35.2, 11.58 32.52, 1.99 23.12 M18.65 38.13 C13.12 34.75, 8.28 30.79, 0.61 22.71 M24.05 37.44 C14.79 32.12, 9.91 24.82, 0.83 17.44 M23.74 39.12 C19.74 34.2, 14.09 29, -0.25 17.54 M28.49 37.8 C21.51 30.66, 13.58 27.21, -0.11 10.35 M30.94 38.04 C23.31 30.9, 15.33 23.96, 0.98 11.36 M37.64 39.14 C27.03 31.86, 21.35 23.37, 0.61 8.3 M36.79 38.94 C24 27.82, 10.99 16.16, -0.2 7.35 M44.45 37.8 C25.73 25.54, 10.38 10.5, 0.72 -0.42 M42.18 39.04 C33.15 29.87, 22.56 20.87, 0.86 0.96 M47.13 37.37 C35.44 27.28, 19.42 12.65, 3.48 -1.95 M48.12 39.19 C32.12 24.87, 15.45 10.7, 1.65 -2.86 M56.45 37.59 C45.88 31.13, 33.41 19.94, 9.68 -3.26 M55.46 38.38 C45.35 29.37, 34.17 21.08, 9.04 -2.57 M59.43 36.83 C46.73 27.62, 34.61 14.47, 12.13 -2.3 M61.19 37.58 C45.84 24.53, 30.94 12.17, 14.19 -2.68 M66.4 40.29 C51.05 24.82, 34.61 9.94, 19.68 -3.9 M67.9 39.56 C49.62 23.26, 31.23 8.07, 21.2 -2.2 M71.68 35.79 C59.84 28.13, 50.96 16.42, 24.44 -1.3 M71 36.11 C54.27 21.18, 37.01 7.17, 26.73 -2.57 M71.66 32.65 C62.51 23.73, 55.7 16.67, 32.83 -3.91 M71.29 30.44 C56.83 19.38, 40.7 5.95, 31.57 -2.01 M72.26 27.38 C63.16 21.12, 54.57 11.16, 37.31 -2.85 M70.95 26.4 C62.62 19, 52.8 10.82, 38.87 -1.53 M70.93 20.05 C62.1 13.37, 56.22 9.15, 43.57 -2.07 M70.02 20.3 C64.69 14.81, 56.18 7.31, 43.87 -2.54 M71.38 15.34 C65.13 10.59, 58.32 5.93, 49.89 -1.3 M69.61 15.47 C62.9 8.77, 55.76 2.38, 51.71 -2.3 M70.64 10.72 C64.53 7.54, 60.67 0.21, 54.88 -1.71 M71.43 10 C65.54 6.43, 61.05 2.12, 55.63 -2.1 M70.16 5.4 C68.65 3.12, 67.5 0.91, 63.47 -1.83 M69.9 4.21 C68.75 3.2, 66.9 1.42, 62.58 -1.76" stroke="#40c057" stroke-width="0.5" fill="none"></path><path d="M0.57 0.67 C19.31 0.76, 38.85 0.65, 68.7 -0.35 M-0.08 -0.27 C16.23 -1.69, 33.17 -0.58, 68.48 -0.24 M67.59 1.78 C66.98 9.23, 68.96 21.05, 69.82 37.28 M68.99 -0.14 C68.88 13.6, 68.05 29.26, 67.92 37.69 M70.48 40.37 C51.46 39, 35.98 39.29, 0.41 39.34 M69.4 39.49 C50.28 38.77, 32.03 38.98, 0.58 38.89 M1.08 40.02 C0.11 25.65, 0.44 11, 0.55 0.68 M0.73 38.25 C-0.64 23.8, -0.71 10.25, -0.71 0.56" stroke="#000000" stroke-width="1" fill="none"></path></g><g transform="translate(310.18249507483597 278.21905694730617) rotate(0 24 10)"><text x="24" y="14" font-family="Virgil, Segoe UI Emoji" font-size="16px" fill="#000000" text-anchor="middle" style="white-space: pre;" direction="ltr">Cache</text></g><g transform="translate(143.41580068623944 352.5380397702927) rotate(0 79.5 8.5)"><text x="79.5" y="12" font-family="Virgil, Segoe UI Emoji" font-size="13.833752208767338px" fill="#000000" text-anchor="middle" style="white-space: pre;" direction="ltr">fig. Single server setup</text></g></svg>